G04 #@! TF.FileFunction,Copper,L2,Bot,Signal*
%FSLAX46Y46*%
G04 Gerber Fmt 4.6, Leading zero omitted, Abs format (unit mm)*
G04 Created by KiCad (PCBNEW (after 2015-mar-04 BZR unknown)-product) date Sat 20 Jun 2015 01:48:00 AM EDT*
%MOMM*%
G01*
G04 APERTURE LIST*
%ADD10C,0.100000*%
%ADD11R,2.032000X2.032000*%
%ADD12O,2.032000X2.032000*%
%ADD13R,1.727200X2.032000*%
%ADD14O,1.727200X2.032000*%
%ADD15R,2.032000X1.727200*%
%ADD16O,2.032000X1.727200*%
%ADD17C,2.300000*%
%ADD18C,2.500000*%
%ADD19C,0.508000*%
%ADD20C,0.300000*%
%ADD21C,0.152400*%
G04 APERTURE END LIST*
D10*
D11*
X120500000Y-82500000D03*
D12*
X120500000Y-79960000D03*
D13*
X129000000Y-66000000D03*
D14*
X131540000Y-66000000D03*
X134080000Y-66000000D03*
D15*
X120500000Y-76500000D03*
D16*
X120500000Y-73960000D03*
X120500000Y-71420000D03*
D17*
X141500000Y-65500000D03*
D18*
X144040000Y-62960000D03*
X138960000Y-62960000D03*
X138960000Y-68040000D03*
X144040000Y-68040000D03*
D19*
X127250000Y-71700000D03*
X128250000Y-71700000D03*
X138750000Y-75300000D03*
X135500000Y-79600000D03*
X136500000Y-81600000D03*
X137050000Y-84350000D03*
X131950000Y-84750000D03*
X128000000Y-84000000D03*
X127350000Y-80000000D03*
X132850000Y-79750000D03*
X132600000Y-78500000D03*
X137500000Y-69750000D03*
X137250000Y-73300000D03*
X133650000Y-72550000D03*
X130800000Y-72350000D03*
X134450000Y-68850000D03*
X126000000Y-65950000D03*
X120000000Y-68800000D03*
X121750000Y-69450000D03*
X136300000Y-80100000D03*
X135900000Y-81150000D03*
X138850000Y-72900000D03*
X138700000Y-71200000D03*
X127250000Y-74950000D03*
X128300000Y-74950000D03*
X133250000Y-74900000D03*
X135750000Y-75050000D03*
X135700000Y-73950000D03*
X136450000Y-75000000D03*
D20*
X128250000Y-71700000D02*
X127250000Y-71700000D01*
X132850000Y-79750000D02*
X132750000Y-79750000D01*
X137250000Y-73300000D02*
X137300000Y-73300000D01*
X136300000Y-80750000D02*
X136300000Y-80100000D01*
X135900000Y-81150000D02*
X136300000Y-80750000D01*
X138850000Y-71350000D02*
X138850000Y-72900000D01*
X138700000Y-71200000D02*
X138850000Y-71350000D01*
D21*
X128300000Y-74950000D02*
X127250000Y-74950000D01*
X135600000Y-74900000D02*
X133250000Y-74900000D01*
X135750000Y-75050000D02*
X135600000Y-74900000D01*
X135700000Y-74250000D02*
X135700000Y-73950000D01*
X136450000Y-75000000D02*
X135700000Y-74250000D01*
G36*
X145721400Y-86221400D02*
X145537189Y-86221400D01*
X145537189Y-68216591D01*
X145537189Y-63136591D01*
X145490801Y-62550199D01*
X145355644Y-62223902D01*
X145183588Y-62067859D01*
X144932141Y-62319306D01*
X144932141Y-61816412D01*
X144776098Y-61644356D01*
X144216591Y-61462811D01*
X143630199Y-61509199D01*
X143303902Y-61644356D01*
X143147859Y-61816412D01*
X144040000Y-62708553D01*
X144932141Y-61816412D01*
X144932141Y-62319306D01*
X144291447Y-62960000D01*
X145183588Y-63852141D01*
X145355644Y-63696098D01*
X145537189Y-63136591D01*
X145537189Y-68216591D01*
X145490801Y-67630199D01*
X145355644Y-67303902D01*
X145183588Y-67147859D01*
X144932141Y-67399306D01*
X144932141Y-66896412D01*
X144932141Y-64103588D01*
X144040000Y-63211447D01*
X143788553Y-63462894D01*
X143788553Y-62960000D01*
X142896412Y-62067859D01*
X142724356Y-62223902D01*
X142542811Y-62783409D01*
X142589199Y-63369801D01*
X142724356Y-63696098D01*
X142896412Y-63852141D01*
X143788553Y-62960000D01*
X143788553Y-63462894D01*
X143147859Y-64103588D01*
X143303902Y-64275644D01*
X143863409Y-64457189D01*
X144449801Y-64410801D01*
X144776098Y-64275644D01*
X144932141Y-64103588D01*
X144932141Y-66896412D01*
X144776098Y-66724356D01*
X144216591Y-66542811D01*
X143630199Y-66589199D01*
X143303902Y-66724356D01*
X143147859Y-66896412D01*
X144040000Y-67788553D01*
X144932141Y-66896412D01*
X144932141Y-67399306D01*
X144291447Y-68040000D01*
X145183588Y-68932141D01*
X145355644Y-68776098D01*
X145537189Y-68216591D01*
X145537189Y-86221400D01*
X144932141Y-86221400D01*
X144932141Y-69183588D01*
X144040000Y-68291447D01*
X143788553Y-68542894D01*
X143788553Y-68040000D01*
X142896412Y-67147859D01*
X142878838Y-67163797D01*
X142878838Y-65226983D01*
X142669401Y-64720106D01*
X142281934Y-64331962D01*
X141775423Y-64121640D01*
X141226983Y-64121162D01*
X140720106Y-64330599D01*
X140457189Y-64593057D01*
X140457189Y-63136591D01*
X140410801Y-62550199D01*
X140275644Y-62223902D01*
X140103588Y-62067859D01*
X139852141Y-62319306D01*
X139852141Y-61816412D01*
X139696098Y-61644356D01*
X139136591Y-61462811D01*
X138550199Y-61509199D01*
X138223902Y-61644356D01*
X138067859Y-61816412D01*
X138960000Y-62708553D01*
X139852141Y-61816412D01*
X139852141Y-62319306D01*
X139211447Y-62960000D01*
X140103588Y-63852141D01*
X140275644Y-63696098D01*
X140457189Y-63136591D01*
X140457189Y-64593057D01*
X140331962Y-64718066D01*
X140121640Y-65224577D01*
X140121162Y-65773017D01*
X140330599Y-66279894D01*
X140718066Y-66668038D01*
X141224577Y-66878360D01*
X141773017Y-66878838D01*
X142279894Y-66669401D01*
X142668038Y-66281934D01*
X142878360Y-65775423D01*
X142878838Y-65226983D01*
X142878838Y-67163797D01*
X142724356Y-67303902D01*
X142542811Y-67863409D01*
X142589199Y-68449801D01*
X142724356Y-68776098D01*
X142896412Y-68932141D01*
X143788553Y-68040000D01*
X143788553Y-68542894D01*
X143147859Y-69183588D01*
X143303902Y-69355644D01*
X143863409Y-69537189D01*
X144449801Y-69490801D01*
X144776098Y-69355644D01*
X144932141Y-69183588D01*
X144932141Y-86221400D01*
X140457189Y-86221400D01*
X140457189Y-68216591D01*
X140410801Y-67630199D01*
X140275644Y-67303902D01*
X140103588Y-67147859D01*
X139852141Y-67399306D01*
X139852141Y-66896412D01*
X139852141Y-64103588D01*
X138960000Y-63211447D01*
X138708553Y-63462894D01*
X138708553Y-62960000D01*
X137816412Y-62067859D01*
X137644356Y-62223902D01*
X137462811Y-62783409D01*
X137509199Y-63369801D01*
X137644356Y-63696098D01*
X137816412Y-63852141D01*
X138708553Y-62960000D01*
X138708553Y-63462894D01*
X138067859Y-64103588D01*
X138223902Y-64275644D01*
X138783409Y-64457189D01*
X139369801Y-64410801D01*
X139696098Y-64275644D01*
X139852141Y-64103588D01*
X139852141Y-66896412D01*
X139696098Y-66724356D01*
X139136591Y-66542811D01*
X138550199Y-66589199D01*
X138223902Y-66724356D01*
X138067859Y-66896412D01*
X138960000Y-67788553D01*
X139852141Y-66896412D01*
X139852141Y-67399306D01*
X139211447Y-68040000D01*
X140103588Y-68932141D01*
X140275644Y-68776098D01*
X140457189Y-68216591D01*
X140457189Y-86221400D01*
X139852141Y-86221400D01*
X139852141Y-69183588D01*
X138960000Y-68291447D01*
X138708553Y-68542894D01*
X138708553Y-68040000D01*
X137816412Y-67147859D01*
X137644356Y-67303902D01*
X137462811Y-67863409D01*
X137509199Y-68449801D01*
X137644356Y-68776098D01*
X137816412Y-68932141D01*
X138708553Y-68040000D01*
X138708553Y-68542894D01*
X138067859Y-69183588D01*
X138223902Y-69355644D01*
X138783409Y-69537189D01*
X139369801Y-69490801D01*
X139696098Y-69355644D01*
X139852141Y-69183588D01*
X139852141Y-86221400D01*
X139332684Y-86221400D01*
X139332684Y-72804426D01*
X139259367Y-72626986D01*
X139228600Y-72596165D01*
X139228600Y-71350005D01*
X139228600Y-71350000D01*
X139228601Y-71350000D01*
X139199781Y-71205116D01*
X139182618Y-71179430D01*
X139182684Y-71104426D01*
X139109367Y-70926986D01*
X138973728Y-70791110D01*
X138796416Y-70717484D01*
X138604426Y-70717316D01*
X138426986Y-70790633D01*
X138291110Y-70926272D01*
X138217484Y-71103584D01*
X138217316Y-71295574D01*
X138290633Y-71473014D01*
X138426272Y-71608890D01*
X138471400Y-71627628D01*
X138471400Y-72596034D01*
X138441110Y-72626272D01*
X138367484Y-72803584D01*
X138367316Y-72995574D01*
X138440633Y-73173014D01*
X138576272Y-73308890D01*
X138753584Y-73382516D01*
X138945574Y-73382684D01*
X139123014Y-73309367D01*
X139258890Y-73173728D01*
X139332516Y-72996416D01*
X139332684Y-72804426D01*
X139332684Y-86221400D01*
X136932684Y-86221400D01*
X136932684Y-74904426D01*
X136859367Y-74726986D01*
X136723728Y-74591110D01*
X136546416Y-74517484D01*
X136398406Y-74517354D01*
X136106833Y-74225781D01*
X136108890Y-74223728D01*
X136182516Y-74046416D01*
X136182684Y-73854426D01*
X136109367Y-73676986D01*
X135973728Y-73541110D01*
X135796416Y-73467484D01*
X135604426Y-73467316D01*
X135426986Y-73540633D01*
X135291110Y-73676272D01*
X135217484Y-73853584D01*
X135217316Y-74045574D01*
X135290633Y-74223014D01*
X135414517Y-74347115D01*
X135418402Y-74366642D01*
X135484474Y-74465526D01*
X135606193Y-74587245D01*
X135586941Y-74595200D01*
X135152738Y-74595200D01*
X135152738Y-66348022D01*
X135152738Y-65651978D01*
X134996219Y-65256350D01*
X134700214Y-64950734D01*
X134424190Y-64811050D01*
X134257800Y-64827936D01*
X134257800Y-65822200D01*
X135112983Y-65822200D01*
X135152738Y-65651978D01*
X135152738Y-66348022D01*
X135112983Y-66177800D01*
X134257800Y-66177800D01*
X134257800Y-67172064D01*
X134424190Y-67188950D01*
X134700214Y-67049266D01*
X134996219Y-66743650D01*
X135152738Y-66348022D01*
X135152738Y-74595200D01*
X133902200Y-74595200D01*
X133902200Y-67172064D01*
X133902200Y-66177800D01*
X133902200Y-65822200D01*
X133902200Y-64827936D01*
X133735810Y-64811050D01*
X133459786Y-64950734D01*
X133163781Y-65256350D01*
X133007262Y-65651978D01*
X133047017Y-65822200D01*
X133902200Y-65822200D01*
X133902200Y-66177800D01*
X133047017Y-66177800D01*
X133007262Y-66348022D01*
X133163781Y-66743650D01*
X133459786Y-67049266D01*
X133735810Y-67188950D01*
X133902200Y-67172064D01*
X133902200Y-74595200D01*
X133627636Y-74595200D01*
X133523728Y-74491110D01*
X133346416Y-74417484D01*
X133154426Y-74417316D01*
X132976986Y-74490633D01*
X132841110Y-74626272D01*
X132767484Y-74803584D01*
X132767316Y-74995574D01*
X132840633Y-75173014D01*
X132976272Y-75308890D01*
X133153584Y-75382516D01*
X133345574Y-75382684D01*
X133523014Y-75309367D01*
X133627763Y-75204800D01*
X135291787Y-75204800D01*
X135340633Y-75323014D01*
X135476272Y-75458890D01*
X135653584Y-75532516D01*
X135845574Y-75532684D01*
X136023014Y-75459367D01*
X136125015Y-75357543D01*
X136176272Y-75408890D01*
X136353584Y-75482516D01*
X136545574Y-75482684D01*
X136723014Y-75409367D01*
X136858890Y-75273728D01*
X136932516Y-75096416D01*
X136932684Y-74904426D01*
X136932684Y-86221400D01*
X136782684Y-86221400D01*
X136782684Y-80004426D01*
X136709367Y-79826986D01*
X136573728Y-79691110D01*
X136396416Y-79617484D01*
X136204426Y-79617316D01*
X136026986Y-79690633D01*
X135891110Y-79826272D01*
X135817484Y-80003584D01*
X135817316Y-80195574D01*
X135890633Y-80373014D01*
X135921400Y-80403834D01*
X135921400Y-80593178D01*
X135847225Y-80667353D01*
X135804426Y-80667316D01*
X135626986Y-80740633D01*
X135491110Y-80876272D01*
X135417484Y-81053584D01*
X135417316Y-81245574D01*
X135490633Y-81423014D01*
X135626272Y-81558890D01*
X135803584Y-81632516D01*
X135995574Y-81632684D01*
X136173014Y-81559367D01*
X136308890Y-81423728D01*
X136382516Y-81246416D01*
X136382554Y-81202867D01*
X136567707Y-81017713D01*
X136567710Y-81017711D01*
X136567711Y-81017711D01*
X136649781Y-80894884D01*
X136678600Y-80750000D01*
X136678600Y-80403965D01*
X136708890Y-80373728D01*
X136782516Y-80196416D01*
X136782684Y-80004426D01*
X136782684Y-86221400D01*
X132632200Y-86221400D01*
X132632200Y-66176783D01*
X132632200Y-65823217D01*
X132549061Y-65405250D01*
X132312302Y-65050915D01*
X131957967Y-64814156D01*
X131540000Y-64731017D01*
X131122033Y-64814156D01*
X130767698Y-65050915D01*
X130530939Y-65405250D01*
X130447800Y-65823217D01*
X130447800Y-66176783D01*
X130530939Y-66594750D01*
X130767698Y-66949085D01*
X131122033Y-67185844D01*
X131540000Y-67268983D01*
X131957967Y-67185844D01*
X132312302Y-66949085D01*
X132549061Y-66594750D01*
X132632200Y-66176783D01*
X132632200Y-86221400D01*
X130096679Y-86221400D01*
X130096679Y-67016000D01*
X130096679Y-64984000D01*
X130079767Y-64896836D01*
X130029442Y-64820226D01*
X129953471Y-64768944D01*
X129863600Y-64750921D01*
X128136400Y-64750921D01*
X128049236Y-64767833D01*
X127972626Y-64818158D01*
X127921344Y-64894129D01*
X127903321Y-64984000D01*
X127903321Y-67016000D01*
X127920233Y-67103164D01*
X127970558Y-67179774D01*
X128046529Y-67231056D01*
X128136400Y-67249079D01*
X129863600Y-67249079D01*
X129950764Y-67232167D01*
X130027374Y-67181842D01*
X130078656Y-67105871D01*
X130096679Y-67016000D01*
X130096679Y-86221400D01*
X128782684Y-86221400D01*
X128782684Y-74854426D01*
X128732684Y-74733417D01*
X128732684Y-71604426D01*
X128659367Y-71426986D01*
X128523728Y-71291110D01*
X128346416Y-71217484D01*
X128154426Y-71217316D01*
X127976986Y-71290633D01*
X127946165Y-71321400D01*
X127553965Y-71321400D01*
X127523728Y-71291110D01*
X127346416Y-71217484D01*
X127154426Y-71217316D01*
X126976986Y-71290633D01*
X126841110Y-71426272D01*
X126767484Y-71603584D01*
X126767316Y-71795574D01*
X126840633Y-71973014D01*
X126976272Y-72108890D01*
X127153584Y-72182516D01*
X127345574Y-72182684D01*
X127523014Y-72109367D01*
X127553834Y-72078600D01*
X127946034Y-72078600D01*
X127976272Y-72108890D01*
X128153584Y-72182516D01*
X128345574Y-72182684D01*
X128523014Y-72109367D01*
X128658890Y-71973728D01*
X128732516Y-71796416D01*
X128732684Y-71604426D01*
X128732684Y-74733417D01*
X128709367Y-74676986D01*
X128573728Y-74541110D01*
X128396416Y-74467484D01*
X128204426Y-74467316D01*
X128026986Y-74540633D01*
X127922236Y-74645200D01*
X127627636Y-74645200D01*
X127523728Y-74541110D01*
X127346416Y-74467484D01*
X127154426Y-74467316D01*
X126976986Y-74540633D01*
X126841110Y-74676272D01*
X126767484Y-74853584D01*
X126767316Y-75045574D01*
X126840633Y-75223014D01*
X126976272Y-75358890D01*
X127153584Y-75432516D01*
X127345574Y-75432684D01*
X127523014Y-75359367D01*
X127627763Y-75254800D01*
X127922363Y-75254800D01*
X128026272Y-75358890D01*
X128203584Y-75432516D01*
X128395574Y-75432684D01*
X128573014Y-75359367D01*
X128708890Y-75223728D01*
X128782516Y-75046416D01*
X128782684Y-74854426D01*
X128782684Y-86221400D01*
X121768983Y-86221400D01*
X121768983Y-79960000D01*
X121768983Y-73960000D01*
X121688950Y-73557647D01*
X121688950Y-71764190D01*
X121688950Y-71075810D01*
X121549266Y-70799786D01*
X121243650Y-70503781D01*
X120848022Y-70347262D01*
X120677800Y-70387017D01*
X120677800Y-71242200D01*
X121672064Y-71242200D01*
X121688950Y-71075810D01*
X121688950Y-71764190D01*
X121672064Y-71597800D01*
X120677800Y-71597800D01*
X120677800Y-72452983D01*
X120848022Y-72492738D01*
X121243650Y-72336219D01*
X121549266Y-72040214D01*
X121688950Y-71764190D01*
X121688950Y-73557647D01*
X121685844Y-73542033D01*
X121449085Y-73187698D01*
X121094750Y-72950939D01*
X120676783Y-72867800D01*
X120323217Y-72867800D01*
X120322200Y-72868002D01*
X120322200Y-72452983D01*
X120322200Y-71597800D01*
X120322200Y-71242200D01*
X120322200Y-70387017D01*
X120151978Y-70347262D01*
X119756350Y-70503781D01*
X119450734Y-70799786D01*
X119311050Y-71075810D01*
X119327936Y-71242200D01*
X120322200Y-71242200D01*
X120322200Y-71597800D01*
X119327936Y-71597800D01*
X119311050Y-71764190D01*
X119450734Y-72040214D01*
X119756350Y-72336219D01*
X120151978Y-72492738D01*
X120322200Y-72452983D01*
X120322200Y-72868002D01*
X119905250Y-72950939D01*
X119550915Y-73187698D01*
X119314156Y-73542033D01*
X119231017Y-73960000D01*
X119314156Y-74377967D01*
X119550915Y-74732302D01*
X119905250Y-74969061D01*
X120323217Y-75052200D01*
X120676783Y-75052200D01*
X121094750Y-74969061D01*
X121449085Y-74732302D01*
X121685844Y-74377967D01*
X121768983Y-73960000D01*
X121768983Y-79960000D01*
X121749079Y-79859936D01*
X121749079Y-77363600D01*
X121749079Y-75636400D01*
X121732167Y-75549236D01*
X121681842Y-75472626D01*
X121605871Y-75421344D01*
X121516000Y-75403321D01*
X119484000Y-75403321D01*
X119396836Y-75420233D01*
X119320226Y-75470558D01*
X119268944Y-75546529D01*
X119250921Y-75636400D01*
X119250921Y-77363600D01*
X119267833Y-77450764D01*
X119318158Y-77527374D01*
X119394129Y-77578656D01*
X119484000Y-77596679D01*
X121516000Y-77596679D01*
X121603164Y-77579767D01*
X121679774Y-77529442D01*
X121731056Y-77453471D01*
X121749079Y-77363600D01*
X121749079Y-79859936D01*
X121674243Y-79483712D01*
X121404448Y-79079935D01*
X121000671Y-78810140D01*
X120524383Y-78715400D01*
X120475617Y-78715400D01*
X119999329Y-78810140D01*
X119595552Y-79079935D01*
X119325757Y-79483712D01*
X119231017Y-79960000D01*
X119325757Y-80436288D01*
X119595552Y-80840065D01*
X119999329Y-81109860D01*
X120475617Y-81204600D01*
X120524383Y-81204600D01*
X121000671Y-81109860D01*
X121404448Y-80840065D01*
X121674243Y-80436288D01*
X121768983Y-79960000D01*
X121768983Y-86221400D01*
X121744600Y-86221400D01*
X121744600Y-83561472D01*
X121744600Y-83470529D01*
X121744600Y-82734950D01*
X121744600Y-82265050D01*
X121744600Y-81529471D01*
X121744600Y-81438528D01*
X121709797Y-81354508D01*
X121645491Y-81290202D01*
X121561471Y-81255400D01*
X120734950Y-81255400D01*
X120677800Y-81312550D01*
X120677800Y-82322200D01*
X121687450Y-82322200D01*
X121744600Y-82265050D01*
X121744600Y-82734950D01*
X121687450Y-82677800D01*
X120677800Y-82677800D01*
X120677800Y-83687450D01*
X120734950Y-83744600D01*
X121561471Y-83744600D01*
X121645491Y-83709798D01*
X121709797Y-83645492D01*
X121744600Y-83561472D01*
X121744600Y-86221400D01*
X120322200Y-86221400D01*
X120322200Y-83687450D01*
X120322200Y-82677800D01*
X120322200Y-82322200D01*
X120322200Y-81312550D01*
X120265050Y-81255400D01*
X119438529Y-81255400D01*
X119354509Y-81290202D01*
X119290203Y-81354508D01*
X119255400Y-81438528D01*
X119255400Y-81529471D01*
X119255400Y-82265050D01*
X119312550Y-82322200D01*
X120322200Y-82322200D01*
X120322200Y-82677800D01*
X119312550Y-82677800D01*
X119255400Y-82734950D01*
X119255400Y-83470529D01*
X119255400Y-83561472D01*
X119290203Y-83645492D01*
X119354509Y-83709798D01*
X119438529Y-83744600D01*
X120265050Y-83744600D01*
X120322200Y-83687450D01*
X120322200Y-86221400D01*
X118278600Y-86221400D01*
X118278600Y-86000000D01*
X118278600Y-61278600D01*
X145721400Y-61278600D01*
X145721400Y-86221400D01*
X145721400Y-86221400D01*
G37*
X145721400Y-86221400D02*
X145537189Y-86221400D01*
X145537189Y-68216591D01*
X145537189Y-63136591D01*
X145490801Y-62550199D01*
X145355644Y-62223902D01*
X145183588Y-62067859D01*
X144932141Y-62319306D01*
X144932141Y-61816412D01*
X144776098Y-61644356D01*
X144216591Y-61462811D01*
X143630199Y-61509199D01*
X143303902Y-61644356D01*
X143147859Y-61816412D01*
X144040000Y-62708553D01*
X144932141Y-61816412D01*
X144932141Y-62319306D01*
X144291447Y-62960000D01*
X145183588Y-63852141D01*
X145355644Y-63696098D01*
X145537189Y-63136591D01*
X145537189Y-68216591D01*
X145490801Y-67630199D01*
X145355644Y-67303902D01*
X145183588Y-67147859D01*
X144932141Y-67399306D01*
X144932141Y-66896412D01*
X144932141Y-64103588D01*
X144040000Y-63211447D01*
X143788553Y-63462894D01*
X143788553Y-62960000D01*
X142896412Y-62067859D01*
X142724356Y-62223902D01*
X142542811Y-62783409D01*
X142589199Y-63369801D01*
X142724356Y-63696098D01*
X142896412Y-63852141D01*
X143788553Y-62960000D01*
X143788553Y-63462894D01*
X143147859Y-64103588D01*
X143303902Y-64275644D01*
X143863409Y-64457189D01*
X144449801Y-64410801D01*
X144776098Y-64275644D01*
X144932141Y-64103588D01*
X144932141Y-66896412D01*
X144776098Y-66724356D01*
X144216591Y-66542811D01*
X143630199Y-66589199D01*
X143303902Y-66724356D01*
X143147859Y-66896412D01*
X144040000Y-67788553D01*
X144932141Y-66896412D01*
X144932141Y-67399306D01*
X144291447Y-68040000D01*
X145183588Y-68932141D01*
X145355644Y-68776098D01*
X145537189Y-68216591D01*
X145537189Y-86221400D01*
X144932141Y-86221400D01*
X144932141Y-69183588D01*
X144040000Y-68291447D01*
X143788553Y-68542894D01*
X143788553Y-68040000D01*
X142896412Y-67147859D01*
X142878838Y-67163797D01*
X142878838Y-65226983D01*
X142669401Y-64720106D01*
X142281934Y-64331962D01*
X141775423Y-64121640D01*
X141226983Y-64121162D01*
X140720106Y-64330599D01*
X140457189Y-64593057D01*
X140457189Y-63136591D01*
X140410801Y-62550199D01*
X140275644Y-62223902D01*
X140103588Y-62067859D01*
X139852141Y-62319306D01*
X139852141Y-61816412D01*
X139696098Y-61644356D01*
X139136591Y-61462811D01*
X138550199Y-61509199D01*
X138223902Y-61644356D01*
X138067859Y-61816412D01*
X138960000Y-62708553D01*
X139852141Y-61816412D01*
X139852141Y-62319306D01*
X139211447Y-62960000D01*
X140103588Y-63852141D01*
X140275644Y-63696098D01*
X140457189Y-63136591D01*
X140457189Y-64593057D01*
X140331962Y-64718066D01*
X140121640Y-65224577D01*
X140121162Y-65773017D01*
X140330599Y-66279894D01*
X140718066Y-66668038D01*
X141224577Y-66878360D01*
X141773017Y-66878838D01*
X142279894Y-66669401D01*
X142668038Y-66281934D01*
X142878360Y-65775423D01*
X142878838Y-65226983D01*
X142878838Y-67163797D01*
X142724356Y-67303902D01*
X142542811Y-67863409D01*
X142589199Y-68449801D01*
X142724356Y-68776098D01*
X142896412Y-68932141D01*
X143788553Y-68040000D01*
X143788553Y-68542894D01*
X143147859Y-69183588D01*
X143303902Y-69355644D01*
X143863409Y-69537189D01*
X144449801Y-69490801D01*
X144776098Y-69355644D01*
X144932141Y-69183588D01*
X144932141Y-86221400D01*
X140457189Y-86221400D01*
X140457189Y-68216591D01*
X140410801Y-67630199D01*
X140275644Y-67303902D01*
X140103588Y-67147859D01*
X139852141Y-67399306D01*
X139852141Y-66896412D01*
X139852141Y-64103588D01*
X138960000Y-63211447D01*
X138708553Y-63462894D01*
X138708553Y-62960000D01*
X137816412Y-62067859D01*
X137644356Y-62223902D01*
X137462811Y-62783409D01*
X137509199Y-63369801D01*
X137644356Y-63696098D01*
X137816412Y-63852141D01*
X138708553Y-62960000D01*
X138708553Y-63462894D01*
X138067859Y-64103588D01*
X138223902Y-64275644D01*
X138783409Y-64457189D01*
X139369801Y-64410801D01*
X139696098Y-64275644D01*
X139852141Y-64103588D01*
X139852141Y-66896412D01*
X139696098Y-66724356D01*
X139136591Y-66542811D01*
X138550199Y-66589199D01*
X138223902Y-66724356D01*
X138067859Y-66896412D01*
X138960000Y-67788553D01*
X139852141Y-66896412D01*
X139852141Y-67399306D01*
X139211447Y-68040000D01*
X140103588Y-68932141D01*
X140275644Y-68776098D01*
X140457189Y-68216591D01*
X140457189Y-86221400D01*
X139852141Y-86221400D01*
X139852141Y-69183588D01*
X138960000Y-68291447D01*
X138708553Y-68542894D01*
X138708553Y-68040000D01*
X137816412Y-67147859D01*
X137644356Y-67303902D01*
X137462811Y-67863409D01*
X137509199Y-68449801D01*
X137644356Y-68776098D01*
X137816412Y-68932141D01*
X138708553Y-68040000D01*
X138708553Y-68542894D01*
X138067859Y-69183588D01*
X138223902Y-69355644D01*
X138783409Y-69537189D01*
X139369801Y-69490801D01*
X139696098Y-69355644D01*
X139852141Y-69183588D01*
X139852141Y-86221400D01*
X139332684Y-86221400D01*
X139332684Y-72804426D01*
X139259367Y-72626986D01*
X139228600Y-72596165D01*
X139228600Y-71350005D01*
X139228600Y-71350000D01*
X139228601Y-71350000D01*
X139199781Y-71205116D01*
X139182618Y-71179430D01*
X139182684Y-71104426D01*
X139109367Y-70926986D01*
X138973728Y-70791110D01*
X138796416Y-70717484D01*
X138604426Y-70717316D01*
X138426986Y-70790633D01*
X138291110Y-70926272D01*
X138217484Y-71103584D01*
X138217316Y-71295574D01*
X138290633Y-71473014D01*
X138426272Y-71608890D01*
X138471400Y-71627628D01*
X138471400Y-72596034D01*
X138441110Y-72626272D01*
X138367484Y-72803584D01*
X138367316Y-72995574D01*
X138440633Y-73173014D01*
X138576272Y-73308890D01*
X138753584Y-73382516D01*
X138945574Y-73382684D01*
X139123014Y-73309367D01*
X139258890Y-73173728D01*
X139332516Y-72996416D01*
X139332684Y-72804426D01*
X139332684Y-86221400D01*
X136932684Y-86221400D01*
X136932684Y-74904426D01*
X136859367Y-74726986D01*
X136723728Y-74591110D01*
X136546416Y-74517484D01*
X136398406Y-74517354D01*
X136106833Y-74225781D01*
X136108890Y-74223728D01*
X136182516Y-74046416D01*
X136182684Y-73854426D01*
X136109367Y-73676986D01*
X135973728Y-73541110D01*
X135796416Y-73467484D01*
X135604426Y-73467316D01*
X135426986Y-73540633D01*
X135291110Y-73676272D01*
X135217484Y-73853584D01*
X135217316Y-74045574D01*
X135290633Y-74223014D01*
X135414517Y-74347115D01*
X135418402Y-74366642D01*
X135484474Y-74465526D01*
X135606193Y-74587245D01*
X135586941Y-74595200D01*
X135152738Y-74595200D01*
X135152738Y-66348022D01*
X135152738Y-65651978D01*
X134996219Y-65256350D01*
X134700214Y-64950734D01*
X134424190Y-64811050D01*
X134257800Y-64827936D01*
X134257800Y-65822200D01*
X135112983Y-65822200D01*
X135152738Y-65651978D01*
X135152738Y-66348022D01*
X135112983Y-66177800D01*
X134257800Y-66177800D01*
X134257800Y-67172064D01*
X134424190Y-67188950D01*
X134700214Y-67049266D01*
X134996219Y-66743650D01*
X135152738Y-66348022D01*
X135152738Y-74595200D01*
X133902200Y-74595200D01*
X133902200Y-67172064D01*
X133902200Y-66177800D01*
X133902200Y-65822200D01*
X133902200Y-64827936D01*
X133735810Y-64811050D01*
X133459786Y-64950734D01*
X133163781Y-65256350D01*
X133007262Y-65651978D01*
X133047017Y-65822200D01*
X133902200Y-65822200D01*
X133902200Y-66177800D01*
X133047017Y-66177800D01*
X133007262Y-66348022D01*
X133163781Y-66743650D01*
X133459786Y-67049266D01*
X133735810Y-67188950D01*
X133902200Y-67172064D01*
X133902200Y-74595200D01*
X133627636Y-74595200D01*
X133523728Y-74491110D01*
X133346416Y-74417484D01*
X133154426Y-74417316D01*
X132976986Y-74490633D01*
X132841110Y-74626272D01*
X132767484Y-74803584D01*
X132767316Y-74995574D01*
X132840633Y-75173014D01*
X132976272Y-75308890D01*
X133153584Y-75382516D01*
X133345574Y-75382684D01*
X133523014Y-75309367D01*
X133627763Y-75204800D01*
X135291787Y-75204800D01*
X135340633Y-75323014D01*
X135476272Y-75458890D01*
X135653584Y-75532516D01*
X135845574Y-75532684D01*
X136023014Y-75459367D01*
X136125015Y-75357543D01*
X136176272Y-75408890D01*
X136353584Y-75482516D01*
X136545574Y-75482684D01*
X136723014Y-75409367D01*
X136858890Y-75273728D01*
X136932516Y-75096416D01*
X136932684Y-74904426D01*
X136932684Y-86221400D01*
X136782684Y-86221400D01*
X136782684Y-80004426D01*
X136709367Y-79826986D01*
X136573728Y-79691110D01*
X136396416Y-79617484D01*
X136204426Y-79617316D01*
X136026986Y-79690633D01*
X135891110Y-79826272D01*
X135817484Y-80003584D01*
X135817316Y-80195574D01*
X135890633Y-80373014D01*
X135921400Y-80403834D01*
X135921400Y-80593178D01*
X135847225Y-80667353D01*
X135804426Y-80667316D01*
X135626986Y-80740633D01*
X135491110Y-80876272D01*
X135417484Y-81053584D01*
X135417316Y-81245574D01*
X135490633Y-81423014D01*
X135626272Y-81558890D01*
X135803584Y-81632516D01*
X135995574Y-81632684D01*
X136173014Y-81559367D01*
X136308890Y-81423728D01*
X136382516Y-81246416D01*
X136382554Y-81202867D01*
X136567707Y-81017713D01*
X136567710Y-81017711D01*
X136567711Y-81017711D01*
X136649781Y-80894884D01*
X136678600Y-80750000D01*
X136678600Y-80403965D01*
X136708890Y-80373728D01*
X136782516Y-80196416D01*
X136782684Y-80004426D01*
X136782684Y-86221400D01*
X132632200Y-86221400D01*
X132632200Y-66176783D01*
X132632200Y-65823217D01*
X132549061Y-65405250D01*
X132312302Y-65050915D01*
X131957967Y-64814156D01*
X131540000Y-64731017D01*
X131122033Y-64814156D01*
X130767698Y-65050915D01*
X130530939Y-65405250D01*
X130447800Y-65823217D01*
X130447800Y-66176783D01*
X130530939Y-66594750D01*
X130767698Y-66949085D01*
X131122033Y-67185844D01*
X131540000Y-67268983D01*
X131957967Y-67185844D01*
X132312302Y-66949085D01*
X132549061Y-66594750D01*
X132632200Y-66176783D01*
X132632200Y-86221400D01*
X130096679Y-86221400D01*
X130096679Y-67016000D01*
X130096679Y-64984000D01*
X130079767Y-64896836D01*
X130029442Y-64820226D01*
X129953471Y-64768944D01*
X129863600Y-64750921D01*
X128136400Y-64750921D01*
X128049236Y-64767833D01*
X127972626Y-64818158D01*
X127921344Y-64894129D01*
X127903321Y-64984000D01*
X127903321Y-67016000D01*
X127920233Y-67103164D01*
X127970558Y-67179774D01*
X128046529Y-67231056D01*
X128136400Y-67249079D01*
X129863600Y-67249079D01*
X129950764Y-67232167D01*
X130027374Y-67181842D01*
X130078656Y-67105871D01*
X130096679Y-67016000D01*
X130096679Y-86221400D01*
X128782684Y-86221400D01*
X128782684Y-74854426D01*
X128732684Y-74733417D01*
X128732684Y-71604426D01*
X128659367Y-71426986D01*
X128523728Y-71291110D01*
X128346416Y-71217484D01*
X128154426Y-71217316D01*
X127976986Y-71290633D01*
X127946165Y-71321400D01*
X127553965Y-71321400D01*
X127523728Y-71291110D01*
X127346416Y-71217484D01*
X127154426Y-71217316D01*
X126976986Y-71290633D01*
X126841110Y-71426272D01*
X126767484Y-71603584D01*
X126767316Y-71795574D01*
X126840633Y-71973014D01*
X126976272Y-72108890D01*
X127153584Y-72182516D01*
X127345574Y-72182684D01*
X127523014Y-72109367D01*
X127553834Y-72078600D01*
X127946034Y-72078600D01*
X127976272Y-72108890D01*
X128153584Y-72182516D01*
X128345574Y-72182684D01*
X128523014Y-72109367D01*
X128658890Y-71973728D01*
X128732516Y-71796416D01*
X128732684Y-71604426D01*
X128732684Y-74733417D01*
X128709367Y-74676986D01*
X128573728Y-74541110D01*
X128396416Y-74467484D01*
X128204426Y-74467316D01*
X128026986Y-74540633D01*
X127922236Y-74645200D01*
X127627636Y-74645200D01*
X127523728Y-74541110D01*
X127346416Y-74467484D01*
X127154426Y-74467316D01*
X126976986Y-74540633D01*
X126841110Y-74676272D01*
X126767484Y-74853584D01*
X126767316Y-75045574D01*
X126840633Y-75223014D01*
X126976272Y-75358890D01*
X127153584Y-75432516D01*
X127345574Y-75432684D01*
X127523014Y-75359367D01*
X127627763Y-75254800D01*
X127922363Y-75254800D01*
X128026272Y-75358890D01*
X128203584Y-75432516D01*
X128395574Y-75432684D01*
X128573014Y-75359367D01*
X128708890Y-75223728D01*
X128782516Y-75046416D01*
X128782684Y-74854426D01*
X128782684Y-86221400D01*
X121768983Y-86221400D01*
X121768983Y-79960000D01*
X121768983Y-73960000D01*
X121688950Y-73557647D01*
X121688950Y-71764190D01*
X121688950Y-71075810D01*
X121549266Y-70799786D01*
X121243650Y-70503781D01*
X120848022Y-70347262D01*
X120677800Y-70387017D01*
X120677800Y-71242200D01*
X121672064Y-71242200D01*
X121688950Y-71075810D01*
X121688950Y-71764190D01*
X121672064Y-71597800D01*
X120677800Y-71597800D01*
X120677800Y-72452983D01*
X120848022Y-72492738D01*
X121243650Y-72336219D01*
X121549266Y-72040214D01*
X121688950Y-71764190D01*
X121688950Y-73557647D01*
X121685844Y-73542033D01*
X121449085Y-73187698D01*
X121094750Y-72950939D01*
X120676783Y-72867800D01*
X120323217Y-72867800D01*
X120322200Y-72868002D01*
X120322200Y-72452983D01*
X120322200Y-71597800D01*
X120322200Y-71242200D01*
X120322200Y-70387017D01*
X120151978Y-70347262D01*
X119756350Y-70503781D01*
X119450734Y-70799786D01*
X119311050Y-71075810D01*
X119327936Y-71242200D01*
X120322200Y-71242200D01*
X120322200Y-71597800D01*
X119327936Y-71597800D01*
X119311050Y-71764190D01*
X119450734Y-72040214D01*
X119756350Y-72336219D01*
X120151978Y-72492738D01*
X120322200Y-72452983D01*
X120322200Y-72868002D01*
X119905250Y-72950939D01*
X119550915Y-73187698D01*
X119314156Y-73542033D01*
X119231017Y-73960000D01*
X119314156Y-74377967D01*
X119550915Y-74732302D01*
X119905250Y-74969061D01*
X120323217Y-75052200D01*
X120676783Y-75052200D01*
X121094750Y-74969061D01*
X121449085Y-74732302D01*
X121685844Y-74377967D01*
X121768983Y-73960000D01*
X121768983Y-79960000D01*
X121749079Y-79859936D01*
X121749079Y-77363600D01*
X121749079Y-75636400D01*
X121732167Y-75549236D01*
X121681842Y-75472626D01*
X121605871Y-75421344D01*
X121516000Y-75403321D01*
X119484000Y-75403321D01*
X119396836Y-75420233D01*
X119320226Y-75470558D01*
X119268944Y-75546529D01*
X119250921Y-75636400D01*
X119250921Y-77363600D01*
X119267833Y-77450764D01*
X119318158Y-77527374D01*
X119394129Y-77578656D01*
X119484000Y-77596679D01*
X121516000Y-77596679D01*
X121603164Y-77579767D01*
X121679774Y-77529442D01*
X121731056Y-77453471D01*
X121749079Y-77363600D01*
X121749079Y-79859936D01*
X121674243Y-79483712D01*
X121404448Y-79079935D01*
X121000671Y-78810140D01*
X120524383Y-78715400D01*
X120475617Y-78715400D01*
X119999329Y-78810140D01*
X119595552Y-79079935D01*
X119325757Y-79483712D01*
X119231017Y-79960000D01*
X119325757Y-80436288D01*
X119595552Y-80840065D01*
X119999329Y-81109860D01*
X120475617Y-81204600D01*
X120524383Y-81204600D01*
X121000671Y-81109860D01*
X121404448Y-80840065D01*
X121674243Y-80436288D01*
X121768983Y-79960000D01*
X121768983Y-86221400D01*
X121744600Y-86221400D01*
X121744600Y-83561472D01*
X121744600Y-83470529D01*
X121744600Y-82734950D01*
X121744600Y-82265050D01*
X121744600Y-81529471D01*
X121744600Y-81438528D01*
X121709797Y-81354508D01*
X121645491Y-81290202D01*
X121561471Y-81255400D01*
X120734950Y-81255400D01*
X120677800Y-81312550D01*
X120677800Y-82322200D01*
X121687450Y-82322200D01*
X121744600Y-82265050D01*
X121744600Y-82734950D01*
X121687450Y-82677800D01*
X120677800Y-82677800D01*
X120677800Y-83687450D01*
X120734950Y-83744600D01*
X121561471Y-83744600D01*
X121645491Y-83709798D01*
X121709797Y-83645492D01*
X121744600Y-83561472D01*
X121744600Y-86221400D01*
X120322200Y-86221400D01*
X120322200Y-83687450D01*
X120322200Y-82677800D01*
X120322200Y-82322200D01*
X120322200Y-81312550D01*
X120265050Y-81255400D01*
X119438529Y-81255400D01*
X119354509Y-81290202D01*
X119290203Y-81354508D01*
X119255400Y-81438528D01*
X119255400Y-81529471D01*
X119255400Y-82265050D01*
X119312550Y-82322200D01*
X120322200Y-82322200D01*
X120322200Y-82677800D01*
X119312550Y-82677800D01*
X119255400Y-82734950D01*
X119255400Y-83470529D01*
X119255400Y-83561472D01*
X119290203Y-83645492D01*
X119354509Y-83709798D01*
X119438529Y-83744600D01*
X120265050Y-83744600D01*
X120322200Y-83687450D01*
X120322200Y-86221400D01*
X118278600Y-86221400D01*
X118278600Y-86000000D01*
X118278600Y-61278600D01*
X145721400Y-61278600D01*
X145721400Y-86221400D01*
M02*
