G04 #@! TF.FileFunction,Legend,Top*
%FSLAX46Y46*%
G04 Gerber Fmt 4.6, Leading zero omitted, Abs format (unit mm)*
G04 Created by KiCad (PCBNEW (after 2015-mar-04 BZR unknown)-product) date Sat 20 Jun 2015 01:48:00 AM EDT*
%MOMM*%
G01*
G04 APERTURE LIST*
%ADD10C,0.100000*%
%ADD11C,0.150000*%
%ADD12C,0.381000*%
G04 APERTURE END LIST*
D10*
D11*
X119250002Y-61866667D02*
X119250002Y-62366667D01*
X119216668Y-62466667D01*
X119150002Y-62533333D01*
X119050002Y-62566667D01*
X118983335Y-62566667D01*
X119883335Y-62100000D02*
X119883335Y-62566667D01*
X119583335Y-62100000D02*
X119583335Y-62466667D01*
X119616668Y-62533333D01*
X119683335Y-62566667D01*
X119783335Y-62566667D01*
X119850001Y-62533333D01*
X119883335Y-62500000D01*
X120216668Y-62100000D02*
X120216668Y-62566667D01*
X120216668Y-62166667D02*
X120250001Y-62133333D01*
X120316668Y-62100000D01*
X120416668Y-62100000D01*
X120483334Y-62133333D01*
X120516668Y-62200000D01*
X120516668Y-62566667D01*
X121416667Y-61866667D02*
X121350000Y-62000000D01*
X122083333Y-62566667D02*
X121683333Y-62566667D01*
X121883333Y-62566667D02*
X121883333Y-61866667D01*
X121816667Y-61966667D01*
X121750000Y-62033333D01*
X121683333Y-62066667D01*
X122716667Y-61866667D02*
X122383334Y-61866667D01*
X122350000Y-62200000D01*
X122383334Y-62166667D01*
X122450000Y-62133333D01*
X122616667Y-62133333D01*
X122683334Y-62166667D01*
X122716667Y-62200000D01*
X122750000Y-62266667D01*
X122750000Y-62433333D01*
X122716667Y-62500000D01*
X122683334Y-62533333D01*
X122616667Y-62566667D01*
X122450000Y-62566667D01*
X122383334Y-62533333D01*
X122350000Y-62500000D01*
X123983334Y-62566667D02*
X123750000Y-62233333D01*
X123583334Y-62566667D02*
X123583334Y-61866667D01*
X123850000Y-61866667D01*
X123916667Y-61900000D01*
X123950000Y-61933333D01*
X123983334Y-62000000D01*
X123983334Y-62100000D01*
X123950000Y-62166667D01*
X123916667Y-62200000D01*
X123850000Y-62233333D01*
X123583334Y-62233333D01*
X124283334Y-62500000D02*
X124316667Y-62533333D01*
X124283334Y-62566667D01*
X124250000Y-62533333D01*
X124283334Y-62500000D01*
X124283334Y-62566667D01*
X125150000Y-62566667D02*
X125150000Y-61866667D01*
X125550000Y-62566667D02*
X125250000Y-62166667D01*
X125550000Y-61866667D02*
X125150000Y-62266667D01*
X126150000Y-62566667D02*
X126150000Y-62200000D01*
X126116666Y-62133333D01*
X126050000Y-62100000D01*
X125916666Y-62100000D01*
X125850000Y-62133333D01*
X126150000Y-62533333D02*
X126083333Y-62566667D01*
X125916666Y-62566667D01*
X125850000Y-62533333D01*
X125816666Y-62466667D01*
X125816666Y-62400000D01*
X125850000Y-62333333D01*
X125916666Y-62300000D01*
X126083333Y-62300000D01*
X126150000Y-62266667D01*
X126483333Y-62566667D02*
X126483333Y-62100000D01*
X126483333Y-62233333D02*
X126516666Y-62166667D01*
X126549999Y-62133333D01*
X126616666Y-62100000D01*
X126683333Y-62100000D01*
X127016666Y-62566667D02*
X126949999Y-62533333D01*
X126916666Y-62466667D01*
X126916666Y-61866667D01*
X142066667Y-85199999D02*
X141733333Y-85433333D01*
X142066667Y-85599999D02*
X141366667Y-85599999D01*
X141366667Y-85333333D01*
X141400000Y-85266666D01*
X141433333Y-85233333D01*
X141500000Y-85199999D01*
X141600000Y-85199999D01*
X141666667Y-85233333D01*
X141700000Y-85266666D01*
X141733333Y-85333333D01*
X141733333Y-85599999D01*
X142033333Y-84633333D02*
X142066667Y-84699999D01*
X142066667Y-84833333D01*
X142033333Y-84899999D01*
X141966667Y-84933333D01*
X141700000Y-84933333D01*
X141633333Y-84899999D01*
X141600000Y-84833333D01*
X141600000Y-84699999D01*
X141633333Y-84633333D01*
X141700000Y-84599999D01*
X141766667Y-84599999D01*
X141833333Y-84933333D01*
X141600000Y-84366666D02*
X142066667Y-84199999D01*
X141600000Y-84033333D01*
X142066667Y-83766666D02*
X141600000Y-83766666D01*
X141366667Y-83766666D02*
X141400000Y-83800000D01*
X141433333Y-83766666D01*
X141400000Y-83733333D01*
X141366667Y-83766666D01*
X141433333Y-83766666D01*
X142033333Y-83466667D02*
X142066667Y-83400000D01*
X142066667Y-83266667D01*
X142033333Y-83200000D01*
X141966667Y-83166667D01*
X141933333Y-83166667D01*
X141866667Y-83200000D01*
X141833333Y-83266667D01*
X141833333Y-83366667D01*
X141800000Y-83433333D01*
X141733333Y-83466667D01*
X141700000Y-83466667D01*
X141633333Y-83433333D01*
X141600000Y-83366667D01*
X141600000Y-83266667D01*
X141633333Y-83200000D01*
X142066667Y-82866666D02*
X141600000Y-82866666D01*
X141366667Y-82866666D02*
X141400000Y-82900000D01*
X141433333Y-82866666D01*
X141400000Y-82833333D01*
X141366667Y-82866666D01*
X141433333Y-82866666D01*
X142066667Y-82433333D02*
X142033333Y-82500000D01*
X142000000Y-82533333D01*
X141933333Y-82566667D01*
X141733333Y-82566667D01*
X141666667Y-82533333D01*
X141633333Y-82500000D01*
X141600000Y-82433333D01*
X141600000Y-82333333D01*
X141633333Y-82266667D01*
X141666667Y-82233333D01*
X141733333Y-82200000D01*
X141933333Y-82200000D01*
X142000000Y-82233333D01*
X142033333Y-82266667D01*
X142066667Y-82333333D01*
X142066667Y-82433333D01*
X141600000Y-81900000D02*
X142066667Y-81900000D01*
X141666667Y-81900000D02*
X141633333Y-81866667D01*
X141600000Y-81800000D01*
X141600000Y-81700000D01*
X141633333Y-81633334D01*
X141700000Y-81600000D01*
X142066667Y-81600000D01*
X141366667Y-80600001D02*
X141366667Y-80533334D01*
X141400000Y-80466668D01*
X141433333Y-80433334D01*
X141500000Y-80400001D01*
X141633333Y-80366668D01*
X141800000Y-80366668D01*
X141933333Y-80400001D01*
X142000000Y-80433334D01*
X142033333Y-80466668D01*
X142066667Y-80533334D01*
X142066667Y-80600001D01*
X142033333Y-80666668D01*
X142000000Y-80700001D01*
X141933333Y-80733334D01*
X141800000Y-80766668D01*
X141633333Y-80766668D01*
X141500000Y-80733334D01*
X141433333Y-80700001D01*
X141400000Y-80666668D01*
X141366667Y-80600001D01*
X142000000Y-80066667D02*
X142033333Y-80033334D01*
X142066667Y-80066667D01*
X142033333Y-80100001D01*
X142000000Y-80066667D01*
X142066667Y-80066667D01*
X142066667Y-79366668D02*
X142066667Y-79766668D01*
X142066667Y-79566668D02*
X141366667Y-79566668D01*
X141466667Y-79633334D01*
X141533333Y-79700001D01*
X141566667Y-79766668D01*
X143200000Y-85483330D02*
X143233333Y-85383330D01*
X143266667Y-85349997D01*
X143333333Y-85316663D01*
X143433333Y-85316663D01*
X143500000Y-85349997D01*
X143533333Y-85383330D01*
X143566667Y-85449997D01*
X143566667Y-85716663D01*
X142866667Y-85716663D01*
X142866667Y-85483330D01*
X142900000Y-85416663D01*
X142933333Y-85383330D01*
X143000000Y-85349997D01*
X143066667Y-85349997D01*
X143133333Y-85383330D01*
X143166667Y-85416663D01*
X143200000Y-85483330D01*
X143200000Y-85716663D01*
X143566667Y-85016663D02*
X143100000Y-85016663D01*
X143233333Y-85016663D02*
X143166667Y-84983330D01*
X143133333Y-84949997D01*
X143100000Y-84883330D01*
X143100000Y-84816663D01*
X143566667Y-84583330D02*
X143100000Y-84583330D01*
X142866667Y-84583330D02*
X142900000Y-84616664D01*
X142933333Y-84583330D01*
X142900000Y-84549997D01*
X142866667Y-84583330D01*
X142933333Y-84583330D01*
X143100000Y-83949997D02*
X143666667Y-83949997D01*
X143733333Y-83983331D01*
X143766667Y-84016664D01*
X143800000Y-84083331D01*
X143800000Y-84183331D01*
X143766667Y-84249997D01*
X143533333Y-83949997D02*
X143566667Y-84016664D01*
X143566667Y-84149997D01*
X143533333Y-84216664D01*
X143500000Y-84249997D01*
X143433333Y-84283331D01*
X143233333Y-84283331D01*
X143166667Y-84249997D01*
X143133333Y-84216664D01*
X143100000Y-84149997D01*
X143100000Y-84016664D01*
X143133333Y-83949997D01*
X143566667Y-83616664D02*
X142866667Y-83616664D01*
X143566667Y-83316664D02*
X143200000Y-83316664D01*
X143133333Y-83349998D01*
X143100000Y-83416664D01*
X143100000Y-83516664D01*
X143133333Y-83583331D01*
X143166667Y-83616664D01*
X143100000Y-83083331D02*
X143100000Y-82816665D01*
X142866667Y-82983331D02*
X143466667Y-82983331D01*
X143533333Y-82949998D01*
X143566667Y-82883331D01*
X143566667Y-82816665D01*
X143500000Y-81649998D02*
X143533333Y-81683332D01*
X143566667Y-81783332D01*
X143566667Y-81849998D01*
X143533333Y-81949998D01*
X143466667Y-82016665D01*
X143400000Y-82049998D01*
X143266667Y-82083332D01*
X143166667Y-82083332D01*
X143033333Y-82049998D01*
X142966667Y-82016665D01*
X142900000Y-81949998D01*
X142866667Y-81849998D01*
X142866667Y-81783332D01*
X142900000Y-81683332D01*
X142933333Y-81649998D01*
X143566667Y-81249998D02*
X143533333Y-81316665D01*
X143466667Y-81349998D01*
X142866667Y-81349998D01*
X143566667Y-80883331D02*
X143533333Y-80949998D01*
X143500000Y-80983331D01*
X143433333Y-81016665D01*
X143233333Y-81016665D01*
X143166667Y-80983331D01*
X143133333Y-80949998D01*
X143100000Y-80883331D01*
X143100000Y-80783331D01*
X143133333Y-80716665D01*
X143166667Y-80683331D01*
X143233333Y-80649998D01*
X143433333Y-80649998D01*
X143500000Y-80683331D01*
X143533333Y-80716665D01*
X143566667Y-80783331D01*
X143566667Y-80883331D01*
X143100000Y-80049998D02*
X143566667Y-80049998D01*
X143100000Y-80349998D02*
X143466667Y-80349998D01*
X143533333Y-80316665D01*
X143566667Y-80249998D01*
X143566667Y-80149998D01*
X143533333Y-80083332D01*
X143500000Y-80049998D01*
X143566667Y-79416665D02*
X142866667Y-79416665D01*
X143533333Y-79416665D02*
X143566667Y-79483332D01*
X143566667Y-79616665D01*
X143533333Y-79683332D01*
X143500000Y-79716665D01*
X143433333Y-79749999D01*
X143233333Y-79749999D01*
X143166667Y-79716665D01*
X143133333Y-79683332D01*
X143100000Y-79616665D01*
X143100000Y-79483332D01*
X143133333Y-79416665D01*
X143200000Y-78549999D02*
X143200000Y-78316666D01*
X143566667Y-78216666D02*
X143566667Y-78549999D01*
X142866667Y-78549999D01*
X142866667Y-78216666D01*
X143100000Y-77916666D02*
X143566667Y-77916666D01*
X143166667Y-77916666D02*
X143133333Y-77883333D01*
X143100000Y-77816666D01*
X143100000Y-77716666D01*
X143133333Y-77650000D01*
X143200000Y-77616666D01*
X143566667Y-77616666D01*
X143100000Y-76983333D02*
X143666667Y-76983333D01*
X143733333Y-77016667D01*
X143766667Y-77050000D01*
X143800000Y-77116667D01*
X143800000Y-77216667D01*
X143766667Y-77283333D01*
X143533333Y-76983333D02*
X143566667Y-77050000D01*
X143566667Y-77183333D01*
X143533333Y-77250000D01*
X143500000Y-77283333D01*
X143433333Y-77316667D01*
X143233333Y-77316667D01*
X143166667Y-77283333D01*
X143133333Y-77250000D01*
X143100000Y-77183333D01*
X143100000Y-77050000D01*
X143133333Y-76983333D01*
X143566667Y-76650000D02*
X143100000Y-76650000D01*
X142866667Y-76650000D02*
X142900000Y-76683334D01*
X142933333Y-76650000D01*
X142900000Y-76616667D01*
X142866667Y-76650000D01*
X142933333Y-76650000D01*
X143100000Y-76316667D02*
X143566667Y-76316667D01*
X143166667Y-76316667D02*
X143133333Y-76283334D01*
X143100000Y-76216667D01*
X143100000Y-76116667D01*
X143133333Y-76050001D01*
X143200000Y-76016667D01*
X143566667Y-76016667D01*
X143533333Y-75416668D02*
X143566667Y-75483334D01*
X143566667Y-75616668D01*
X143533333Y-75683334D01*
X143466667Y-75716668D01*
X143200000Y-75716668D01*
X143133333Y-75683334D01*
X143100000Y-75616668D01*
X143100000Y-75483334D01*
X143133333Y-75416668D01*
X143200000Y-75383334D01*
X143266667Y-75383334D01*
X143333333Y-75716668D01*
X143533333Y-74816668D02*
X143566667Y-74883334D01*
X143566667Y-75016668D01*
X143533333Y-75083334D01*
X143466667Y-75116668D01*
X143200000Y-75116668D01*
X143133333Y-75083334D01*
X143100000Y-75016668D01*
X143100000Y-74883334D01*
X143133333Y-74816668D01*
X143200000Y-74783334D01*
X143266667Y-74783334D01*
X143333333Y-75116668D01*
X143566667Y-74483334D02*
X143100000Y-74483334D01*
X143233333Y-74483334D02*
X143166667Y-74450001D01*
X143133333Y-74416668D01*
X143100000Y-74350001D01*
X143100000Y-74283334D01*
X143566667Y-74050001D02*
X143100000Y-74050001D01*
X142866667Y-74050001D02*
X142900000Y-74083335D01*
X142933333Y-74050001D01*
X142900000Y-74016668D01*
X142866667Y-74050001D01*
X142933333Y-74050001D01*
X143100000Y-73716668D02*
X143566667Y-73716668D01*
X143166667Y-73716668D02*
X143133333Y-73683335D01*
X143100000Y-73616668D01*
X143100000Y-73516668D01*
X143133333Y-73450002D01*
X143200000Y-73416668D01*
X143566667Y-73416668D01*
X143100000Y-72783335D02*
X143666667Y-72783335D01*
X143733333Y-72816669D01*
X143766667Y-72850002D01*
X143800000Y-72916669D01*
X143800000Y-73016669D01*
X143766667Y-73083335D01*
X143533333Y-72783335D02*
X143566667Y-72850002D01*
X143566667Y-72983335D01*
X143533333Y-73050002D01*
X143500000Y-73083335D01*
X143433333Y-73116669D01*
X143233333Y-73116669D01*
X143166667Y-73083335D01*
X143133333Y-73050002D01*
X143100000Y-72983335D01*
X143100000Y-72850002D01*
X143133333Y-72783335D01*
X144366667Y-85799999D02*
X145066667Y-85566666D01*
X144366667Y-85333333D01*
X145066667Y-85099999D02*
X144366667Y-85099999D01*
X145066667Y-84699999D01*
X144366667Y-84699999D01*
X144866667Y-84400000D02*
X144866667Y-84066666D01*
X145066667Y-84466666D02*
X144366667Y-84233333D01*
X145066667Y-84000000D01*
X144800000Y-83766666D02*
X144800000Y-83233333D01*
X145033333Y-82933333D02*
X145066667Y-82833333D01*
X145066667Y-82666666D01*
X145033333Y-82599999D01*
X145000000Y-82566666D01*
X144933333Y-82533333D01*
X144866667Y-82533333D01*
X144800000Y-82566666D01*
X144766667Y-82599999D01*
X144733333Y-82666666D01*
X144700000Y-82799999D01*
X144666667Y-82866666D01*
X144633333Y-82899999D01*
X144566667Y-82933333D01*
X144500000Y-82933333D01*
X144433333Y-82899999D01*
X144400000Y-82866666D01*
X144366667Y-82799999D01*
X144366667Y-82633333D01*
X144400000Y-82533333D01*
X144600000Y-82333332D02*
X144600000Y-82066666D01*
X144366667Y-82233332D02*
X144966667Y-82233332D01*
X145033333Y-82199999D01*
X145066667Y-82133332D01*
X145066667Y-82066666D01*
X145033333Y-81566666D02*
X145066667Y-81633332D01*
X145066667Y-81766666D01*
X145033333Y-81833332D01*
X144966667Y-81866666D01*
X144700000Y-81866666D01*
X144633333Y-81833332D01*
X144600000Y-81766666D01*
X144600000Y-81633332D01*
X144633333Y-81566666D01*
X144700000Y-81533332D01*
X144766667Y-81533332D01*
X144833333Y-81866666D01*
X144600000Y-81233332D02*
X145300000Y-81233332D01*
X144633333Y-81233332D02*
X144600000Y-81166666D01*
X144600000Y-81033332D01*
X144633333Y-80966666D01*
X144666667Y-80933332D01*
X144733333Y-80899999D01*
X144933333Y-80899999D01*
X145000000Y-80933332D01*
X145033333Y-80966666D01*
X145066667Y-81033332D01*
X145066667Y-81166666D01*
X145033333Y-81233332D01*
X145033333Y-80633333D02*
X145066667Y-80566666D01*
X145066667Y-80433333D01*
X145033333Y-80366666D01*
X144966667Y-80333333D01*
X144933333Y-80333333D01*
X144866667Y-80366666D01*
X144833333Y-80433333D01*
X144833333Y-80533333D01*
X144800000Y-80599999D01*
X144733333Y-80633333D01*
X144700000Y-80633333D01*
X144633333Y-80599999D01*
X144600000Y-80533333D01*
X144600000Y-80433333D01*
X144633333Y-80366666D01*
X145033333Y-79533333D02*
X145066667Y-79433333D01*
X145066667Y-79266666D01*
X145033333Y-79199999D01*
X145000000Y-79166666D01*
X144933333Y-79133333D01*
X144866667Y-79133333D01*
X144800000Y-79166666D01*
X144766667Y-79199999D01*
X144733333Y-79266666D01*
X144700000Y-79399999D01*
X144666667Y-79466666D01*
X144633333Y-79499999D01*
X144566667Y-79533333D01*
X144500000Y-79533333D01*
X144433333Y-79499999D01*
X144400000Y-79466666D01*
X144366667Y-79399999D01*
X144366667Y-79233333D01*
X144400000Y-79133333D01*
X145066667Y-78733332D02*
X145033333Y-78799999D01*
X144966667Y-78833332D01*
X144366667Y-78833332D01*
X145066667Y-78366665D02*
X145033333Y-78433332D01*
X145000000Y-78466665D01*
X144933333Y-78499999D01*
X144733333Y-78499999D01*
X144666667Y-78466665D01*
X144633333Y-78433332D01*
X144600000Y-78366665D01*
X144600000Y-78266665D01*
X144633333Y-78199999D01*
X144666667Y-78166665D01*
X144733333Y-78133332D01*
X144933333Y-78133332D01*
X145000000Y-78166665D01*
X145033333Y-78199999D01*
X145066667Y-78266665D01*
X145066667Y-78366665D01*
X144600000Y-77899999D02*
X145066667Y-77766666D01*
X144733333Y-77633332D01*
X145066667Y-77499999D01*
X144600000Y-77366666D01*
X145066667Y-77099999D02*
X144366667Y-77099999D01*
X144366667Y-76933333D01*
X144400000Y-76833333D01*
X144466667Y-76766666D01*
X144533333Y-76733333D01*
X144666667Y-76699999D01*
X144766667Y-76699999D01*
X144900000Y-76733333D01*
X144966667Y-76766666D01*
X145033333Y-76833333D01*
X145066667Y-76933333D01*
X145066667Y-77099999D01*
X145066667Y-76399999D02*
X144366667Y-76399999D01*
X144366667Y-76233333D01*
X144400000Y-76133333D01*
X144466667Y-76066666D01*
X144533333Y-76033333D01*
X144666667Y-75999999D01*
X144766667Y-75999999D01*
X144900000Y-76033333D01*
X144966667Y-76066666D01*
X145033333Y-76133333D01*
X145066667Y-76233333D01*
X145066667Y-76399999D01*
X145033333Y-75733333D02*
X145066667Y-75633333D01*
X145066667Y-75466666D01*
X145033333Y-75399999D01*
X145000000Y-75366666D01*
X144933333Y-75333333D01*
X144866667Y-75333333D01*
X144800000Y-75366666D01*
X144766667Y-75399999D01*
X144733333Y-75466666D01*
X144700000Y-75599999D01*
X144666667Y-75666666D01*
X144633333Y-75699999D01*
X144566667Y-75733333D01*
X144500000Y-75733333D01*
X144433333Y-75699999D01*
X144400000Y-75666666D01*
X144366667Y-75599999D01*
X144366667Y-75433333D01*
X144400000Y-75333333D01*
X144700000Y-74266666D02*
X144733333Y-74166666D01*
X144766667Y-74133333D01*
X144833333Y-74099999D01*
X144933333Y-74099999D01*
X145000000Y-74133333D01*
X145033333Y-74166666D01*
X145066667Y-74233333D01*
X145066667Y-74499999D01*
X144366667Y-74499999D01*
X144366667Y-74266666D01*
X144400000Y-74199999D01*
X144433333Y-74166666D01*
X144500000Y-74133333D01*
X144566667Y-74133333D01*
X144633333Y-74166666D01*
X144666667Y-74199999D01*
X144700000Y-74266666D01*
X144700000Y-74499999D01*
X145066667Y-73699999D02*
X145033333Y-73766666D01*
X145000000Y-73799999D01*
X144933333Y-73833333D01*
X144733333Y-73833333D01*
X144666667Y-73799999D01*
X144633333Y-73766666D01*
X144600000Y-73699999D01*
X144600000Y-73599999D01*
X144633333Y-73533333D01*
X144666667Y-73499999D01*
X144733333Y-73466666D01*
X144933333Y-73466666D01*
X145000000Y-73499999D01*
X145033333Y-73533333D01*
X145066667Y-73599999D01*
X145066667Y-73699999D01*
X145066667Y-72866666D02*
X144700000Y-72866666D01*
X144633333Y-72900000D01*
X144600000Y-72966666D01*
X144600000Y-73100000D01*
X144633333Y-73166666D01*
X145033333Y-72866666D02*
X145066667Y-72933333D01*
X145066667Y-73100000D01*
X145033333Y-73166666D01*
X144966667Y-73200000D01*
X144900000Y-73200000D01*
X144833333Y-73166666D01*
X144800000Y-73100000D01*
X144800000Y-72933333D01*
X144766667Y-72866666D01*
X145066667Y-72533333D02*
X144600000Y-72533333D01*
X144733333Y-72533333D02*
X144666667Y-72500000D01*
X144633333Y-72466667D01*
X144600000Y-72400000D01*
X144600000Y-72333333D01*
X145066667Y-71800000D02*
X144366667Y-71800000D01*
X145033333Y-71800000D02*
X145066667Y-71866667D01*
X145066667Y-72000000D01*
X145033333Y-72066667D01*
X145000000Y-72100000D01*
X144933333Y-72133334D01*
X144733333Y-72133334D01*
X144666667Y-72100000D01*
X144633333Y-72066667D01*
X144600000Y-72000000D01*
X144600000Y-71866667D01*
X144633333Y-71800000D01*
X120475000Y-67750000D02*
X120475000Y-67250000D01*
X119525000Y-67250000D02*
X119525000Y-67750000D01*
X137650000Y-73900000D02*
X138350000Y-73900000D01*
X138350000Y-75100000D02*
X137650000Y-75100000D01*
X142850000Y-71100000D02*
X142150000Y-71100000D01*
X142150000Y-69900000D02*
X142850000Y-69900000D01*
X123100000Y-82600000D02*
X123100000Y-78900000D01*
X124900000Y-82600000D02*
X124900000Y-78900000D01*
X124350000Y-85600000D02*
X123650000Y-85600000D01*
X123650000Y-84400000D02*
X124350000Y-84400000D01*
X131600000Y-83650000D02*
X131600000Y-84350000D01*
X130400000Y-84350000D02*
X130400000Y-83650000D01*
X130650000Y-77900000D02*
X131350000Y-77900000D01*
X131350000Y-79100000D02*
X130650000Y-79100000D01*
X123250000Y-72475000D02*
X123750000Y-72475000D01*
X123750000Y-71525000D02*
X123250000Y-71525000D01*
X134975000Y-72250000D02*
X134975000Y-71750000D01*
X134025000Y-71750000D02*
X134025000Y-72250000D01*
X136750000Y-84525000D02*
X136250000Y-84525000D01*
X136250000Y-85475000D02*
X136750000Y-85475000D01*
X134250000Y-84525000D02*
X133750000Y-84525000D01*
X133750000Y-85475000D02*
X134250000Y-85475000D01*
X134750000Y-69975000D02*
X135250000Y-69975000D01*
X135250000Y-69025000D02*
X134750000Y-69025000D01*
X131550420Y-80949580D02*
X132449580Y-80949580D01*
X132449580Y-80949580D02*
X132449580Y-81348360D01*
X131550420Y-81348360D02*
X132449580Y-81348360D01*
X131550420Y-80949580D02*
X131550420Y-81348360D01*
X131550420Y-79651640D02*
X132449580Y-79651640D01*
X132449580Y-79651640D02*
X132449580Y-80050420D01*
X131550420Y-80050420D02*
X132449580Y-80050420D01*
X131550420Y-79651640D02*
X131550420Y-80050420D01*
X131550420Y-80500000D02*
X131700280Y-80500000D01*
X131700280Y-80500000D02*
X131700280Y-80799720D01*
X131550420Y-80799720D02*
X131700280Y-80799720D01*
X131550420Y-80500000D02*
X131550420Y-80799720D01*
X132299720Y-80500000D02*
X132449580Y-80500000D01*
X132449580Y-80500000D02*
X132449580Y-80799720D01*
X132299720Y-80799720D02*
X132449580Y-80799720D01*
X132299720Y-80500000D02*
X132299720Y-80799720D01*
X131850140Y-80500000D02*
X132149860Y-80500000D01*
X132149860Y-80500000D02*
X132149860Y-80799720D01*
X131850140Y-80799720D02*
X132149860Y-80799720D01*
X131850140Y-80500000D02*
X131850140Y-80799720D01*
X131601220Y-80949580D02*
X131601220Y-80050420D01*
X132398780Y-80949580D02*
X132398780Y-80050420D01*
X119230000Y-81230000D02*
X119230000Y-78690000D01*
X118950000Y-84050000D02*
X118950000Y-82500000D01*
X119230000Y-81230000D02*
X121770000Y-81230000D01*
X122050000Y-82500000D02*
X122050000Y-84050000D01*
X122050000Y-84050000D02*
X118950000Y-84050000D01*
X121770000Y-81230000D02*
X121770000Y-78690000D01*
X121770000Y-78690000D02*
X119230000Y-78690000D01*
X130270000Y-67270000D02*
X135350000Y-67270000D01*
X135350000Y-67270000D02*
X135350000Y-64730000D01*
X135350000Y-64730000D02*
X130270000Y-64730000D01*
X127450000Y-64450000D02*
X129000000Y-64450000D01*
X130270000Y-64730000D02*
X130270000Y-67270000D01*
X129000000Y-67550000D02*
X127450000Y-67550000D01*
X127450000Y-67550000D02*
X127450000Y-64450000D01*
X121770000Y-75230000D02*
X121770000Y-70150000D01*
X121770000Y-70150000D02*
X119230000Y-70150000D01*
X119230000Y-70150000D02*
X119230000Y-75230000D01*
X118950000Y-78050000D02*
X118950000Y-76500000D01*
X119230000Y-75230000D02*
X121770000Y-75230000D01*
X122050000Y-76500000D02*
X122050000Y-78050000D01*
X122050000Y-78050000D02*
X118950000Y-78050000D01*
D12*
X142200000Y-65500000D02*
G75*
G03X142200000Y-65500000I-700000J0D01*
G01*
X144100000Y-65500000D02*
G75*
G03X144100000Y-65500000I-2600000J0D01*
G01*
X144600000Y-65500000D02*
G75*
G03X144600000Y-65500000I-3100000J0D01*
G01*
X138300000Y-62300000D02*
X138300000Y-68700000D01*
X138300000Y-62300000D02*
X144700000Y-62300000D01*
X144700000Y-62300000D02*
X144700000Y-68700000D01*
X144700000Y-68700000D02*
X138300000Y-68700000D01*
D11*
X135525000Y-76250000D02*
X135525000Y-75750000D01*
X134475000Y-75750000D02*
X134475000Y-76250000D01*
X129975000Y-80250000D02*
X129975000Y-80750000D01*
X131025000Y-80750000D02*
X131025000Y-80250000D01*
X123750000Y-69975000D02*
X123250000Y-69975000D01*
X123250000Y-71025000D02*
X123750000Y-71025000D01*
X125475000Y-66750000D02*
X125475000Y-67250000D01*
X126525000Y-67250000D02*
X126525000Y-66750000D01*
X139325000Y-71500000D02*
X139325000Y-70500000D01*
X140675000Y-70500000D02*
X140675000Y-71500000D01*
X121123607Y-65900000D02*
G75*
G03X121123607Y-65900000I-223607J0D01*
G01*
X124500000Y-65500000D02*
X120500000Y-65500000D01*
X120500000Y-65500000D02*
X120500000Y-69500000D01*
X120500000Y-69500000D02*
X124500000Y-69500000D01*
X124500000Y-69500000D02*
X124500000Y-65500000D01*
X127300000Y-78300000D02*
G75*
G03X127300000Y-78300000I-100000J0D01*
G01*
X127750000Y-78550000D02*
X127250000Y-78550000D01*
X127750000Y-81450000D02*
X127750000Y-78550000D01*
X127250000Y-81450000D02*
X127750000Y-81450000D01*
X127250000Y-78550000D02*
X127250000Y-81450000D01*
X127800000Y-82300000D02*
G75*
G03X127800000Y-82300000I-100000J0D01*
G01*
X128250000Y-82550000D02*
X127750000Y-82550000D01*
X128250000Y-85450000D02*
X128250000Y-82550000D01*
X127750000Y-85450000D02*
X128250000Y-85450000D01*
X127750000Y-82550000D02*
X127750000Y-85450000D01*
X126775000Y-75375000D02*
X131225000Y-75375000D01*
X125250000Y-68625000D02*
X131225000Y-68625000D01*
X134325000Y-82175000D02*
X134625000Y-82175000D01*
X134325000Y-78825000D02*
X134625000Y-78825000D01*
X137675000Y-78825000D02*
X137375000Y-78825000D01*
X137675000Y-82175000D02*
X137375000Y-82175000D01*
X134325000Y-82175000D02*
X134325000Y-78825000D01*
X137675000Y-82175000D02*
X137675000Y-78825000D01*
X134625000Y-82175000D02*
X134625000Y-83400000D01*
X136169040Y-72660780D02*
X136169040Y-73270380D01*
X136169040Y-73270380D02*
X136600840Y-73280540D01*
X119333334Y-66000000D02*
X119300000Y-66033333D01*
X119200000Y-66066667D01*
X119133334Y-66066667D01*
X119033334Y-66033333D01*
X118966667Y-65966667D01*
X118933334Y-65900000D01*
X118900000Y-65766667D01*
X118900000Y-65666667D01*
X118933334Y-65533333D01*
X118966667Y-65466667D01*
X119033334Y-65400000D01*
X119133334Y-65366667D01*
X119200000Y-65366667D01*
X119300000Y-65400000D01*
X119333334Y-65433333D01*
X120000000Y-66066667D02*
X119600000Y-66066667D01*
X119800000Y-66066667D02*
X119800000Y-65366667D01*
X119733334Y-65466667D01*
X119666667Y-65533333D01*
X119600000Y-65566667D01*
X137783334Y-76200000D02*
X137750000Y-76233333D01*
X137650000Y-76266667D01*
X137583334Y-76266667D01*
X137483334Y-76233333D01*
X137416667Y-76166667D01*
X137383334Y-76100000D01*
X137350000Y-75966667D01*
X137350000Y-75866667D01*
X137383334Y-75733333D01*
X137416667Y-75666667D01*
X137483334Y-75600000D01*
X137583334Y-75566667D01*
X137650000Y-75566667D01*
X137750000Y-75600000D01*
X137783334Y-75633333D01*
X138050000Y-75633333D02*
X138083334Y-75600000D01*
X138150000Y-75566667D01*
X138316667Y-75566667D01*
X138383334Y-75600000D01*
X138416667Y-75633333D01*
X138450000Y-75700000D01*
X138450000Y-75766667D01*
X138416667Y-75866667D01*
X138016667Y-76266667D01*
X138450000Y-76266667D01*
X144583334Y-70750000D02*
X144550000Y-70783333D01*
X144450000Y-70816667D01*
X144383334Y-70816667D01*
X144283334Y-70783333D01*
X144216667Y-70716667D01*
X144183334Y-70650000D01*
X144150000Y-70516667D01*
X144150000Y-70416667D01*
X144183334Y-70283333D01*
X144216667Y-70216667D01*
X144283334Y-70150000D01*
X144383334Y-70116667D01*
X144450000Y-70116667D01*
X144550000Y-70150000D01*
X144583334Y-70183333D01*
X144816667Y-70116667D02*
X145250000Y-70116667D01*
X145016667Y-70383333D01*
X145116667Y-70383333D01*
X145183334Y-70416667D01*
X145216667Y-70450000D01*
X145250000Y-70516667D01*
X145250000Y-70683333D01*
X145216667Y-70750000D01*
X145183334Y-70783333D01*
X145116667Y-70816667D01*
X144916667Y-70816667D01*
X144850000Y-70783333D01*
X144816667Y-70750000D01*
X123833334Y-78050000D02*
X123800000Y-78083333D01*
X123700000Y-78116667D01*
X123633334Y-78116667D01*
X123533334Y-78083333D01*
X123466667Y-78016667D01*
X123433334Y-77950000D01*
X123400000Y-77816667D01*
X123400000Y-77716667D01*
X123433334Y-77583333D01*
X123466667Y-77516667D01*
X123533334Y-77450000D01*
X123633334Y-77416667D01*
X123700000Y-77416667D01*
X123800000Y-77450000D01*
X123833334Y-77483333D01*
X124433334Y-77650000D02*
X124433334Y-78116667D01*
X124266667Y-77383333D02*
X124100000Y-77883333D01*
X124533334Y-77883333D01*
X121483334Y-85300000D02*
X121450000Y-85333333D01*
X121350000Y-85366667D01*
X121283334Y-85366667D01*
X121183334Y-85333333D01*
X121116667Y-85266667D01*
X121083334Y-85200000D01*
X121050000Y-85066667D01*
X121050000Y-84966667D01*
X121083334Y-84833333D01*
X121116667Y-84766667D01*
X121183334Y-84700000D01*
X121283334Y-84666667D01*
X121350000Y-84666667D01*
X121450000Y-84700000D01*
X121483334Y-84733333D01*
X122116667Y-84666667D02*
X121783334Y-84666667D01*
X121750000Y-85000000D01*
X121783334Y-84966667D01*
X121850000Y-84933333D01*
X122016667Y-84933333D01*
X122083334Y-84966667D01*
X122116667Y-85000000D01*
X122150000Y-85066667D01*
X122150000Y-85233333D01*
X122116667Y-85300000D01*
X122083334Y-85333333D01*
X122016667Y-85366667D01*
X121850000Y-85366667D01*
X121783334Y-85333333D01*
X121750000Y-85300000D01*
X132333334Y-82500000D02*
X132300000Y-82533333D01*
X132200000Y-82566667D01*
X132133334Y-82566667D01*
X132033334Y-82533333D01*
X131966667Y-82466667D01*
X131933334Y-82400000D01*
X131900000Y-82266667D01*
X131900000Y-82166667D01*
X131933334Y-82033333D01*
X131966667Y-81966667D01*
X132033334Y-81900000D01*
X132133334Y-81866667D01*
X132200000Y-81866667D01*
X132300000Y-81900000D01*
X132333334Y-81933333D01*
X132933334Y-81866667D02*
X132800000Y-81866667D01*
X132733334Y-81900000D01*
X132700000Y-81933333D01*
X132633334Y-82033333D01*
X132600000Y-82166667D01*
X132600000Y-82433333D01*
X132633334Y-82500000D01*
X132666667Y-82533333D01*
X132733334Y-82566667D01*
X132866667Y-82566667D01*
X132933334Y-82533333D01*
X132966667Y-82500000D01*
X133000000Y-82433333D01*
X133000000Y-82266667D01*
X132966667Y-82200000D01*
X132933334Y-82166667D01*
X132866667Y-82133333D01*
X132733334Y-82133333D01*
X132666667Y-82166667D01*
X132633334Y-82200000D01*
X132600000Y-82266667D01*
X130933334Y-77450000D02*
X130900000Y-77483333D01*
X130800000Y-77516667D01*
X130733334Y-77516667D01*
X130633334Y-77483333D01*
X130566667Y-77416667D01*
X130533334Y-77350000D01*
X130500000Y-77216667D01*
X130500000Y-77116667D01*
X130533334Y-76983333D01*
X130566667Y-76916667D01*
X130633334Y-76850000D01*
X130733334Y-76816667D01*
X130800000Y-76816667D01*
X130900000Y-76850000D01*
X130933334Y-76883333D01*
X131166667Y-76816667D02*
X131633334Y-76816667D01*
X131333334Y-77516667D01*
X123883334Y-73450000D02*
X123850000Y-73483333D01*
X123750000Y-73516667D01*
X123683334Y-73516667D01*
X123583334Y-73483333D01*
X123516667Y-73416667D01*
X123483334Y-73350000D01*
X123450000Y-73216667D01*
X123450000Y-73116667D01*
X123483334Y-72983333D01*
X123516667Y-72916667D01*
X123583334Y-72850000D01*
X123683334Y-72816667D01*
X123750000Y-72816667D01*
X123850000Y-72850000D01*
X123883334Y-72883333D01*
X124283334Y-73116667D02*
X124216667Y-73083333D01*
X124183334Y-73050000D01*
X124150000Y-72983333D01*
X124150000Y-72950000D01*
X124183334Y-72883333D01*
X124216667Y-72850000D01*
X124283334Y-72816667D01*
X124416667Y-72816667D01*
X124483334Y-72850000D01*
X124516667Y-72883333D01*
X124550000Y-72950000D01*
X124550000Y-72983333D01*
X124516667Y-73050000D01*
X124483334Y-73083333D01*
X124416667Y-73116667D01*
X124283334Y-73116667D01*
X124216667Y-73150000D01*
X124183334Y-73183333D01*
X124150000Y-73250000D01*
X124150000Y-73383333D01*
X124183334Y-73450000D01*
X124216667Y-73483333D01*
X124283334Y-73516667D01*
X124416667Y-73516667D01*
X124483334Y-73483333D01*
X124516667Y-73450000D01*
X124550000Y-73383333D01*
X124550000Y-73250000D01*
X124516667Y-73183333D01*
X124483334Y-73150000D01*
X124416667Y-73116667D01*
X134383334Y-74050000D02*
X134350000Y-74083333D01*
X134250000Y-74116667D01*
X134183334Y-74116667D01*
X134083334Y-74083333D01*
X134016667Y-74016667D01*
X133983334Y-73950000D01*
X133950000Y-73816667D01*
X133950000Y-73716667D01*
X133983334Y-73583333D01*
X134016667Y-73516667D01*
X134083334Y-73450000D01*
X134183334Y-73416667D01*
X134250000Y-73416667D01*
X134350000Y-73450000D01*
X134383334Y-73483333D01*
X134716667Y-74116667D02*
X134850000Y-74116667D01*
X134916667Y-74083333D01*
X134950000Y-74050000D01*
X135016667Y-73950000D01*
X135050000Y-73816667D01*
X135050000Y-73550000D01*
X135016667Y-73483333D01*
X134983334Y-73450000D01*
X134916667Y-73416667D01*
X134783334Y-73416667D01*
X134716667Y-73450000D01*
X134683334Y-73483333D01*
X134650000Y-73550000D01*
X134650000Y-73716667D01*
X134683334Y-73783333D01*
X134716667Y-73816667D01*
X134783334Y-73850000D01*
X134916667Y-73850000D01*
X134983334Y-73816667D01*
X135016667Y-73783333D01*
X135050000Y-73716667D01*
X138300000Y-85250000D02*
X138266666Y-85283333D01*
X138166666Y-85316667D01*
X138100000Y-85316667D01*
X138000000Y-85283333D01*
X137933333Y-85216667D01*
X137900000Y-85150000D01*
X137866666Y-85016667D01*
X137866666Y-84916667D01*
X137900000Y-84783333D01*
X137933333Y-84716667D01*
X138000000Y-84650000D01*
X138100000Y-84616667D01*
X138166666Y-84616667D01*
X138266666Y-84650000D01*
X138300000Y-84683333D01*
X138966666Y-85316667D02*
X138566666Y-85316667D01*
X138766666Y-85316667D02*
X138766666Y-84616667D01*
X138700000Y-84716667D01*
X138633333Y-84783333D01*
X138566666Y-84816667D01*
X139400000Y-84616667D02*
X139466667Y-84616667D01*
X139533333Y-84650000D01*
X139566667Y-84683333D01*
X139600000Y-84750000D01*
X139633333Y-84883333D01*
X139633333Y-85050000D01*
X139600000Y-85183333D01*
X139566667Y-85250000D01*
X139533333Y-85283333D01*
X139466667Y-85316667D01*
X139400000Y-85316667D01*
X139333333Y-85283333D01*
X139300000Y-85250000D01*
X139266667Y-85183333D01*
X139233333Y-85050000D01*
X139233333Y-84883333D01*
X139266667Y-84750000D01*
X139300000Y-84683333D01*
X139333333Y-84650000D01*
X139400000Y-84616667D01*
X132850000Y-84050000D02*
X132816666Y-84083333D01*
X132716666Y-84116667D01*
X132650000Y-84116667D01*
X132550000Y-84083333D01*
X132483333Y-84016667D01*
X132450000Y-83950000D01*
X132416666Y-83816667D01*
X132416666Y-83716667D01*
X132450000Y-83583333D01*
X132483333Y-83516667D01*
X132550000Y-83450000D01*
X132650000Y-83416667D01*
X132716666Y-83416667D01*
X132816666Y-83450000D01*
X132850000Y-83483333D01*
X133516666Y-84116667D02*
X133116666Y-84116667D01*
X133316666Y-84116667D02*
X133316666Y-83416667D01*
X133250000Y-83516667D01*
X133183333Y-83583333D01*
X133116666Y-83616667D01*
X134183333Y-84116667D02*
X133783333Y-84116667D01*
X133983333Y-84116667D02*
X133983333Y-83416667D01*
X133916667Y-83516667D01*
X133850000Y-83583333D01*
X133783333Y-83616667D01*
X134900000Y-68350000D02*
X134866666Y-68383333D01*
X134766666Y-68416667D01*
X134700000Y-68416667D01*
X134600000Y-68383333D01*
X134533333Y-68316667D01*
X134500000Y-68250000D01*
X134466666Y-68116667D01*
X134466666Y-68016667D01*
X134500000Y-67883333D01*
X134533333Y-67816667D01*
X134600000Y-67750000D01*
X134700000Y-67716667D01*
X134766666Y-67716667D01*
X134866666Y-67750000D01*
X134900000Y-67783333D01*
X135566666Y-68416667D02*
X135166666Y-68416667D01*
X135366666Y-68416667D02*
X135366666Y-67716667D01*
X135300000Y-67816667D01*
X135233333Y-67883333D01*
X135166666Y-67916667D01*
X135833333Y-67783333D02*
X135866667Y-67750000D01*
X135933333Y-67716667D01*
X136100000Y-67716667D01*
X136166667Y-67750000D01*
X136200000Y-67783333D01*
X136233333Y-67850000D01*
X136233333Y-67916667D01*
X136200000Y-68016667D01*
X135800000Y-68416667D01*
X136233333Y-68416667D01*
X132783334Y-81116667D02*
X132783334Y-80416667D01*
X132950000Y-80416667D01*
X133050000Y-80450000D01*
X133116667Y-80516667D01*
X133150000Y-80583333D01*
X133183334Y-80716667D01*
X133183334Y-80816667D01*
X133150000Y-80950000D01*
X133116667Y-81016667D01*
X133050000Y-81083333D01*
X132950000Y-81116667D01*
X132783334Y-81116667D01*
X133850000Y-81116667D02*
X133450000Y-81116667D01*
X133650000Y-81116667D02*
X133650000Y-80416667D01*
X133583334Y-80516667D01*
X133516667Y-80583333D01*
X133450000Y-80616667D01*
X136333334Y-76816667D02*
X136100000Y-76483333D01*
X135933334Y-76816667D02*
X135933334Y-76116667D01*
X136200000Y-76116667D01*
X136266667Y-76150000D01*
X136300000Y-76183333D01*
X136333334Y-76250000D01*
X136333334Y-76350000D01*
X136300000Y-76416667D01*
X136266667Y-76450000D01*
X136200000Y-76483333D01*
X135933334Y-76483333D01*
X137000000Y-76816667D02*
X136600000Y-76816667D01*
X136800000Y-76816667D02*
X136800000Y-76116667D01*
X136733334Y-76216667D01*
X136666667Y-76283333D01*
X136600000Y-76316667D01*
X125883334Y-65466667D02*
X125650000Y-65133333D01*
X125483334Y-65466667D02*
X125483334Y-64766667D01*
X125750000Y-64766667D01*
X125816667Y-64800000D01*
X125850000Y-64833333D01*
X125883334Y-64900000D01*
X125883334Y-65000000D01*
X125850000Y-65066667D01*
X125816667Y-65100000D01*
X125750000Y-65133333D01*
X125483334Y-65133333D01*
X126483334Y-64766667D02*
X126350000Y-64766667D01*
X126283334Y-64800000D01*
X126250000Y-64833333D01*
X126183334Y-64933333D01*
X126150000Y-65066667D01*
X126150000Y-65333333D01*
X126183334Y-65400000D01*
X126216667Y-65433333D01*
X126283334Y-65466667D01*
X126416667Y-65466667D01*
X126483334Y-65433333D01*
X126516667Y-65400000D01*
X126550000Y-65333333D01*
X126550000Y-65166667D01*
X126516667Y-65100000D01*
X126483334Y-65066667D01*
X126416667Y-65033333D01*
X126283334Y-65033333D01*
X126216667Y-65066667D01*
X126183334Y-65100000D01*
X126150000Y-65166667D01*
X141533334Y-72266667D02*
X141300000Y-71933333D01*
X141133334Y-72266667D02*
X141133334Y-71566667D01*
X141400000Y-71566667D01*
X141466667Y-71600000D01*
X141500000Y-71633333D01*
X141533334Y-71700000D01*
X141533334Y-71800000D01*
X141500000Y-71866667D01*
X141466667Y-71900000D01*
X141400000Y-71933333D01*
X141133334Y-71933333D01*
X141766667Y-71566667D02*
X142233334Y-71566667D01*
X141933334Y-72266667D01*
X120516667Y-64466667D02*
X120516667Y-65033333D01*
X120550000Y-65100000D01*
X120583333Y-65133333D01*
X120650000Y-65166667D01*
X120783333Y-65166667D01*
X120850000Y-65133333D01*
X120883333Y-65100000D01*
X120916667Y-65033333D01*
X120916667Y-64466667D01*
X121616666Y-65166667D02*
X121216666Y-65166667D01*
X121416666Y-65166667D02*
X121416666Y-64466667D01*
X121350000Y-64566667D01*
X121283333Y-64633333D01*
X121216666Y-64666667D01*
X126916667Y-77116667D02*
X126916667Y-77683333D01*
X126950000Y-77750000D01*
X126983333Y-77783333D01*
X127050000Y-77816667D01*
X127183333Y-77816667D01*
X127250000Y-77783333D01*
X127283333Y-77750000D01*
X127316667Y-77683333D01*
X127316667Y-77116667D01*
X127616666Y-77183333D02*
X127650000Y-77150000D01*
X127716666Y-77116667D01*
X127883333Y-77116667D01*
X127950000Y-77150000D01*
X127983333Y-77183333D01*
X128016666Y-77250000D01*
X128016666Y-77316667D01*
X127983333Y-77416667D01*
X127583333Y-77816667D01*
X128016666Y-77816667D01*
X129466667Y-81616667D02*
X129466667Y-82183333D01*
X129500000Y-82250000D01*
X129533333Y-82283333D01*
X129600000Y-82316667D01*
X129733333Y-82316667D01*
X129800000Y-82283333D01*
X129833333Y-82250000D01*
X129866667Y-82183333D01*
X129866667Y-81616667D01*
X130133333Y-81616667D02*
X130566666Y-81616667D01*
X130333333Y-81883333D01*
X130433333Y-81883333D01*
X130500000Y-81916667D01*
X130533333Y-81950000D01*
X130566666Y-82016667D01*
X130566666Y-82183333D01*
X130533333Y-82250000D01*
X130500000Y-82283333D01*
X130433333Y-82316667D01*
X130233333Y-82316667D01*
X130166666Y-82283333D01*
X130133333Y-82250000D01*
X129616667Y-67566667D02*
X129616667Y-68133333D01*
X129650000Y-68200000D01*
X129683333Y-68233333D01*
X129750000Y-68266667D01*
X129883333Y-68266667D01*
X129950000Y-68233333D01*
X129983333Y-68200000D01*
X130016667Y-68133333D01*
X130016667Y-67566667D01*
X130650000Y-67800000D02*
X130650000Y-68266667D01*
X130483333Y-67533333D02*
X130316666Y-68033333D01*
X130750000Y-68033333D01*
X137616667Y-77716667D02*
X137616667Y-78283333D01*
X137650000Y-78350000D01*
X137683333Y-78383333D01*
X137750000Y-78416667D01*
X137883333Y-78416667D01*
X137950000Y-78383333D01*
X137983333Y-78350000D01*
X138016667Y-78283333D01*
X138016667Y-77716667D01*
X138683333Y-77716667D02*
X138350000Y-77716667D01*
X138316666Y-78050000D01*
X138350000Y-78016667D01*
X138416666Y-77983333D01*
X138583333Y-77983333D01*
X138650000Y-78016667D01*
X138683333Y-78050000D01*
X138716666Y-78116667D01*
X138716666Y-78283333D01*
X138683333Y-78350000D01*
X138650000Y-78383333D01*
X138583333Y-78416667D01*
X138416666Y-78416667D01*
X138350000Y-78383333D01*
X138316666Y-78350000D01*
X139416667Y-72666667D02*
X139416667Y-73233333D01*
X139450000Y-73300000D01*
X139483333Y-73333333D01*
X139550000Y-73366667D01*
X139683333Y-73366667D01*
X139750000Y-73333333D01*
X139783333Y-73300000D01*
X139816667Y-73233333D01*
X139816667Y-72666667D01*
X140450000Y-72666667D02*
X140316666Y-72666667D01*
X140250000Y-72700000D01*
X140216666Y-72733333D01*
X140150000Y-72833333D01*
X140116666Y-72966667D01*
X140116666Y-73233333D01*
X140150000Y-73300000D01*
X140183333Y-73333333D01*
X140250000Y-73366667D01*
X140383333Y-73366667D01*
X140450000Y-73333333D01*
X140483333Y-73300000D01*
X140516666Y-73233333D01*
X140516666Y-73066667D01*
X140483333Y-73000000D01*
X140450000Y-72966667D01*
X140383333Y-72933333D01*
X140250000Y-72933333D01*
X140183333Y-72966667D01*
X140150000Y-73000000D01*
X140116666Y-73066667D01*
M02*
