M48
;DRILL file {kicad (after 2015-mar-04 BZR unknown)-product} date Sat 20 Jun 2015 01:48:09 AM EDT
;FORMAT={-:-/ absolute / inch / decimal}
FMAT,2
INCH,TZ
T1C0.013
T2C0.040
T3C0.053
T4C0.057
%
G90
G05
M72
T1
X4.7244Y-2.7087
X4.7933Y-2.7343
X4.9606Y-2.5965
X5.0098Y-2.8228
X5.0098Y-2.9508
X5.0138Y-3.1496
X5.0394Y-3.3071
X5.0492Y-2.8228
X5.0512Y-2.9508
X5.1496Y-2.8484
X5.1949Y-3.3366
X5.2205Y-3.0906
X5.2303Y-3.1398
X5.2461Y-2.9488
X5.2618Y-2.8563
X5.2933Y-2.7106
X5.3346Y-3.1339
X5.3425Y-2.9114
X5.3445Y-2.9547
X5.3504Y-3.1949
X5.3661Y-3.1535
X5.372Y-2.9528
X5.374Y-3.2126
X5.3957Y-3.3209
X5.4035Y-2.8858
X5.4134Y-2.7461
X5.4606Y-2.8031
X5.4626Y-2.9646
X5.4665Y-2.8701
T2
X4.7441Y-2.8118
X4.7441Y-2.9118
X4.7441Y-3.0118
X4.7441Y-3.148
X4.7441Y-3.248
X5.0787Y-2.5984
X5.1787Y-2.5984
X5.2787Y-2.5984
T3
X5.5709Y-2.5787
T4
X5.4709Y-2.4787
X5.4709Y-2.6787
X5.6709Y-2.4787
X5.6709Y-2.6787
T0
M30
