G04 #@! TF.FileFunction,Copper,L2,Bot,Signal*
%FSLAX46Y46*%
G04 Gerber Fmt 4.6, Leading zero omitted, Abs format (unit mm)*
G04 Created by KiCad (PCBNEW (after 2015-mar-04 BZR unknown)-product) date Thu 19 Nov 2015 08:04:08 PM EST*
%MOMM*%
G01*
G04 APERTURE LIST*
%ADD10C,0.100000*%
%ADD11R,2.032000X2.032000*%
%ADD12O,2.032000X2.032000*%
%ADD13R,2.032000X1.727200*%
%ADD14O,2.032000X1.727200*%
%ADD15C,0.508000*%
%ADD16C,0.250000*%
%ADD17C,0.152400*%
G04 APERTURE END LIST*
D10*
D11*
X130175000Y-63881000D03*
D12*
X130175000Y-61341000D03*
D13*
X149225000Y-60071000D03*
D14*
X149225000Y-62611000D03*
X149225000Y-65151000D03*
X149225000Y-67691000D03*
X149225000Y-70231000D03*
X149225000Y-72771000D03*
D13*
X129032000Y-78867000D03*
D14*
X129032000Y-81407000D03*
X129032000Y-83947000D03*
X129032000Y-86487000D03*
D15*
X141732000Y-81915000D03*
X143383000Y-78740000D03*
X140208000Y-77724000D03*
X128016000Y-73406000D03*
X129286000Y-73279000D03*
X135001000Y-71374000D03*
X148209000Y-79375000D03*
X147574000Y-76962000D03*
X130556000Y-75692000D03*
X131445000Y-77089000D03*
X139700000Y-64516000D03*
X143637000Y-58801000D03*
X139954000Y-65913000D03*
X139827000Y-63119000D03*
X139700000Y-61214000D03*
X139700000Y-60325000D03*
X139065000Y-75946000D03*
X138684000Y-73914000D03*
X138176000Y-74422000D03*
X138176000Y-75946000D03*
X138176000Y-76581000D03*
X139065000Y-76581000D03*
X138684000Y-59690000D03*
X144018000Y-61595000D03*
X144780000Y-73025000D03*
X143764000Y-81661000D03*
X145796000Y-79629000D03*
D16*
X130175000Y-63881000D02*
X128905000Y-63881000D01*
X139700000Y-60325000D02*
X132715000Y-60325000D01*
X132715000Y-60325000D02*
X132207000Y-59817000D01*
X132207000Y-59817000D02*
X128651000Y-59817000D01*
X128651000Y-59817000D02*
X128397000Y-60071000D01*
X128397000Y-60071000D02*
X128397000Y-63373000D01*
X128397000Y-63373000D02*
X128905000Y-63881000D01*
X139065000Y-75946000D02*
X139065000Y-74041000D01*
X138176000Y-75946000D02*
X139065000Y-75946000D01*
X139065000Y-74041000D02*
X138684000Y-73914000D01*
X138176000Y-75946000D02*
X138176000Y-74422000D01*
X139065000Y-76581000D02*
X138176000Y-76581000D01*
X142113000Y-59690000D02*
X138684000Y-59690000D01*
X144018000Y-61595000D02*
X142113000Y-59690000D01*
D17*
X145034000Y-72771000D02*
X149225000Y-72771000D01*
X144780000Y-73025000D02*
X145034000Y-72771000D01*
X145796000Y-79629000D02*
X143764000Y-81661000D01*
G36*
X151721400Y-88721400D02*
X151000000Y-88721400D01*
X150493983Y-88721400D01*
X150493983Y-72771000D01*
X150493983Y-70231000D01*
X150493983Y-67691000D01*
X150493983Y-62611000D01*
X150474079Y-62510936D01*
X150474079Y-60934600D01*
X150474079Y-59207400D01*
X150457167Y-59120236D01*
X150406842Y-59043626D01*
X150330871Y-58992344D01*
X150241000Y-58974321D01*
X148209000Y-58974321D01*
X148121836Y-58991233D01*
X148045226Y-59041558D01*
X147993944Y-59117529D01*
X147975921Y-59207400D01*
X147975921Y-60934600D01*
X147992833Y-61021764D01*
X148043158Y-61098374D01*
X148119129Y-61149656D01*
X148209000Y-61167679D01*
X150241000Y-61167679D01*
X150328164Y-61150767D01*
X150404774Y-61100442D01*
X150456056Y-61024471D01*
X150474079Y-60934600D01*
X150474079Y-62510936D01*
X150410844Y-62193033D01*
X150174085Y-61838698D01*
X149819750Y-61601939D01*
X149401783Y-61518800D01*
X149048217Y-61518800D01*
X148630250Y-61601939D01*
X148275915Y-61838698D01*
X148039156Y-62193033D01*
X147956017Y-62611000D01*
X148039156Y-63028967D01*
X148275915Y-63383302D01*
X148630250Y-63620061D01*
X149048217Y-63703200D01*
X149401783Y-63703200D01*
X149819750Y-63620061D01*
X150174085Y-63383302D01*
X150410844Y-63028967D01*
X150493983Y-62611000D01*
X150493983Y-67691000D01*
X150413950Y-67288647D01*
X150413950Y-65495190D01*
X150413950Y-64806810D01*
X150274266Y-64530786D01*
X149968650Y-64234781D01*
X149573022Y-64078262D01*
X149402800Y-64118017D01*
X149402800Y-64973200D01*
X150397064Y-64973200D01*
X150413950Y-64806810D01*
X150413950Y-65495190D01*
X150397064Y-65328800D01*
X149402800Y-65328800D01*
X149402800Y-66183983D01*
X149573022Y-66223738D01*
X149968650Y-66067219D01*
X150274266Y-65771214D01*
X150413950Y-65495190D01*
X150413950Y-67288647D01*
X150410844Y-67273033D01*
X150174085Y-66918698D01*
X149819750Y-66681939D01*
X149401783Y-66598800D01*
X149048217Y-66598800D01*
X149047200Y-66599002D01*
X149047200Y-66183983D01*
X149047200Y-65328800D01*
X149047200Y-64973200D01*
X149047200Y-64118017D01*
X148876978Y-64078262D01*
X148481350Y-64234781D01*
X148175734Y-64530786D01*
X148036050Y-64806810D01*
X148052936Y-64973200D01*
X149047200Y-64973200D01*
X149047200Y-65328800D01*
X148052936Y-65328800D01*
X148036050Y-65495190D01*
X148175734Y-65771214D01*
X148481350Y-66067219D01*
X148876978Y-66223738D01*
X149047200Y-66183983D01*
X149047200Y-66599002D01*
X148630250Y-66681939D01*
X148275915Y-66918698D01*
X148039156Y-67273033D01*
X147956017Y-67691000D01*
X148039156Y-68108967D01*
X148275915Y-68463302D01*
X148630250Y-68700061D01*
X149048217Y-68783200D01*
X149401783Y-68783200D01*
X149819750Y-68700061D01*
X150174085Y-68463302D01*
X150410844Y-68108967D01*
X150493983Y-67691000D01*
X150493983Y-70231000D01*
X150410844Y-69813033D01*
X150174085Y-69458698D01*
X149819750Y-69221939D01*
X149401783Y-69138800D01*
X149048217Y-69138800D01*
X148630250Y-69221939D01*
X148275915Y-69458698D01*
X148039156Y-69813033D01*
X147956017Y-70231000D01*
X148039156Y-70648967D01*
X148275915Y-71003302D01*
X148630250Y-71240061D01*
X149048217Y-71323200D01*
X149401783Y-71323200D01*
X149819750Y-71240061D01*
X150174085Y-71003302D01*
X150410844Y-70648967D01*
X150493983Y-70231000D01*
X150493983Y-72771000D01*
X150410844Y-72353033D01*
X150174085Y-71998698D01*
X149819750Y-71761939D01*
X149401783Y-71678800D01*
X149048217Y-71678800D01*
X148630250Y-71761939D01*
X148275915Y-71998698D01*
X148039156Y-72353033D01*
X148016645Y-72466200D01*
X145034000Y-72466200D01*
X144917358Y-72489402D01*
X144837965Y-72542450D01*
X144684426Y-72542316D01*
X144506986Y-72615633D01*
X144500684Y-72621924D01*
X144500684Y-61499426D01*
X144427367Y-61321986D01*
X144291728Y-61186110D01*
X144114416Y-61112484D01*
X144035480Y-61112414D01*
X142363033Y-59439967D01*
X142248317Y-59363316D01*
X142113000Y-59336400D01*
X139012921Y-59336400D01*
X138957728Y-59281110D01*
X138780416Y-59207484D01*
X138588426Y-59207316D01*
X138410986Y-59280633D01*
X138275110Y-59416272D01*
X138201484Y-59593584D01*
X138201316Y-59785574D01*
X138274633Y-59963014D01*
X138283004Y-59971400D01*
X132861466Y-59971400D01*
X132457033Y-59566967D01*
X132342317Y-59490316D01*
X132207000Y-59463400D01*
X128651000Y-59463400D01*
X128515683Y-59490316D01*
X128400967Y-59566967D01*
X128146967Y-59820967D01*
X128070316Y-59935683D01*
X128043400Y-60071000D01*
X128043400Y-63373000D01*
X128070316Y-63508317D01*
X128146967Y-63623033D01*
X128654967Y-64131033D01*
X128769683Y-64207684D01*
X128905000Y-64234600D01*
X128925921Y-64234600D01*
X128925921Y-64897000D01*
X128942833Y-64984164D01*
X128993158Y-65060774D01*
X129069129Y-65112056D01*
X129159000Y-65130079D01*
X131191000Y-65130079D01*
X131278164Y-65113167D01*
X131354774Y-65062842D01*
X131406056Y-64986871D01*
X131424079Y-64897000D01*
X131424079Y-62865000D01*
X131407167Y-62777836D01*
X131363855Y-62711901D01*
X131363855Y-61709312D01*
X131349063Y-61518800D01*
X130352800Y-61518800D01*
X130352800Y-62515701D01*
X130543315Y-62529871D01*
X130970240Y-62298426D01*
X131276097Y-61921221D01*
X131363855Y-61709312D01*
X131363855Y-62711901D01*
X131356842Y-62701226D01*
X131280871Y-62649944D01*
X131191000Y-62631921D01*
X129997200Y-62631921D01*
X129997200Y-62515701D01*
X129997200Y-61518800D01*
X129000937Y-61518800D01*
X128986145Y-61709312D01*
X129073903Y-61921221D01*
X129379760Y-62298426D01*
X129806685Y-62529871D01*
X129997200Y-62515701D01*
X129997200Y-62631921D01*
X129159000Y-62631921D01*
X129071836Y-62648833D01*
X128995226Y-62699158D01*
X128943944Y-62775129D01*
X128925921Y-62865000D01*
X128925921Y-63401855D01*
X128750600Y-63226534D01*
X128750600Y-60217466D01*
X128797466Y-60170600D01*
X129772613Y-60170600D01*
X129379760Y-60383574D01*
X129073903Y-60760779D01*
X128986145Y-60972688D01*
X129000937Y-61163200D01*
X129997200Y-61163200D01*
X129997200Y-61143200D01*
X130352800Y-61143200D01*
X130352800Y-61163200D01*
X131349063Y-61163200D01*
X131363855Y-60972688D01*
X131276097Y-60760779D01*
X130970240Y-60383574D01*
X130577386Y-60170600D01*
X132060534Y-60170600D01*
X132464967Y-60575033D01*
X132579683Y-60651684D01*
X132715000Y-60678600D01*
X139371078Y-60678600D01*
X139426272Y-60733890D01*
X139603584Y-60807516D01*
X139795574Y-60807684D01*
X139973014Y-60734367D01*
X140108890Y-60598728D01*
X140182516Y-60421416D01*
X140182684Y-60229426D01*
X140109367Y-60051986D01*
X140100995Y-60043600D01*
X141966534Y-60043600D01*
X143535384Y-61612450D01*
X143535316Y-61690574D01*
X143608633Y-61868014D01*
X143744272Y-62003890D01*
X143921584Y-62077516D01*
X144113574Y-62077684D01*
X144291014Y-62004367D01*
X144426890Y-61868728D01*
X144500516Y-61691416D01*
X144500684Y-61499426D01*
X144500684Y-72621924D01*
X144371110Y-72751272D01*
X144297484Y-72928584D01*
X144297316Y-73120574D01*
X144370633Y-73298014D01*
X144506272Y-73433890D01*
X144683584Y-73507516D01*
X144875574Y-73507684D01*
X145053014Y-73434367D01*
X145188890Y-73298728D01*
X145262516Y-73121416D01*
X145262555Y-73075800D01*
X148016645Y-73075800D01*
X148039156Y-73188967D01*
X148275915Y-73543302D01*
X148630250Y-73780061D01*
X149048217Y-73863200D01*
X149401783Y-73863200D01*
X149819750Y-73780061D01*
X150174085Y-73543302D01*
X150410844Y-73188967D01*
X150493983Y-72771000D01*
X150493983Y-88721400D01*
X146278684Y-88721400D01*
X146278684Y-79533426D01*
X146205367Y-79355986D01*
X146069728Y-79220110D01*
X145892416Y-79146484D01*
X145700426Y-79146316D01*
X145522986Y-79219633D01*
X145387110Y-79355272D01*
X145313484Y-79532584D01*
X145313354Y-79680593D01*
X143815503Y-81178444D01*
X143668426Y-81178316D01*
X143490986Y-81251633D01*
X143355110Y-81387272D01*
X143281484Y-81564584D01*
X143281316Y-81756574D01*
X143354633Y-81934014D01*
X143490272Y-82069890D01*
X143667584Y-82143516D01*
X143859574Y-82143684D01*
X144037014Y-82070367D01*
X144172890Y-81934728D01*
X144246516Y-81757416D01*
X144246645Y-81609406D01*
X145744496Y-80111555D01*
X145891574Y-80111684D01*
X146069014Y-80038367D01*
X146204890Y-79902728D01*
X146278516Y-79725416D01*
X146278684Y-79533426D01*
X146278684Y-88721400D01*
X139674600Y-88721400D01*
X139674600Y-77190600D01*
X139674600Y-73431400D01*
X138684421Y-73431400D01*
X138588426Y-73431316D01*
X138588222Y-73431400D01*
X137566400Y-73431400D01*
X137566400Y-77190600D01*
X139674600Y-77190600D01*
X139674600Y-88721400D01*
X130300983Y-88721400D01*
X130300983Y-83947000D01*
X130300983Y-81407000D01*
X130281079Y-81306936D01*
X130281079Y-79730600D01*
X130281079Y-78003400D01*
X130264167Y-77916236D01*
X130213842Y-77839626D01*
X130137871Y-77788344D01*
X130048000Y-77770321D01*
X128016000Y-77770321D01*
X127928836Y-77787233D01*
X127852226Y-77837558D01*
X127800944Y-77913529D01*
X127782921Y-78003400D01*
X127782921Y-79730600D01*
X127799833Y-79817764D01*
X127850158Y-79894374D01*
X127926129Y-79945656D01*
X128016000Y-79963679D01*
X130048000Y-79963679D01*
X130135164Y-79946767D01*
X130211774Y-79896442D01*
X130263056Y-79820471D01*
X130281079Y-79730600D01*
X130281079Y-81306936D01*
X130217844Y-80989033D01*
X129981085Y-80634698D01*
X129626750Y-80397939D01*
X129208783Y-80314800D01*
X128855217Y-80314800D01*
X128437250Y-80397939D01*
X128082915Y-80634698D01*
X127846156Y-80989033D01*
X127763017Y-81407000D01*
X127846156Y-81824967D01*
X128082915Y-82179302D01*
X128437250Y-82416061D01*
X128855217Y-82499200D01*
X129208783Y-82499200D01*
X129626750Y-82416061D01*
X129981085Y-82179302D01*
X130217844Y-81824967D01*
X130300983Y-81407000D01*
X130300983Y-83947000D01*
X130217844Y-83529033D01*
X129981085Y-83174698D01*
X129626750Y-82937939D01*
X129208783Y-82854800D01*
X128855217Y-82854800D01*
X128437250Y-82937939D01*
X128082915Y-83174698D01*
X127846156Y-83529033D01*
X127763017Y-83947000D01*
X127846156Y-84364967D01*
X128082915Y-84719302D01*
X128437250Y-84956061D01*
X128855217Y-85039200D01*
X129208783Y-85039200D01*
X129626750Y-84956061D01*
X129981085Y-84719302D01*
X130217844Y-84364967D01*
X130300983Y-83947000D01*
X130300983Y-88721400D01*
X130220950Y-88721400D01*
X130220950Y-86831190D01*
X130220950Y-86142810D01*
X130081266Y-85866786D01*
X129775650Y-85570781D01*
X129380022Y-85414262D01*
X129209800Y-85454017D01*
X129209800Y-86309200D01*
X130204064Y-86309200D01*
X130220950Y-86142810D01*
X130220950Y-86831190D01*
X130204064Y-86664800D01*
X129209800Y-86664800D01*
X129209800Y-87519983D01*
X129380022Y-87559738D01*
X129775650Y-87403219D01*
X130081266Y-87107214D01*
X130220950Y-86831190D01*
X130220950Y-88721400D01*
X128854200Y-88721400D01*
X128854200Y-87519983D01*
X128854200Y-86664800D01*
X128854200Y-86309200D01*
X128854200Y-85454017D01*
X128683978Y-85414262D01*
X128288350Y-85570781D01*
X127982734Y-85866786D01*
X127843050Y-86142810D01*
X127859936Y-86309200D01*
X128854200Y-86309200D01*
X128854200Y-86664800D01*
X127859936Y-86664800D01*
X127843050Y-86831190D01*
X127982734Y-87107214D01*
X128288350Y-87403219D01*
X128683978Y-87559738D01*
X128854200Y-87519983D01*
X128854200Y-88721400D01*
X126278600Y-88721400D01*
X126278600Y-57278600D01*
X151721400Y-57278600D01*
X151721400Y-88721400D01*
X151721400Y-88721400D01*
G37*
X151721400Y-88721400D02*
X151000000Y-88721400D01*
X150493983Y-88721400D01*
X150493983Y-72771000D01*
X150493983Y-70231000D01*
X150493983Y-67691000D01*
X150493983Y-62611000D01*
X150474079Y-62510936D01*
X150474079Y-60934600D01*
X150474079Y-59207400D01*
X150457167Y-59120236D01*
X150406842Y-59043626D01*
X150330871Y-58992344D01*
X150241000Y-58974321D01*
X148209000Y-58974321D01*
X148121836Y-58991233D01*
X148045226Y-59041558D01*
X147993944Y-59117529D01*
X147975921Y-59207400D01*
X147975921Y-60934600D01*
X147992833Y-61021764D01*
X148043158Y-61098374D01*
X148119129Y-61149656D01*
X148209000Y-61167679D01*
X150241000Y-61167679D01*
X150328164Y-61150767D01*
X150404774Y-61100442D01*
X150456056Y-61024471D01*
X150474079Y-60934600D01*
X150474079Y-62510936D01*
X150410844Y-62193033D01*
X150174085Y-61838698D01*
X149819750Y-61601939D01*
X149401783Y-61518800D01*
X149048217Y-61518800D01*
X148630250Y-61601939D01*
X148275915Y-61838698D01*
X148039156Y-62193033D01*
X147956017Y-62611000D01*
X148039156Y-63028967D01*
X148275915Y-63383302D01*
X148630250Y-63620061D01*
X149048217Y-63703200D01*
X149401783Y-63703200D01*
X149819750Y-63620061D01*
X150174085Y-63383302D01*
X150410844Y-63028967D01*
X150493983Y-62611000D01*
X150493983Y-67691000D01*
X150413950Y-67288647D01*
X150413950Y-65495190D01*
X150413950Y-64806810D01*
X150274266Y-64530786D01*
X149968650Y-64234781D01*
X149573022Y-64078262D01*
X149402800Y-64118017D01*
X149402800Y-64973200D01*
X150397064Y-64973200D01*
X150413950Y-64806810D01*
X150413950Y-65495190D01*
X150397064Y-65328800D01*
X149402800Y-65328800D01*
X149402800Y-66183983D01*
X149573022Y-66223738D01*
X149968650Y-66067219D01*
X150274266Y-65771214D01*
X150413950Y-65495190D01*
X150413950Y-67288647D01*
X150410844Y-67273033D01*
X150174085Y-66918698D01*
X149819750Y-66681939D01*
X149401783Y-66598800D01*
X149048217Y-66598800D01*
X149047200Y-66599002D01*
X149047200Y-66183983D01*
X149047200Y-65328800D01*
X149047200Y-64973200D01*
X149047200Y-64118017D01*
X148876978Y-64078262D01*
X148481350Y-64234781D01*
X148175734Y-64530786D01*
X148036050Y-64806810D01*
X148052936Y-64973200D01*
X149047200Y-64973200D01*
X149047200Y-65328800D01*
X148052936Y-65328800D01*
X148036050Y-65495190D01*
X148175734Y-65771214D01*
X148481350Y-66067219D01*
X148876978Y-66223738D01*
X149047200Y-66183983D01*
X149047200Y-66599002D01*
X148630250Y-66681939D01*
X148275915Y-66918698D01*
X148039156Y-67273033D01*
X147956017Y-67691000D01*
X148039156Y-68108967D01*
X148275915Y-68463302D01*
X148630250Y-68700061D01*
X149048217Y-68783200D01*
X149401783Y-68783200D01*
X149819750Y-68700061D01*
X150174085Y-68463302D01*
X150410844Y-68108967D01*
X150493983Y-67691000D01*
X150493983Y-70231000D01*
X150410844Y-69813033D01*
X150174085Y-69458698D01*
X149819750Y-69221939D01*
X149401783Y-69138800D01*
X149048217Y-69138800D01*
X148630250Y-69221939D01*
X148275915Y-69458698D01*
X148039156Y-69813033D01*
X147956017Y-70231000D01*
X148039156Y-70648967D01*
X148275915Y-71003302D01*
X148630250Y-71240061D01*
X149048217Y-71323200D01*
X149401783Y-71323200D01*
X149819750Y-71240061D01*
X150174085Y-71003302D01*
X150410844Y-70648967D01*
X150493983Y-70231000D01*
X150493983Y-72771000D01*
X150410844Y-72353033D01*
X150174085Y-71998698D01*
X149819750Y-71761939D01*
X149401783Y-71678800D01*
X149048217Y-71678800D01*
X148630250Y-71761939D01*
X148275915Y-71998698D01*
X148039156Y-72353033D01*
X148016645Y-72466200D01*
X145034000Y-72466200D01*
X144917358Y-72489402D01*
X144837965Y-72542450D01*
X144684426Y-72542316D01*
X144506986Y-72615633D01*
X144500684Y-72621924D01*
X144500684Y-61499426D01*
X144427367Y-61321986D01*
X144291728Y-61186110D01*
X144114416Y-61112484D01*
X144035480Y-61112414D01*
X142363033Y-59439967D01*
X142248317Y-59363316D01*
X142113000Y-59336400D01*
X139012921Y-59336400D01*
X138957728Y-59281110D01*
X138780416Y-59207484D01*
X138588426Y-59207316D01*
X138410986Y-59280633D01*
X138275110Y-59416272D01*
X138201484Y-59593584D01*
X138201316Y-59785574D01*
X138274633Y-59963014D01*
X138283004Y-59971400D01*
X132861466Y-59971400D01*
X132457033Y-59566967D01*
X132342317Y-59490316D01*
X132207000Y-59463400D01*
X128651000Y-59463400D01*
X128515683Y-59490316D01*
X128400967Y-59566967D01*
X128146967Y-59820967D01*
X128070316Y-59935683D01*
X128043400Y-60071000D01*
X128043400Y-63373000D01*
X128070316Y-63508317D01*
X128146967Y-63623033D01*
X128654967Y-64131033D01*
X128769683Y-64207684D01*
X128905000Y-64234600D01*
X128925921Y-64234600D01*
X128925921Y-64897000D01*
X128942833Y-64984164D01*
X128993158Y-65060774D01*
X129069129Y-65112056D01*
X129159000Y-65130079D01*
X131191000Y-65130079D01*
X131278164Y-65113167D01*
X131354774Y-65062842D01*
X131406056Y-64986871D01*
X131424079Y-64897000D01*
X131424079Y-62865000D01*
X131407167Y-62777836D01*
X131363855Y-62711901D01*
X131363855Y-61709312D01*
X131349063Y-61518800D01*
X130352800Y-61518800D01*
X130352800Y-62515701D01*
X130543315Y-62529871D01*
X130970240Y-62298426D01*
X131276097Y-61921221D01*
X131363855Y-61709312D01*
X131363855Y-62711901D01*
X131356842Y-62701226D01*
X131280871Y-62649944D01*
X131191000Y-62631921D01*
X129997200Y-62631921D01*
X129997200Y-62515701D01*
X129997200Y-61518800D01*
X129000937Y-61518800D01*
X128986145Y-61709312D01*
X129073903Y-61921221D01*
X129379760Y-62298426D01*
X129806685Y-62529871D01*
X129997200Y-62515701D01*
X129997200Y-62631921D01*
X129159000Y-62631921D01*
X129071836Y-62648833D01*
X128995226Y-62699158D01*
X128943944Y-62775129D01*
X128925921Y-62865000D01*
X128925921Y-63401855D01*
X128750600Y-63226534D01*
X128750600Y-60217466D01*
X128797466Y-60170600D01*
X129772613Y-60170600D01*
X129379760Y-60383574D01*
X129073903Y-60760779D01*
X128986145Y-60972688D01*
X129000937Y-61163200D01*
X129997200Y-61163200D01*
X129997200Y-61143200D01*
X130352800Y-61143200D01*
X130352800Y-61163200D01*
X131349063Y-61163200D01*
X131363855Y-60972688D01*
X131276097Y-60760779D01*
X130970240Y-60383574D01*
X130577386Y-60170600D01*
X132060534Y-60170600D01*
X132464967Y-60575033D01*
X132579683Y-60651684D01*
X132715000Y-60678600D01*
X139371078Y-60678600D01*
X139426272Y-60733890D01*
X139603584Y-60807516D01*
X139795574Y-60807684D01*
X139973014Y-60734367D01*
X140108890Y-60598728D01*
X140182516Y-60421416D01*
X140182684Y-60229426D01*
X140109367Y-60051986D01*
X140100995Y-60043600D01*
X141966534Y-60043600D01*
X143535384Y-61612450D01*
X143535316Y-61690574D01*
X143608633Y-61868014D01*
X143744272Y-62003890D01*
X143921584Y-62077516D01*
X144113574Y-62077684D01*
X144291014Y-62004367D01*
X144426890Y-61868728D01*
X144500516Y-61691416D01*
X144500684Y-61499426D01*
X144500684Y-72621924D01*
X144371110Y-72751272D01*
X144297484Y-72928584D01*
X144297316Y-73120574D01*
X144370633Y-73298014D01*
X144506272Y-73433890D01*
X144683584Y-73507516D01*
X144875574Y-73507684D01*
X145053014Y-73434367D01*
X145188890Y-73298728D01*
X145262516Y-73121416D01*
X145262555Y-73075800D01*
X148016645Y-73075800D01*
X148039156Y-73188967D01*
X148275915Y-73543302D01*
X148630250Y-73780061D01*
X149048217Y-73863200D01*
X149401783Y-73863200D01*
X149819750Y-73780061D01*
X150174085Y-73543302D01*
X150410844Y-73188967D01*
X150493983Y-72771000D01*
X150493983Y-88721400D01*
X146278684Y-88721400D01*
X146278684Y-79533426D01*
X146205367Y-79355986D01*
X146069728Y-79220110D01*
X145892416Y-79146484D01*
X145700426Y-79146316D01*
X145522986Y-79219633D01*
X145387110Y-79355272D01*
X145313484Y-79532584D01*
X145313354Y-79680593D01*
X143815503Y-81178444D01*
X143668426Y-81178316D01*
X143490986Y-81251633D01*
X143355110Y-81387272D01*
X143281484Y-81564584D01*
X143281316Y-81756574D01*
X143354633Y-81934014D01*
X143490272Y-82069890D01*
X143667584Y-82143516D01*
X143859574Y-82143684D01*
X144037014Y-82070367D01*
X144172890Y-81934728D01*
X144246516Y-81757416D01*
X144246645Y-81609406D01*
X145744496Y-80111555D01*
X145891574Y-80111684D01*
X146069014Y-80038367D01*
X146204890Y-79902728D01*
X146278516Y-79725416D01*
X146278684Y-79533426D01*
X146278684Y-88721400D01*
X139674600Y-88721400D01*
X139674600Y-77190600D01*
X139674600Y-73431400D01*
X138684421Y-73431400D01*
X138588426Y-73431316D01*
X138588222Y-73431400D01*
X137566400Y-73431400D01*
X137566400Y-77190600D01*
X139674600Y-77190600D01*
X139674600Y-88721400D01*
X130300983Y-88721400D01*
X130300983Y-83947000D01*
X130300983Y-81407000D01*
X130281079Y-81306936D01*
X130281079Y-79730600D01*
X130281079Y-78003400D01*
X130264167Y-77916236D01*
X130213842Y-77839626D01*
X130137871Y-77788344D01*
X130048000Y-77770321D01*
X128016000Y-77770321D01*
X127928836Y-77787233D01*
X127852226Y-77837558D01*
X127800944Y-77913529D01*
X127782921Y-78003400D01*
X127782921Y-79730600D01*
X127799833Y-79817764D01*
X127850158Y-79894374D01*
X127926129Y-79945656D01*
X128016000Y-79963679D01*
X130048000Y-79963679D01*
X130135164Y-79946767D01*
X130211774Y-79896442D01*
X130263056Y-79820471D01*
X130281079Y-79730600D01*
X130281079Y-81306936D01*
X130217844Y-80989033D01*
X129981085Y-80634698D01*
X129626750Y-80397939D01*
X129208783Y-80314800D01*
X128855217Y-80314800D01*
X128437250Y-80397939D01*
X128082915Y-80634698D01*
X127846156Y-80989033D01*
X127763017Y-81407000D01*
X127846156Y-81824967D01*
X128082915Y-82179302D01*
X128437250Y-82416061D01*
X128855217Y-82499200D01*
X129208783Y-82499200D01*
X129626750Y-82416061D01*
X129981085Y-82179302D01*
X130217844Y-81824967D01*
X130300983Y-81407000D01*
X130300983Y-83947000D01*
X130217844Y-83529033D01*
X129981085Y-83174698D01*
X129626750Y-82937939D01*
X129208783Y-82854800D01*
X128855217Y-82854800D01*
X128437250Y-82937939D01*
X128082915Y-83174698D01*
X127846156Y-83529033D01*
X127763017Y-83947000D01*
X127846156Y-84364967D01*
X128082915Y-84719302D01*
X128437250Y-84956061D01*
X128855217Y-85039200D01*
X129208783Y-85039200D01*
X129626750Y-84956061D01*
X129981085Y-84719302D01*
X130217844Y-84364967D01*
X130300983Y-83947000D01*
X130300983Y-88721400D01*
X130220950Y-88721400D01*
X130220950Y-86831190D01*
X130220950Y-86142810D01*
X130081266Y-85866786D01*
X129775650Y-85570781D01*
X129380022Y-85414262D01*
X129209800Y-85454017D01*
X129209800Y-86309200D01*
X130204064Y-86309200D01*
X130220950Y-86142810D01*
X130220950Y-86831190D01*
X130204064Y-86664800D01*
X129209800Y-86664800D01*
X129209800Y-87519983D01*
X129380022Y-87559738D01*
X129775650Y-87403219D01*
X130081266Y-87107214D01*
X130220950Y-86831190D01*
X130220950Y-88721400D01*
X128854200Y-88721400D01*
X128854200Y-87519983D01*
X128854200Y-86664800D01*
X128854200Y-86309200D01*
X128854200Y-85454017D01*
X128683978Y-85414262D01*
X128288350Y-85570781D01*
X127982734Y-85866786D01*
X127843050Y-86142810D01*
X127859936Y-86309200D01*
X128854200Y-86309200D01*
X128854200Y-86664800D01*
X127859936Y-86664800D01*
X127843050Y-86831190D01*
X127982734Y-87107214D01*
X128288350Y-87403219D01*
X128683978Y-87559738D01*
X128854200Y-87519983D01*
X128854200Y-88721400D01*
X126278600Y-88721400D01*
X126278600Y-57278600D01*
X151721400Y-57278600D01*
X151721400Y-88721400D01*
G36*
X139369800Y-76885800D02*
X137871200Y-76885800D01*
X137871200Y-73736200D01*
X139369800Y-73736200D01*
X139369800Y-76885800D01*
X139369800Y-76885800D01*
G37*
X139369800Y-76885800D02*
X137871200Y-76885800D01*
X137871200Y-73736200D01*
X139369800Y-73736200D01*
X139369800Y-76885800D01*
M02*
