M48
;DRILL file {pcbnew (after 2015-mar-04 BZR unknown)-product} date Thu 19 Nov 2015 08:04:09 PM EST
;FORMAT={-:-/ absolute / inch / decimal}
FMAT,2
INCH,TZ
T1C0.013
T2C0.040
%
G90
G05
M72
T1
X5.04Y-2.89
X5.09Y-2.885
X5.14Y-2.98
X5.175Y-3.035
X5.315Y-2.81
X5.44Y-2.93
X5.44Y-2.99
X5.44Y-3.015
X5.46Y-2.35
X5.46Y-2.91
X5.475Y-2.99
X5.475Y-3.015
X5.5Y-2.375
X5.5Y-2.41
X5.5Y-2.54
X5.505Y-2.485
X5.51Y-2.595
X5.52Y-3.06
X5.58Y-3.225
X5.645Y-3.1
X5.655Y-2.315
X5.66Y-3.215
X5.67Y-2.425
X5.7Y-2.875
X5.74Y-3.135
X5.81Y-3.03
X5.835Y-3.125
T2
X5.08Y-3.105
X5.08Y-3.205
X5.08Y-3.305
X5.08Y-3.405
X5.125Y-2.415
X5.125Y-2.515
X5.875Y-2.365
X5.875Y-2.465
X5.875Y-2.565
X5.875Y-2.665
X5.875Y-2.765
X5.875Y-2.865
T0
M30
