G04 #@! TF.FileFunction,Copper,L1,Top,Signal*
%FSLAX46Y46*%
G04 Gerber Fmt 4.6, Leading zero omitted, Abs format (unit mm)*
G04 Created by KiCad (PCBNEW (after 2015-mar-04 BZR unknown)-product) date Thu 19 Nov 2015 08:04:08 PM EST*
%MOMM*%
G01*
G04 APERTURE LIST*
%ADD10C,0.100000*%
%ADD11R,1.230000X1.800000*%
%ADD12R,1.000000X1.250000*%
%ADD13R,0.500000X0.600000*%
%ADD14R,0.800000X0.750000*%
%ADD15R,0.600000X0.500000*%
%ADD16R,0.797560X0.797560*%
%ADD17R,1.780000X1.020000*%
%ADD18R,2.032000X2.032000*%
%ADD19O,2.032000X2.032000*%
%ADD20R,2.032000X1.727200*%
%ADD21O,2.032000X1.727200*%
%ADD22R,0.400000X0.600000*%
%ADD23R,0.600000X0.400000*%
%ADD24R,1.000000X1.100000*%
%ADD25R,0.749300X0.398780*%
%ADD26R,1.060000X0.650000*%
%ADD27R,1.450000X0.450000*%
%ADD28C,0.508000*%
%ADD29C,0.250000*%
%ADD30C,0.152400*%
G04 APERTURE END LIST*
D10*
D11*
X133350000Y-61428000D03*
X133350000Y-64048000D03*
D12*
X136795000Y-65532000D03*
X138795000Y-65532000D03*
D13*
X128016000Y-71586000D03*
X128016000Y-72686000D03*
D12*
X136795000Y-63500000D03*
X138795000Y-63500000D03*
D14*
X143879000Y-60325000D03*
X142379000Y-60325000D03*
D12*
X142732000Y-64643000D03*
X140732000Y-64643000D03*
D15*
X133265000Y-77089000D03*
X132165000Y-77089000D03*
X149521000Y-76962000D03*
X148421000Y-76962000D03*
X132376000Y-75692000D03*
X131276000Y-75692000D03*
D13*
X143383000Y-76793000D03*
X143383000Y-77893000D03*
D16*
X140703300Y-81915000D03*
X139204700Y-81915000D03*
D17*
X137033000Y-61723000D03*
X137033000Y-59943000D03*
D18*
X130175000Y-63881000D03*
D19*
X130175000Y-61341000D03*
D20*
X149225000Y-60071000D03*
D21*
X149225000Y-62611000D03*
X149225000Y-65151000D03*
X149225000Y-67691000D03*
X149225000Y-70231000D03*
X149225000Y-72771000D03*
D20*
X129032000Y-78867000D03*
D21*
X129032000Y-81407000D03*
X129032000Y-83947000D03*
X129032000Y-86487000D03*
D22*
X142171000Y-61722000D03*
X143071000Y-61722000D03*
X143071000Y-58801000D03*
X142171000Y-58801000D03*
D23*
X135001000Y-72967000D03*
X135001000Y-72067000D03*
D22*
X137864000Y-82042000D03*
X136964000Y-82042000D03*
D24*
X130187000Y-71440000D03*
X130187000Y-73340000D03*
X131687000Y-73340000D03*
X131687000Y-71440000D03*
D25*
X138750040Y-60563760D03*
X138750040Y-61214000D03*
X138750040Y-61864240D03*
X140649960Y-61864240D03*
X140649960Y-61214000D03*
X140649960Y-60563760D03*
D26*
X147109000Y-78425000D03*
X147109000Y-79375000D03*
X147109000Y-80325000D03*
X149309000Y-80325000D03*
X149309000Y-78425000D03*
D27*
X135480000Y-74418000D03*
X135480000Y-75068000D03*
X135480000Y-75718000D03*
X135480000Y-76368000D03*
X135480000Y-77018000D03*
X135480000Y-77668000D03*
X135480000Y-78318000D03*
X135480000Y-78968000D03*
X135480000Y-79618000D03*
X135480000Y-80268000D03*
X141380000Y-80268000D03*
X141380000Y-79618000D03*
X141380000Y-78968000D03*
X141380000Y-78318000D03*
X141380000Y-77668000D03*
X141380000Y-77018000D03*
X141380000Y-76368000D03*
X141380000Y-75718000D03*
X141380000Y-75068000D03*
X141380000Y-74418000D03*
D28*
X141732000Y-81915000D03*
X143383000Y-78740000D03*
X140208000Y-77724000D03*
X128016000Y-73406000D03*
X129286000Y-73279000D03*
X135001000Y-71374000D03*
X148209000Y-79375000D03*
X147574000Y-76962000D03*
X130556000Y-75692000D03*
X131445000Y-77089000D03*
X139700000Y-64516000D03*
X143637000Y-58801000D03*
X139954000Y-65913000D03*
X139827000Y-63119000D03*
X139700000Y-61214000D03*
X139700000Y-60325000D03*
X139065000Y-75946000D03*
X138684000Y-73914000D03*
X138176000Y-74422000D03*
X138176000Y-75946000D03*
X138176000Y-76581000D03*
X139065000Y-76581000D03*
X138684000Y-59690000D03*
X144018000Y-61595000D03*
X144780000Y-73025000D03*
X143764000Y-81661000D03*
X145796000Y-79629000D03*
D29*
X140703300Y-81915000D02*
X141732000Y-81915000D01*
X143383000Y-77893000D02*
X143383000Y-78740000D01*
X141380000Y-77668000D02*
X140264000Y-77668000D01*
X140264000Y-77668000D02*
X140208000Y-77724000D01*
X128016000Y-72686000D02*
X128016000Y-73406000D01*
X130187000Y-73340000D02*
X129347000Y-73340000D01*
X129347000Y-73340000D02*
X129286000Y-73279000D01*
X135001000Y-72067000D02*
X135001000Y-71374000D01*
X147109000Y-79375000D02*
X148209000Y-79375000D01*
X148421000Y-76962000D02*
X147574000Y-76962000D01*
X131276000Y-75692000D02*
X130556000Y-75692000D01*
X132165000Y-77089000D02*
X131445000Y-77089000D01*
X140732000Y-64643000D02*
X139827000Y-64643000D01*
X139827000Y-64643000D02*
X139700000Y-64516000D01*
X143071000Y-58801000D02*
X143637000Y-58801000D01*
X138795000Y-65532000D02*
X139573000Y-65532000D01*
X139573000Y-65532000D02*
X139954000Y-65913000D01*
X138795000Y-63500000D02*
X139446000Y-63500000D01*
X139446000Y-63500000D02*
X139827000Y-63119000D01*
X140649960Y-61214000D02*
X139700000Y-61214000D01*
X139700000Y-61214000D02*
X138750040Y-61214000D01*
X139461240Y-60563760D02*
X139700000Y-60325000D01*
X139461240Y-60563760D02*
X138750040Y-60563760D01*
X138811000Y-73787000D02*
X138811000Y-69215000D01*
X138684000Y-73914000D02*
X138811000Y-73787000D01*
X138176000Y-69088000D02*
X138176000Y-69215000D01*
X138176000Y-74422000D02*
X138176000Y-69088000D01*
X141380000Y-77018000D02*
X139502000Y-77018000D01*
X138176000Y-76581000D02*
X138176000Y-75946000D01*
X139502000Y-77018000D02*
X139065000Y-76581000D01*
X131687000Y-71440000D02*
X131687000Y-69227000D01*
X131687000Y-69227000D02*
X131699000Y-69215000D01*
X130187000Y-71440000D02*
X130187000Y-69100000D01*
X130187000Y-69100000D02*
X130175000Y-69088000D01*
X128016000Y-71586000D02*
X130041000Y-71586000D01*
X130041000Y-71586000D02*
X130187000Y-71440000D01*
X132376000Y-75692000D02*
X132376000Y-75099000D01*
X126746000Y-72856000D02*
X128016000Y-71586000D01*
X126746000Y-74041000D02*
X126746000Y-72856000D01*
X127508000Y-74803000D02*
X126746000Y-74041000D01*
X132080000Y-74803000D02*
X127508000Y-74803000D01*
X132376000Y-75099000D02*
X132080000Y-74803000D01*
X133265000Y-77089000D02*
X133265000Y-76581000D01*
X133265000Y-76581000D02*
X132376000Y-75692000D01*
X135480000Y-77668000D02*
X134310000Y-77668000D01*
X133985000Y-77343000D02*
X133985000Y-77018000D01*
X134310000Y-77668000D02*
X133985000Y-77343000D01*
X135480000Y-77018000D02*
X133985000Y-77018000D01*
X133985000Y-77018000D02*
X133336000Y-77018000D01*
X133336000Y-77018000D02*
X133265000Y-77089000D01*
X129032000Y-78867000D02*
X132461000Y-78867000D01*
X133265000Y-78063000D02*
X133265000Y-77089000D01*
X132461000Y-78867000D02*
X133265000Y-78063000D01*
X149521000Y-76962000D02*
X149521000Y-78213000D01*
X149521000Y-78213000D02*
X149309000Y-78425000D01*
X143383000Y-76793000D02*
X143425000Y-76793000D01*
X143425000Y-76793000D02*
X144272000Y-75946000D01*
X144272000Y-75946000D02*
X149098000Y-75946000D01*
X149098000Y-75946000D02*
X149521000Y-76369000D01*
X149521000Y-76369000D02*
X149521000Y-76962000D01*
X141380000Y-77018000D02*
X143158000Y-77018000D01*
X149521000Y-78213000D02*
X149309000Y-78425000D01*
X143879000Y-60325000D02*
X148971000Y-60325000D01*
X148971000Y-60325000D02*
X149225000Y-60071000D01*
X143879000Y-60325000D02*
X143879000Y-61456000D01*
X143879000Y-61456000D02*
X144018000Y-61595000D01*
X143071000Y-61722000D02*
X143891000Y-61722000D01*
X138431000Y-59943000D02*
X137033000Y-59943000D01*
X138684000Y-59690000D02*
X138431000Y-59943000D01*
X143891000Y-61722000D02*
X144018000Y-61595000D01*
D30*
X142171000Y-58801000D02*
X142171000Y-60117000D01*
X142171000Y-60117000D02*
X142379000Y-60325000D01*
X142171000Y-61722000D02*
X142171000Y-61145000D01*
X142171000Y-61145000D02*
X141589760Y-60563760D01*
X140649960Y-60563760D02*
X141589760Y-60563760D01*
X141589760Y-60563760D02*
X142140240Y-60563760D01*
X142140240Y-60563760D02*
X142379000Y-60325000D01*
X137864000Y-82042000D02*
X139077700Y-82042000D01*
X139077700Y-82042000D02*
X139204700Y-81915000D01*
X141380000Y-74418000D02*
X144403000Y-74418000D01*
X147447000Y-62611000D02*
X149225000Y-62611000D01*
X146558000Y-63500000D02*
X147447000Y-62611000D01*
X146558000Y-72263000D02*
X146558000Y-63500000D01*
X144403000Y-74418000D02*
X146558000Y-72263000D01*
X141380000Y-75068000D02*
X145785000Y-75068000D01*
X147828000Y-67691000D02*
X149225000Y-67691000D01*
X147320000Y-68199000D02*
X147828000Y-67691000D01*
X147320000Y-73533000D02*
X147320000Y-68199000D01*
X145785000Y-75068000D02*
X147320000Y-73533000D01*
X135480000Y-76368000D02*
X136992000Y-76368000D01*
X140335000Y-73025000D02*
X144780000Y-73025000D01*
X136992000Y-76368000D02*
X140335000Y-73025000D01*
X135480000Y-78968000D02*
X133884000Y-78968000D01*
X131445000Y-81407000D02*
X129032000Y-81407000D01*
X133884000Y-78968000D02*
X131445000Y-81407000D01*
X135480000Y-79618000D02*
X134250000Y-79618000D01*
X134250000Y-79618000D02*
X129921000Y-83947000D01*
X129921000Y-83947000D02*
X129032000Y-83947000D01*
X135001000Y-72967000D02*
X135001000Y-73939000D01*
X135001000Y-73939000D02*
X135480000Y-74418000D01*
X136964000Y-82042000D02*
X136964000Y-78798000D01*
X136484000Y-78318000D02*
X135480000Y-78318000D01*
X136964000Y-78798000D02*
X136484000Y-78318000D01*
X135480000Y-75068000D02*
X133415000Y-75068000D01*
X133415000Y-75068000D02*
X131687000Y-73340000D01*
X147109000Y-78425000D02*
X146111000Y-78425000D01*
X135480000Y-82140000D02*
X135480000Y-80268000D01*
X136398000Y-83058000D02*
X135480000Y-82140000D01*
X142367000Y-83058000D02*
X136398000Y-83058000D01*
X143764000Y-81661000D02*
X142367000Y-83058000D01*
X145796000Y-78740000D02*
X145796000Y-79629000D01*
X146111000Y-78425000D02*
X145796000Y-78740000D01*
X141380000Y-79618000D02*
X144642000Y-79618000D01*
X145349000Y-80325000D02*
X147109000Y-80325000D01*
X144642000Y-79618000D02*
X145349000Y-80325000D01*
X141380000Y-80268000D02*
X143895000Y-80268000D01*
X149309000Y-81196000D02*
X149309000Y-80325000D01*
X148971000Y-81534000D02*
X149309000Y-81196000D01*
X145161000Y-81534000D02*
X148971000Y-81534000D01*
X143895000Y-80268000D02*
X145161000Y-81534000D01*
G36*
X138947840Y-61963935D02*
X138927840Y-61963935D01*
X138927840Y-62062040D01*
X138572240Y-62062040D01*
X138572240Y-61963935D01*
X138203940Y-61963935D01*
X138151600Y-62016275D01*
X138151600Y-61957950D01*
X138094450Y-61900800D01*
X137210800Y-61900800D01*
X137210800Y-61920800D01*
X136855200Y-61920800D01*
X136855200Y-61900800D01*
X136835200Y-61900800D01*
X136835200Y-61545200D01*
X136855200Y-61545200D01*
X136855200Y-61525200D01*
X137210800Y-61525200D01*
X137210800Y-61545200D01*
X138094450Y-61545200D01*
X138099800Y-61539850D01*
X138099800Y-61671200D01*
X138146790Y-61671200D01*
X138146790Y-61707395D01*
X138203940Y-61764545D01*
X138572240Y-61764545D01*
X138572240Y-61671200D01*
X138927840Y-61671200D01*
X138927840Y-61764545D01*
X138947840Y-61764545D01*
X138947840Y-61963935D01*
X138947840Y-61963935D01*
G37*
X138947840Y-61963935D02*
X138927840Y-61963935D01*
X138927840Y-62062040D01*
X138572240Y-62062040D01*
X138572240Y-61963935D01*
X138203940Y-61963935D01*
X138151600Y-62016275D01*
X138151600Y-61957950D01*
X138094450Y-61900800D01*
X137210800Y-61900800D01*
X137210800Y-61920800D01*
X136855200Y-61920800D01*
X136855200Y-61900800D01*
X136835200Y-61900800D01*
X136835200Y-61545200D01*
X136855200Y-61545200D01*
X136855200Y-61525200D01*
X137210800Y-61525200D01*
X137210800Y-61545200D01*
X138094450Y-61545200D01*
X138099800Y-61539850D01*
X138099800Y-61671200D01*
X138146790Y-61671200D01*
X138146790Y-61707395D01*
X138203940Y-61764545D01*
X138572240Y-61764545D01*
X138572240Y-61671200D01*
X138927840Y-61671200D01*
X138927840Y-61764545D01*
X138947840Y-61764545D01*
X138947840Y-61963935D01*
G36*
X145084800Y-69646800D02*
X127330200Y-69646800D01*
X127330200Y-59004200D01*
X135813800Y-59004200D01*
X135813800Y-59385200D01*
X135915364Y-59385200D01*
X135914400Y-59387529D01*
X135914400Y-59708050D01*
X135971550Y-59765200D01*
X136855200Y-59765200D01*
X136855200Y-59745200D01*
X137210800Y-59745200D01*
X137210800Y-59765200D01*
X137230800Y-59765200D01*
X137230800Y-60120800D01*
X137210800Y-60120800D01*
X137210800Y-60624450D01*
X137267950Y-60681600D01*
X137877529Y-60681600D01*
X137968472Y-60681600D01*
X138052492Y-60646797D01*
X138099800Y-60599489D01*
X138099800Y-60756800D01*
X136855200Y-60756800D01*
X136855200Y-60624450D01*
X136855200Y-60120800D01*
X135971550Y-60120800D01*
X135914400Y-60177950D01*
X135914400Y-60498471D01*
X135949202Y-60582491D01*
X136013508Y-60646797D01*
X136097528Y-60681600D01*
X136188471Y-60681600D01*
X136798050Y-60681600D01*
X136855200Y-60624450D01*
X136855200Y-60756800D01*
X135813800Y-60756800D01*
X135813800Y-60858400D01*
X135661400Y-60858400D01*
X135661400Y-61722000D01*
X135661400Y-62585600D01*
X135813800Y-62585600D01*
X135813800Y-62687200D01*
X136159511Y-62687200D01*
X136101203Y-62745508D01*
X136066400Y-62829528D01*
X136066400Y-62920471D01*
X136066400Y-63265050D01*
X136123550Y-63322200D01*
X136617200Y-63322200D01*
X136617200Y-63302200D01*
X136972800Y-63302200D01*
X136972800Y-63322200D01*
X137466450Y-63322200D01*
X137523600Y-63265050D01*
X137523600Y-62920471D01*
X137523600Y-62829528D01*
X137488797Y-62745508D01*
X137430489Y-62687200D01*
X137718800Y-62687200D01*
X137718800Y-66344800D01*
X137430489Y-66344800D01*
X137488797Y-66286492D01*
X137523600Y-66202472D01*
X137523600Y-66111529D01*
X137523600Y-65766950D01*
X137523600Y-65297050D01*
X137523600Y-64952471D01*
X137523600Y-64861528D01*
X137523600Y-64170472D01*
X137523600Y-64079529D01*
X137523600Y-63734950D01*
X137466450Y-63677800D01*
X136972800Y-63677800D01*
X136972800Y-64296450D01*
X137029950Y-64353600D01*
X137340471Y-64353600D01*
X137424491Y-64318798D01*
X137488797Y-64254492D01*
X137523600Y-64170472D01*
X137523600Y-64861528D01*
X137488797Y-64777508D01*
X137424491Y-64713202D01*
X137340471Y-64678400D01*
X137029950Y-64678400D01*
X136972800Y-64735550D01*
X136972800Y-65354200D01*
X137466450Y-65354200D01*
X137523600Y-65297050D01*
X137523600Y-65766950D01*
X137466450Y-65709800D01*
X136972800Y-65709800D01*
X136972800Y-65729800D01*
X136617200Y-65729800D01*
X136617200Y-65709800D01*
X136617200Y-65354200D01*
X136617200Y-64735550D01*
X136617200Y-64296450D01*
X136617200Y-63677800D01*
X136123550Y-63677800D01*
X136066400Y-63734950D01*
X136066400Y-64079529D01*
X136066400Y-64170472D01*
X136101203Y-64254492D01*
X136165509Y-64318798D01*
X136249529Y-64353600D01*
X136560050Y-64353600D01*
X136617200Y-64296450D01*
X136617200Y-64735550D01*
X136560050Y-64678400D01*
X136249529Y-64678400D01*
X136165509Y-64713202D01*
X136101203Y-64777508D01*
X136066400Y-64861528D01*
X136066400Y-64952471D01*
X136066400Y-65297050D01*
X136123550Y-65354200D01*
X136617200Y-65354200D01*
X136617200Y-65709800D01*
X136123550Y-65709800D01*
X136066400Y-65766950D01*
X136066400Y-66111529D01*
X136066400Y-66202472D01*
X136101203Y-66286492D01*
X136159511Y-66344800D01*
X134823200Y-66344800D01*
X134823200Y-59994800D01*
X128320800Y-59994800D01*
X128320800Y-68529200D01*
X145084800Y-68529200D01*
X145084800Y-69646800D01*
X145084800Y-69646800D01*
G37*
X145084800Y-69646800D02*
X127330200Y-69646800D01*
X127330200Y-59004200D01*
X135813800Y-59004200D01*
X135813800Y-59385200D01*
X135915364Y-59385200D01*
X135914400Y-59387529D01*
X135914400Y-59708050D01*
X135971550Y-59765200D01*
X136855200Y-59765200D01*
X136855200Y-59745200D01*
X137210800Y-59745200D01*
X137210800Y-59765200D01*
X137230800Y-59765200D01*
X137230800Y-60120800D01*
X137210800Y-60120800D01*
X137210800Y-60624450D01*
X137267950Y-60681600D01*
X137877529Y-60681600D01*
X137968472Y-60681600D01*
X138052492Y-60646797D01*
X138099800Y-60599489D01*
X138099800Y-60756800D01*
X136855200Y-60756800D01*
X136855200Y-60624450D01*
X136855200Y-60120800D01*
X135971550Y-60120800D01*
X135914400Y-60177950D01*
X135914400Y-60498471D01*
X135949202Y-60582491D01*
X136013508Y-60646797D01*
X136097528Y-60681600D01*
X136188471Y-60681600D01*
X136798050Y-60681600D01*
X136855200Y-60624450D01*
X136855200Y-60756800D01*
X135813800Y-60756800D01*
X135813800Y-60858400D01*
X135661400Y-60858400D01*
X135661400Y-61722000D01*
X135661400Y-62585600D01*
X135813800Y-62585600D01*
X135813800Y-62687200D01*
X136159511Y-62687200D01*
X136101203Y-62745508D01*
X136066400Y-62829528D01*
X136066400Y-62920471D01*
X136066400Y-63265050D01*
X136123550Y-63322200D01*
X136617200Y-63322200D01*
X136617200Y-63302200D01*
X136972800Y-63302200D01*
X136972800Y-63322200D01*
X137466450Y-63322200D01*
X137523600Y-63265050D01*
X137523600Y-62920471D01*
X137523600Y-62829528D01*
X137488797Y-62745508D01*
X137430489Y-62687200D01*
X137718800Y-62687200D01*
X137718800Y-66344800D01*
X137430489Y-66344800D01*
X137488797Y-66286492D01*
X137523600Y-66202472D01*
X137523600Y-66111529D01*
X137523600Y-65766950D01*
X137523600Y-65297050D01*
X137523600Y-64952471D01*
X137523600Y-64861528D01*
X137523600Y-64170472D01*
X137523600Y-64079529D01*
X137523600Y-63734950D01*
X137466450Y-63677800D01*
X136972800Y-63677800D01*
X136972800Y-64296450D01*
X137029950Y-64353600D01*
X137340471Y-64353600D01*
X137424491Y-64318798D01*
X137488797Y-64254492D01*
X137523600Y-64170472D01*
X137523600Y-64861528D01*
X137488797Y-64777508D01*
X137424491Y-64713202D01*
X137340471Y-64678400D01*
X137029950Y-64678400D01*
X136972800Y-64735550D01*
X136972800Y-65354200D01*
X137466450Y-65354200D01*
X137523600Y-65297050D01*
X137523600Y-65766950D01*
X137466450Y-65709800D01*
X136972800Y-65709800D01*
X136972800Y-65729800D01*
X136617200Y-65729800D01*
X136617200Y-65709800D01*
X136617200Y-65354200D01*
X136617200Y-64735550D01*
X136617200Y-64296450D01*
X136617200Y-63677800D01*
X136123550Y-63677800D01*
X136066400Y-63734950D01*
X136066400Y-64079529D01*
X136066400Y-64170472D01*
X136101203Y-64254492D01*
X136165509Y-64318798D01*
X136249529Y-64353600D01*
X136560050Y-64353600D01*
X136617200Y-64296450D01*
X136617200Y-64735550D01*
X136560050Y-64678400D01*
X136249529Y-64678400D01*
X136165509Y-64713202D01*
X136101203Y-64777508D01*
X136066400Y-64861528D01*
X136066400Y-64952471D01*
X136066400Y-65297050D01*
X136123550Y-65354200D01*
X136617200Y-65354200D01*
X136617200Y-65709800D01*
X136123550Y-65709800D01*
X136066400Y-65766950D01*
X136066400Y-66111529D01*
X136066400Y-66202472D01*
X136101203Y-66286492D01*
X136159511Y-66344800D01*
X134823200Y-66344800D01*
X134823200Y-59994800D01*
X128320800Y-59994800D01*
X128320800Y-68529200D01*
X145084800Y-68529200D01*
X145084800Y-69646800D01*
G36*
X145084800Y-67995800D02*
X143460600Y-67995800D01*
X143460600Y-65313472D01*
X143460600Y-65222529D01*
X143460600Y-64877950D01*
X143460600Y-64408050D01*
X143460600Y-64063471D01*
X143460600Y-63972528D01*
X143425797Y-63888508D01*
X143361491Y-63824202D01*
X143277471Y-63789400D01*
X142966950Y-63789400D01*
X142909800Y-63846550D01*
X142909800Y-64465200D01*
X143403450Y-64465200D01*
X143460600Y-64408050D01*
X143460600Y-64877950D01*
X143403450Y-64820800D01*
X142909800Y-64820800D01*
X142909800Y-65439450D01*
X142966950Y-65496600D01*
X143277471Y-65496600D01*
X143361491Y-65461798D01*
X143425797Y-65397492D01*
X143460600Y-65313472D01*
X143460600Y-67995800D01*
X142554200Y-67995800D01*
X142554200Y-65439450D01*
X142554200Y-64820800D01*
X142554200Y-64465200D01*
X142554200Y-63846550D01*
X142497050Y-63789400D01*
X142186529Y-63789400D01*
X142102509Y-63824202D01*
X142038203Y-63888508D01*
X142003400Y-63972528D01*
X142003400Y-64063471D01*
X142003400Y-64408050D01*
X142060550Y-64465200D01*
X142554200Y-64465200D01*
X142554200Y-64820800D01*
X142060550Y-64820800D01*
X142003400Y-64877950D01*
X142003400Y-65222529D01*
X142003400Y-65313472D01*
X142038203Y-65397492D01*
X142102509Y-65461798D01*
X142186529Y-65496600D01*
X142497050Y-65496600D01*
X142554200Y-65439450D01*
X142554200Y-67995800D01*
X134193600Y-67995800D01*
X134193600Y-64993471D01*
X134193600Y-64282950D01*
X134193600Y-63813050D01*
X134193600Y-63102529D01*
X134158798Y-63018509D01*
X134094492Y-62954203D01*
X134010472Y-62919400D01*
X133919529Y-62919400D01*
X133584950Y-62919400D01*
X133527800Y-62976550D01*
X133527800Y-63870200D01*
X134136450Y-63870200D01*
X134193600Y-63813050D01*
X134193600Y-64282950D01*
X134136450Y-64225800D01*
X133527800Y-64225800D01*
X133527800Y-65119450D01*
X133584950Y-65176600D01*
X133919529Y-65176600D01*
X134010472Y-65176600D01*
X134094492Y-65141797D01*
X134158798Y-65077491D01*
X134193600Y-64993471D01*
X134193600Y-67995800D01*
X133172200Y-67995800D01*
X133172200Y-65119450D01*
X133172200Y-64225800D01*
X133172200Y-63870200D01*
X133172200Y-62976550D01*
X133115050Y-62919400D01*
X132780471Y-62919400D01*
X132689528Y-62919400D01*
X132605508Y-62954203D01*
X132541202Y-63018509D01*
X132506400Y-63102529D01*
X132506400Y-63813050D01*
X132563550Y-63870200D01*
X133172200Y-63870200D01*
X133172200Y-64225800D01*
X132563550Y-64225800D01*
X132506400Y-64282950D01*
X132506400Y-64993471D01*
X132541202Y-65077491D01*
X132605508Y-65141797D01*
X132689528Y-65176600D01*
X132780471Y-65176600D01*
X133115050Y-65176600D01*
X133172200Y-65119450D01*
X133172200Y-67995800D01*
X131419600Y-67995800D01*
X131419600Y-64942472D01*
X131419600Y-64851529D01*
X131419600Y-64115950D01*
X131362450Y-64058800D01*
X130352800Y-64058800D01*
X130352800Y-65068450D01*
X130409950Y-65125600D01*
X131236471Y-65125600D01*
X131320491Y-65090798D01*
X131384797Y-65026492D01*
X131419600Y-64942472D01*
X131419600Y-67995800D01*
X129997200Y-67995800D01*
X129997200Y-65068450D01*
X129997200Y-64058800D01*
X128987550Y-64058800D01*
X128930400Y-64115950D01*
X128930400Y-64851529D01*
X128930400Y-64942472D01*
X128965203Y-65026492D01*
X129029509Y-65090798D01*
X129113529Y-65125600D01*
X129940050Y-65125600D01*
X129997200Y-65068450D01*
X129997200Y-67995800D01*
X128854200Y-67995800D01*
X128854200Y-62687200D01*
X129013511Y-62687200D01*
X128965203Y-62735508D01*
X128930400Y-62819528D01*
X128930400Y-62910471D01*
X128930400Y-63646050D01*
X128987550Y-63703200D01*
X129997200Y-63703200D01*
X129997200Y-63683200D01*
X130352800Y-63683200D01*
X130352800Y-63703200D01*
X131362450Y-63703200D01*
X131419600Y-63646050D01*
X131419600Y-62910471D01*
X131419600Y-62819528D01*
X131384797Y-62735508D01*
X131336489Y-62687200D01*
X134416800Y-62687200D01*
X134416800Y-66751200D01*
X141935200Y-66751200D01*
X141935200Y-63423800D01*
X141253210Y-63423800D01*
X141253210Y-62109101D01*
X141253210Y-62021085D01*
X141196060Y-61963935D01*
X140827760Y-61963935D01*
X140827760Y-62235080D01*
X140884910Y-62292230D01*
X140979139Y-62292230D01*
X141070082Y-62292230D01*
X141154102Y-62257427D01*
X141218408Y-62193121D01*
X141253210Y-62109101D01*
X141253210Y-63423800D01*
X140284200Y-63423800D01*
X140284200Y-63276384D01*
X140309516Y-63215416D01*
X140309684Y-63023426D01*
X140284200Y-62961750D01*
X140284200Y-62292230D01*
X140320781Y-62292230D01*
X140415010Y-62292230D01*
X140472160Y-62235080D01*
X140472160Y-61963935D01*
X140452160Y-61963935D01*
X140452160Y-61764545D01*
X140472160Y-61764545D01*
X140472160Y-61671200D01*
X140827760Y-61671200D01*
X140827760Y-61764545D01*
X141196060Y-61764545D01*
X141253210Y-61707395D01*
X141253210Y-61671200D01*
X141528800Y-61671200D01*
X141528800Y-62560200D01*
X145084800Y-62560200D01*
X145084800Y-67995800D01*
X145084800Y-67995800D01*
G37*
X145084800Y-67995800D02*
X143460600Y-67995800D01*
X143460600Y-65313472D01*
X143460600Y-65222529D01*
X143460600Y-64877950D01*
X143460600Y-64408050D01*
X143460600Y-64063471D01*
X143460600Y-63972528D01*
X143425797Y-63888508D01*
X143361491Y-63824202D01*
X143277471Y-63789400D01*
X142966950Y-63789400D01*
X142909800Y-63846550D01*
X142909800Y-64465200D01*
X143403450Y-64465200D01*
X143460600Y-64408050D01*
X143460600Y-64877950D01*
X143403450Y-64820800D01*
X142909800Y-64820800D01*
X142909800Y-65439450D01*
X142966950Y-65496600D01*
X143277471Y-65496600D01*
X143361491Y-65461798D01*
X143425797Y-65397492D01*
X143460600Y-65313472D01*
X143460600Y-67995800D01*
X142554200Y-67995800D01*
X142554200Y-65439450D01*
X142554200Y-64820800D01*
X142554200Y-64465200D01*
X142554200Y-63846550D01*
X142497050Y-63789400D01*
X142186529Y-63789400D01*
X142102509Y-63824202D01*
X142038203Y-63888508D01*
X142003400Y-63972528D01*
X142003400Y-64063471D01*
X142003400Y-64408050D01*
X142060550Y-64465200D01*
X142554200Y-64465200D01*
X142554200Y-64820800D01*
X142060550Y-64820800D01*
X142003400Y-64877950D01*
X142003400Y-65222529D01*
X142003400Y-65313472D01*
X142038203Y-65397492D01*
X142102509Y-65461798D01*
X142186529Y-65496600D01*
X142497050Y-65496600D01*
X142554200Y-65439450D01*
X142554200Y-67995800D01*
X134193600Y-67995800D01*
X134193600Y-64993471D01*
X134193600Y-64282950D01*
X134193600Y-63813050D01*
X134193600Y-63102529D01*
X134158798Y-63018509D01*
X134094492Y-62954203D01*
X134010472Y-62919400D01*
X133919529Y-62919400D01*
X133584950Y-62919400D01*
X133527800Y-62976550D01*
X133527800Y-63870200D01*
X134136450Y-63870200D01*
X134193600Y-63813050D01*
X134193600Y-64282950D01*
X134136450Y-64225800D01*
X133527800Y-64225800D01*
X133527800Y-65119450D01*
X133584950Y-65176600D01*
X133919529Y-65176600D01*
X134010472Y-65176600D01*
X134094492Y-65141797D01*
X134158798Y-65077491D01*
X134193600Y-64993471D01*
X134193600Y-67995800D01*
X133172200Y-67995800D01*
X133172200Y-65119450D01*
X133172200Y-64225800D01*
X133172200Y-63870200D01*
X133172200Y-62976550D01*
X133115050Y-62919400D01*
X132780471Y-62919400D01*
X132689528Y-62919400D01*
X132605508Y-62954203D01*
X132541202Y-63018509D01*
X132506400Y-63102529D01*
X132506400Y-63813050D01*
X132563550Y-63870200D01*
X133172200Y-63870200D01*
X133172200Y-64225800D01*
X132563550Y-64225800D01*
X132506400Y-64282950D01*
X132506400Y-64993471D01*
X132541202Y-65077491D01*
X132605508Y-65141797D01*
X132689528Y-65176600D01*
X132780471Y-65176600D01*
X133115050Y-65176600D01*
X133172200Y-65119450D01*
X133172200Y-67995800D01*
X131419600Y-67995800D01*
X131419600Y-64942472D01*
X131419600Y-64851529D01*
X131419600Y-64115950D01*
X131362450Y-64058800D01*
X130352800Y-64058800D01*
X130352800Y-65068450D01*
X130409950Y-65125600D01*
X131236471Y-65125600D01*
X131320491Y-65090798D01*
X131384797Y-65026492D01*
X131419600Y-64942472D01*
X131419600Y-67995800D01*
X129997200Y-67995800D01*
X129997200Y-65068450D01*
X129997200Y-64058800D01*
X128987550Y-64058800D01*
X128930400Y-64115950D01*
X128930400Y-64851529D01*
X128930400Y-64942472D01*
X128965203Y-65026492D01*
X129029509Y-65090798D01*
X129113529Y-65125600D01*
X129940050Y-65125600D01*
X129997200Y-65068450D01*
X129997200Y-67995800D01*
X128854200Y-67995800D01*
X128854200Y-62687200D01*
X129013511Y-62687200D01*
X128965203Y-62735508D01*
X128930400Y-62819528D01*
X128930400Y-62910471D01*
X128930400Y-63646050D01*
X128987550Y-63703200D01*
X129997200Y-63703200D01*
X129997200Y-63683200D01*
X130352800Y-63683200D01*
X130352800Y-63703200D01*
X131362450Y-63703200D01*
X131419600Y-63646050D01*
X131419600Y-62910471D01*
X131419600Y-62819528D01*
X131384797Y-62735508D01*
X131336489Y-62687200D01*
X134416800Y-62687200D01*
X134416800Y-66751200D01*
X141935200Y-66751200D01*
X141935200Y-63423800D01*
X141253210Y-63423800D01*
X141253210Y-62109101D01*
X141253210Y-62021085D01*
X141196060Y-61963935D01*
X140827760Y-61963935D01*
X140827760Y-62235080D01*
X140884910Y-62292230D01*
X140979139Y-62292230D01*
X141070082Y-62292230D01*
X141154102Y-62257427D01*
X141218408Y-62193121D01*
X141253210Y-62109101D01*
X141253210Y-63423800D01*
X140284200Y-63423800D01*
X140284200Y-63276384D01*
X140309516Y-63215416D01*
X140309684Y-63023426D01*
X140284200Y-62961750D01*
X140284200Y-62292230D01*
X140320781Y-62292230D01*
X140415010Y-62292230D01*
X140472160Y-62235080D01*
X140472160Y-61963935D01*
X140452160Y-61963935D01*
X140452160Y-61764545D01*
X140472160Y-61764545D01*
X140472160Y-61671200D01*
X140827760Y-61671200D01*
X140827760Y-61764545D01*
X141196060Y-61764545D01*
X141253210Y-61707395D01*
X141253210Y-61671200D01*
X141528800Y-61671200D01*
X141528800Y-62560200D01*
X145084800Y-62560200D01*
X145084800Y-67995800D01*
G36*
X141528800Y-66344800D02*
X141460600Y-66344800D01*
X141460600Y-65313472D01*
X141460600Y-65222529D01*
X141460600Y-64877950D01*
X141460600Y-64408050D01*
X141460600Y-64063471D01*
X141460600Y-63972528D01*
X141425797Y-63888508D01*
X141361491Y-63824202D01*
X141277471Y-63789400D01*
X140966950Y-63789400D01*
X140909800Y-63846550D01*
X140909800Y-64465200D01*
X141403450Y-64465200D01*
X141460600Y-64408050D01*
X141460600Y-64877950D01*
X141403450Y-64820800D01*
X140909800Y-64820800D01*
X140909800Y-65439450D01*
X140966950Y-65496600D01*
X141277471Y-65496600D01*
X141361491Y-65461798D01*
X141425797Y-65397492D01*
X141460600Y-65313472D01*
X141460600Y-66344800D01*
X140554200Y-66344800D01*
X140554200Y-65439450D01*
X140554200Y-64820800D01*
X140554200Y-64465200D01*
X140554200Y-63846550D01*
X140497050Y-63789400D01*
X140186529Y-63789400D01*
X140102509Y-63824202D01*
X140038203Y-63888508D01*
X140003400Y-63972528D01*
X140003400Y-64063471D01*
X140003400Y-64408050D01*
X140060550Y-64465200D01*
X140554200Y-64465200D01*
X140554200Y-64820800D01*
X140060550Y-64820800D01*
X140003400Y-64877950D01*
X140003400Y-65222529D01*
X140003400Y-65313472D01*
X140038203Y-65397492D01*
X140102509Y-65461798D01*
X140186529Y-65496600D01*
X140497050Y-65496600D01*
X140554200Y-65439450D01*
X140554200Y-66344800D01*
X139430489Y-66344800D01*
X139488797Y-66286492D01*
X139523600Y-66202472D01*
X139523600Y-66111529D01*
X139523600Y-65766950D01*
X139523600Y-65297050D01*
X139523600Y-64952471D01*
X139523600Y-64861528D01*
X139523600Y-64170472D01*
X139523600Y-64079529D01*
X139523600Y-63734950D01*
X139523600Y-63265050D01*
X139523600Y-62920471D01*
X139523600Y-62829528D01*
X139488797Y-62745508D01*
X139424491Y-62681202D01*
X139340471Y-62646400D01*
X139029950Y-62646400D01*
X138972800Y-62703550D01*
X138972800Y-63322200D01*
X139466450Y-63322200D01*
X139523600Y-63265050D01*
X139523600Y-63734950D01*
X139466450Y-63677800D01*
X138972800Y-63677800D01*
X138972800Y-64296450D01*
X139029950Y-64353600D01*
X139340471Y-64353600D01*
X139424491Y-64318798D01*
X139488797Y-64254492D01*
X139523600Y-64170472D01*
X139523600Y-64861528D01*
X139488797Y-64777508D01*
X139424491Y-64713202D01*
X139340471Y-64678400D01*
X139029950Y-64678400D01*
X138972800Y-64735550D01*
X138972800Y-65354200D01*
X139466450Y-65354200D01*
X139523600Y-65297050D01*
X139523600Y-65766950D01*
X139466450Y-65709800D01*
X138972800Y-65709800D01*
X138972800Y-65729800D01*
X138617200Y-65729800D01*
X138617200Y-65709800D01*
X138597200Y-65709800D01*
X138597200Y-65354200D01*
X138617200Y-65354200D01*
X138617200Y-64735550D01*
X138560050Y-64678400D01*
X138252200Y-64678400D01*
X138252200Y-64353600D01*
X138560050Y-64353600D01*
X138617200Y-64296450D01*
X138617200Y-63677800D01*
X138597200Y-63677800D01*
X138597200Y-63322200D01*
X138617200Y-63322200D01*
X138617200Y-62703550D01*
X138560050Y-62646400D01*
X138252200Y-62646400D01*
X138252200Y-62585600D01*
X139547600Y-62585600D01*
X139547600Y-61366400D01*
X139348845Y-61366400D01*
X139296140Y-61313695D01*
X138927840Y-61313695D01*
X138927840Y-61366400D01*
X138572240Y-61366400D01*
X138572240Y-61313695D01*
X138552240Y-61313695D01*
X138552240Y-61114305D01*
X138572240Y-61114305D01*
X138572240Y-61016200D01*
X138927840Y-61016200D01*
X138927840Y-61114305D01*
X139296140Y-61114305D01*
X139353290Y-61057155D01*
X139353290Y-60969139D01*
X139331842Y-60917360D01*
X139461240Y-60917360D01*
X139502263Y-60909200D01*
X140071537Y-60909200D01*
X140046710Y-60969139D01*
X140046710Y-61057155D01*
X140103860Y-61114305D01*
X140472160Y-61114305D01*
X140472160Y-61016200D01*
X140827760Y-61016200D01*
X140827760Y-61114305D01*
X141196060Y-61114305D01*
X141253210Y-61057155D01*
X141253210Y-60969139D01*
X141228382Y-60909200D01*
X141274800Y-60909200D01*
X141274800Y-61366400D01*
X141248765Y-61366400D01*
X141196060Y-61313695D01*
X140827760Y-61313695D01*
X140827760Y-61366400D01*
X140472160Y-61366400D01*
X140472160Y-61313695D01*
X140103860Y-61313695D01*
X140051155Y-61366400D01*
X139979400Y-61366400D01*
X139979400Y-63728600D01*
X141528800Y-63728600D01*
X141528800Y-66344800D01*
X141528800Y-66344800D01*
G37*
X141528800Y-66344800D02*
X141460600Y-66344800D01*
X141460600Y-65313472D01*
X141460600Y-65222529D01*
X141460600Y-64877950D01*
X141460600Y-64408050D01*
X141460600Y-64063471D01*
X141460600Y-63972528D01*
X141425797Y-63888508D01*
X141361491Y-63824202D01*
X141277471Y-63789400D01*
X140966950Y-63789400D01*
X140909800Y-63846550D01*
X140909800Y-64465200D01*
X141403450Y-64465200D01*
X141460600Y-64408050D01*
X141460600Y-64877950D01*
X141403450Y-64820800D01*
X140909800Y-64820800D01*
X140909800Y-65439450D01*
X140966950Y-65496600D01*
X141277471Y-65496600D01*
X141361491Y-65461798D01*
X141425797Y-65397492D01*
X141460600Y-65313472D01*
X141460600Y-66344800D01*
X140554200Y-66344800D01*
X140554200Y-65439450D01*
X140554200Y-64820800D01*
X140554200Y-64465200D01*
X140554200Y-63846550D01*
X140497050Y-63789400D01*
X140186529Y-63789400D01*
X140102509Y-63824202D01*
X140038203Y-63888508D01*
X140003400Y-63972528D01*
X140003400Y-64063471D01*
X140003400Y-64408050D01*
X140060550Y-64465200D01*
X140554200Y-64465200D01*
X140554200Y-64820800D01*
X140060550Y-64820800D01*
X140003400Y-64877950D01*
X140003400Y-65222529D01*
X140003400Y-65313472D01*
X140038203Y-65397492D01*
X140102509Y-65461798D01*
X140186529Y-65496600D01*
X140497050Y-65496600D01*
X140554200Y-65439450D01*
X140554200Y-66344800D01*
X139430489Y-66344800D01*
X139488797Y-66286492D01*
X139523600Y-66202472D01*
X139523600Y-66111529D01*
X139523600Y-65766950D01*
X139523600Y-65297050D01*
X139523600Y-64952471D01*
X139523600Y-64861528D01*
X139523600Y-64170472D01*
X139523600Y-64079529D01*
X139523600Y-63734950D01*
X139523600Y-63265050D01*
X139523600Y-62920471D01*
X139523600Y-62829528D01*
X139488797Y-62745508D01*
X139424491Y-62681202D01*
X139340471Y-62646400D01*
X139029950Y-62646400D01*
X138972800Y-62703550D01*
X138972800Y-63322200D01*
X139466450Y-63322200D01*
X139523600Y-63265050D01*
X139523600Y-63734950D01*
X139466450Y-63677800D01*
X138972800Y-63677800D01*
X138972800Y-64296450D01*
X139029950Y-64353600D01*
X139340471Y-64353600D01*
X139424491Y-64318798D01*
X139488797Y-64254492D01*
X139523600Y-64170472D01*
X139523600Y-64861528D01*
X139488797Y-64777508D01*
X139424491Y-64713202D01*
X139340471Y-64678400D01*
X139029950Y-64678400D01*
X138972800Y-64735550D01*
X138972800Y-65354200D01*
X139466450Y-65354200D01*
X139523600Y-65297050D01*
X139523600Y-65766950D01*
X139466450Y-65709800D01*
X138972800Y-65709800D01*
X138972800Y-65729800D01*
X138617200Y-65729800D01*
X138617200Y-65709800D01*
X138597200Y-65709800D01*
X138597200Y-65354200D01*
X138617200Y-65354200D01*
X138617200Y-64735550D01*
X138560050Y-64678400D01*
X138252200Y-64678400D01*
X138252200Y-64353600D01*
X138560050Y-64353600D01*
X138617200Y-64296450D01*
X138617200Y-63677800D01*
X138597200Y-63677800D01*
X138597200Y-63322200D01*
X138617200Y-63322200D01*
X138617200Y-62703550D01*
X138560050Y-62646400D01*
X138252200Y-62646400D01*
X138252200Y-62585600D01*
X139547600Y-62585600D01*
X139547600Y-61366400D01*
X139348845Y-61366400D01*
X139296140Y-61313695D01*
X138927840Y-61313695D01*
X138927840Y-61366400D01*
X138572240Y-61366400D01*
X138572240Y-61313695D01*
X138552240Y-61313695D01*
X138552240Y-61114305D01*
X138572240Y-61114305D01*
X138572240Y-61016200D01*
X138927840Y-61016200D01*
X138927840Y-61114305D01*
X139296140Y-61114305D01*
X139353290Y-61057155D01*
X139353290Y-60969139D01*
X139331842Y-60917360D01*
X139461240Y-60917360D01*
X139502263Y-60909200D01*
X140071537Y-60909200D01*
X140046710Y-60969139D01*
X140046710Y-61057155D01*
X140103860Y-61114305D01*
X140472160Y-61114305D01*
X140472160Y-61016200D01*
X140827760Y-61016200D01*
X140827760Y-61114305D01*
X141196060Y-61114305D01*
X141253210Y-61057155D01*
X141253210Y-60969139D01*
X141228382Y-60909200D01*
X141274800Y-60909200D01*
X141274800Y-61366400D01*
X141248765Y-61366400D01*
X141196060Y-61313695D01*
X140827760Y-61313695D01*
X140827760Y-61366400D01*
X140472160Y-61366400D01*
X140472160Y-61313695D01*
X140103860Y-61313695D01*
X140051155Y-61366400D01*
X139979400Y-61366400D01*
X139979400Y-63728600D01*
X141528800Y-63728600D01*
X141528800Y-66344800D01*
G36*
X134518400Y-62280800D02*
X134193600Y-62280800D01*
X134193600Y-61662950D01*
X134136450Y-61605800D01*
X133527800Y-61605800D01*
X133527800Y-61625800D01*
X133172200Y-61625800D01*
X133172200Y-61605800D01*
X132563550Y-61605800D01*
X132506400Y-61662950D01*
X132506400Y-62280800D01*
X130984532Y-62280800D01*
X131276097Y-61921221D01*
X131363855Y-61709312D01*
X131349063Y-61518800D01*
X130352800Y-61518800D01*
X130352800Y-61538800D01*
X129997200Y-61538800D01*
X129997200Y-61518800D01*
X129000937Y-61518800D01*
X128986145Y-61709312D01*
X129073903Y-61921221D01*
X129365467Y-62280800D01*
X128854200Y-62280800D01*
X128854200Y-60401200D01*
X129365467Y-60401200D01*
X129073903Y-60760779D01*
X128986145Y-60972688D01*
X129000937Y-61163200D01*
X129997200Y-61163200D01*
X129997200Y-61143200D01*
X130352800Y-61143200D01*
X130352800Y-61163200D01*
X131349063Y-61163200D01*
X131363855Y-60972688D01*
X131276097Y-60760779D01*
X130984532Y-60401200D01*
X132540087Y-60401200D01*
X132506400Y-60482529D01*
X132506400Y-61193050D01*
X132563550Y-61250200D01*
X133172200Y-61250200D01*
X133172200Y-61230200D01*
X133527800Y-61230200D01*
X133527800Y-61250200D01*
X134136450Y-61250200D01*
X134193600Y-61193050D01*
X134193600Y-60482529D01*
X134159912Y-60401200D01*
X134518400Y-60401200D01*
X134518400Y-62280800D01*
X134518400Y-62280800D01*
G37*
X134518400Y-62280800D02*
X134193600Y-62280800D01*
X134193600Y-61662950D01*
X134136450Y-61605800D01*
X133527800Y-61605800D01*
X133527800Y-61625800D01*
X133172200Y-61625800D01*
X133172200Y-61605800D01*
X132563550Y-61605800D01*
X132506400Y-61662950D01*
X132506400Y-62280800D01*
X130984532Y-62280800D01*
X131276097Y-61921221D01*
X131363855Y-61709312D01*
X131349063Y-61518800D01*
X130352800Y-61518800D01*
X130352800Y-61538800D01*
X129997200Y-61538800D01*
X129997200Y-61518800D01*
X129000937Y-61518800D01*
X128986145Y-61709312D01*
X129073903Y-61921221D01*
X129365467Y-62280800D01*
X128854200Y-62280800D01*
X128854200Y-60401200D01*
X129365467Y-60401200D01*
X129073903Y-60760779D01*
X128986145Y-60972688D01*
X129000937Y-61163200D01*
X129997200Y-61163200D01*
X129997200Y-61143200D01*
X130352800Y-61143200D01*
X130352800Y-61163200D01*
X131349063Y-61163200D01*
X131363855Y-60972688D01*
X131276097Y-60760779D01*
X130984532Y-60401200D01*
X132540087Y-60401200D01*
X132506400Y-60482529D01*
X132506400Y-61193050D01*
X132563550Y-61250200D01*
X133172200Y-61250200D01*
X133172200Y-61230200D01*
X133527800Y-61230200D01*
X133527800Y-61250200D01*
X134136450Y-61250200D01*
X134193600Y-61193050D01*
X134193600Y-60482529D01*
X134159912Y-60401200D01*
X134518400Y-60401200D01*
X134518400Y-62280800D01*
M02*
