G04 #@! TF.FileFunction,Soldermask,Top*
%FSLAX46Y46*%
G04 Gerber Fmt 4.6, Leading zero omitted, Abs format (unit mm)*
G04 Created by KiCad (PCBNEW (after 2015-mar-04 BZR unknown)-product) date Thu 19 Nov 2015 08:04:08 PM EST*
%MOMM*%
G01*
G04 APERTURE LIST*
%ADD10C,0.100000*%
%ADD11R,1.230000X1.800000*%
%ADD12R,1.000000X1.250000*%
%ADD13R,0.500000X0.600000*%
%ADD14R,0.800000X0.750000*%
%ADD15R,0.600000X0.500000*%
%ADD16R,0.797560X0.797560*%
%ADD17R,1.780000X1.020000*%
%ADD18R,2.032000X2.032000*%
%ADD19O,2.032000X2.032000*%
%ADD20R,2.032000X1.727200*%
%ADD21O,2.032000X1.727200*%
%ADD22R,0.400000X0.600000*%
%ADD23R,0.600000X0.400000*%
%ADD24R,1.000000X1.100000*%
%ADD25R,0.749300X0.398780*%
%ADD26R,1.060000X0.650000*%
%ADD27R,1.450000X0.450000*%
G04 APERTURE END LIST*
D10*
D11*
X133350000Y-61428000D03*
X133350000Y-64048000D03*
D12*
X136795000Y-65532000D03*
X138795000Y-65532000D03*
D13*
X128016000Y-71586000D03*
X128016000Y-72686000D03*
D12*
X136795000Y-63500000D03*
X138795000Y-63500000D03*
D14*
X143879000Y-60325000D03*
X142379000Y-60325000D03*
D12*
X142732000Y-64643000D03*
X140732000Y-64643000D03*
D15*
X133265000Y-77089000D03*
X132165000Y-77089000D03*
X149521000Y-76962000D03*
X148421000Y-76962000D03*
X132376000Y-75692000D03*
X131276000Y-75692000D03*
D13*
X143383000Y-76793000D03*
X143383000Y-77893000D03*
D16*
X140703300Y-81915000D03*
X139204700Y-81915000D03*
D17*
X137033000Y-61723000D03*
X137033000Y-59943000D03*
D18*
X130175000Y-63881000D03*
D19*
X130175000Y-61341000D03*
D20*
X149225000Y-60071000D03*
D21*
X149225000Y-62611000D03*
X149225000Y-65151000D03*
X149225000Y-67691000D03*
X149225000Y-70231000D03*
X149225000Y-72771000D03*
D20*
X129032000Y-78867000D03*
D21*
X129032000Y-81407000D03*
X129032000Y-83947000D03*
X129032000Y-86487000D03*
D22*
X142171000Y-61722000D03*
X143071000Y-61722000D03*
X143071000Y-58801000D03*
X142171000Y-58801000D03*
D23*
X135001000Y-72967000D03*
X135001000Y-72067000D03*
D22*
X137864000Y-82042000D03*
X136964000Y-82042000D03*
D24*
X130187000Y-71440000D03*
X130187000Y-73340000D03*
X131687000Y-73340000D03*
X131687000Y-71440000D03*
D25*
X138750040Y-60563760D03*
X138750040Y-61214000D03*
X138750040Y-61864240D03*
X140649960Y-61864240D03*
X140649960Y-61214000D03*
X140649960Y-60563760D03*
D26*
X147109000Y-78425000D03*
X147109000Y-79375000D03*
X147109000Y-80325000D03*
X149309000Y-80325000D03*
X149309000Y-78425000D03*
D27*
X135480000Y-74418000D03*
X135480000Y-75068000D03*
X135480000Y-75718000D03*
X135480000Y-76368000D03*
X135480000Y-77018000D03*
X135480000Y-77668000D03*
X135480000Y-78318000D03*
X135480000Y-78968000D03*
X135480000Y-79618000D03*
X135480000Y-80268000D03*
X141380000Y-80268000D03*
X141380000Y-79618000D03*
X141380000Y-78968000D03*
X141380000Y-78318000D03*
X141380000Y-77668000D03*
X141380000Y-77018000D03*
X141380000Y-76368000D03*
X141380000Y-75718000D03*
X141380000Y-75068000D03*
X141380000Y-74418000D03*
M02*
