G04 #@! TF.FileFunction,Copper,L1,Top,Signal*
%FSLAX46Y46*%
G04 Gerber Fmt 4.6, Leading zero omitted, Abs format (unit mm)*
G04 Created by KiCad (PCBNEW (after 2015-mar-04 BZR unknown)-product) date Sat 21 Nov 2015 03:19:33 PM EST*
%MOMM*%
G01*
G04 APERTURE LIST*
%ADD10C,0.150000*%
%ADD11R,2.301240X0.500380*%
%ADD12R,2.499360X1.998980*%
%ADD13R,0.600000X0.500000*%
%ADD14R,0.500000X0.600000*%
%ADD15R,1.800000X1.230000*%
%ADD16R,0.800000X0.750000*%
%ADD17R,1.727200X2.032000*%
%ADD18O,1.727200X2.032000*%
%ADD19R,0.400000X0.600000*%
%ADD20R,1.100000X1.000000*%
%ADD21R,1.300000X0.250000*%
%ADD22R,0.250000X1.300000*%
%ADD23R,0.650000X1.060000*%
%ADD24R,0.750000X0.800000*%
%ADD25R,0.600000X0.400000*%
%ADD26R,0.700000X0.250000*%
%ADD27R,0.610000X0.710000*%
%ADD28R,0.650000X0.300000*%
%ADD29R,0.775000X1.240000*%
%ADD30R,1.727200X1.727200*%
%ADD31O,1.727200X1.727200*%
%ADD32C,0.508000*%
%ADD33C,0.300000*%
%ADD34C,0.400000*%
%ADD35C,0.152400*%
G04 APERTURE END LIST*
D10*
D11*
X152420320Y-89077800D03*
X152420320Y-89877900D03*
X152420320Y-90678000D03*
X152420320Y-91478100D03*
X152420320Y-92278200D03*
D12*
X152321260Y-86227920D03*
X146822160Y-86227920D03*
X152321260Y-95128080D03*
X146822160Y-95128080D03*
D13*
X172424000Y-98806000D03*
X173524000Y-98806000D03*
X167936000Y-97917000D03*
X166836000Y-97917000D03*
D14*
X173609000Y-88731000D03*
X173609000Y-89831000D03*
D13*
X161756000Y-82677000D03*
X162856000Y-82677000D03*
D14*
X158496000Y-95038000D03*
X158496000Y-93938000D03*
X156845000Y-95038000D03*
X156845000Y-93938000D03*
D15*
X158155000Y-85852000D03*
X155535000Y-85852000D03*
D16*
X154039000Y-83693000D03*
X152539000Y-83693000D03*
X155714000Y-79883000D03*
X157214000Y-79883000D03*
D17*
X148590000Y-99568000D03*
D18*
X151130000Y-99568000D03*
X153670000Y-99568000D03*
X156210000Y-99568000D03*
X158750000Y-99568000D03*
X161290000Y-99568000D03*
D19*
X164650000Y-97917000D03*
X165550000Y-97917000D03*
D20*
X172024000Y-96635000D03*
X173924000Y-96635000D03*
X173924000Y-95135000D03*
X172024000Y-95135000D03*
D21*
X169196000Y-92920000D03*
X169196000Y-92420000D03*
X169196000Y-91920000D03*
X169196000Y-91420000D03*
X169196000Y-90920000D03*
X169196000Y-90420000D03*
X169196000Y-89920000D03*
X169196000Y-89420000D03*
X169196000Y-88920000D03*
X169196000Y-88420000D03*
X169196000Y-87920000D03*
X169196000Y-87420000D03*
D22*
X167596000Y-85820000D03*
X167096000Y-85820000D03*
X166596000Y-85820000D03*
X166096000Y-85820000D03*
X165596000Y-85820000D03*
X165096000Y-85820000D03*
X164596000Y-85820000D03*
X164096000Y-85820000D03*
X163596000Y-85820000D03*
X163096000Y-85820000D03*
X162596000Y-85820000D03*
X162096000Y-85820000D03*
D21*
X160496000Y-87420000D03*
X160496000Y-87920000D03*
X160496000Y-88420000D03*
X160496000Y-88920000D03*
X160496000Y-89420000D03*
X160496000Y-89920000D03*
X160496000Y-90420000D03*
X160496000Y-90920000D03*
X160496000Y-91420000D03*
X160496000Y-91920000D03*
X160496000Y-92420000D03*
X160496000Y-92920000D03*
D22*
X162096000Y-94520000D03*
X162596000Y-94520000D03*
X163096000Y-94520000D03*
X163596000Y-94520000D03*
X164096000Y-94520000D03*
X164596000Y-94520000D03*
X165096000Y-94520000D03*
X165596000Y-94520000D03*
X166096000Y-94520000D03*
X166596000Y-94520000D03*
X167096000Y-94520000D03*
X167596000Y-94520000D03*
D23*
X155641000Y-83650000D03*
X156591000Y-83650000D03*
X157541000Y-83650000D03*
X157541000Y-81450000D03*
X155641000Y-81450000D03*
D16*
X176415000Y-100330000D03*
X177915000Y-100330000D03*
D24*
X173990000Y-103390000D03*
X173990000Y-104890000D03*
X176403000Y-106414000D03*
X176403000Y-104914000D03*
X178054000Y-106414000D03*
X178054000Y-104914000D03*
D14*
X170180000Y-104606000D03*
X170180000Y-105706000D03*
D10*
G36*
X180239514Y-105808677D02*
X182643677Y-103404514D01*
X183336642Y-104097479D01*
X180932479Y-106501642D01*
X180239514Y-105808677D01*
X180239514Y-105808677D01*
G37*
G36*
X181915358Y-107484521D02*
X184319521Y-105080358D01*
X185012486Y-105773323D01*
X182608323Y-108177486D01*
X181915358Y-107484521D01*
X181915358Y-107484521D01*
G37*
D17*
X153670000Y-103759000D03*
D18*
X156210000Y-103759000D03*
X158750000Y-103759000D03*
X161290000Y-103759000D03*
D25*
X171069000Y-87318000D03*
X171069000Y-86418000D03*
D26*
X178018000Y-101989000D03*
X178018000Y-102489000D03*
X178018000Y-102989000D03*
X179868000Y-102989000D03*
X179868000Y-102489000D03*
X179868000Y-101989000D03*
D27*
X178943000Y-102844000D03*
X178943000Y-102134000D03*
D28*
X164312000Y-104410000D03*
X164312000Y-104910000D03*
X164312000Y-105410000D03*
X164312000Y-105910000D03*
X164312000Y-106410000D03*
X167412000Y-106410000D03*
X167412000Y-105910000D03*
X167412000Y-105410000D03*
X167412000Y-104910000D03*
X167412000Y-104410000D03*
D29*
X166249500Y-106030000D03*
X166249500Y-104790000D03*
X165474500Y-106030000D03*
X165474500Y-104790000D03*
D30*
X183769000Y-94234000D03*
D31*
X183769000Y-96774000D03*
X181229000Y-94234000D03*
X181229000Y-96774000D03*
D32*
X154432000Y-92329000D03*
X154432000Y-92964000D03*
X154432000Y-91694000D03*
X156591000Y-82550000D03*
X151638000Y-83693000D03*
X157988000Y-80010000D03*
X163576000Y-82677000D03*
X162560000Y-86995000D03*
X156845000Y-93218000D03*
X158496000Y-93218000D03*
X167894000Y-89662000D03*
X173609000Y-90678000D03*
X175006000Y-96647000D03*
X174244000Y-98806000D03*
X166116000Y-97917000D03*
X167005000Y-92329000D03*
X170180000Y-106553000D03*
X168529000Y-105537000D03*
X165474500Y-104790000D03*
X166249500Y-106030000D03*
X178943000Y-102134000D03*
X178943000Y-102844000D03*
X175133000Y-104902000D03*
X178943000Y-104394000D03*
X171069000Y-85725000D03*
X159512000Y-85852000D03*
X158750000Y-92583000D03*
X156845000Y-89662000D03*
X170307000Y-100965000D03*
X155194000Y-96774000D03*
X161163000Y-96774000D03*
X165862000Y-90297000D03*
X170942000Y-90170000D03*
X177292000Y-97028000D03*
X172720000Y-104013000D03*
X172847000Y-101981000D03*
X154940000Y-100965000D03*
X156210000Y-91694000D03*
X156972000Y-88773000D03*
X160020000Y-100965000D03*
X160020000Y-96266000D03*
X156845000Y-87757000D03*
X158496000Y-89281000D03*
X158623000Y-90424000D03*
X169672000Y-97282000D03*
X168529000Y-104267000D03*
X163195000Y-106045000D03*
X162560000Y-98552000D03*
X162687000Y-102235000D03*
X162687000Y-100838000D03*
X163449000Y-100838000D03*
X163449000Y-102362000D03*
D33*
X155641000Y-79956000D02*
X155714000Y-79883000D01*
X155641000Y-81450000D02*
X155641000Y-79956000D01*
X160020000Y-78867000D02*
X161756000Y-80603000D01*
X157480000Y-78867000D02*
X160020000Y-78867000D01*
X161756000Y-82296000D02*
X161756000Y-82677000D01*
X161756000Y-80603000D02*
X161756000Y-82296000D01*
X156845000Y-78867000D02*
X157480000Y-78867000D01*
X156464000Y-79248000D02*
X156845000Y-78867000D01*
X156464000Y-81153000D02*
X156464000Y-79248000D01*
X156167000Y-81450000D02*
X156464000Y-81153000D01*
X155641000Y-81450000D02*
X156167000Y-81450000D01*
X155714000Y-79236000D02*
X156083000Y-78867000D01*
X156083000Y-78867000D02*
X157480000Y-78867000D01*
X155714000Y-79883000D02*
X155714000Y-79236000D01*
X162096000Y-84626000D02*
X161798000Y-84328000D01*
X161798000Y-84328000D02*
X161798000Y-82296000D01*
X161798000Y-82296000D02*
X161756000Y-82296000D01*
X162096000Y-85820000D02*
X162096000Y-84626000D01*
X161842000Y-92920000D02*
X161925000Y-92837000D01*
X161925000Y-87884000D02*
X161925000Y-85991000D01*
X161925000Y-92837000D02*
X161925000Y-87884000D01*
X161925000Y-85991000D02*
X162096000Y-85820000D01*
X160496000Y-92920000D02*
X161842000Y-92920000D01*
X159597000Y-95038000D02*
X161798000Y-92837000D01*
X161798000Y-92837000D02*
X161925000Y-92837000D01*
X158496000Y-95038000D02*
X159597000Y-95038000D01*
X156845000Y-95038000D02*
X158496000Y-95038000D01*
X162961000Y-88920000D02*
X161925000Y-87884000D01*
X166009000Y-88920000D02*
X162961000Y-88920000D01*
X169196000Y-88920000D02*
X166009000Y-88920000D01*
X173420000Y-88920000D02*
X173609000Y-88731000D01*
X169196000Y-88920000D02*
X173420000Y-88920000D01*
X170742000Y-97917000D02*
X172024000Y-96635000D01*
X167936000Y-97917000D02*
X170742000Y-97917000D01*
X171535000Y-97917000D02*
X172424000Y-98806000D01*
X167936000Y-97917000D02*
X171535000Y-97917000D01*
X172024000Y-96635000D02*
X172024000Y-95135000D01*
X167596000Y-97577000D02*
X167936000Y-97917000D01*
X167596000Y-94520000D02*
X167596000Y-97577000D01*
X167596000Y-90507000D02*
X166009000Y-88920000D01*
X167596000Y-94520000D02*
X167596000Y-90507000D01*
X167936000Y-102362000D02*
X170180000Y-104606000D01*
X167936000Y-100923000D02*
X167936000Y-102362000D01*
X167936000Y-97917000D02*
X167936000Y-100923000D01*
X148590000Y-84709000D02*
X151849000Y-81450000D01*
X151849000Y-81450000D02*
X155641000Y-81450000D01*
X148590000Y-99568000D02*
X148590000Y-84709000D01*
X148590000Y-102235000D02*
X150114000Y-103759000D01*
X150114000Y-103759000D02*
X153670000Y-103759000D01*
X148590000Y-99568000D02*
X148590000Y-102235000D01*
X148590000Y-100965000D02*
X149225000Y-101600000D01*
X149225000Y-101600000D02*
X167259000Y-101600000D01*
X167259000Y-101600000D02*
X167936000Y-100923000D01*
X148590000Y-99568000D02*
X148590000Y-100965000D01*
X169029000Y-104910000D02*
X169333000Y-104606000D01*
X169333000Y-104606000D02*
X170180000Y-104606000D01*
X167412000Y-104910000D02*
X169029000Y-104910000D01*
X154381200Y-92278200D02*
X154432000Y-92329000D01*
X152420320Y-92278200D02*
X154381200Y-92278200D01*
X153746200Y-92278200D02*
X154432000Y-92964000D01*
X152420320Y-92278200D02*
X153746200Y-92278200D01*
X153847800Y-92278200D02*
X154432000Y-91694000D01*
X152420320Y-92278200D02*
X153847800Y-92278200D01*
X156591000Y-83650000D02*
X156591000Y-82550000D01*
X152539000Y-83693000D02*
X151638000Y-83693000D01*
X157861000Y-79883000D02*
X157988000Y-80010000D01*
X157214000Y-79883000D02*
X157861000Y-79883000D01*
X162856000Y-82677000D02*
X163576000Y-82677000D01*
X162596000Y-86959000D02*
X162560000Y-86995000D01*
X162596000Y-85820000D02*
X162596000Y-86959000D01*
X156845000Y-93938000D02*
X156845000Y-93218000D01*
X158496000Y-93938000D02*
X158496000Y-93218000D01*
X168136000Y-89420000D02*
X167894000Y-89662000D01*
X169196000Y-89420000D02*
X168136000Y-89420000D01*
X173609000Y-89831000D02*
X173609000Y-90678000D01*
X174994000Y-96635000D02*
X175006000Y-96647000D01*
X173924000Y-96635000D02*
X174994000Y-96635000D01*
X173524000Y-98806000D02*
X174244000Y-98806000D01*
X166116000Y-97917000D02*
X166836000Y-97917000D01*
X165550000Y-97917000D02*
X166116000Y-97917000D01*
X167096000Y-92420000D02*
X167005000Y-92329000D01*
X167096000Y-94520000D02*
X167096000Y-92420000D01*
X167096000Y-97657000D02*
X166836000Y-97917000D01*
X167096000Y-94520000D02*
X167096000Y-97657000D01*
X170180000Y-105706000D02*
X170180000Y-106553000D01*
X168402000Y-105410000D02*
X168529000Y-105537000D01*
X167412000Y-105410000D02*
X168402000Y-105410000D01*
X179298000Y-102489000D02*
X178943000Y-102134000D01*
X179868000Y-102489000D02*
X179298000Y-102489000D01*
X178798000Y-102989000D02*
X178943000Y-102844000D01*
X178018000Y-102989000D02*
X178798000Y-102989000D01*
X175121000Y-104890000D02*
X175133000Y-104902000D01*
X173990000Y-104890000D02*
X175121000Y-104890000D01*
X178423000Y-104914000D02*
X178943000Y-104394000D01*
X178054000Y-104914000D02*
X178423000Y-104914000D01*
X171069000Y-86418000D02*
X171069000Y-85725000D01*
X158155000Y-85852000D02*
X159512000Y-85852000D01*
X158913000Y-92420000D02*
X158750000Y-92583000D01*
X160496000Y-92420000D02*
X158913000Y-92420000D01*
X165474500Y-104790000D02*
X166249500Y-104790000D01*
X166249500Y-106030000D02*
X165474500Y-106030000D01*
D34*
X156260800Y-89077800D02*
X156845000Y-89662000D01*
X170307000Y-100965000D02*
X172732000Y-103390000D01*
X172732000Y-103390000D02*
X173990000Y-103390000D01*
X152420320Y-89077800D02*
X156260800Y-89077800D01*
X154508200Y-89077800D02*
X155535000Y-88051000D01*
X155535000Y-88051000D02*
X155535000Y-85852000D01*
X152420320Y-89077800D02*
X154508200Y-89077800D01*
X155641000Y-85746000D02*
X155535000Y-85852000D01*
X155641000Y-84709000D02*
X155641000Y-85746000D01*
X155641000Y-83650000D02*
X155641000Y-84709000D01*
X155598000Y-83693000D02*
X155641000Y-83650000D01*
X154039000Y-83693000D02*
X155598000Y-83693000D01*
X157541000Y-84521000D02*
X157353000Y-84709000D01*
X157353000Y-84709000D02*
X155641000Y-84709000D01*
X157541000Y-83650000D02*
X157541000Y-84521000D01*
D35*
X176403000Y-102489000D02*
X175502000Y-103390000D01*
X175502000Y-103390000D02*
X173990000Y-103390000D01*
X178018000Y-102489000D02*
X176403000Y-102489000D01*
X151130000Y-98044000D02*
X152400000Y-96774000D01*
X152400000Y-96774000D02*
X155194000Y-96774000D01*
X161163000Y-96774000D02*
X162096000Y-95841000D01*
X162096000Y-95841000D02*
X162096000Y-94520000D01*
X151130000Y-99568000D02*
X151130000Y-98044000D01*
X156210000Y-92456000D02*
X156746000Y-91920000D01*
X156746000Y-91920000D02*
X160496000Y-91920000D01*
X156210000Y-99568000D02*
X156210000Y-92456000D01*
X158750000Y-96774000D02*
X161671000Y-93853000D01*
X161671000Y-93853000D02*
X161671000Y-93626424D01*
X161671000Y-93626424D02*
X165000424Y-90297000D01*
X165000424Y-90297000D02*
X165862000Y-90297000D01*
X170942000Y-90170000D02*
X170692000Y-89920000D01*
X170692000Y-89920000D02*
X169196000Y-89920000D01*
X158750000Y-99568000D02*
X158750000Y-96774000D01*
X165596000Y-96278000D02*
X164650000Y-97224000D01*
X164650000Y-97224000D02*
X164650000Y-97917000D01*
X165596000Y-94520000D02*
X165596000Y-96278000D01*
X173924000Y-92771000D02*
X172073000Y-90920000D01*
X172073000Y-90920000D02*
X169196000Y-90920000D01*
X173924000Y-95135000D02*
X173924000Y-92771000D01*
X168767000Y-106410000D02*
X170053000Y-107696000D01*
X170053000Y-107696000D02*
X176530000Y-107696000D01*
X167412000Y-106410000D02*
X168767000Y-106410000D01*
X176415000Y-97905000D02*
X177292000Y-97028000D01*
X176415000Y-100330000D02*
X176415000Y-97905000D01*
X177915000Y-101886000D02*
X178018000Y-101989000D01*
X177915000Y-100330000D02*
X177915000Y-101886000D01*
X168140000Y-105910000D02*
X168275000Y-106045000D01*
X168275000Y-106045000D02*
X168783000Y-106045000D01*
X168783000Y-106045000D02*
X169672000Y-105156000D01*
X169672000Y-105156000D02*
X171577000Y-105156000D01*
X171577000Y-105156000D02*
X172720000Y-104013000D01*
X172847000Y-101981000D02*
X172855000Y-101989000D01*
X172855000Y-101989000D02*
X178018000Y-101989000D01*
X167412000Y-105910000D02*
X168140000Y-105910000D01*
X154940000Y-100965000D02*
X154940000Y-97663000D01*
X154940000Y-97663000D02*
X155194000Y-97409000D01*
X155194000Y-97409000D02*
X155702000Y-97409000D01*
X155702000Y-97409000D02*
X155829000Y-97282000D01*
X155829000Y-97282000D02*
X155829000Y-92075000D01*
X155829000Y-92075000D02*
X156210000Y-91694000D01*
X156972000Y-88773000D02*
X158119000Y-89920000D01*
X158119000Y-89920000D02*
X160496000Y-89920000D01*
X160020000Y-100965000D02*
X160020000Y-96266000D01*
X156845000Y-87757000D02*
X158369000Y-89281000D01*
X158369000Y-89281000D02*
X158496000Y-89281000D01*
X158623000Y-90424000D02*
X158627000Y-90420000D01*
X158627000Y-90420000D02*
X160496000Y-90420000D01*
X170967000Y-87420000D02*
X171069000Y-87318000D01*
X169196000Y-87420000D02*
X170967000Y-87420000D01*
X175456000Y-87318000D02*
X179868000Y-91730000D01*
X179868000Y-91730000D02*
X179868000Y-101989000D01*
X171069000Y-87318000D02*
X175456000Y-87318000D01*
X170144000Y-92420000D02*
X170434000Y-92710000D01*
X170434000Y-92710000D02*
X170434000Y-96520000D01*
X170434000Y-96520000D02*
X169672000Y-97282000D01*
X168529000Y-104267000D02*
X168386000Y-104410000D01*
X168386000Y-104410000D02*
X167412000Y-104410000D01*
X169196000Y-92420000D02*
X170144000Y-92420000D01*
X162560000Y-94556000D02*
X162596000Y-94520000D01*
X163560000Y-106410000D02*
X163195000Y-106045000D01*
X162560000Y-98552000D02*
X162687000Y-98425000D01*
X162687000Y-98425000D02*
X162560000Y-98298000D01*
X162560000Y-98298000D02*
X162560000Y-94556000D01*
X164312000Y-106410000D02*
X163560000Y-106410000D01*
X163322000Y-105410000D02*
X162687000Y-104775000D01*
X162687000Y-104775000D02*
X162687000Y-102235000D01*
X162687000Y-100838000D02*
X163096000Y-100429000D01*
X163096000Y-100429000D02*
X163096000Y-94520000D01*
X164312000Y-105410000D02*
X163322000Y-105410000D01*
X164096000Y-100191000D02*
X163449000Y-100838000D01*
X163449000Y-102362000D02*
X163449000Y-104775000D01*
X163449000Y-104775000D02*
X163584000Y-104910000D01*
X163584000Y-104910000D02*
X164312000Y-104910000D01*
X164096000Y-94520000D02*
X164096000Y-100191000D01*
X155917900Y-89877900D02*
X156960000Y-90920000D01*
X156960000Y-90920000D02*
X160496000Y-90920000D01*
X152420320Y-89877900D02*
X155917900Y-89877900D01*
X156083000Y-90678000D02*
X156825000Y-91420000D01*
X156825000Y-91420000D02*
X160496000Y-91420000D01*
X152420320Y-90678000D02*
X156083000Y-90678000D01*
G36*
X183565800Y-104108437D02*
X183565242Y-104108995D01*
X183565242Y-104052007D01*
X183530439Y-103967987D01*
X183317939Y-103755487D01*
X183237117Y-103755487D01*
X182985669Y-104006934D01*
X182985669Y-103504039D01*
X182985669Y-103423217D01*
X182773169Y-103210717D01*
X182689149Y-103175914D01*
X182598207Y-103175914D01*
X182514186Y-103210716D01*
X182449880Y-103275022D01*
X181446086Y-104278816D01*
X181446086Y-104359639D01*
X181788078Y-104701631D01*
X182985669Y-103504039D01*
X182985669Y-104006934D01*
X182039525Y-104953078D01*
X182053667Y-104967220D01*
X181802220Y-105218667D01*
X181788078Y-105204525D01*
X181536631Y-105455972D01*
X181536631Y-104953078D01*
X181194639Y-104611086D01*
X181113816Y-104611086D01*
X180446600Y-105278302D01*
X180446600Y-103159472D01*
X180446600Y-103108650D01*
X180389450Y-103051500D01*
X180043000Y-103051500D01*
X180043000Y-103285450D01*
X180100150Y-103342600D01*
X180263471Y-103342600D01*
X180347491Y-103307798D01*
X180411797Y-103243492D01*
X180446600Y-103159472D01*
X180446600Y-105278302D01*
X180110022Y-105614880D01*
X180045716Y-105679186D01*
X180010914Y-105763207D01*
X180010914Y-105854149D01*
X180045717Y-105938169D01*
X180258217Y-106150669D01*
X180339039Y-106150669D01*
X181536631Y-104953078D01*
X181536631Y-105455972D01*
X180590487Y-106402117D01*
X180590487Y-106476800D01*
X179527200Y-106476800D01*
X179527200Y-103342600D01*
X179635850Y-103342600D01*
X179693000Y-103285450D01*
X179693000Y-103051500D01*
X179670200Y-103051500D01*
X179670200Y-102926500D01*
X179693000Y-102926500D01*
X179693000Y-102867600D01*
X179868000Y-102867600D01*
X179886098Y-102864000D01*
X180043000Y-102864000D01*
X180043000Y-102926500D01*
X180389450Y-102926500D01*
X180446600Y-102869350D01*
X180446600Y-102819200D01*
X183565800Y-102819200D01*
X183565800Y-104108437D01*
X183565800Y-104108437D01*
G37*
X183565800Y-104108437D02*
X183565242Y-104108995D01*
X183565242Y-104052007D01*
X183530439Y-103967987D01*
X183317939Y-103755487D01*
X183237117Y-103755487D01*
X182985669Y-104006934D01*
X182985669Y-103504039D01*
X182985669Y-103423217D01*
X182773169Y-103210717D01*
X182689149Y-103175914D01*
X182598207Y-103175914D01*
X182514186Y-103210716D01*
X182449880Y-103275022D01*
X181446086Y-104278816D01*
X181446086Y-104359639D01*
X181788078Y-104701631D01*
X182985669Y-103504039D01*
X182985669Y-104006934D01*
X182039525Y-104953078D01*
X182053667Y-104967220D01*
X181802220Y-105218667D01*
X181788078Y-105204525D01*
X181536631Y-105455972D01*
X181536631Y-104953078D01*
X181194639Y-104611086D01*
X181113816Y-104611086D01*
X180446600Y-105278302D01*
X180446600Y-103159472D01*
X180446600Y-103108650D01*
X180389450Y-103051500D01*
X180043000Y-103051500D01*
X180043000Y-103285450D01*
X180100150Y-103342600D01*
X180263471Y-103342600D01*
X180347491Y-103307798D01*
X180411797Y-103243492D01*
X180446600Y-103159472D01*
X180446600Y-105278302D01*
X180110022Y-105614880D01*
X180045716Y-105679186D01*
X180010914Y-105763207D01*
X180010914Y-105854149D01*
X180045717Y-105938169D01*
X180258217Y-106150669D01*
X180339039Y-106150669D01*
X181536631Y-104953078D01*
X181536631Y-105455972D01*
X180590487Y-106402117D01*
X180590487Y-106476800D01*
X179527200Y-106476800D01*
X179527200Y-103342600D01*
X179635850Y-103342600D01*
X179693000Y-103285450D01*
X179693000Y-103051500D01*
X179670200Y-103051500D01*
X179670200Y-102926500D01*
X179693000Y-102926500D01*
X179693000Y-102867600D01*
X179868000Y-102867600D01*
X179886098Y-102864000D01*
X180043000Y-102864000D01*
X180043000Y-102926500D01*
X180389450Y-102926500D01*
X180446600Y-102869350D01*
X180446600Y-102819200D01*
X183565800Y-102819200D01*
X183565800Y-104108437D01*
G36*
X186232800Y-108508800D02*
X185241086Y-108508800D01*
X185241086Y-105818793D01*
X185241086Y-105727851D01*
X185206283Y-105643831D01*
X184993783Y-105431331D01*
X184912961Y-105431331D01*
X184805567Y-105538724D01*
X184805567Y-97118192D01*
X184789499Y-96951800D01*
X183946800Y-96951800D01*
X183946800Y-97793664D01*
X184113190Y-97810550D01*
X184258583Y-97750344D01*
X184594946Y-97488669D01*
X184805567Y-97118192D01*
X184805567Y-105538724D01*
X183715369Y-106628922D01*
X184057361Y-106970914D01*
X184138184Y-106970914D01*
X185141978Y-105967120D01*
X185206284Y-105902814D01*
X185241086Y-105818793D01*
X185241086Y-108508800D01*
X183805914Y-108508800D01*
X183805914Y-107303184D01*
X183805914Y-107222361D01*
X183463922Y-106880369D01*
X183212475Y-107131816D01*
X183212475Y-106628922D01*
X182870483Y-106286930D01*
X182789660Y-106286930D01*
X181785866Y-107290724D01*
X181721560Y-107355030D01*
X181686758Y-107439051D01*
X181686758Y-107529993D01*
X181721561Y-107614013D01*
X181934061Y-107826513D01*
X182014883Y-107826513D01*
X183212475Y-106628922D01*
X183212475Y-107131816D01*
X182266331Y-108077961D01*
X182266331Y-108158783D01*
X182478831Y-108371283D01*
X182562851Y-108406086D01*
X182653793Y-108406086D01*
X182737814Y-108371284D01*
X182802120Y-108306978D01*
X183805914Y-107303184D01*
X183805914Y-108508800D01*
X178657600Y-108508800D01*
X178657600Y-106859471D01*
X178657600Y-106648950D01*
X178600450Y-106591800D01*
X178231800Y-106591800D01*
X178231800Y-106985450D01*
X178288950Y-107042600D01*
X178383529Y-107042600D01*
X178474472Y-107042600D01*
X178558492Y-107007797D01*
X178622798Y-106943491D01*
X178657600Y-106859471D01*
X178657600Y-108508800D01*
X177876200Y-108508800D01*
X177876200Y-106985450D01*
X177876200Y-106591800D01*
X177507550Y-106591800D01*
X177450400Y-106648950D01*
X177450400Y-106859471D01*
X177485202Y-106943491D01*
X177549508Y-107007797D01*
X177633528Y-107042600D01*
X177724471Y-107042600D01*
X177819050Y-107042600D01*
X177876200Y-106985450D01*
X177876200Y-108508800D01*
X177006600Y-108508800D01*
X177006600Y-106859471D01*
X177006600Y-106648950D01*
X176949450Y-106591800D01*
X176580800Y-106591800D01*
X176580800Y-106985450D01*
X176637950Y-107042600D01*
X176732529Y-107042600D01*
X176823472Y-107042600D01*
X176907492Y-107007797D01*
X176971798Y-106943491D01*
X177006600Y-106859471D01*
X177006600Y-108508800D01*
X176225200Y-108508800D01*
X176225200Y-106985450D01*
X176225200Y-106591800D01*
X175856550Y-106591800D01*
X175799400Y-106648950D01*
X175799400Y-106859471D01*
X175834202Y-106943491D01*
X175898508Y-107007797D01*
X175982528Y-107042600D01*
X176073471Y-107042600D01*
X176168050Y-107042600D01*
X176225200Y-106985450D01*
X176225200Y-108508800D01*
X175590200Y-108508800D01*
X175590200Y-105867200D01*
X175851511Y-105867200D01*
X175834202Y-105884509D01*
X175799400Y-105968529D01*
X175799400Y-106179050D01*
X175856550Y-106236200D01*
X176225200Y-106236200D01*
X176225200Y-106216200D01*
X176580800Y-106216200D01*
X176580800Y-106236200D01*
X176949450Y-106236200D01*
X177006600Y-106179050D01*
X177006600Y-105968529D01*
X176971798Y-105884509D01*
X176954489Y-105867200D01*
X177502511Y-105867200D01*
X177485202Y-105884509D01*
X177450400Y-105968529D01*
X177450400Y-106179050D01*
X177507550Y-106236200D01*
X177876200Y-106236200D01*
X177876200Y-106216200D01*
X178231800Y-106216200D01*
X178231800Y-106236200D01*
X178600450Y-106236200D01*
X178657600Y-106179050D01*
X178657600Y-105968529D01*
X178622798Y-105884509D01*
X178605489Y-105867200D01*
X179222400Y-105867200D01*
X179222400Y-106781600D01*
X181323689Y-106781600D01*
X182238089Y-105867200D01*
X183209390Y-105867200D01*
X183121930Y-105954660D01*
X183121930Y-106035483D01*
X183463922Y-106377475D01*
X184661513Y-105179883D01*
X184661513Y-105099061D01*
X184449013Y-104886561D01*
X184364993Y-104851758D01*
X184274051Y-104851758D01*
X184190030Y-104886560D01*
X184125724Y-104950866D01*
X183845200Y-105231390D01*
X183845200Y-104260089D01*
X183870600Y-104234689D01*
X183870600Y-102514400D01*
X183845200Y-102514400D01*
X183845200Y-98094800D01*
X183591200Y-98094800D01*
X183591200Y-97793664D01*
X183591200Y-96951800D01*
X182748501Y-96951800D01*
X182732433Y-97118192D01*
X182943054Y-97488669D01*
X183279417Y-97750344D01*
X183424810Y-97810550D01*
X183591200Y-97793664D01*
X183591200Y-98094800D01*
X182265567Y-98094800D01*
X182265567Y-97118192D01*
X182249499Y-96951800D01*
X181406800Y-96951800D01*
X181406800Y-97793664D01*
X181573190Y-97810550D01*
X181718583Y-97750344D01*
X182054946Y-97488669D01*
X182265567Y-97118192D01*
X182265567Y-98094800D01*
X181051200Y-98094800D01*
X180172800Y-98094800D01*
X180172800Y-96951802D01*
X180208500Y-96951802D01*
X180192433Y-97118192D01*
X180403054Y-97488669D01*
X180739417Y-97750344D01*
X180884810Y-97810550D01*
X181051200Y-97793664D01*
X181051200Y-96951800D01*
X181031200Y-96951800D01*
X181031200Y-96596200D01*
X181051200Y-96596200D01*
X181051200Y-96576200D01*
X181406800Y-96576200D01*
X181406800Y-96596200D01*
X182249499Y-96596200D01*
X182265567Y-96429808D01*
X182054946Y-96059331D01*
X181718583Y-95797656D01*
X181573190Y-95737450D01*
X181406802Y-95754335D01*
X181406802Y-95707200D01*
X183591198Y-95707200D01*
X183591198Y-95754335D01*
X183424810Y-95737450D01*
X183279417Y-95797656D01*
X182943054Y-96059331D01*
X182732433Y-96429808D01*
X182748501Y-96596200D01*
X183591200Y-96596200D01*
X183591200Y-96576200D01*
X183946800Y-96576200D01*
X183946800Y-96596200D01*
X184789499Y-96596200D01*
X184805567Y-96429808D01*
X184594946Y-96059331D01*
X184258583Y-95797656D01*
X184113190Y-95737450D01*
X183946802Y-95754335D01*
X183946802Y-95707200D01*
X186232800Y-95707200D01*
X186232800Y-108508800D01*
X186232800Y-108508800D01*
G37*
X186232800Y-108508800D02*
X185241086Y-108508800D01*
X185241086Y-105818793D01*
X185241086Y-105727851D01*
X185206283Y-105643831D01*
X184993783Y-105431331D01*
X184912961Y-105431331D01*
X184805567Y-105538724D01*
X184805567Y-97118192D01*
X184789499Y-96951800D01*
X183946800Y-96951800D01*
X183946800Y-97793664D01*
X184113190Y-97810550D01*
X184258583Y-97750344D01*
X184594946Y-97488669D01*
X184805567Y-97118192D01*
X184805567Y-105538724D01*
X183715369Y-106628922D01*
X184057361Y-106970914D01*
X184138184Y-106970914D01*
X185141978Y-105967120D01*
X185206284Y-105902814D01*
X185241086Y-105818793D01*
X185241086Y-108508800D01*
X183805914Y-108508800D01*
X183805914Y-107303184D01*
X183805914Y-107222361D01*
X183463922Y-106880369D01*
X183212475Y-107131816D01*
X183212475Y-106628922D01*
X182870483Y-106286930D01*
X182789660Y-106286930D01*
X181785866Y-107290724D01*
X181721560Y-107355030D01*
X181686758Y-107439051D01*
X181686758Y-107529993D01*
X181721561Y-107614013D01*
X181934061Y-107826513D01*
X182014883Y-107826513D01*
X183212475Y-106628922D01*
X183212475Y-107131816D01*
X182266331Y-108077961D01*
X182266331Y-108158783D01*
X182478831Y-108371283D01*
X182562851Y-108406086D01*
X182653793Y-108406086D01*
X182737814Y-108371284D01*
X182802120Y-108306978D01*
X183805914Y-107303184D01*
X183805914Y-108508800D01*
X178657600Y-108508800D01*
X178657600Y-106859471D01*
X178657600Y-106648950D01*
X178600450Y-106591800D01*
X178231800Y-106591800D01*
X178231800Y-106985450D01*
X178288950Y-107042600D01*
X178383529Y-107042600D01*
X178474472Y-107042600D01*
X178558492Y-107007797D01*
X178622798Y-106943491D01*
X178657600Y-106859471D01*
X178657600Y-108508800D01*
X177876200Y-108508800D01*
X177876200Y-106985450D01*
X177876200Y-106591800D01*
X177507550Y-106591800D01*
X177450400Y-106648950D01*
X177450400Y-106859471D01*
X177485202Y-106943491D01*
X177549508Y-107007797D01*
X177633528Y-107042600D01*
X177724471Y-107042600D01*
X177819050Y-107042600D01*
X177876200Y-106985450D01*
X177876200Y-108508800D01*
X177006600Y-108508800D01*
X177006600Y-106859471D01*
X177006600Y-106648950D01*
X176949450Y-106591800D01*
X176580800Y-106591800D01*
X176580800Y-106985450D01*
X176637950Y-107042600D01*
X176732529Y-107042600D01*
X176823472Y-107042600D01*
X176907492Y-107007797D01*
X176971798Y-106943491D01*
X177006600Y-106859471D01*
X177006600Y-108508800D01*
X176225200Y-108508800D01*
X176225200Y-106985450D01*
X176225200Y-106591800D01*
X175856550Y-106591800D01*
X175799400Y-106648950D01*
X175799400Y-106859471D01*
X175834202Y-106943491D01*
X175898508Y-107007797D01*
X175982528Y-107042600D01*
X176073471Y-107042600D01*
X176168050Y-107042600D01*
X176225200Y-106985450D01*
X176225200Y-108508800D01*
X175590200Y-108508800D01*
X175590200Y-105867200D01*
X175851511Y-105867200D01*
X175834202Y-105884509D01*
X175799400Y-105968529D01*
X175799400Y-106179050D01*
X175856550Y-106236200D01*
X176225200Y-106236200D01*
X176225200Y-106216200D01*
X176580800Y-106216200D01*
X176580800Y-106236200D01*
X176949450Y-106236200D01*
X177006600Y-106179050D01*
X177006600Y-105968529D01*
X176971798Y-105884509D01*
X176954489Y-105867200D01*
X177502511Y-105867200D01*
X177485202Y-105884509D01*
X177450400Y-105968529D01*
X177450400Y-106179050D01*
X177507550Y-106236200D01*
X177876200Y-106236200D01*
X177876200Y-106216200D01*
X178231800Y-106216200D01*
X178231800Y-106236200D01*
X178600450Y-106236200D01*
X178657600Y-106179050D01*
X178657600Y-105968529D01*
X178622798Y-105884509D01*
X178605489Y-105867200D01*
X179222400Y-105867200D01*
X179222400Y-106781600D01*
X181323689Y-106781600D01*
X182238089Y-105867200D01*
X183209390Y-105867200D01*
X183121930Y-105954660D01*
X183121930Y-106035483D01*
X183463922Y-106377475D01*
X184661513Y-105179883D01*
X184661513Y-105099061D01*
X184449013Y-104886561D01*
X184364993Y-104851758D01*
X184274051Y-104851758D01*
X184190030Y-104886560D01*
X184125724Y-104950866D01*
X183845200Y-105231390D01*
X183845200Y-104260089D01*
X183870600Y-104234689D01*
X183870600Y-102514400D01*
X183845200Y-102514400D01*
X183845200Y-98094800D01*
X183591200Y-98094800D01*
X183591200Y-97793664D01*
X183591200Y-96951800D01*
X182748501Y-96951800D01*
X182732433Y-97118192D01*
X182943054Y-97488669D01*
X183279417Y-97750344D01*
X183424810Y-97810550D01*
X183591200Y-97793664D01*
X183591200Y-98094800D01*
X182265567Y-98094800D01*
X182265567Y-97118192D01*
X182249499Y-96951800D01*
X181406800Y-96951800D01*
X181406800Y-97793664D01*
X181573190Y-97810550D01*
X181718583Y-97750344D01*
X182054946Y-97488669D01*
X182265567Y-97118192D01*
X182265567Y-98094800D01*
X181051200Y-98094800D01*
X180172800Y-98094800D01*
X180172800Y-96951802D01*
X180208500Y-96951802D01*
X180192433Y-97118192D01*
X180403054Y-97488669D01*
X180739417Y-97750344D01*
X180884810Y-97810550D01*
X181051200Y-97793664D01*
X181051200Y-96951800D01*
X181031200Y-96951800D01*
X181031200Y-96596200D01*
X181051200Y-96596200D01*
X181051200Y-96576200D01*
X181406800Y-96576200D01*
X181406800Y-96596200D01*
X182249499Y-96596200D01*
X182265567Y-96429808D01*
X182054946Y-96059331D01*
X181718583Y-95797656D01*
X181573190Y-95737450D01*
X181406802Y-95754335D01*
X181406802Y-95707200D01*
X183591198Y-95707200D01*
X183591198Y-95754335D01*
X183424810Y-95737450D01*
X183279417Y-95797656D01*
X182943054Y-96059331D01*
X182732433Y-96429808D01*
X182748501Y-96596200D01*
X183591200Y-96596200D01*
X183591200Y-96576200D01*
X183946800Y-96576200D01*
X183946800Y-96596200D01*
X184789499Y-96596200D01*
X184805567Y-96429808D01*
X184594946Y-96059331D01*
X184258583Y-95797656D01*
X184113190Y-95737450D01*
X183946802Y-95754335D01*
X183946802Y-95707200D01*
X186232800Y-95707200D01*
X186232800Y-108508800D01*
G36*
X179222400Y-105562400D02*
X178790500Y-105562400D01*
X178657600Y-105562400D01*
X178657600Y-105359471D01*
X178657600Y-105148950D01*
X178657600Y-104679050D01*
X178657600Y-104468529D01*
X178622798Y-104384509D01*
X178558492Y-104320203D01*
X178474472Y-104285400D01*
X178383529Y-104285400D01*
X178288950Y-104285400D01*
X178231800Y-104342550D01*
X178231800Y-104736200D01*
X178600450Y-104736200D01*
X178657600Y-104679050D01*
X178657600Y-105148950D01*
X178600450Y-105091800D01*
X178231800Y-105091800D01*
X178231800Y-105485450D01*
X178288950Y-105542600D01*
X178383529Y-105542600D01*
X178474472Y-105542600D01*
X178558492Y-105507797D01*
X178622798Y-105443491D01*
X178657600Y-105359471D01*
X178657600Y-105562400D01*
X177876200Y-105562400D01*
X177876200Y-105485450D01*
X177876200Y-105091800D01*
X177507550Y-105091800D01*
X177450400Y-105148950D01*
X177450400Y-105359471D01*
X177485202Y-105443491D01*
X177549508Y-105507797D01*
X177633528Y-105542600D01*
X177724471Y-105542600D01*
X177819050Y-105542600D01*
X177876200Y-105485450D01*
X177876200Y-105562400D01*
X177006600Y-105562400D01*
X177006600Y-105359471D01*
X177006600Y-105148950D01*
X176949450Y-105091800D01*
X176580800Y-105091800D01*
X176580800Y-105485450D01*
X176637950Y-105542600D01*
X176732529Y-105542600D01*
X176823472Y-105542600D01*
X176907492Y-105507797D01*
X176971798Y-105443491D01*
X177006600Y-105359471D01*
X177006600Y-105562400D01*
X176225200Y-105562400D01*
X176225200Y-105485450D01*
X176225200Y-105091800D01*
X175856550Y-105091800D01*
X175799400Y-105148950D01*
X175799400Y-105359471D01*
X175834202Y-105443491D01*
X175898508Y-105507797D01*
X175982528Y-105542600D01*
X176073471Y-105542600D01*
X176168050Y-105542600D01*
X176225200Y-105485450D01*
X176225200Y-105562400D01*
X175285400Y-105562400D01*
X175285400Y-105587800D01*
X174593600Y-105587800D01*
X174593600Y-105335471D01*
X174593600Y-105124950D01*
X174536450Y-105067800D01*
X174167800Y-105067800D01*
X174167800Y-105461450D01*
X174224950Y-105518600D01*
X174319529Y-105518600D01*
X174410472Y-105518600D01*
X174494492Y-105483797D01*
X174558798Y-105419491D01*
X174593600Y-105335471D01*
X174593600Y-105587800D01*
X173812200Y-105587800D01*
X173812200Y-105461450D01*
X173812200Y-105067800D01*
X173443550Y-105067800D01*
X173386400Y-105124950D01*
X173386400Y-105335471D01*
X173421202Y-105419491D01*
X173485508Y-105483797D01*
X173569528Y-105518600D01*
X173660471Y-105518600D01*
X173755050Y-105518600D01*
X173812200Y-105461450D01*
X173812200Y-105587800D01*
X173050200Y-105587800D01*
X173050200Y-104470200D01*
X173386400Y-104470200D01*
X173386400Y-104655050D01*
X173443550Y-104712200D01*
X173812200Y-104712200D01*
X173812200Y-104692200D01*
X174167800Y-104692200D01*
X174167800Y-104712200D01*
X174536450Y-104712200D01*
X174593600Y-104655050D01*
X174593600Y-104470200D01*
X175799400Y-104470200D01*
X175799400Y-104679050D01*
X175856550Y-104736200D01*
X176225200Y-104736200D01*
X176225200Y-104716200D01*
X176580800Y-104716200D01*
X176580800Y-104736200D01*
X176949450Y-104736200D01*
X177006600Y-104679050D01*
X177006600Y-104470200D01*
X177450400Y-104470200D01*
X177450400Y-104679050D01*
X177507550Y-104736200D01*
X177876200Y-104736200D01*
X177876200Y-104342550D01*
X177819050Y-104285400D01*
X177724471Y-104285400D01*
X177633528Y-104285400D01*
X177549508Y-104320203D01*
X177495200Y-104374511D01*
X177495200Y-103264489D01*
X177538509Y-103307798D01*
X177622529Y-103342600D01*
X177785850Y-103342600D01*
X177843000Y-103285450D01*
X177843000Y-103051500D01*
X177820200Y-103051500D01*
X177820200Y-102926500D01*
X177843000Y-102926500D01*
X177843000Y-102864000D01*
X178193000Y-102864000D01*
X178193000Y-102926500D01*
X178409400Y-102926500D01*
X178409400Y-103021802D01*
X178466248Y-103021802D01*
X178436550Y-103051500D01*
X178193000Y-103051500D01*
X178193000Y-103285450D01*
X178250150Y-103342600D01*
X178413471Y-103342600D01*
X178445177Y-103329466D01*
X178508509Y-103392798D01*
X178592529Y-103427600D01*
X178733350Y-103427600D01*
X178790500Y-103370450D01*
X178790500Y-103021500D01*
X178745200Y-103021500D01*
X178745200Y-102705750D01*
X178784450Y-102666500D01*
X178790500Y-102666500D01*
X178790500Y-102660450D01*
X178790500Y-102646200D01*
X179095500Y-102646200D01*
X179095500Y-102660450D01*
X179095500Y-102666500D01*
X179101550Y-102666500D01*
X179140800Y-102705750D01*
X179140800Y-103021500D01*
X179095500Y-103021500D01*
X179095500Y-103370450D01*
X179152650Y-103427600D01*
X179222400Y-103427600D01*
X179222400Y-105562400D01*
X179222400Y-105562400D01*
G37*
X179222400Y-105562400D02*
X178790500Y-105562400D01*
X178657600Y-105562400D01*
X178657600Y-105359471D01*
X178657600Y-105148950D01*
X178657600Y-104679050D01*
X178657600Y-104468529D01*
X178622798Y-104384509D01*
X178558492Y-104320203D01*
X178474472Y-104285400D01*
X178383529Y-104285400D01*
X178288950Y-104285400D01*
X178231800Y-104342550D01*
X178231800Y-104736200D01*
X178600450Y-104736200D01*
X178657600Y-104679050D01*
X178657600Y-105148950D01*
X178600450Y-105091800D01*
X178231800Y-105091800D01*
X178231800Y-105485450D01*
X178288950Y-105542600D01*
X178383529Y-105542600D01*
X178474472Y-105542600D01*
X178558492Y-105507797D01*
X178622798Y-105443491D01*
X178657600Y-105359471D01*
X178657600Y-105562400D01*
X177876200Y-105562400D01*
X177876200Y-105485450D01*
X177876200Y-105091800D01*
X177507550Y-105091800D01*
X177450400Y-105148950D01*
X177450400Y-105359471D01*
X177485202Y-105443491D01*
X177549508Y-105507797D01*
X177633528Y-105542600D01*
X177724471Y-105542600D01*
X177819050Y-105542600D01*
X177876200Y-105485450D01*
X177876200Y-105562400D01*
X177006600Y-105562400D01*
X177006600Y-105359471D01*
X177006600Y-105148950D01*
X176949450Y-105091800D01*
X176580800Y-105091800D01*
X176580800Y-105485450D01*
X176637950Y-105542600D01*
X176732529Y-105542600D01*
X176823472Y-105542600D01*
X176907492Y-105507797D01*
X176971798Y-105443491D01*
X177006600Y-105359471D01*
X177006600Y-105562400D01*
X176225200Y-105562400D01*
X176225200Y-105485450D01*
X176225200Y-105091800D01*
X175856550Y-105091800D01*
X175799400Y-105148950D01*
X175799400Y-105359471D01*
X175834202Y-105443491D01*
X175898508Y-105507797D01*
X175982528Y-105542600D01*
X176073471Y-105542600D01*
X176168050Y-105542600D01*
X176225200Y-105485450D01*
X176225200Y-105562400D01*
X175285400Y-105562400D01*
X175285400Y-105587800D01*
X174593600Y-105587800D01*
X174593600Y-105335471D01*
X174593600Y-105124950D01*
X174536450Y-105067800D01*
X174167800Y-105067800D01*
X174167800Y-105461450D01*
X174224950Y-105518600D01*
X174319529Y-105518600D01*
X174410472Y-105518600D01*
X174494492Y-105483797D01*
X174558798Y-105419491D01*
X174593600Y-105335471D01*
X174593600Y-105587800D01*
X173812200Y-105587800D01*
X173812200Y-105461450D01*
X173812200Y-105067800D01*
X173443550Y-105067800D01*
X173386400Y-105124950D01*
X173386400Y-105335471D01*
X173421202Y-105419491D01*
X173485508Y-105483797D01*
X173569528Y-105518600D01*
X173660471Y-105518600D01*
X173755050Y-105518600D01*
X173812200Y-105461450D01*
X173812200Y-105587800D01*
X173050200Y-105587800D01*
X173050200Y-104470200D01*
X173386400Y-104470200D01*
X173386400Y-104655050D01*
X173443550Y-104712200D01*
X173812200Y-104712200D01*
X173812200Y-104692200D01*
X174167800Y-104692200D01*
X174167800Y-104712200D01*
X174536450Y-104712200D01*
X174593600Y-104655050D01*
X174593600Y-104470200D01*
X175799400Y-104470200D01*
X175799400Y-104679050D01*
X175856550Y-104736200D01*
X176225200Y-104736200D01*
X176225200Y-104716200D01*
X176580800Y-104716200D01*
X176580800Y-104736200D01*
X176949450Y-104736200D01*
X177006600Y-104679050D01*
X177006600Y-104470200D01*
X177450400Y-104470200D01*
X177450400Y-104679050D01*
X177507550Y-104736200D01*
X177876200Y-104736200D01*
X177876200Y-104342550D01*
X177819050Y-104285400D01*
X177724471Y-104285400D01*
X177633528Y-104285400D01*
X177549508Y-104320203D01*
X177495200Y-104374511D01*
X177495200Y-103264489D01*
X177538509Y-103307798D01*
X177622529Y-103342600D01*
X177785850Y-103342600D01*
X177843000Y-103285450D01*
X177843000Y-103051500D01*
X177820200Y-103051500D01*
X177820200Y-102926500D01*
X177843000Y-102926500D01*
X177843000Y-102864000D01*
X178193000Y-102864000D01*
X178193000Y-102926500D01*
X178409400Y-102926500D01*
X178409400Y-103021802D01*
X178466248Y-103021802D01*
X178436550Y-103051500D01*
X178193000Y-103051500D01*
X178193000Y-103285450D01*
X178250150Y-103342600D01*
X178413471Y-103342600D01*
X178445177Y-103329466D01*
X178508509Y-103392798D01*
X178592529Y-103427600D01*
X178733350Y-103427600D01*
X178790500Y-103370450D01*
X178790500Y-103021500D01*
X178745200Y-103021500D01*
X178745200Y-102705750D01*
X178784450Y-102666500D01*
X178790500Y-102666500D01*
X178790500Y-102660450D01*
X178790500Y-102646200D01*
X179095500Y-102646200D01*
X179095500Y-102660450D01*
X179095500Y-102666500D01*
X179101550Y-102666500D01*
X179140800Y-102705750D01*
X179140800Y-103021500D01*
X179095500Y-103021500D01*
X179095500Y-103370450D01*
X179152650Y-103427600D01*
X179222400Y-103427600D01*
X179222400Y-105562400D01*
G36*
X180065800Y-102514400D02*
X179670200Y-102514400D01*
X179670200Y-102426500D01*
X179693000Y-102426500D01*
X179693000Y-102364000D01*
X180043000Y-102364000D01*
X180043000Y-102426500D01*
X180065800Y-102426500D01*
X180065800Y-102514400D01*
X180065800Y-102514400D01*
G37*
X180065800Y-102514400D02*
X179670200Y-102514400D01*
X179670200Y-102426500D01*
X179693000Y-102426500D01*
X179693000Y-102364000D01*
X180043000Y-102364000D01*
X180043000Y-102426500D01*
X180065800Y-102426500D01*
X180065800Y-102514400D01*
G36*
X178206400Y-102514400D02*
X177190400Y-102514400D01*
X177190400Y-104063800D01*
X174593600Y-104063800D01*
X174593600Y-103835471D01*
X174593600Y-103624950D01*
X174593600Y-103155050D01*
X174593600Y-102944529D01*
X174558798Y-102860509D01*
X174494492Y-102796203D01*
X174410472Y-102761400D01*
X174319529Y-102761400D01*
X174224950Y-102761400D01*
X174167800Y-102818550D01*
X174167800Y-103212200D01*
X174536450Y-103212200D01*
X174593600Y-103155050D01*
X174593600Y-103624950D01*
X174536450Y-103567800D01*
X174167800Y-103567800D01*
X174167800Y-103961450D01*
X174224950Y-104018600D01*
X174319529Y-104018600D01*
X174410472Y-104018600D01*
X174494492Y-103983797D01*
X174558798Y-103919491D01*
X174593600Y-103835471D01*
X174593600Y-104063800D01*
X173812200Y-104063800D01*
X173812200Y-103961450D01*
X173812200Y-103567800D01*
X173812200Y-103212200D01*
X173812200Y-102818550D01*
X173755050Y-102761400D01*
X173660471Y-102761400D01*
X173569528Y-102761400D01*
X173485508Y-102796203D01*
X173421202Y-102860509D01*
X173386400Y-102944529D01*
X173386400Y-103155050D01*
X173443550Y-103212200D01*
X173812200Y-103212200D01*
X173812200Y-103567800D01*
X173443550Y-103567800D01*
X173386400Y-103624950D01*
X173386400Y-103835471D01*
X173421202Y-103919491D01*
X173485508Y-103983797D01*
X173569528Y-104018600D01*
X173660471Y-104018600D01*
X173755050Y-104018600D01*
X173812200Y-103961450D01*
X173812200Y-104063800D01*
X173202555Y-104063800D01*
X173202684Y-103917426D01*
X173129367Y-103739986D01*
X173050200Y-103660680D01*
X173050200Y-102419213D01*
X173120014Y-102390367D01*
X173199319Y-102311200D01*
X177442435Y-102311200D01*
X177439400Y-102318528D01*
X177439400Y-102369350D01*
X177496550Y-102426500D01*
X177843000Y-102426500D01*
X177843000Y-102364000D01*
X178193000Y-102364000D01*
X178193000Y-102426500D01*
X178206400Y-102426500D01*
X178206400Y-102514400D01*
X178206400Y-102514400D01*
G37*
X178206400Y-102514400D02*
X177190400Y-102514400D01*
X177190400Y-104063800D01*
X174593600Y-104063800D01*
X174593600Y-103835471D01*
X174593600Y-103624950D01*
X174593600Y-103155050D01*
X174593600Y-102944529D01*
X174558798Y-102860509D01*
X174494492Y-102796203D01*
X174410472Y-102761400D01*
X174319529Y-102761400D01*
X174224950Y-102761400D01*
X174167800Y-102818550D01*
X174167800Y-103212200D01*
X174536450Y-103212200D01*
X174593600Y-103155050D01*
X174593600Y-103624950D01*
X174536450Y-103567800D01*
X174167800Y-103567800D01*
X174167800Y-103961450D01*
X174224950Y-104018600D01*
X174319529Y-104018600D01*
X174410472Y-104018600D01*
X174494492Y-103983797D01*
X174558798Y-103919491D01*
X174593600Y-103835471D01*
X174593600Y-104063800D01*
X173812200Y-104063800D01*
X173812200Y-103961450D01*
X173812200Y-103567800D01*
X173812200Y-103212200D01*
X173812200Y-102818550D01*
X173755050Y-102761400D01*
X173660471Y-102761400D01*
X173569528Y-102761400D01*
X173485508Y-102796203D01*
X173421202Y-102860509D01*
X173386400Y-102944529D01*
X173386400Y-103155050D01*
X173443550Y-103212200D01*
X173812200Y-103212200D01*
X173812200Y-103567800D01*
X173443550Y-103567800D01*
X173386400Y-103624950D01*
X173386400Y-103835471D01*
X173421202Y-103919491D01*
X173485508Y-103983797D01*
X173569528Y-104018600D01*
X173660471Y-104018600D01*
X173755050Y-104018600D01*
X173812200Y-103961450D01*
X173812200Y-104063800D01*
X173202555Y-104063800D01*
X173202684Y-103917426D01*
X173129367Y-103739986D01*
X173050200Y-103660680D01*
X173050200Y-102419213D01*
X173120014Y-102390367D01*
X173199319Y-102311200D01*
X177442435Y-102311200D01*
X177439400Y-102318528D01*
X177439400Y-102369350D01*
X177496550Y-102426500D01*
X177843000Y-102426500D01*
X177843000Y-102364000D01*
X178193000Y-102364000D01*
X178193000Y-102426500D01*
X178206400Y-102426500D01*
X178206400Y-102514400D01*
G36*
X156514800Y-85022619D02*
X156480471Y-85008400D01*
X155769950Y-85008400D01*
X155712800Y-85065550D01*
X155712800Y-85674200D01*
X155732800Y-85674200D01*
X155732800Y-86029800D01*
X155712800Y-86029800D01*
X155712800Y-86049800D01*
X155478500Y-86049800D01*
X155478500Y-84351450D01*
X155478500Y-83827800D01*
X155144550Y-83827800D01*
X155087400Y-83884950D01*
X155087400Y-84225471D01*
X155122202Y-84309491D01*
X155186508Y-84373797D01*
X155270528Y-84408600D01*
X155361471Y-84408600D01*
X155421350Y-84408600D01*
X155478500Y-84351450D01*
X155478500Y-86049800D01*
X155357200Y-86049800D01*
X155357200Y-86029800D01*
X155337200Y-86029800D01*
X155337200Y-85674200D01*
X155357200Y-85674200D01*
X155357200Y-85065550D01*
X155300050Y-85008400D01*
X154667600Y-85008400D01*
X154667600Y-84113472D01*
X154667600Y-84022529D01*
X154667600Y-83927950D01*
X154610450Y-83870800D01*
X154216800Y-83870800D01*
X154216800Y-84239450D01*
X154273950Y-84296600D01*
X154484471Y-84296600D01*
X154568491Y-84261798D01*
X154632797Y-84197492D01*
X154667600Y-84113472D01*
X154667600Y-85008400D01*
X154635200Y-85008400D01*
X154635200Y-84632800D01*
X153492200Y-84632800D01*
X153492200Y-84244489D01*
X153509509Y-84261798D01*
X153593529Y-84296600D01*
X153804050Y-84296600D01*
X153861200Y-84239450D01*
X153861200Y-83870800D01*
X153841200Y-83870800D01*
X153841200Y-83515200D01*
X153861200Y-83515200D01*
X153861200Y-83495200D01*
X154216800Y-83495200D01*
X154216800Y-83515200D01*
X154610450Y-83515200D01*
X154667600Y-83458050D01*
X154667600Y-83363471D01*
X154667600Y-83272528D01*
X154632797Y-83188508D01*
X154578489Y-83134200D01*
X155087400Y-83134200D01*
X155087400Y-83415050D01*
X155144550Y-83472200D01*
X155478500Y-83472200D01*
X155478500Y-83452200D01*
X155803500Y-83452200D01*
X155803500Y-83472200D01*
X155838800Y-83472200D01*
X155838800Y-83827800D01*
X155803500Y-83827800D01*
X155803500Y-84351450D01*
X155860650Y-84408600D01*
X155920529Y-84408600D01*
X156011472Y-84408600D01*
X156095492Y-84373797D01*
X156115296Y-84353992D01*
X156176129Y-84395056D01*
X156266000Y-84413079D01*
X156514800Y-84413079D01*
X156514800Y-85022619D01*
X156514800Y-85022619D01*
G37*
X156514800Y-85022619D02*
X156480471Y-85008400D01*
X155769950Y-85008400D01*
X155712800Y-85065550D01*
X155712800Y-85674200D01*
X155732800Y-85674200D01*
X155732800Y-86029800D01*
X155712800Y-86029800D01*
X155712800Y-86049800D01*
X155478500Y-86049800D01*
X155478500Y-84351450D01*
X155478500Y-83827800D01*
X155144550Y-83827800D01*
X155087400Y-83884950D01*
X155087400Y-84225471D01*
X155122202Y-84309491D01*
X155186508Y-84373797D01*
X155270528Y-84408600D01*
X155361471Y-84408600D01*
X155421350Y-84408600D01*
X155478500Y-84351450D01*
X155478500Y-86049800D01*
X155357200Y-86049800D01*
X155357200Y-86029800D01*
X155337200Y-86029800D01*
X155337200Y-85674200D01*
X155357200Y-85674200D01*
X155357200Y-85065550D01*
X155300050Y-85008400D01*
X154667600Y-85008400D01*
X154667600Y-84113472D01*
X154667600Y-84022529D01*
X154667600Y-83927950D01*
X154610450Y-83870800D01*
X154216800Y-83870800D01*
X154216800Y-84239450D01*
X154273950Y-84296600D01*
X154484471Y-84296600D01*
X154568491Y-84261798D01*
X154632797Y-84197492D01*
X154667600Y-84113472D01*
X154667600Y-85008400D01*
X154635200Y-85008400D01*
X154635200Y-84632800D01*
X153492200Y-84632800D01*
X153492200Y-84244489D01*
X153509509Y-84261798D01*
X153593529Y-84296600D01*
X153804050Y-84296600D01*
X153861200Y-84239450D01*
X153861200Y-83870800D01*
X153841200Y-83870800D01*
X153841200Y-83515200D01*
X153861200Y-83515200D01*
X153861200Y-83495200D01*
X154216800Y-83495200D01*
X154216800Y-83515200D01*
X154610450Y-83515200D01*
X154667600Y-83458050D01*
X154667600Y-83363471D01*
X154667600Y-83272528D01*
X154632797Y-83188508D01*
X154578489Y-83134200D01*
X155087400Y-83134200D01*
X155087400Y-83415050D01*
X155144550Y-83472200D01*
X155478500Y-83472200D01*
X155478500Y-83452200D01*
X155803500Y-83452200D01*
X155803500Y-83472200D01*
X155838800Y-83472200D01*
X155838800Y-83827800D01*
X155803500Y-83827800D01*
X155803500Y-84351450D01*
X155860650Y-84408600D01*
X155920529Y-84408600D01*
X156011472Y-84408600D01*
X156095492Y-84373797D01*
X156115296Y-84353992D01*
X156176129Y-84395056D01*
X156266000Y-84413079D01*
X156514800Y-84413079D01*
X156514800Y-85022619D01*
M02*
