M48
;DRILL file {kicad (after 2015-mar-04 BZR unknown)-product} date Sat 21 Nov 2015 03:19:36 PM EST
;FORMAT={-:-/ absolute / inch / decimal}
FMAT,2
INCH,TZ
T1C0.013
T2C0.035
T3C0.040
%
G90
G05
M72
T1
X5.97Y-3.295
X6.08Y-3.61
X6.08Y-3.635
X6.08Y-3.66
X6.1Y-3.975
X6.11Y-3.81
X6.15Y-3.61
X6.165Y-3.25
X6.175Y-3.455
X6.175Y-3.53
X6.175Y-3.67
X6.18Y-3.495
X6.22Y-3.15
X6.24Y-3.515
X6.24Y-3.67
X6.245Y-3.56
X6.25Y-3.645
X6.28Y-3.38
X6.3Y-3.79
X6.3Y-3.975
X6.345Y-3.81
X6.4Y-3.425
X6.4Y-3.88
X6.405Y-3.97
X6.405Y-4.025
X6.425Y-4.175
X6.435Y-3.97
X6.435Y-4.03
X6.44Y-3.255
X6.5147Y-4.1256
X6.53Y-3.555
X6.54Y-3.855
X6.5453Y-4.1744
X6.575Y-3.635
X6.61Y-3.53
X6.635Y-4.105
X6.635Y-4.155
X6.68Y-3.83
X6.7Y-4.195
X6.705Y-3.975
X6.73Y-3.55
X6.735Y-3.375
X6.8Y-4.095
X6.805Y-4.015
X6.835Y-3.57
X6.86Y-3.89
X6.89Y-3.805
X6.895Y-4.13
X6.98Y-3.82
X7.045Y-4.021
X7.045Y-4.049
X7.045Y-4.11
T2
X5.8985Y-3.4834
X5.8985Y-3.6566
T3
X5.85Y-3.92
X5.95Y-3.92
X6.05Y-3.92
X6.05Y-4.085
X6.15Y-3.92
X6.15Y-4.085
X6.25Y-3.92
X6.25Y-4.085
X6.35Y-3.92
X6.35Y-4.085
X7.135Y-3.71
X7.135Y-3.81
X7.235Y-3.71
X7.235Y-3.81
T0
M30
