G04 #@! TF.FileFunction,Copper,L2,Bot,Signal*
%FSLAX46Y46*%
G04 Gerber Fmt 4.6, Leading zero omitted, Abs format (unit mm)*
G04 Created by KiCad (PCBNEW (after 2015-mar-04 BZR unknown)-product) date Sat 21 Nov 2015 03:19:33 PM EST*
%MOMM*%
G01*
G04 APERTURE LIST*
%ADD10C,0.150000*%
%ADD11R,1.727200X2.032000*%
%ADD12O,1.727200X2.032000*%
%ADD13R,1.727200X1.727200*%
%ADD14O,1.727200X1.727200*%
%ADD15C,0.508000*%
%ADD16C,0.300000*%
%ADD17C,0.400000*%
%ADD18C,0.152400*%
G04 APERTURE END LIST*
D10*
D11*
X148590000Y-99568000D03*
D12*
X151130000Y-99568000D03*
X153670000Y-99568000D03*
X156210000Y-99568000D03*
X158750000Y-99568000D03*
X161290000Y-99568000D03*
D11*
X153670000Y-103759000D03*
D12*
X156210000Y-103759000D03*
X158750000Y-103759000D03*
X161290000Y-103759000D03*
D13*
X183769000Y-94234000D03*
D14*
X183769000Y-96774000D03*
X181229000Y-94234000D03*
X181229000Y-96774000D03*
D15*
X154432000Y-92329000D03*
X154432000Y-92964000D03*
X154432000Y-91694000D03*
X156591000Y-82550000D03*
X151638000Y-83693000D03*
X157988000Y-80010000D03*
X163576000Y-82677000D03*
X162560000Y-86995000D03*
X156845000Y-93218000D03*
X158496000Y-93218000D03*
X167894000Y-89662000D03*
X173609000Y-90678000D03*
X175006000Y-96647000D03*
X174244000Y-98806000D03*
X166116000Y-97917000D03*
X167005000Y-92329000D03*
X170180000Y-106553000D03*
X168529000Y-105537000D03*
X165474500Y-104790000D03*
X166249500Y-106030000D03*
X178943000Y-102134000D03*
X178943000Y-102844000D03*
X175133000Y-104902000D03*
X178943000Y-104394000D03*
X171069000Y-85725000D03*
X159512000Y-85852000D03*
X158750000Y-92583000D03*
X156845000Y-89662000D03*
X170307000Y-100965000D03*
X155194000Y-96774000D03*
X161163000Y-96774000D03*
X165862000Y-90297000D03*
X170942000Y-90170000D03*
X177292000Y-97028000D03*
X172720000Y-104013000D03*
X172847000Y-101981000D03*
X154940000Y-100965000D03*
X156210000Y-91694000D03*
X156972000Y-88773000D03*
X160020000Y-100965000D03*
X160020000Y-96266000D03*
X156845000Y-87757000D03*
X158496000Y-89281000D03*
X158623000Y-90424000D03*
X169672000Y-97282000D03*
X168529000Y-104267000D03*
X163195000Y-106045000D03*
X162560000Y-98552000D03*
X162687000Y-102235000D03*
X162687000Y-100838000D03*
X163449000Y-100838000D03*
X163449000Y-102362000D03*
D16*
X165481000Y-104783500D02*
X165474500Y-104790000D01*
X165481000Y-104775000D02*
X165481000Y-104783500D01*
X166243000Y-106036500D02*
X166249500Y-106030000D01*
X166243000Y-106045000D02*
X166243000Y-106036500D01*
X178943000Y-102134000D02*
X178943000Y-102108000D01*
X178943000Y-102844000D02*
X178943000Y-102870000D01*
D17*
X156845000Y-89662000D02*
X160147000Y-92964000D01*
X160147000Y-92964000D02*
X167640000Y-92964000D01*
X167640000Y-92964000D02*
X170307000Y-95631000D01*
X170307000Y-95631000D02*
X170307000Y-100965000D01*
D18*
X155194000Y-96774000D02*
X161163000Y-96774000D01*
X165862000Y-90297000D02*
X165989000Y-90170000D01*
X165989000Y-90170000D02*
X170942000Y-90170000D01*
X177292000Y-97028000D02*
X177546000Y-96774000D01*
X177546000Y-96774000D02*
X181229000Y-96774000D01*
X172720000Y-104013000D02*
X172847000Y-103886000D01*
X172847000Y-103886000D02*
X172847000Y-101981000D01*
X156210000Y-102235000D02*
X154940000Y-100965000D01*
X156210000Y-91694000D02*
X156210000Y-90043000D01*
X156210000Y-90043000D02*
X156210000Y-89662000D01*
X156210000Y-89662000D02*
X156210000Y-89281000D01*
X156210000Y-89281000D02*
X156718000Y-88773000D01*
X156718000Y-88773000D02*
X156972000Y-88773000D01*
X156210000Y-103759000D02*
X156210000Y-102235000D01*
X158750000Y-102235000D02*
X160020000Y-100965000D01*
X160020000Y-96266000D02*
X157607000Y-93853000D01*
X157607000Y-93853000D02*
X157607000Y-92964000D01*
X157607000Y-92964000D02*
X157099000Y-92456000D01*
X157099000Y-92456000D02*
X155956000Y-92456000D01*
X155956000Y-92456000D02*
X155448000Y-91948000D01*
X155448000Y-91948000D02*
X155448000Y-89154000D01*
X155448000Y-89154000D02*
X156845000Y-87757000D01*
X158496000Y-89281000D02*
X158623000Y-89408000D01*
X158623000Y-89408000D02*
X158623000Y-90424000D01*
X158750000Y-103759000D02*
X158750000Y-102235000D01*
X169672000Y-97282000D02*
X169672000Y-101854000D01*
X169672000Y-101854000D02*
X168529000Y-102997000D01*
X168529000Y-102997000D02*
X168529000Y-104267000D01*
X163195000Y-106045000D02*
X163068000Y-105918000D01*
X163068000Y-105918000D02*
X163068000Y-104013000D01*
X163068000Y-104013000D02*
X164338000Y-102743000D01*
X164338000Y-102743000D02*
X164338000Y-100330000D01*
X164338000Y-100330000D02*
X162560000Y-98552000D01*
X162687000Y-102235000D02*
X162687000Y-100838000D01*
X163449000Y-100838000D02*
X163449000Y-102362000D01*
G36*
X186721400Y-109721400D02*
X184861200Y-109721400D01*
X184861200Y-96795397D01*
X184861200Y-96752603D01*
X184861200Y-95143071D01*
X184861200Y-94468950D01*
X184861200Y-93999050D01*
X184861200Y-93324929D01*
X184826398Y-93240909D01*
X184762092Y-93176603D01*
X184678072Y-93141800D01*
X184587129Y-93141800D01*
X184003950Y-93141800D01*
X183946800Y-93198950D01*
X183946800Y-94056200D01*
X184804050Y-94056200D01*
X184861200Y-93999050D01*
X184861200Y-94468950D01*
X184804050Y-94411800D01*
X183946800Y-94411800D01*
X183946800Y-95269050D01*
X184003950Y-95326200D01*
X184587129Y-95326200D01*
X184678072Y-95326200D01*
X184762092Y-95291397D01*
X184826398Y-95227091D01*
X184861200Y-95143071D01*
X184861200Y-96752603D01*
X184778061Y-96334636D01*
X184541302Y-95980301D01*
X184186967Y-95743542D01*
X183769000Y-95660403D01*
X183591200Y-95695769D01*
X183591200Y-95269050D01*
X183591200Y-94411800D01*
X183591200Y-94056200D01*
X183591200Y-93198950D01*
X183534050Y-93141800D01*
X182950871Y-93141800D01*
X182859928Y-93141800D01*
X182775908Y-93176603D01*
X182711602Y-93240909D01*
X182676800Y-93324929D01*
X182676800Y-93999050D01*
X182733950Y-94056200D01*
X183591200Y-94056200D01*
X183591200Y-94411800D01*
X182733950Y-94411800D01*
X182676800Y-94468950D01*
X182676800Y-95143071D01*
X182711602Y-95227091D01*
X182775908Y-95291397D01*
X182859928Y-95326200D01*
X182950871Y-95326200D01*
X183534050Y-95326200D01*
X183591200Y-95269050D01*
X183591200Y-95695769D01*
X183351033Y-95743542D01*
X182996698Y-95980301D01*
X182759939Y-96334636D01*
X182676800Y-96752603D01*
X182676800Y-96795397D01*
X182759939Y-97213364D01*
X182996698Y-97567699D01*
X183351033Y-97804458D01*
X183769000Y-97887597D01*
X184186967Y-97804458D01*
X184541302Y-97567699D01*
X184778061Y-97213364D01*
X184861200Y-96795397D01*
X184861200Y-109721400D01*
X182321200Y-109721400D01*
X182321200Y-96795397D01*
X182321200Y-96752603D01*
X182265567Y-96472917D01*
X182265567Y-94578192D01*
X182265567Y-93889808D01*
X182054946Y-93519331D01*
X181718583Y-93257656D01*
X181573190Y-93197450D01*
X181406800Y-93214336D01*
X181406800Y-94056200D01*
X182249499Y-94056200D01*
X182265567Y-93889808D01*
X182265567Y-94578192D01*
X182249499Y-94411800D01*
X181406800Y-94411800D01*
X181406800Y-95253664D01*
X181573190Y-95270550D01*
X181718583Y-95210344D01*
X182054946Y-94948669D01*
X182265567Y-94578192D01*
X182265567Y-96472917D01*
X182238061Y-96334636D01*
X182001302Y-95980301D01*
X181646967Y-95743542D01*
X181229000Y-95660403D01*
X181051200Y-95695769D01*
X181051200Y-95253664D01*
X181051200Y-94411800D01*
X181051200Y-94056200D01*
X181051200Y-93214336D01*
X180884810Y-93197450D01*
X180739417Y-93257656D01*
X180403054Y-93519331D01*
X180192433Y-93889808D01*
X180208501Y-94056200D01*
X181051200Y-94056200D01*
X181051200Y-94411800D01*
X180208501Y-94411800D01*
X180192433Y-94578192D01*
X180403054Y-94948669D01*
X180739417Y-95210344D01*
X180884810Y-95270550D01*
X181051200Y-95253664D01*
X181051200Y-95695769D01*
X180811033Y-95743542D01*
X180456698Y-95980301D01*
X180219939Y-96334636D01*
X180193172Y-96469200D01*
X177546000Y-96469200D01*
X177429358Y-96492402D01*
X177349965Y-96545450D01*
X177196426Y-96545316D01*
X177018986Y-96618633D01*
X176883110Y-96754272D01*
X176809484Y-96931584D01*
X176809316Y-97123574D01*
X176882633Y-97301014D01*
X177018272Y-97436890D01*
X177195584Y-97510516D01*
X177387574Y-97510684D01*
X177565014Y-97437367D01*
X177700890Y-97301728D01*
X177774516Y-97124416D01*
X177774555Y-97078800D01*
X180193172Y-97078800D01*
X180219939Y-97213364D01*
X180456698Y-97567699D01*
X180811033Y-97804458D01*
X181229000Y-97887597D01*
X181646967Y-97804458D01*
X182001302Y-97567699D01*
X182238061Y-97213364D01*
X182321200Y-96795397D01*
X182321200Y-109721400D01*
X173329684Y-109721400D01*
X173329684Y-101885426D01*
X173256367Y-101707986D01*
X173120728Y-101572110D01*
X172943416Y-101498484D01*
X172751426Y-101498316D01*
X172573986Y-101571633D01*
X172438110Y-101707272D01*
X172364484Y-101884584D01*
X172364316Y-102076574D01*
X172437633Y-102254014D01*
X172542200Y-102358763D01*
X172542200Y-103564291D01*
X172446986Y-103603633D01*
X172311110Y-103739272D01*
X172237484Y-103916584D01*
X172237316Y-104108574D01*
X172310633Y-104286014D01*
X172446272Y-104421890D01*
X172623584Y-104495516D01*
X172815574Y-104495684D01*
X172993014Y-104422367D01*
X173128890Y-104286728D01*
X173202516Y-104109416D01*
X173202684Y-103917426D01*
X173151800Y-103794277D01*
X173151800Y-102358636D01*
X173255890Y-102254728D01*
X173329516Y-102077416D01*
X173329684Y-101885426D01*
X173329684Y-109721400D01*
X171424684Y-109721400D01*
X171424684Y-90074426D01*
X171351367Y-89896986D01*
X171215728Y-89761110D01*
X171038416Y-89687484D01*
X170846426Y-89687316D01*
X170668986Y-89760633D01*
X170564236Y-89865200D01*
X166080554Y-89865200D01*
X165958416Y-89814484D01*
X165766426Y-89814316D01*
X165588986Y-89887633D01*
X165453110Y-90023272D01*
X165379484Y-90200584D01*
X165379316Y-90392574D01*
X165452633Y-90570014D01*
X165588272Y-90705890D01*
X165765584Y-90779516D01*
X165957574Y-90779684D01*
X166135014Y-90706367D01*
X166270890Y-90570728D01*
X166310722Y-90474800D01*
X170564363Y-90474800D01*
X170668272Y-90578890D01*
X170845584Y-90652516D01*
X171037574Y-90652684D01*
X171215014Y-90579367D01*
X171350890Y-90443728D01*
X171424516Y-90266416D01*
X171424684Y-90074426D01*
X171424684Y-109721400D01*
X170789684Y-109721400D01*
X170789684Y-100869426D01*
X170735600Y-100738533D01*
X170735600Y-95631000D01*
X170702975Y-95466982D01*
X170610066Y-95327934D01*
X167943066Y-92660934D01*
X167804018Y-92568025D01*
X167640000Y-92535400D01*
X160324532Y-92535400D01*
X158695796Y-90906664D01*
X158718574Y-90906684D01*
X158896014Y-90833367D01*
X159031890Y-90697728D01*
X159105516Y-90520416D01*
X159105684Y-90328426D01*
X159032367Y-90150986D01*
X158927800Y-90046236D01*
X158927800Y-89499554D01*
X158978516Y-89377416D01*
X158978684Y-89185426D01*
X158905367Y-89007986D01*
X158769728Y-88872110D01*
X158592416Y-88798484D01*
X158400426Y-88798316D01*
X158222986Y-88871633D01*
X158087110Y-89007272D01*
X158013484Y-89184584D01*
X158013316Y-89376574D01*
X158086633Y-89554014D01*
X158222272Y-89689890D01*
X158318200Y-89729722D01*
X158318200Y-90046363D01*
X158214110Y-90150272D01*
X158140484Y-90327584D01*
X158140463Y-90351331D01*
X157308056Y-89518924D01*
X157254367Y-89388986D01*
X157118728Y-89253110D01*
X157096321Y-89243805D01*
X157245014Y-89182367D01*
X157380890Y-89046728D01*
X157454516Y-88869416D01*
X157454684Y-88677426D01*
X157381367Y-88499986D01*
X157245728Y-88364110D01*
X157068416Y-88290484D01*
X156876426Y-88290316D01*
X156698986Y-88363633D01*
X156563110Y-88499272D01*
X156552945Y-88523749D01*
X156502474Y-88557474D01*
X155994474Y-89065474D01*
X155928402Y-89164358D01*
X155905200Y-89281000D01*
X155905200Y-89662000D01*
X155905200Y-90043000D01*
X155905200Y-91316363D01*
X155801110Y-91420272D01*
X155752800Y-91536615D01*
X155752800Y-89280252D01*
X156793496Y-88239555D01*
X156940574Y-88239684D01*
X157118014Y-88166367D01*
X157253890Y-88030728D01*
X157327516Y-87853416D01*
X157327684Y-87661426D01*
X157254367Y-87483986D01*
X157118728Y-87348110D01*
X156941416Y-87274484D01*
X156749426Y-87274316D01*
X156571986Y-87347633D01*
X156436110Y-87483272D01*
X156362484Y-87660584D01*
X156362354Y-87808593D01*
X155232474Y-88938474D01*
X155166402Y-89037358D01*
X155143200Y-89154000D01*
X155143200Y-91948000D01*
X155166402Y-92064642D01*
X155232474Y-92163526D01*
X155740474Y-92671526D01*
X155839358Y-92737598D01*
X155956000Y-92760800D01*
X156972748Y-92760800D01*
X157302200Y-93090252D01*
X157302200Y-93853000D01*
X157325402Y-93969642D01*
X157391474Y-94068526D01*
X159537444Y-96214496D01*
X159537316Y-96361574D01*
X159581786Y-96469200D01*
X155571636Y-96469200D01*
X155467728Y-96365110D01*
X155290416Y-96291484D01*
X155098426Y-96291316D01*
X154920986Y-96364633D01*
X154785110Y-96500272D01*
X154711484Y-96677584D01*
X154711316Y-96869574D01*
X154784633Y-97047014D01*
X154920272Y-97182890D01*
X155097584Y-97256516D01*
X155289574Y-97256684D01*
X155467014Y-97183367D01*
X155571763Y-97078800D01*
X160785363Y-97078800D01*
X160889272Y-97182890D01*
X161066584Y-97256516D01*
X161258574Y-97256684D01*
X161436014Y-97183367D01*
X161571890Y-97047728D01*
X161645516Y-96870416D01*
X161645684Y-96678426D01*
X161572367Y-96500986D01*
X161436728Y-96365110D01*
X161259416Y-96291484D01*
X161067426Y-96291316D01*
X160889986Y-96364633D01*
X160785236Y-96469200D01*
X160458175Y-96469200D01*
X160502516Y-96362416D01*
X160502684Y-96170426D01*
X160429367Y-95992986D01*
X160293728Y-95857110D01*
X160116416Y-95783484D01*
X159968406Y-95783354D01*
X157911800Y-93726748D01*
X157911800Y-92964000D01*
X157888598Y-92847358D01*
X157822526Y-92748474D01*
X157314526Y-92240474D01*
X157215642Y-92174402D01*
X157099000Y-92151200D01*
X156367249Y-92151200D01*
X156483014Y-92103367D01*
X156618890Y-91967728D01*
X156692516Y-91790416D01*
X156692684Y-91598426D01*
X156619367Y-91420986D01*
X156514800Y-91316236D01*
X156514800Y-90043000D01*
X156514800Y-90014319D01*
X156571272Y-90070890D01*
X156702069Y-90125201D01*
X159843934Y-93267066D01*
X159982982Y-93359975D01*
X160147000Y-93392600D01*
X167462467Y-93392600D01*
X169878400Y-95808532D01*
X169878400Y-96845153D01*
X169768416Y-96799484D01*
X169576426Y-96799316D01*
X169398986Y-96872633D01*
X169263110Y-97008272D01*
X169189484Y-97185584D01*
X169189316Y-97377574D01*
X169262633Y-97555014D01*
X169367200Y-97659763D01*
X169367200Y-101727748D01*
X168313474Y-102781474D01*
X168247402Y-102880358D01*
X168224200Y-102997000D01*
X168224200Y-103889363D01*
X168120110Y-103993272D01*
X168046484Y-104170584D01*
X168046316Y-104362574D01*
X168119633Y-104540014D01*
X168255272Y-104675890D01*
X168432584Y-104749516D01*
X168624574Y-104749684D01*
X168802014Y-104676367D01*
X168937890Y-104540728D01*
X169011516Y-104363416D01*
X169011684Y-104171426D01*
X168938367Y-103993986D01*
X168833800Y-103889236D01*
X168833800Y-103123252D01*
X169887526Y-102069526D01*
X169953598Y-101970642D01*
X169976800Y-101854000D01*
X169976800Y-101317319D01*
X170033272Y-101373890D01*
X170210584Y-101447516D01*
X170402574Y-101447684D01*
X170580014Y-101374367D01*
X170715890Y-101238728D01*
X170789516Y-101061416D01*
X170789684Y-100869426D01*
X170789684Y-109721400D01*
X164642800Y-109721400D01*
X164642800Y-102743000D01*
X164642800Y-100330000D01*
X164619598Y-100213359D01*
X164619598Y-100213358D01*
X164553526Y-100114474D01*
X163042555Y-98603503D01*
X163042684Y-98456426D01*
X162969367Y-98278986D01*
X162833728Y-98143110D01*
X162656416Y-98069484D01*
X162464426Y-98069316D01*
X162286986Y-98142633D01*
X162151110Y-98278272D01*
X162077484Y-98455584D01*
X162077316Y-98647574D01*
X162108797Y-98723765D01*
X161910214Y-98518734D01*
X161634190Y-98379050D01*
X161467800Y-98395936D01*
X161467800Y-99390200D01*
X162322983Y-99390200D01*
X162362738Y-99219978D01*
X162243145Y-98917688D01*
X162286272Y-98960890D01*
X162463584Y-99034516D01*
X162611593Y-99034645D01*
X164033200Y-100456252D01*
X164033200Y-102616748D01*
X163931684Y-102718264D01*
X163931684Y-102266426D01*
X163858367Y-102088986D01*
X163753800Y-101984236D01*
X163753800Y-101215636D01*
X163857890Y-101111728D01*
X163931516Y-100934416D01*
X163931684Y-100742426D01*
X163858367Y-100564986D01*
X163722728Y-100429110D01*
X163545416Y-100355484D01*
X163353426Y-100355316D01*
X163175986Y-100428633D01*
X163067930Y-100536499D01*
X162960728Y-100429110D01*
X162783416Y-100355484D01*
X162591426Y-100355316D01*
X162413986Y-100428633D01*
X162362738Y-100479791D01*
X162362738Y-99916022D01*
X162322983Y-99745800D01*
X161467800Y-99745800D01*
X161467800Y-100740064D01*
X161634190Y-100756950D01*
X161910214Y-100617266D01*
X162206219Y-100311650D01*
X162362738Y-99916022D01*
X162362738Y-100479791D01*
X162278110Y-100564272D01*
X162204484Y-100741584D01*
X162204316Y-100933574D01*
X162277633Y-101111014D01*
X162382200Y-101215763D01*
X162382200Y-101857363D01*
X162278110Y-101961272D01*
X162204484Y-102138584D01*
X162204316Y-102330574D01*
X162277633Y-102508014D01*
X162413272Y-102643890D01*
X162590584Y-102717516D01*
X162782574Y-102717684D01*
X162960014Y-102644367D01*
X163019118Y-102585365D01*
X163039633Y-102635014D01*
X163175272Y-102770890D01*
X163352584Y-102844516D01*
X163544574Y-102844684D01*
X163722014Y-102771367D01*
X163857890Y-102635728D01*
X163931516Y-102458416D01*
X163931684Y-102266426D01*
X163931684Y-102718264D01*
X162852474Y-103797474D01*
X162786402Y-103896358D01*
X162763200Y-104013000D01*
X162763200Y-105826445D01*
X162712484Y-105948584D01*
X162712316Y-106140574D01*
X162785633Y-106318014D01*
X162921272Y-106453890D01*
X163098584Y-106527516D01*
X163290574Y-106527684D01*
X163468014Y-106454367D01*
X163603890Y-106318728D01*
X163677516Y-106141416D01*
X163677684Y-105949426D01*
X163604367Y-105771986D01*
X163468728Y-105636110D01*
X163372800Y-105596277D01*
X163372800Y-104139252D01*
X164553526Y-102958526D01*
X164619598Y-102859642D01*
X164642800Y-102743000D01*
X164642800Y-109721400D01*
X162362738Y-109721400D01*
X162362738Y-104107022D01*
X162362738Y-103410978D01*
X162206219Y-103015350D01*
X161910214Y-102709734D01*
X161634190Y-102570050D01*
X161467800Y-102586936D01*
X161467800Y-103581200D01*
X162322983Y-103581200D01*
X162362738Y-103410978D01*
X162362738Y-104107022D01*
X162322983Y-103936800D01*
X161467800Y-103936800D01*
X161467800Y-104931064D01*
X161634190Y-104947950D01*
X161910214Y-104808266D01*
X162206219Y-104502650D01*
X162362738Y-104107022D01*
X162362738Y-109721400D01*
X161112200Y-109721400D01*
X161112200Y-104931064D01*
X161112200Y-103936800D01*
X161112200Y-103581200D01*
X161112200Y-102586936D01*
X161112200Y-100740064D01*
X161112200Y-99745800D01*
X161112200Y-99390200D01*
X161112200Y-98395936D01*
X160945810Y-98379050D01*
X160669786Y-98518734D01*
X160373781Y-98824350D01*
X160217262Y-99219978D01*
X160257017Y-99390200D01*
X161112200Y-99390200D01*
X161112200Y-99745800D01*
X160257017Y-99745800D01*
X160217262Y-99916022D01*
X160373781Y-100311650D01*
X160669786Y-100617266D01*
X160945810Y-100756950D01*
X161112200Y-100740064D01*
X161112200Y-102586936D01*
X160945810Y-102570050D01*
X160669786Y-102709734D01*
X160502684Y-102882261D01*
X160502684Y-100869426D01*
X160429367Y-100691986D01*
X160293728Y-100556110D01*
X160116416Y-100482484D01*
X159924426Y-100482316D01*
X159842200Y-100516291D01*
X159842200Y-99744783D01*
X159842200Y-99391217D01*
X159759061Y-98973250D01*
X159522302Y-98618915D01*
X159167967Y-98382156D01*
X158750000Y-98299017D01*
X158332033Y-98382156D01*
X157977698Y-98618915D01*
X157740939Y-98973250D01*
X157657800Y-99391217D01*
X157657800Y-99744783D01*
X157740939Y-100162750D01*
X157977698Y-100517085D01*
X158332033Y-100753844D01*
X158750000Y-100836983D01*
X159167967Y-100753844D01*
X159522302Y-100517085D01*
X159759061Y-100162750D01*
X159842200Y-99744783D01*
X159842200Y-100516291D01*
X159746986Y-100555633D01*
X159611110Y-100691272D01*
X159537484Y-100868584D01*
X159537354Y-101016593D01*
X158534474Y-102019474D01*
X158468402Y-102118358D01*
X158445200Y-102235000D01*
X158445200Y-102550645D01*
X158332033Y-102573156D01*
X157977698Y-102809915D01*
X157740939Y-103164250D01*
X157657800Y-103582217D01*
X157657800Y-103935783D01*
X157740939Y-104353750D01*
X157977698Y-104708085D01*
X158332033Y-104944844D01*
X158750000Y-105027983D01*
X159167967Y-104944844D01*
X159522302Y-104708085D01*
X159759061Y-104353750D01*
X159842200Y-103935783D01*
X159842200Y-103582217D01*
X159759061Y-103164250D01*
X159522302Y-102809915D01*
X159167967Y-102573156D01*
X159054800Y-102550645D01*
X159054800Y-102361252D01*
X159968496Y-101447555D01*
X160115574Y-101447684D01*
X160293014Y-101374367D01*
X160428890Y-101238728D01*
X160502516Y-101061416D01*
X160502684Y-100869426D01*
X160502684Y-102882261D01*
X160373781Y-103015350D01*
X160217262Y-103410978D01*
X160257017Y-103581200D01*
X161112200Y-103581200D01*
X161112200Y-103936800D01*
X160257017Y-103936800D01*
X160217262Y-104107022D01*
X160373781Y-104502650D01*
X160669786Y-104808266D01*
X160945810Y-104947950D01*
X161112200Y-104931064D01*
X161112200Y-109721400D01*
X157302200Y-109721400D01*
X157302200Y-103935783D01*
X157302200Y-103582217D01*
X157302200Y-99744783D01*
X157302200Y-99391217D01*
X157219061Y-98973250D01*
X156982302Y-98618915D01*
X156627967Y-98382156D01*
X156210000Y-98299017D01*
X155792033Y-98382156D01*
X155437698Y-98618915D01*
X155200939Y-98973250D01*
X155117800Y-99391217D01*
X155117800Y-99744783D01*
X155200939Y-100162750D01*
X155437698Y-100517085D01*
X155792033Y-100753844D01*
X156210000Y-100836983D01*
X156627967Y-100753844D01*
X156982302Y-100517085D01*
X157219061Y-100162750D01*
X157302200Y-99744783D01*
X157302200Y-103582217D01*
X157219061Y-103164250D01*
X156982302Y-102809915D01*
X156627967Y-102573156D01*
X156514800Y-102550645D01*
X156514800Y-102235000D01*
X156491598Y-102118358D01*
X156425526Y-102019474D01*
X155422555Y-101016503D01*
X155422684Y-100869426D01*
X155349367Y-100691986D01*
X155213728Y-100556110D01*
X155036416Y-100482484D01*
X154844426Y-100482316D01*
X154742738Y-100524332D01*
X154742738Y-99916022D01*
X154742738Y-99219978D01*
X154586219Y-98824350D01*
X154290214Y-98518734D01*
X154014190Y-98379050D01*
X153847800Y-98395936D01*
X153847800Y-99390200D01*
X154702983Y-99390200D01*
X154742738Y-99219978D01*
X154742738Y-99916022D01*
X154702983Y-99745800D01*
X153847800Y-99745800D01*
X153847800Y-100740064D01*
X154014190Y-100756950D01*
X154290214Y-100617266D01*
X154586219Y-100311650D01*
X154742738Y-99916022D01*
X154742738Y-100524332D01*
X154666986Y-100555633D01*
X154531110Y-100691272D01*
X154457484Y-100868584D01*
X154457316Y-101060574D01*
X154530633Y-101238014D01*
X154666272Y-101373890D01*
X154843584Y-101447516D01*
X154991593Y-101447645D01*
X155905200Y-102361252D01*
X155905200Y-102550645D01*
X155792033Y-102573156D01*
X155437698Y-102809915D01*
X155200939Y-103164250D01*
X155117800Y-103582217D01*
X155117800Y-103935783D01*
X155200939Y-104353750D01*
X155437698Y-104708085D01*
X155792033Y-104944844D01*
X156210000Y-105027983D01*
X156627967Y-104944844D01*
X156982302Y-104708085D01*
X157219061Y-104353750D01*
X157302200Y-103935783D01*
X157302200Y-109721400D01*
X154766679Y-109721400D01*
X154766679Y-104775000D01*
X154766679Y-102743000D01*
X154749767Y-102655836D01*
X154699442Y-102579226D01*
X154623471Y-102527944D01*
X154533600Y-102509921D01*
X153492200Y-102509921D01*
X153492200Y-100740064D01*
X153492200Y-99745800D01*
X153492200Y-99390200D01*
X153492200Y-98395936D01*
X153325810Y-98379050D01*
X153049786Y-98518734D01*
X152753781Y-98824350D01*
X152597262Y-99219978D01*
X152637017Y-99390200D01*
X153492200Y-99390200D01*
X153492200Y-99745800D01*
X152637017Y-99745800D01*
X152597262Y-99916022D01*
X152753781Y-100311650D01*
X153049786Y-100617266D01*
X153325810Y-100756950D01*
X153492200Y-100740064D01*
X153492200Y-102509921D01*
X152806400Y-102509921D01*
X152719236Y-102526833D01*
X152642626Y-102577158D01*
X152591344Y-102653129D01*
X152573321Y-102743000D01*
X152573321Y-104775000D01*
X152590233Y-104862164D01*
X152640558Y-104938774D01*
X152716529Y-104990056D01*
X152806400Y-105008079D01*
X154533600Y-105008079D01*
X154620764Y-104991167D01*
X154697374Y-104940842D01*
X154748656Y-104864871D01*
X154766679Y-104775000D01*
X154766679Y-109721400D01*
X152222200Y-109721400D01*
X152222200Y-99744783D01*
X152222200Y-99391217D01*
X152139061Y-98973250D01*
X151902302Y-98618915D01*
X151547967Y-98382156D01*
X151130000Y-98299017D01*
X150712033Y-98382156D01*
X150500197Y-98523700D01*
X150500197Y-92743334D01*
X150500197Y-88344054D01*
X150397168Y-88094704D01*
X150206560Y-87903762D01*
X149957390Y-87800298D01*
X149687594Y-87800063D01*
X149438244Y-87903092D01*
X149247302Y-88093700D01*
X149143838Y-88342870D01*
X149143603Y-88612666D01*
X149246632Y-88862016D01*
X149437240Y-89052958D01*
X149686410Y-89156422D01*
X149956206Y-89156657D01*
X150205556Y-89053628D01*
X150396498Y-88863020D01*
X150499962Y-88613850D01*
X150500197Y-88344054D01*
X150500197Y-92743334D01*
X150397168Y-92493984D01*
X150206560Y-92303042D01*
X149957390Y-92199578D01*
X149687594Y-92199343D01*
X149438244Y-92302372D01*
X149247302Y-92492980D01*
X149143838Y-92742150D01*
X149143603Y-93011946D01*
X149246632Y-93261296D01*
X149437240Y-93452238D01*
X149686410Y-93555702D01*
X149956206Y-93555937D01*
X150205556Y-93452908D01*
X150396498Y-93262300D01*
X150499962Y-93013130D01*
X150500197Y-92743334D01*
X150500197Y-98523700D01*
X150357698Y-98618915D01*
X150120939Y-98973250D01*
X150037800Y-99391217D01*
X150037800Y-99744783D01*
X150120939Y-100162750D01*
X150357698Y-100517085D01*
X150712033Y-100753844D01*
X151130000Y-100836983D01*
X151547967Y-100753844D01*
X151902302Y-100517085D01*
X152139061Y-100162750D01*
X152222200Y-99744783D01*
X152222200Y-109721400D01*
X149686679Y-109721400D01*
X149686679Y-100584000D01*
X149686679Y-98552000D01*
X149669767Y-98464836D01*
X149619442Y-98388226D01*
X149543471Y-98336944D01*
X149453600Y-98318921D01*
X147726400Y-98318921D01*
X147639236Y-98335833D01*
X147562626Y-98386158D01*
X147511344Y-98462129D01*
X147493321Y-98552000D01*
X147493321Y-100584000D01*
X147510233Y-100671164D01*
X147560558Y-100747774D01*
X147636529Y-100799056D01*
X147726400Y-100817079D01*
X149453600Y-100817079D01*
X149540764Y-100800167D01*
X149617374Y-100749842D01*
X149668656Y-100673871D01*
X149686679Y-100584000D01*
X149686679Y-109721400D01*
X145278600Y-109721400D01*
X145278600Y-78278600D01*
X186721400Y-78278600D01*
X186721400Y-109721400D01*
X186721400Y-109721400D01*
G37*
X186721400Y-109721400D02*
X184861200Y-109721400D01*
X184861200Y-96795397D01*
X184861200Y-96752603D01*
X184861200Y-95143071D01*
X184861200Y-94468950D01*
X184861200Y-93999050D01*
X184861200Y-93324929D01*
X184826398Y-93240909D01*
X184762092Y-93176603D01*
X184678072Y-93141800D01*
X184587129Y-93141800D01*
X184003950Y-93141800D01*
X183946800Y-93198950D01*
X183946800Y-94056200D01*
X184804050Y-94056200D01*
X184861200Y-93999050D01*
X184861200Y-94468950D01*
X184804050Y-94411800D01*
X183946800Y-94411800D01*
X183946800Y-95269050D01*
X184003950Y-95326200D01*
X184587129Y-95326200D01*
X184678072Y-95326200D01*
X184762092Y-95291397D01*
X184826398Y-95227091D01*
X184861200Y-95143071D01*
X184861200Y-96752603D01*
X184778061Y-96334636D01*
X184541302Y-95980301D01*
X184186967Y-95743542D01*
X183769000Y-95660403D01*
X183591200Y-95695769D01*
X183591200Y-95269050D01*
X183591200Y-94411800D01*
X183591200Y-94056200D01*
X183591200Y-93198950D01*
X183534050Y-93141800D01*
X182950871Y-93141800D01*
X182859928Y-93141800D01*
X182775908Y-93176603D01*
X182711602Y-93240909D01*
X182676800Y-93324929D01*
X182676800Y-93999050D01*
X182733950Y-94056200D01*
X183591200Y-94056200D01*
X183591200Y-94411800D01*
X182733950Y-94411800D01*
X182676800Y-94468950D01*
X182676800Y-95143071D01*
X182711602Y-95227091D01*
X182775908Y-95291397D01*
X182859928Y-95326200D01*
X182950871Y-95326200D01*
X183534050Y-95326200D01*
X183591200Y-95269050D01*
X183591200Y-95695769D01*
X183351033Y-95743542D01*
X182996698Y-95980301D01*
X182759939Y-96334636D01*
X182676800Y-96752603D01*
X182676800Y-96795397D01*
X182759939Y-97213364D01*
X182996698Y-97567699D01*
X183351033Y-97804458D01*
X183769000Y-97887597D01*
X184186967Y-97804458D01*
X184541302Y-97567699D01*
X184778061Y-97213364D01*
X184861200Y-96795397D01*
X184861200Y-109721400D01*
X182321200Y-109721400D01*
X182321200Y-96795397D01*
X182321200Y-96752603D01*
X182265567Y-96472917D01*
X182265567Y-94578192D01*
X182265567Y-93889808D01*
X182054946Y-93519331D01*
X181718583Y-93257656D01*
X181573190Y-93197450D01*
X181406800Y-93214336D01*
X181406800Y-94056200D01*
X182249499Y-94056200D01*
X182265567Y-93889808D01*
X182265567Y-94578192D01*
X182249499Y-94411800D01*
X181406800Y-94411800D01*
X181406800Y-95253664D01*
X181573190Y-95270550D01*
X181718583Y-95210344D01*
X182054946Y-94948669D01*
X182265567Y-94578192D01*
X182265567Y-96472917D01*
X182238061Y-96334636D01*
X182001302Y-95980301D01*
X181646967Y-95743542D01*
X181229000Y-95660403D01*
X181051200Y-95695769D01*
X181051200Y-95253664D01*
X181051200Y-94411800D01*
X181051200Y-94056200D01*
X181051200Y-93214336D01*
X180884810Y-93197450D01*
X180739417Y-93257656D01*
X180403054Y-93519331D01*
X180192433Y-93889808D01*
X180208501Y-94056200D01*
X181051200Y-94056200D01*
X181051200Y-94411800D01*
X180208501Y-94411800D01*
X180192433Y-94578192D01*
X180403054Y-94948669D01*
X180739417Y-95210344D01*
X180884810Y-95270550D01*
X181051200Y-95253664D01*
X181051200Y-95695769D01*
X180811033Y-95743542D01*
X180456698Y-95980301D01*
X180219939Y-96334636D01*
X180193172Y-96469200D01*
X177546000Y-96469200D01*
X177429358Y-96492402D01*
X177349965Y-96545450D01*
X177196426Y-96545316D01*
X177018986Y-96618633D01*
X176883110Y-96754272D01*
X176809484Y-96931584D01*
X176809316Y-97123574D01*
X176882633Y-97301014D01*
X177018272Y-97436890D01*
X177195584Y-97510516D01*
X177387574Y-97510684D01*
X177565014Y-97437367D01*
X177700890Y-97301728D01*
X177774516Y-97124416D01*
X177774555Y-97078800D01*
X180193172Y-97078800D01*
X180219939Y-97213364D01*
X180456698Y-97567699D01*
X180811033Y-97804458D01*
X181229000Y-97887597D01*
X181646967Y-97804458D01*
X182001302Y-97567699D01*
X182238061Y-97213364D01*
X182321200Y-96795397D01*
X182321200Y-109721400D01*
X173329684Y-109721400D01*
X173329684Y-101885426D01*
X173256367Y-101707986D01*
X173120728Y-101572110D01*
X172943416Y-101498484D01*
X172751426Y-101498316D01*
X172573986Y-101571633D01*
X172438110Y-101707272D01*
X172364484Y-101884584D01*
X172364316Y-102076574D01*
X172437633Y-102254014D01*
X172542200Y-102358763D01*
X172542200Y-103564291D01*
X172446986Y-103603633D01*
X172311110Y-103739272D01*
X172237484Y-103916584D01*
X172237316Y-104108574D01*
X172310633Y-104286014D01*
X172446272Y-104421890D01*
X172623584Y-104495516D01*
X172815574Y-104495684D01*
X172993014Y-104422367D01*
X173128890Y-104286728D01*
X173202516Y-104109416D01*
X173202684Y-103917426D01*
X173151800Y-103794277D01*
X173151800Y-102358636D01*
X173255890Y-102254728D01*
X173329516Y-102077416D01*
X173329684Y-101885426D01*
X173329684Y-109721400D01*
X171424684Y-109721400D01*
X171424684Y-90074426D01*
X171351367Y-89896986D01*
X171215728Y-89761110D01*
X171038416Y-89687484D01*
X170846426Y-89687316D01*
X170668986Y-89760633D01*
X170564236Y-89865200D01*
X166080554Y-89865200D01*
X165958416Y-89814484D01*
X165766426Y-89814316D01*
X165588986Y-89887633D01*
X165453110Y-90023272D01*
X165379484Y-90200584D01*
X165379316Y-90392574D01*
X165452633Y-90570014D01*
X165588272Y-90705890D01*
X165765584Y-90779516D01*
X165957574Y-90779684D01*
X166135014Y-90706367D01*
X166270890Y-90570728D01*
X166310722Y-90474800D01*
X170564363Y-90474800D01*
X170668272Y-90578890D01*
X170845584Y-90652516D01*
X171037574Y-90652684D01*
X171215014Y-90579367D01*
X171350890Y-90443728D01*
X171424516Y-90266416D01*
X171424684Y-90074426D01*
X171424684Y-109721400D01*
X170789684Y-109721400D01*
X170789684Y-100869426D01*
X170735600Y-100738533D01*
X170735600Y-95631000D01*
X170702975Y-95466982D01*
X170610066Y-95327934D01*
X167943066Y-92660934D01*
X167804018Y-92568025D01*
X167640000Y-92535400D01*
X160324532Y-92535400D01*
X158695796Y-90906664D01*
X158718574Y-90906684D01*
X158896014Y-90833367D01*
X159031890Y-90697728D01*
X159105516Y-90520416D01*
X159105684Y-90328426D01*
X159032367Y-90150986D01*
X158927800Y-90046236D01*
X158927800Y-89499554D01*
X158978516Y-89377416D01*
X158978684Y-89185426D01*
X158905367Y-89007986D01*
X158769728Y-88872110D01*
X158592416Y-88798484D01*
X158400426Y-88798316D01*
X158222986Y-88871633D01*
X158087110Y-89007272D01*
X158013484Y-89184584D01*
X158013316Y-89376574D01*
X158086633Y-89554014D01*
X158222272Y-89689890D01*
X158318200Y-89729722D01*
X158318200Y-90046363D01*
X158214110Y-90150272D01*
X158140484Y-90327584D01*
X158140463Y-90351331D01*
X157308056Y-89518924D01*
X157254367Y-89388986D01*
X157118728Y-89253110D01*
X157096321Y-89243805D01*
X157245014Y-89182367D01*
X157380890Y-89046728D01*
X157454516Y-88869416D01*
X157454684Y-88677426D01*
X157381367Y-88499986D01*
X157245728Y-88364110D01*
X157068416Y-88290484D01*
X156876426Y-88290316D01*
X156698986Y-88363633D01*
X156563110Y-88499272D01*
X156552945Y-88523749D01*
X156502474Y-88557474D01*
X155994474Y-89065474D01*
X155928402Y-89164358D01*
X155905200Y-89281000D01*
X155905200Y-89662000D01*
X155905200Y-90043000D01*
X155905200Y-91316363D01*
X155801110Y-91420272D01*
X155752800Y-91536615D01*
X155752800Y-89280252D01*
X156793496Y-88239555D01*
X156940574Y-88239684D01*
X157118014Y-88166367D01*
X157253890Y-88030728D01*
X157327516Y-87853416D01*
X157327684Y-87661426D01*
X157254367Y-87483986D01*
X157118728Y-87348110D01*
X156941416Y-87274484D01*
X156749426Y-87274316D01*
X156571986Y-87347633D01*
X156436110Y-87483272D01*
X156362484Y-87660584D01*
X156362354Y-87808593D01*
X155232474Y-88938474D01*
X155166402Y-89037358D01*
X155143200Y-89154000D01*
X155143200Y-91948000D01*
X155166402Y-92064642D01*
X155232474Y-92163526D01*
X155740474Y-92671526D01*
X155839358Y-92737598D01*
X155956000Y-92760800D01*
X156972748Y-92760800D01*
X157302200Y-93090252D01*
X157302200Y-93853000D01*
X157325402Y-93969642D01*
X157391474Y-94068526D01*
X159537444Y-96214496D01*
X159537316Y-96361574D01*
X159581786Y-96469200D01*
X155571636Y-96469200D01*
X155467728Y-96365110D01*
X155290416Y-96291484D01*
X155098426Y-96291316D01*
X154920986Y-96364633D01*
X154785110Y-96500272D01*
X154711484Y-96677584D01*
X154711316Y-96869574D01*
X154784633Y-97047014D01*
X154920272Y-97182890D01*
X155097584Y-97256516D01*
X155289574Y-97256684D01*
X155467014Y-97183367D01*
X155571763Y-97078800D01*
X160785363Y-97078800D01*
X160889272Y-97182890D01*
X161066584Y-97256516D01*
X161258574Y-97256684D01*
X161436014Y-97183367D01*
X161571890Y-97047728D01*
X161645516Y-96870416D01*
X161645684Y-96678426D01*
X161572367Y-96500986D01*
X161436728Y-96365110D01*
X161259416Y-96291484D01*
X161067426Y-96291316D01*
X160889986Y-96364633D01*
X160785236Y-96469200D01*
X160458175Y-96469200D01*
X160502516Y-96362416D01*
X160502684Y-96170426D01*
X160429367Y-95992986D01*
X160293728Y-95857110D01*
X160116416Y-95783484D01*
X159968406Y-95783354D01*
X157911800Y-93726748D01*
X157911800Y-92964000D01*
X157888598Y-92847358D01*
X157822526Y-92748474D01*
X157314526Y-92240474D01*
X157215642Y-92174402D01*
X157099000Y-92151200D01*
X156367249Y-92151200D01*
X156483014Y-92103367D01*
X156618890Y-91967728D01*
X156692516Y-91790416D01*
X156692684Y-91598426D01*
X156619367Y-91420986D01*
X156514800Y-91316236D01*
X156514800Y-90043000D01*
X156514800Y-90014319D01*
X156571272Y-90070890D01*
X156702069Y-90125201D01*
X159843934Y-93267066D01*
X159982982Y-93359975D01*
X160147000Y-93392600D01*
X167462467Y-93392600D01*
X169878400Y-95808532D01*
X169878400Y-96845153D01*
X169768416Y-96799484D01*
X169576426Y-96799316D01*
X169398986Y-96872633D01*
X169263110Y-97008272D01*
X169189484Y-97185584D01*
X169189316Y-97377574D01*
X169262633Y-97555014D01*
X169367200Y-97659763D01*
X169367200Y-101727748D01*
X168313474Y-102781474D01*
X168247402Y-102880358D01*
X168224200Y-102997000D01*
X168224200Y-103889363D01*
X168120110Y-103993272D01*
X168046484Y-104170584D01*
X168046316Y-104362574D01*
X168119633Y-104540014D01*
X168255272Y-104675890D01*
X168432584Y-104749516D01*
X168624574Y-104749684D01*
X168802014Y-104676367D01*
X168937890Y-104540728D01*
X169011516Y-104363416D01*
X169011684Y-104171426D01*
X168938367Y-103993986D01*
X168833800Y-103889236D01*
X168833800Y-103123252D01*
X169887526Y-102069526D01*
X169953598Y-101970642D01*
X169976800Y-101854000D01*
X169976800Y-101317319D01*
X170033272Y-101373890D01*
X170210584Y-101447516D01*
X170402574Y-101447684D01*
X170580014Y-101374367D01*
X170715890Y-101238728D01*
X170789516Y-101061416D01*
X170789684Y-100869426D01*
X170789684Y-109721400D01*
X164642800Y-109721400D01*
X164642800Y-102743000D01*
X164642800Y-100330000D01*
X164619598Y-100213359D01*
X164619598Y-100213358D01*
X164553526Y-100114474D01*
X163042555Y-98603503D01*
X163042684Y-98456426D01*
X162969367Y-98278986D01*
X162833728Y-98143110D01*
X162656416Y-98069484D01*
X162464426Y-98069316D01*
X162286986Y-98142633D01*
X162151110Y-98278272D01*
X162077484Y-98455584D01*
X162077316Y-98647574D01*
X162108797Y-98723765D01*
X161910214Y-98518734D01*
X161634190Y-98379050D01*
X161467800Y-98395936D01*
X161467800Y-99390200D01*
X162322983Y-99390200D01*
X162362738Y-99219978D01*
X162243145Y-98917688D01*
X162286272Y-98960890D01*
X162463584Y-99034516D01*
X162611593Y-99034645D01*
X164033200Y-100456252D01*
X164033200Y-102616748D01*
X163931684Y-102718264D01*
X163931684Y-102266426D01*
X163858367Y-102088986D01*
X163753800Y-101984236D01*
X163753800Y-101215636D01*
X163857890Y-101111728D01*
X163931516Y-100934416D01*
X163931684Y-100742426D01*
X163858367Y-100564986D01*
X163722728Y-100429110D01*
X163545416Y-100355484D01*
X163353426Y-100355316D01*
X163175986Y-100428633D01*
X163067930Y-100536499D01*
X162960728Y-100429110D01*
X162783416Y-100355484D01*
X162591426Y-100355316D01*
X162413986Y-100428633D01*
X162362738Y-100479791D01*
X162362738Y-99916022D01*
X162322983Y-99745800D01*
X161467800Y-99745800D01*
X161467800Y-100740064D01*
X161634190Y-100756950D01*
X161910214Y-100617266D01*
X162206219Y-100311650D01*
X162362738Y-99916022D01*
X162362738Y-100479791D01*
X162278110Y-100564272D01*
X162204484Y-100741584D01*
X162204316Y-100933574D01*
X162277633Y-101111014D01*
X162382200Y-101215763D01*
X162382200Y-101857363D01*
X162278110Y-101961272D01*
X162204484Y-102138584D01*
X162204316Y-102330574D01*
X162277633Y-102508014D01*
X162413272Y-102643890D01*
X162590584Y-102717516D01*
X162782574Y-102717684D01*
X162960014Y-102644367D01*
X163019118Y-102585365D01*
X163039633Y-102635014D01*
X163175272Y-102770890D01*
X163352584Y-102844516D01*
X163544574Y-102844684D01*
X163722014Y-102771367D01*
X163857890Y-102635728D01*
X163931516Y-102458416D01*
X163931684Y-102266426D01*
X163931684Y-102718264D01*
X162852474Y-103797474D01*
X162786402Y-103896358D01*
X162763200Y-104013000D01*
X162763200Y-105826445D01*
X162712484Y-105948584D01*
X162712316Y-106140574D01*
X162785633Y-106318014D01*
X162921272Y-106453890D01*
X163098584Y-106527516D01*
X163290574Y-106527684D01*
X163468014Y-106454367D01*
X163603890Y-106318728D01*
X163677516Y-106141416D01*
X163677684Y-105949426D01*
X163604367Y-105771986D01*
X163468728Y-105636110D01*
X163372800Y-105596277D01*
X163372800Y-104139252D01*
X164553526Y-102958526D01*
X164619598Y-102859642D01*
X164642800Y-102743000D01*
X164642800Y-109721400D01*
X162362738Y-109721400D01*
X162362738Y-104107022D01*
X162362738Y-103410978D01*
X162206219Y-103015350D01*
X161910214Y-102709734D01*
X161634190Y-102570050D01*
X161467800Y-102586936D01*
X161467800Y-103581200D01*
X162322983Y-103581200D01*
X162362738Y-103410978D01*
X162362738Y-104107022D01*
X162322983Y-103936800D01*
X161467800Y-103936800D01*
X161467800Y-104931064D01*
X161634190Y-104947950D01*
X161910214Y-104808266D01*
X162206219Y-104502650D01*
X162362738Y-104107022D01*
X162362738Y-109721400D01*
X161112200Y-109721400D01*
X161112200Y-104931064D01*
X161112200Y-103936800D01*
X161112200Y-103581200D01*
X161112200Y-102586936D01*
X161112200Y-100740064D01*
X161112200Y-99745800D01*
X161112200Y-99390200D01*
X161112200Y-98395936D01*
X160945810Y-98379050D01*
X160669786Y-98518734D01*
X160373781Y-98824350D01*
X160217262Y-99219978D01*
X160257017Y-99390200D01*
X161112200Y-99390200D01*
X161112200Y-99745800D01*
X160257017Y-99745800D01*
X160217262Y-99916022D01*
X160373781Y-100311650D01*
X160669786Y-100617266D01*
X160945810Y-100756950D01*
X161112200Y-100740064D01*
X161112200Y-102586936D01*
X160945810Y-102570050D01*
X160669786Y-102709734D01*
X160502684Y-102882261D01*
X160502684Y-100869426D01*
X160429367Y-100691986D01*
X160293728Y-100556110D01*
X160116416Y-100482484D01*
X159924426Y-100482316D01*
X159842200Y-100516291D01*
X159842200Y-99744783D01*
X159842200Y-99391217D01*
X159759061Y-98973250D01*
X159522302Y-98618915D01*
X159167967Y-98382156D01*
X158750000Y-98299017D01*
X158332033Y-98382156D01*
X157977698Y-98618915D01*
X157740939Y-98973250D01*
X157657800Y-99391217D01*
X157657800Y-99744783D01*
X157740939Y-100162750D01*
X157977698Y-100517085D01*
X158332033Y-100753844D01*
X158750000Y-100836983D01*
X159167967Y-100753844D01*
X159522302Y-100517085D01*
X159759061Y-100162750D01*
X159842200Y-99744783D01*
X159842200Y-100516291D01*
X159746986Y-100555633D01*
X159611110Y-100691272D01*
X159537484Y-100868584D01*
X159537354Y-101016593D01*
X158534474Y-102019474D01*
X158468402Y-102118358D01*
X158445200Y-102235000D01*
X158445200Y-102550645D01*
X158332033Y-102573156D01*
X157977698Y-102809915D01*
X157740939Y-103164250D01*
X157657800Y-103582217D01*
X157657800Y-103935783D01*
X157740939Y-104353750D01*
X157977698Y-104708085D01*
X158332033Y-104944844D01*
X158750000Y-105027983D01*
X159167967Y-104944844D01*
X159522302Y-104708085D01*
X159759061Y-104353750D01*
X159842200Y-103935783D01*
X159842200Y-103582217D01*
X159759061Y-103164250D01*
X159522302Y-102809915D01*
X159167967Y-102573156D01*
X159054800Y-102550645D01*
X159054800Y-102361252D01*
X159968496Y-101447555D01*
X160115574Y-101447684D01*
X160293014Y-101374367D01*
X160428890Y-101238728D01*
X160502516Y-101061416D01*
X160502684Y-100869426D01*
X160502684Y-102882261D01*
X160373781Y-103015350D01*
X160217262Y-103410978D01*
X160257017Y-103581200D01*
X161112200Y-103581200D01*
X161112200Y-103936800D01*
X160257017Y-103936800D01*
X160217262Y-104107022D01*
X160373781Y-104502650D01*
X160669786Y-104808266D01*
X160945810Y-104947950D01*
X161112200Y-104931064D01*
X161112200Y-109721400D01*
X157302200Y-109721400D01*
X157302200Y-103935783D01*
X157302200Y-103582217D01*
X157302200Y-99744783D01*
X157302200Y-99391217D01*
X157219061Y-98973250D01*
X156982302Y-98618915D01*
X156627967Y-98382156D01*
X156210000Y-98299017D01*
X155792033Y-98382156D01*
X155437698Y-98618915D01*
X155200939Y-98973250D01*
X155117800Y-99391217D01*
X155117800Y-99744783D01*
X155200939Y-100162750D01*
X155437698Y-100517085D01*
X155792033Y-100753844D01*
X156210000Y-100836983D01*
X156627967Y-100753844D01*
X156982302Y-100517085D01*
X157219061Y-100162750D01*
X157302200Y-99744783D01*
X157302200Y-103582217D01*
X157219061Y-103164250D01*
X156982302Y-102809915D01*
X156627967Y-102573156D01*
X156514800Y-102550645D01*
X156514800Y-102235000D01*
X156491598Y-102118358D01*
X156425526Y-102019474D01*
X155422555Y-101016503D01*
X155422684Y-100869426D01*
X155349367Y-100691986D01*
X155213728Y-100556110D01*
X155036416Y-100482484D01*
X154844426Y-100482316D01*
X154742738Y-100524332D01*
X154742738Y-99916022D01*
X154742738Y-99219978D01*
X154586219Y-98824350D01*
X154290214Y-98518734D01*
X154014190Y-98379050D01*
X153847800Y-98395936D01*
X153847800Y-99390200D01*
X154702983Y-99390200D01*
X154742738Y-99219978D01*
X154742738Y-99916022D01*
X154702983Y-99745800D01*
X153847800Y-99745800D01*
X153847800Y-100740064D01*
X154014190Y-100756950D01*
X154290214Y-100617266D01*
X154586219Y-100311650D01*
X154742738Y-99916022D01*
X154742738Y-100524332D01*
X154666986Y-100555633D01*
X154531110Y-100691272D01*
X154457484Y-100868584D01*
X154457316Y-101060574D01*
X154530633Y-101238014D01*
X154666272Y-101373890D01*
X154843584Y-101447516D01*
X154991593Y-101447645D01*
X155905200Y-102361252D01*
X155905200Y-102550645D01*
X155792033Y-102573156D01*
X155437698Y-102809915D01*
X155200939Y-103164250D01*
X155117800Y-103582217D01*
X155117800Y-103935783D01*
X155200939Y-104353750D01*
X155437698Y-104708085D01*
X155792033Y-104944844D01*
X156210000Y-105027983D01*
X156627967Y-104944844D01*
X156982302Y-104708085D01*
X157219061Y-104353750D01*
X157302200Y-103935783D01*
X157302200Y-109721400D01*
X154766679Y-109721400D01*
X154766679Y-104775000D01*
X154766679Y-102743000D01*
X154749767Y-102655836D01*
X154699442Y-102579226D01*
X154623471Y-102527944D01*
X154533600Y-102509921D01*
X153492200Y-102509921D01*
X153492200Y-100740064D01*
X153492200Y-99745800D01*
X153492200Y-99390200D01*
X153492200Y-98395936D01*
X153325810Y-98379050D01*
X153049786Y-98518734D01*
X152753781Y-98824350D01*
X152597262Y-99219978D01*
X152637017Y-99390200D01*
X153492200Y-99390200D01*
X153492200Y-99745800D01*
X152637017Y-99745800D01*
X152597262Y-99916022D01*
X152753781Y-100311650D01*
X153049786Y-100617266D01*
X153325810Y-100756950D01*
X153492200Y-100740064D01*
X153492200Y-102509921D01*
X152806400Y-102509921D01*
X152719236Y-102526833D01*
X152642626Y-102577158D01*
X152591344Y-102653129D01*
X152573321Y-102743000D01*
X152573321Y-104775000D01*
X152590233Y-104862164D01*
X152640558Y-104938774D01*
X152716529Y-104990056D01*
X152806400Y-105008079D01*
X154533600Y-105008079D01*
X154620764Y-104991167D01*
X154697374Y-104940842D01*
X154748656Y-104864871D01*
X154766679Y-104775000D01*
X154766679Y-109721400D01*
X152222200Y-109721400D01*
X152222200Y-99744783D01*
X152222200Y-99391217D01*
X152139061Y-98973250D01*
X151902302Y-98618915D01*
X151547967Y-98382156D01*
X151130000Y-98299017D01*
X150712033Y-98382156D01*
X150500197Y-98523700D01*
X150500197Y-92743334D01*
X150500197Y-88344054D01*
X150397168Y-88094704D01*
X150206560Y-87903762D01*
X149957390Y-87800298D01*
X149687594Y-87800063D01*
X149438244Y-87903092D01*
X149247302Y-88093700D01*
X149143838Y-88342870D01*
X149143603Y-88612666D01*
X149246632Y-88862016D01*
X149437240Y-89052958D01*
X149686410Y-89156422D01*
X149956206Y-89156657D01*
X150205556Y-89053628D01*
X150396498Y-88863020D01*
X150499962Y-88613850D01*
X150500197Y-88344054D01*
X150500197Y-92743334D01*
X150397168Y-92493984D01*
X150206560Y-92303042D01*
X149957390Y-92199578D01*
X149687594Y-92199343D01*
X149438244Y-92302372D01*
X149247302Y-92492980D01*
X149143838Y-92742150D01*
X149143603Y-93011946D01*
X149246632Y-93261296D01*
X149437240Y-93452238D01*
X149686410Y-93555702D01*
X149956206Y-93555937D01*
X150205556Y-93452908D01*
X150396498Y-93262300D01*
X150499962Y-93013130D01*
X150500197Y-92743334D01*
X150500197Y-98523700D01*
X150357698Y-98618915D01*
X150120939Y-98973250D01*
X150037800Y-99391217D01*
X150037800Y-99744783D01*
X150120939Y-100162750D01*
X150357698Y-100517085D01*
X150712033Y-100753844D01*
X151130000Y-100836983D01*
X151547967Y-100753844D01*
X151902302Y-100517085D01*
X152139061Y-100162750D01*
X152222200Y-99744783D01*
X152222200Y-109721400D01*
X149686679Y-109721400D01*
X149686679Y-100584000D01*
X149686679Y-98552000D01*
X149669767Y-98464836D01*
X149619442Y-98388226D01*
X149543471Y-98336944D01*
X149453600Y-98318921D01*
X147726400Y-98318921D01*
X147639236Y-98335833D01*
X147562626Y-98386158D01*
X147511344Y-98462129D01*
X147493321Y-98552000D01*
X147493321Y-100584000D01*
X147510233Y-100671164D01*
X147560558Y-100747774D01*
X147636529Y-100799056D01*
X147726400Y-100817079D01*
X149453600Y-100817079D01*
X149540764Y-100800167D01*
X149617374Y-100749842D01*
X149668656Y-100673871D01*
X149686679Y-100584000D01*
X149686679Y-109721400D01*
X145278600Y-109721400D01*
X145278600Y-78278600D01*
X186721400Y-78278600D01*
X186721400Y-109721400D01*
M02*
