G04 #@! TF.FileFunction,Legend,Top*
%FSLAX46Y46*%
G04 Gerber Fmt 4.6, Leading zero omitted, Abs format (unit mm)*
G04 Created by KiCad (PCBNEW (after 2015-mar-04 BZR unknown)-product) date Sat 21 Nov 2015 03:19:33 PM EST*
%MOMM*%
G01*
G04 APERTURE LIST*
%ADD10C,0.150000*%
%ADD11C,0.100000*%
%ADD12C,0.002540*%
G04 APERTURE END LIST*
D10*
X174281667Y-80961667D02*
X174048333Y-80628333D01*
X173881667Y-80961667D02*
X173881667Y-80261667D01*
X174148333Y-80261667D01*
X174215000Y-80295000D01*
X174248333Y-80328333D01*
X174281667Y-80395000D01*
X174281667Y-80495000D01*
X174248333Y-80561667D01*
X174215000Y-80595000D01*
X174148333Y-80628333D01*
X173881667Y-80628333D01*
X174581667Y-80895000D02*
X174615000Y-80928333D01*
X174581667Y-80961667D01*
X174548333Y-80928333D01*
X174581667Y-80895000D01*
X174581667Y-80961667D01*
X175448333Y-80961667D02*
X175448333Y-80261667D01*
X175848333Y-80961667D02*
X175548333Y-80561667D01*
X175848333Y-80261667D02*
X175448333Y-80661667D01*
X176448333Y-80961667D02*
X176448333Y-80595000D01*
X176414999Y-80528333D01*
X176348333Y-80495000D01*
X176214999Y-80495000D01*
X176148333Y-80528333D01*
X176448333Y-80928333D02*
X176381666Y-80961667D01*
X176214999Y-80961667D01*
X176148333Y-80928333D01*
X176114999Y-80861667D01*
X176114999Y-80795000D01*
X176148333Y-80728333D01*
X176214999Y-80695000D01*
X176381666Y-80695000D01*
X176448333Y-80661667D01*
X176781666Y-80961667D02*
X176781666Y-80495000D01*
X176781666Y-80628333D02*
X176814999Y-80561667D01*
X176848332Y-80528333D01*
X176914999Y-80495000D01*
X176981666Y-80495000D01*
X177314999Y-80961667D02*
X177248332Y-80928333D01*
X177214999Y-80861667D01*
X177214999Y-80261667D01*
X178081665Y-80328333D02*
X178114999Y-80295000D01*
X178181665Y-80261667D01*
X178348332Y-80261667D01*
X178414999Y-80295000D01*
X178448332Y-80328333D01*
X178481665Y-80395000D01*
X178481665Y-80461667D01*
X178448332Y-80561667D01*
X178048332Y-80961667D01*
X178481665Y-80961667D01*
X178914999Y-80261667D02*
X178981666Y-80261667D01*
X179048332Y-80295000D01*
X179081666Y-80328333D01*
X179114999Y-80395000D01*
X179148332Y-80528333D01*
X179148332Y-80695000D01*
X179114999Y-80828333D01*
X179081666Y-80895000D01*
X179048332Y-80928333D01*
X178981666Y-80961667D01*
X178914999Y-80961667D01*
X178848332Y-80928333D01*
X178814999Y-80895000D01*
X178781666Y-80828333D01*
X178748332Y-80695000D01*
X178748332Y-80528333D01*
X178781666Y-80395000D01*
X178814999Y-80328333D01*
X178848332Y-80295000D01*
X178914999Y-80261667D01*
X179814999Y-80961667D02*
X179414999Y-80961667D01*
X179614999Y-80961667D02*
X179614999Y-80261667D01*
X179548333Y-80361667D01*
X179481666Y-80428333D01*
X179414999Y-80461667D01*
X180448333Y-80261667D02*
X180115000Y-80261667D01*
X180081666Y-80595000D01*
X180115000Y-80561667D01*
X180181666Y-80528333D01*
X180348333Y-80528333D01*
X180415000Y-80561667D01*
X180448333Y-80595000D01*
X180481666Y-80661667D01*
X180481666Y-80828333D01*
X180448333Y-80895000D01*
X180415000Y-80928333D01*
X180348333Y-80961667D01*
X180181666Y-80961667D01*
X180115000Y-80928333D01*
X180081666Y-80895000D01*
X163668336Y-79691667D02*
X163668336Y-78991667D01*
X163835002Y-78991667D01*
X163935002Y-79025000D01*
X164001669Y-79091667D01*
X164035002Y-79158333D01*
X164068336Y-79291667D01*
X164068336Y-79391667D01*
X164035002Y-79525000D01*
X164001669Y-79591667D01*
X163935002Y-79658333D01*
X163835002Y-79691667D01*
X163668336Y-79691667D01*
X164335002Y-79491667D02*
X164668336Y-79491667D01*
X164268336Y-79691667D02*
X164501669Y-78991667D01*
X164735002Y-79691667D01*
X165368336Y-79625000D02*
X165335002Y-79658333D01*
X165235002Y-79691667D01*
X165168336Y-79691667D01*
X165068336Y-79658333D01*
X165001669Y-79591667D01*
X164968336Y-79525000D01*
X164935002Y-79391667D01*
X164935002Y-79291667D01*
X164968336Y-79158333D01*
X165001669Y-79091667D01*
X165068336Y-79025000D01*
X165168336Y-78991667D01*
X165235002Y-78991667D01*
X165335002Y-79025000D01*
X165368336Y-79058333D01*
X166601669Y-79625000D02*
X166568335Y-79658333D01*
X166468335Y-79691667D01*
X166401669Y-79691667D01*
X166301669Y-79658333D01*
X166235002Y-79591667D01*
X166201669Y-79525000D01*
X166168335Y-79391667D01*
X166168335Y-79291667D01*
X166201669Y-79158333D01*
X166235002Y-79091667D01*
X166301669Y-79025000D01*
X166401669Y-78991667D01*
X166468335Y-78991667D01*
X166568335Y-79025000D01*
X166601669Y-79058333D01*
X167001669Y-79691667D02*
X166935002Y-79658333D01*
X166901669Y-79625000D01*
X166868335Y-79558333D01*
X166868335Y-79358333D01*
X166901669Y-79291667D01*
X166935002Y-79258333D01*
X167001669Y-79225000D01*
X167101669Y-79225000D01*
X167168335Y-79258333D01*
X167201669Y-79291667D01*
X167235002Y-79358333D01*
X167235002Y-79558333D01*
X167201669Y-79625000D01*
X167168335Y-79658333D01*
X167101669Y-79691667D01*
X167001669Y-79691667D01*
X167535002Y-79225000D02*
X167535002Y-79691667D01*
X167535002Y-79291667D02*
X167568335Y-79258333D01*
X167635002Y-79225000D01*
X167735002Y-79225000D01*
X167801668Y-79258333D01*
X167835002Y-79325000D01*
X167835002Y-79691667D01*
X168068335Y-79225000D02*
X168335001Y-79225000D01*
X168168335Y-78991667D02*
X168168335Y-79591667D01*
X168201668Y-79658333D01*
X168268335Y-79691667D01*
X168335001Y-79691667D01*
X168568335Y-79691667D02*
X168568335Y-79225000D01*
X168568335Y-79358333D02*
X168601668Y-79291667D01*
X168635001Y-79258333D01*
X168701668Y-79225000D01*
X168768335Y-79225000D01*
X169101668Y-79691667D02*
X169035001Y-79658333D01*
X169001668Y-79625000D01*
X168968334Y-79558333D01*
X168968334Y-79358333D01*
X169001668Y-79291667D01*
X169035001Y-79258333D01*
X169101668Y-79225000D01*
X169201668Y-79225000D01*
X169268334Y-79258333D01*
X169301668Y-79291667D01*
X169335001Y-79358333D01*
X169335001Y-79558333D01*
X169301668Y-79625000D01*
X169268334Y-79658333D01*
X169201668Y-79691667D01*
X169101668Y-79691667D01*
X169735001Y-79691667D02*
X169668334Y-79658333D01*
X169635001Y-79591667D01*
X169635001Y-78991667D01*
X170101668Y-79691667D02*
X170035001Y-79658333D01*
X170001668Y-79591667D01*
X170001668Y-78991667D01*
X170635001Y-79658333D02*
X170568335Y-79691667D01*
X170435001Y-79691667D01*
X170368335Y-79658333D01*
X170335001Y-79591667D01*
X170335001Y-79325000D01*
X170368335Y-79258333D01*
X170435001Y-79225000D01*
X170568335Y-79225000D01*
X170635001Y-79258333D01*
X170668335Y-79325000D01*
X170668335Y-79391667D01*
X170335001Y-79458333D01*
X171268335Y-79691667D02*
X171268335Y-78991667D01*
X171268335Y-79658333D02*
X171201668Y-79691667D01*
X171068335Y-79691667D01*
X171001668Y-79658333D01*
X170968335Y-79625000D01*
X170935001Y-79558333D01*
X170935001Y-79358333D01*
X170968335Y-79291667D01*
X171001668Y-79258333D01*
X171068335Y-79225000D01*
X171201668Y-79225000D01*
X171268335Y-79258333D01*
X172368334Y-79325000D02*
X172468334Y-79358333D01*
X172501667Y-79391667D01*
X172535001Y-79458333D01*
X172535001Y-79558333D01*
X172501667Y-79625000D01*
X172468334Y-79658333D01*
X172401667Y-79691667D01*
X172135001Y-79691667D01*
X172135001Y-78991667D01*
X172368334Y-78991667D01*
X172435001Y-79025000D01*
X172468334Y-79058333D01*
X172501667Y-79125000D01*
X172501667Y-79191667D01*
X172468334Y-79258333D01*
X172435001Y-79291667D01*
X172368334Y-79325000D01*
X172135001Y-79325000D01*
X173135001Y-79225000D02*
X173135001Y-79691667D01*
X172835001Y-79225000D02*
X172835001Y-79591667D01*
X172868334Y-79658333D01*
X172935001Y-79691667D01*
X173035001Y-79691667D01*
X173101667Y-79658333D01*
X173135001Y-79625000D01*
X173768334Y-79658333D02*
X173701667Y-79691667D01*
X173568334Y-79691667D01*
X173501667Y-79658333D01*
X173468334Y-79625000D01*
X173435000Y-79558333D01*
X173435000Y-79358333D01*
X173468334Y-79291667D01*
X173501667Y-79258333D01*
X173568334Y-79225000D01*
X173701667Y-79225000D01*
X173768334Y-79258333D01*
X174068334Y-79691667D02*
X174068334Y-78991667D01*
X174135000Y-79425000D02*
X174335000Y-79691667D01*
X174335000Y-79225000D02*
X174068334Y-79491667D01*
X175068334Y-78991667D02*
X175468334Y-78991667D01*
X175268334Y-79691667D02*
X175268334Y-78991667D01*
X175968333Y-79658333D02*
X175901667Y-79691667D01*
X175768333Y-79691667D01*
X175701667Y-79658333D01*
X175668333Y-79591667D01*
X175668333Y-79325000D01*
X175701667Y-79258333D01*
X175768333Y-79225000D01*
X175901667Y-79225000D01*
X175968333Y-79258333D01*
X176001667Y-79325000D01*
X176001667Y-79391667D01*
X175668333Y-79458333D01*
X176268333Y-79658333D02*
X176335000Y-79691667D01*
X176468333Y-79691667D01*
X176535000Y-79658333D01*
X176568333Y-79591667D01*
X176568333Y-79558333D01*
X176535000Y-79491667D01*
X176468333Y-79458333D01*
X176368333Y-79458333D01*
X176301667Y-79425000D01*
X176268333Y-79358333D01*
X176268333Y-79325000D01*
X176301667Y-79258333D01*
X176368333Y-79225000D01*
X176468333Y-79225000D01*
X176535000Y-79258333D01*
X176768334Y-79225000D02*
X177035000Y-79225000D01*
X176868334Y-78991667D02*
X176868334Y-79591667D01*
X176901667Y-79658333D01*
X176968334Y-79691667D01*
X177035000Y-79691667D01*
X178035000Y-79325000D02*
X178135000Y-79358333D01*
X178168333Y-79391667D01*
X178201667Y-79458333D01*
X178201667Y-79558333D01*
X178168333Y-79625000D01*
X178135000Y-79658333D01*
X178068333Y-79691667D01*
X177801667Y-79691667D01*
X177801667Y-78991667D01*
X178035000Y-78991667D01*
X178101667Y-79025000D01*
X178135000Y-79058333D01*
X178168333Y-79125000D01*
X178168333Y-79191667D01*
X178135000Y-79258333D01*
X178101667Y-79291667D01*
X178035000Y-79325000D01*
X177801667Y-79325000D01*
X178601667Y-79691667D02*
X178535000Y-79658333D01*
X178501667Y-79625000D01*
X178468333Y-79558333D01*
X178468333Y-79358333D01*
X178501667Y-79291667D01*
X178535000Y-79258333D01*
X178601667Y-79225000D01*
X178701667Y-79225000D01*
X178768333Y-79258333D01*
X178801667Y-79291667D01*
X178835000Y-79358333D01*
X178835000Y-79558333D01*
X178801667Y-79625000D01*
X178768333Y-79658333D01*
X178701667Y-79691667D01*
X178601667Y-79691667D01*
X179435000Y-79691667D02*
X179435000Y-79325000D01*
X179401666Y-79258333D01*
X179335000Y-79225000D01*
X179201666Y-79225000D01*
X179135000Y-79258333D01*
X179435000Y-79658333D02*
X179368333Y-79691667D01*
X179201666Y-79691667D01*
X179135000Y-79658333D01*
X179101666Y-79591667D01*
X179101666Y-79525000D01*
X179135000Y-79458333D01*
X179201666Y-79425000D01*
X179368333Y-79425000D01*
X179435000Y-79391667D01*
X179768333Y-79691667D02*
X179768333Y-79225000D01*
X179768333Y-79358333D02*
X179801666Y-79291667D01*
X179834999Y-79258333D01*
X179901666Y-79225000D01*
X179968333Y-79225000D01*
X180501666Y-79691667D02*
X180501666Y-78991667D01*
X180501666Y-79658333D02*
X180434999Y-79691667D01*
X180301666Y-79691667D01*
X180234999Y-79658333D01*
X180201666Y-79625000D01*
X180168332Y-79558333D01*
X180168332Y-79358333D01*
X180201666Y-79291667D01*
X180234999Y-79258333D01*
X180301666Y-79225000D01*
X180434999Y-79225000D01*
X180501666Y-79258333D01*
X145371820Y-86827360D02*
X145371820Y-94528640D01*
X144371060Y-86827360D02*
X144371060Y-94528640D01*
X144371060Y-94528640D02*
X153570940Y-94528640D01*
X153570940Y-94528640D02*
X153570940Y-86827360D01*
X153570940Y-86827360D02*
X144371060Y-86827360D01*
X173224000Y-98331000D02*
X172724000Y-98331000D01*
X172724000Y-99281000D02*
X173224000Y-99281000D01*
X167136000Y-98392000D02*
X167636000Y-98392000D01*
X167636000Y-97442000D02*
X167136000Y-97442000D01*
X174084000Y-89531000D02*
X174084000Y-89031000D01*
X173134000Y-89031000D02*
X173134000Y-89531000D01*
X162556000Y-82202000D02*
X162056000Y-82202000D01*
X162056000Y-83152000D02*
X162556000Y-83152000D01*
X158021000Y-94238000D02*
X158021000Y-94738000D01*
X158971000Y-94738000D02*
X158971000Y-94238000D01*
X156370000Y-94238000D02*
X156370000Y-94738000D01*
X157320000Y-94738000D02*
X157320000Y-94238000D01*
X158445000Y-86752000D02*
X154745000Y-86752000D01*
X158445000Y-84952000D02*
X154745000Y-84952000D01*
X153639000Y-84293000D02*
X152939000Y-84293000D01*
X152939000Y-83093000D02*
X153639000Y-83093000D01*
X156114000Y-79283000D02*
X156814000Y-79283000D01*
X156814000Y-80483000D02*
X156114000Y-80483000D01*
X149860000Y-98298000D02*
X162560000Y-98298000D01*
X162560000Y-98298000D02*
X162560000Y-100838000D01*
X162560000Y-100838000D02*
X149860000Y-100838000D01*
X147040000Y-98018000D02*
X148590000Y-98018000D01*
X149860000Y-98298000D02*
X149860000Y-100838000D01*
X148590000Y-101118000D02*
X147040000Y-101118000D01*
X147040000Y-101118000D02*
X147040000Y-98018000D01*
X165350000Y-97392000D02*
X164850000Y-97392000D01*
X164850000Y-98442000D02*
X165350000Y-98442000D01*
X171597607Y-97485000D02*
G75*
G03X171597607Y-97485000I-223607J0D01*
G01*
X170974000Y-93885000D02*
X170974000Y-97885000D01*
X170974000Y-97885000D02*
X174974000Y-97885000D01*
X174974000Y-97885000D02*
X174974000Y-93885000D01*
X174974000Y-93885000D02*
X170974000Y-93885000D01*
X168471000Y-93795000D02*
X168471000Y-93270000D01*
X161221000Y-93795000D02*
X161221000Y-93270000D01*
X161221000Y-86545000D02*
X161221000Y-87070000D01*
X168471000Y-86545000D02*
X168471000Y-87070000D01*
X168471000Y-93795000D02*
X167946000Y-93795000D01*
X168471000Y-86545000D02*
X167946000Y-86545000D01*
X161221000Y-86545000D02*
X161746000Y-86545000D01*
X161221000Y-93795000D02*
X161746000Y-93795000D01*
X168471000Y-93270000D02*
X169846000Y-93270000D01*
X154991000Y-82850000D02*
G75*
G03X154991000Y-82850000I-100000J0D01*
G01*
X155141000Y-82300000D02*
X155141000Y-82800000D01*
X158041000Y-82300000D02*
X155141000Y-82300000D01*
X158041000Y-82800000D02*
X158041000Y-82300000D01*
X155141000Y-82800000D02*
X158041000Y-82800000D01*
X176815000Y-99730000D02*
X177515000Y-99730000D01*
X177515000Y-100930000D02*
X176815000Y-100930000D01*
X174590000Y-103790000D02*
X174590000Y-104490000D01*
X173390000Y-104490000D02*
X173390000Y-103790000D01*
X175803000Y-106014000D02*
X175803000Y-105314000D01*
X177003000Y-105314000D02*
X177003000Y-106014000D01*
X177454000Y-106014000D02*
X177454000Y-105314000D01*
X178654000Y-105314000D02*
X178654000Y-106014000D01*
X170655000Y-105406000D02*
X170655000Y-104906000D01*
X169705000Y-104906000D02*
X169705000Y-105406000D01*
D11*
X179656152Y-105791000D02*
X182626000Y-108760848D01*
X182626000Y-108760848D02*
X185595848Y-105791000D01*
X185595848Y-105791000D02*
X182626000Y-102821152D01*
X182626000Y-102821152D02*
X179656152Y-105791000D01*
D10*
X154940000Y-105029000D02*
X162560000Y-105029000D01*
X154940000Y-102489000D02*
X162560000Y-102489000D01*
X152120000Y-102209000D02*
X153670000Y-102209000D01*
X162560000Y-105029000D02*
X162560000Y-102489000D01*
X154940000Y-102489000D02*
X154940000Y-105029000D01*
X153670000Y-105309000D02*
X152120000Y-105309000D01*
X152120000Y-105309000D02*
X152120000Y-102209000D01*
X170544000Y-86618000D02*
X170544000Y-87118000D01*
X171594000Y-87118000D02*
X171594000Y-86618000D01*
X178368000Y-103614000D02*
X179518000Y-103614000D01*
X177593000Y-101364000D02*
X179518000Y-101364000D01*
X164637000Y-107060000D02*
X167087000Y-107060000D01*
X163912000Y-103760000D02*
X167087000Y-103760000D01*
X183769000Y-92684000D02*
X185319000Y-92684000D01*
X185319000Y-94234000D02*
X185319000Y-92684000D01*
X182499000Y-92964000D02*
X182499000Y-95504000D01*
X182499000Y-95504000D02*
X185039000Y-95504000D01*
X185039000Y-95504000D02*
X185039000Y-98044000D01*
X185039000Y-98044000D02*
X179959000Y-98044000D01*
X179959000Y-98044000D02*
X179959000Y-92964000D01*
X179959000Y-92964000D02*
X182499000Y-92964000D01*
D12*
G36*
X185844180Y-87858600D02*
X185582560Y-88188800D01*
X185320940Y-88519000D01*
X184650380Y-88519000D01*
X184337960Y-88508840D01*
X184101740Y-88488520D01*
X183987440Y-88458040D01*
X183979820Y-88450420D01*
X183934100Y-88336120D01*
X183852820Y-88216740D01*
X183812180Y-88165940D01*
X183812180Y-87967820D01*
X183769000Y-87924640D01*
X183725820Y-87967820D01*
X183769000Y-88011000D01*
X183812180Y-87967820D01*
X183812180Y-88165940D01*
X183769000Y-88115140D01*
X183761380Y-88145620D01*
X183809640Y-88287860D01*
X183893460Y-88524080D01*
X182872380Y-88498680D01*
X181851300Y-88475820D01*
X181691280Y-88023700D01*
X181607460Y-87769700D01*
X181584600Y-87640160D01*
X181620160Y-87609680D01*
X181663340Y-87619840D01*
X181836060Y-87655400D01*
X182072280Y-87670640D01*
X182077360Y-87670640D01*
X182300880Y-87703660D01*
X182407560Y-87820500D01*
X182412640Y-87835740D01*
X182539640Y-88011000D01*
X182737760Y-88061800D01*
X182951120Y-87975440D01*
X182979060Y-87955120D01*
X183134000Y-87858600D01*
X183354980Y-87820500D01*
X183629300Y-87823040D01*
X184071260Y-87790020D01*
X184426860Y-87655400D01*
X184673240Y-87426800D01*
X184736740Y-87302340D01*
X184845960Y-87127080D01*
X184947560Y-87050880D01*
X185054240Y-86931500D01*
X185072020Y-86728300D01*
X185000900Y-86504780D01*
X184957720Y-86438740D01*
X184856120Y-86220300D01*
X184828180Y-86062820D01*
X184792620Y-85844380D01*
X184736740Y-85725000D01*
X184691020Y-85686900D01*
X184688480Y-85798660D01*
X184708800Y-85935820D01*
X184739280Y-86144100D01*
X184718960Y-86217760D01*
X184645300Y-86189820D01*
X184612280Y-86177120D01*
X184693560Y-86255860D01*
X184716420Y-86276180D01*
X184891680Y-86512400D01*
X184899300Y-86753700D01*
X184807860Y-86893400D01*
X184807860Y-86525100D01*
X184797700Y-86514940D01*
X184749440Y-86525100D01*
X184741820Y-86570820D01*
X184772300Y-86639400D01*
X184797700Y-86626700D01*
X184807860Y-86525100D01*
X184807860Y-86893400D01*
X184741820Y-86995000D01*
X184558940Y-87139780D01*
X184231280Y-87294720D01*
X183865520Y-87370920D01*
X183642000Y-87368380D01*
X183642000Y-87205820D01*
X183642000Y-86913720D01*
X183570880Y-86840060D01*
X183471820Y-86824820D01*
X183324500Y-86868000D01*
X183321960Y-86974680D01*
X183365140Y-87028020D01*
X183441340Y-87028020D01*
X183456580Y-86997540D01*
X183535320Y-86944200D01*
X183563260Y-86956900D01*
X183636920Y-86941660D01*
X183642000Y-86913720D01*
X183642000Y-87205820D01*
X183598820Y-87162640D01*
X183558180Y-87205820D01*
X183598820Y-87249000D01*
X183642000Y-87205820D01*
X183642000Y-87368380D01*
X183512460Y-87368380D01*
X183233060Y-87282020D01*
X183159400Y-87228680D01*
X182979060Y-87109300D01*
X182979060Y-85935820D01*
X182976520Y-85852000D01*
X182874920Y-85806280D01*
X182852060Y-85801200D01*
X182613300Y-85750400D01*
X182323740Y-85712300D01*
X182021480Y-85684360D01*
X181752240Y-85674200D01*
X181556660Y-85681820D01*
X181477920Y-85709760D01*
X181477920Y-85717380D01*
X181604920Y-85801200D01*
X181653180Y-85808820D01*
X181737000Y-85864700D01*
X181731920Y-85915500D01*
X181752240Y-85984080D01*
X181897020Y-86001860D01*
X182031640Y-85991700D01*
X182275480Y-85991700D01*
X182369460Y-86050120D01*
X182372000Y-86062820D01*
X182300880Y-86131400D01*
X182130700Y-86121240D01*
X181945280Y-86111080D01*
X181891940Y-86182200D01*
X181955440Y-86258400D01*
X182031640Y-86255860D01*
X182206900Y-86253320D01*
X182443120Y-86291420D01*
X182463440Y-86296500D01*
X182664100Y-86334600D01*
X182783480Y-86283800D01*
X182892700Y-86113620D01*
X182892700Y-86111080D01*
X182979060Y-85935820D01*
X182979060Y-87109300D01*
X182890160Y-87053420D01*
X182608220Y-86974680D01*
X182415180Y-87000080D01*
X182295800Y-87050880D01*
X182333900Y-87068660D01*
X182410100Y-87071200D01*
X182519320Y-87096600D01*
X182476140Y-87177880D01*
X182473600Y-87180420D01*
X182384700Y-87350600D01*
X182372000Y-87434420D01*
X182354220Y-87561420D01*
X182331360Y-87586820D01*
X182189120Y-87548720D01*
X181965600Y-87449660D01*
X181711600Y-87320120D01*
X181485540Y-87188040D01*
X181333140Y-87078820D01*
X181302660Y-87040720D01*
X181206140Y-86926420D01*
X181152800Y-86908640D01*
X181015640Y-86842600D01*
X180997860Y-86824820D01*
X180997860Y-85267800D01*
X180992780Y-84818220D01*
X180944520Y-84477860D01*
X180858160Y-84264500D01*
X180754020Y-84201000D01*
X180700680Y-84259420D01*
X180685440Y-84447380D01*
X180705760Y-84729320D01*
X180743860Y-85021420D01*
X180797200Y-85331300D01*
X180858160Y-85608160D01*
X180914040Y-85811360D01*
X180957220Y-85892640D01*
X180967380Y-85816440D01*
X180982620Y-85610700D01*
X180995320Y-85318600D01*
X180997860Y-85267800D01*
X180997860Y-86824820D01*
X180822600Y-86672420D01*
X180609240Y-86436200D01*
X180406040Y-86174580D01*
X180251100Y-85923120D01*
X180207920Y-85826600D01*
X180124100Y-85471000D01*
X180098700Y-85023960D01*
X180124100Y-84538820D01*
X180200300Y-84066380D01*
X180317140Y-83662520D01*
X180449220Y-83403440D01*
X180512720Y-83339940D01*
X180578760Y-83350100D01*
X180675280Y-83454240D01*
X180817520Y-83672680D01*
X180929280Y-83858100D01*
X181122320Y-84208620D01*
X181287420Y-84569300D01*
X181396640Y-84871560D01*
X181404260Y-84904580D01*
X181465220Y-85138260D01*
X181498240Y-85219540D01*
X181513480Y-85161120D01*
X181518560Y-85064600D01*
X181533800Y-84881720D01*
X181589680Y-84833460D01*
X181688740Y-84874100D01*
X181851300Y-84912200D01*
X182153560Y-84929980D01*
X182565040Y-84932520D01*
X182829200Y-84924900D01*
X183804560Y-84889340D01*
X183753760Y-85135720D01*
X183733440Y-85328760D01*
X183769000Y-85369400D01*
X183862980Y-85255100D01*
X183984900Y-85039200D01*
X184114440Y-84808060D01*
X184183020Y-84736940D01*
X184195720Y-84825840D01*
X184150000Y-85074760D01*
X184147460Y-85090000D01*
X184094120Y-85369400D01*
X184068720Y-85620860D01*
X184066180Y-85651340D01*
X184078880Y-85806280D01*
X184155080Y-85829140D01*
X184277000Y-85778340D01*
X184426860Y-85666580D01*
X184482740Y-85483700D01*
X184487820Y-85382100D01*
X184459880Y-85150960D01*
X184396380Y-84988400D01*
X184386220Y-84978240D01*
X184327800Y-84886800D01*
X184343040Y-84866480D01*
X184520840Y-84851240D01*
X184691020Y-84891880D01*
X184917080Y-85003640D01*
X184995820Y-85049360D01*
X185237120Y-85211920D01*
X185417460Y-85382100D01*
X185470800Y-85455760D01*
X185585100Y-85651340D01*
X185646060Y-85686900D01*
X185658760Y-85559900D01*
X185638440Y-85384640D01*
X185511440Y-84950300D01*
X185285380Y-84528660D01*
X184990740Y-84157820D01*
X184658000Y-83880960D01*
X184325260Y-83736180D01*
X184109360Y-83657440D01*
X183992520Y-83558380D01*
X184002680Y-83472020D01*
X184096660Y-83482180D01*
X184294780Y-83548220D01*
X184533540Y-83647280D01*
X184790080Y-83753960D01*
X184978040Y-83820000D01*
X185054240Y-83832700D01*
X185056780Y-83731100D01*
X184993280Y-83599020D01*
X184904380Y-83522820D01*
X184896760Y-83522820D01*
X184858660Y-83576160D01*
X184876440Y-83619340D01*
X184886600Y-83677760D01*
X184838340Y-83657440D01*
X184777380Y-83555840D01*
X184787540Y-83517740D01*
X184754520Y-83433920D01*
X184617360Y-83314540D01*
X184431940Y-83197700D01*
X184246520Y-83116420D01*
X184155080Y-83098640D01*
X184005220Y-83047840D01*
X183865520Y-82951320D01*
X183812180Y-82910680D01*
X183812180Y-82633820D01*
X183766460Y-82519520D01*
X183728360Y-82506820D01*
X183682640Y-82567780D01*
X183695340Y-82633820D01*
X183756300Y-82745580D01*
X183776620Y-82760820D01*
X183807100Y-82692240D01*
X183812180Y-82633820D01*
X183812180Y-82910680D01*
X183763920Y-82875120D01*
X183756300Y-82903060D01*
X183748680Y-82966560D01*
X183606440Y-82969100D01*
X183527700Y-82958940D01*
X183273700Y-82948780D01*
X182953660Y-82979260D01*
X182793640Y-83007200D01*
X182539640Y-83055460D01*
X182366920Y-83078320D01*
X182318660Y-83073240D01*
X182349140Y-82999580D01*
X182460900Y-82859880D01*
X182465980Y-82854800D01*
X182587900Y-82699860D01*
X182577740Y-82626200D01*
X182427880Y-82623660D01*
X182209440Y-82664300D01*
X181823360Y-82796380D01*
X181488080Y-82989420D01*
X181241700Y-83220560D01*
X181129940Y-83441540D01*
X181068980Y-83614260D01*
X180995320Y-83693000D01*
X180939440Y-83654900D01*
X180929280Y-83586320D01*
X180865780Y-83464400D01*
X180718460Y-83329780D01*
X180576220Y-83235800D01*
X180484780Y-83248500D01*
X180385720Y-83383120D01*
X180352700Y-83433920D01*
X180243480Y-83667600D01*
X180134260Y-83980020D01*
X180086000Y-84157820D01*
X180012340Y-84409280D01*
X179943760Y-84579460D01*
X179903120Y-84622640D01*
X179834540Y-84556600D01*
X179832000Y-84523580D01*
X179801520Y-84465160D01*
X179781200Y-84475320D01*
X179773580Y-84579460D01*
X179804060Y-84800440D01*
X179862480Y-85097620D01*
X179938680Y-85422740D01*
X180025040Y-85732620D01*
X180108860Y-85984080D01*
X180124100Y-86024720D01*
X180190140Y-86220300D01*
X180202840Y-86337140D01*
X180197760Y-86344760D01*
X180207920Y-86443820D01*
X180291740Y-86647020D01*
X180426360Y-86916260D01*
X180596540Y-87215980D01*
X180776880Y-87510620D01*
X180947060Y-87764620D01*
X181086760Y-87939880D01*
X181119780Y-87970360D01*
X181300120Y-88102440D01*
X181419500Y-88125300D01*
X181508400Y-88074500D01*
X181597300Y-88021160D01*
X181582060Y-88066880D01*
X181576980Y-88188800D01*
X181607460Y-88219280D01*
X181686200Y-88343740D01*
X181693820Y-88394540D01*
X181622700Y-88475820D01*
X181442360Y-88519000D01*
X181213760Y-88524080D01*
X180995320Y-88493600D01*
X180845460Y-88425020D01*
X180814980Y-88384380D01*
X180733700Y-88295480D01*
X180687980Y-88300560D01*
X180616860Y-88254840D01*
X180512720Y-88087200D01*
X180413660Y-87876380D01*
X180306980Y-87642700D01*
X180225700Y-87508080D01*
X180187600Y-87492840D01*
X180202840Y-87614760D01*
X180279040Y-87833200D01*
X180370480Y-88051640D01*
X180583840Y-88519000D01*
X180296820Y-88519000D01*
X180119020Y-88506300D01*
X180025040Y-88440260D01*
X179976780Y-88272620D01*
X179956460Y-88145620D01*
X179928520Y-87835740D01*
X179923440Y-87469980D01*
X179928520Y-87297260D01*
X179933600Y-87020400D01*
X179905660Y-86870540D01*
X179875180Y-86852760D01*
X179834540Y-86870540D01*
X179806600Y-86911180D01*
X179783740Y-87010240D01*
X179760880Y-87188040D01*
X179732940Y-87482680D01*
X179702460Y-87861140D01*
X179666900Y-88171020D01*
X179623720Y-88402160D01*
X179580540Y-88513920D01*
X179570380Y-88519000D01*
X179550060Y-88435180D01*
X179534820Y-88198960D01*
X179519580Y-87823040D01*
X179506880Y-87320120D01*
X179499260Y-86710520D01*
X179494180Y-86001860D01*
X179494180Y-85471000D01*
X179494180Y-82423000D01*
X182669180Y-82423000D01*
X185844180Y-82423000D01*
X185844180Y-85140800D01*
X185844180Y-87858600D01*
X185844180Y-87858600D01*
X185844180Y-87858600D01*
G37*
X185844180Y-87858600D02*
X185582560Y-88188800D01*
X185320940Y-88519000D01*
X184650380Y-88519000D01*
X184337960Y-88508840D01*
X184101740Y-88488520D01*
X183987440Y-88458040D01*
X183979820Y-88450420D01*
X183934100Y-88336120D01*
X183852820Y-88216740D01*
X183812180Y-88165940D01*
X183812180Y-87967820D01*
X183769000Y-87924640D01*
X183725820Y-87967820D01*
X183769000Y-88011000D01*
X183812180Y-87967820D01*
X183812180Y-88165940D01*
X183769000Y-88115140D01*
X183761380Y-88145620D01*
X183809640Y-88287860D01*
X183893460Y-88524080D01*
X182872380Y-88498680D01*
X181851300Y-88475820D01*
X181691280Y-88023700D01*
X181607460Y-87769700D01*
X181584600Y-87640160D01*
X181620160Y-87609680D01*
X181663340Y-87619840D01*
X181836060Y-87655400D01*
X182072280Y-87670640D01*
X182077360Y-87670640D01*
X182300880Y-87703660D01*
X182407560Y-87820500D01*
X182412640Y-87835740D01*
X182539640Y-88011000D01*
X182737760Y-88061800D01*
X182951120Y-87975440D01*
X182979060Y-87955120D01*
X183134000Y-87858600D01*
X183354980Y-87820500D01*
X183629300Y-87823040D01*
X184071260Y-87790020D01*
X184426860Y-87655400D01*
X184673240Y-87426800D01*
X184736740Y-87302340D01*
X184845960Y-87127080D01*
X184947560Y-87050880D01*
X185054240Y-86931500D01*
X185072020Y-86728300D01*
X185000900Y-86504780D01*
X184957720Y-86438740D01*
X184856120Y-86220300D01*
X184828180Y-86062820D01*
X184792620Y-85844380D01*
X184736740Y-85725000D01*
X184691020Y-85686900D01*
X184688480Y-85798660D01*
X184708800Y-85935820D01*
X184739280Y-86144100D01*
X184718960Y-86217760D01*
X184645300Y-86189820D01*
X184612280Y-86177120D01*
X184693560Y-86255860D01*
X184716420Y-86276180D01*
X184891680Y-86512400D01*
X184899300Y-86753700D01*
X184807860Y-86893400D01*
X184807860Y-86525100D01*
X184797700Y-86514940D01*
X184749440Y-86525100D01*
X184741820Y-86570820D01*
X184772300Y-86639400D01*
X184797700Y-86626700D01*
X184807860Y-86525100D01*
X184807860Y-86893400D01*
X184741820Y-86995000D01*
X184558940Y-87139780D01*
X184231280Y-87294720D01*
X183865520Y-87370920D01*
X183642000Y-87368380D01*
X183642000Y-87205820D01*
X183642000Y-86913720D01*
X183570880Y-86840060D01*
X183471820Y-86824820D01*
X183324500Y-86868000D01*
X183321960Y-86974680D01*
X183365140Y-87028020D01*
X183441340Y-87028020D01*
X183456580Y-86997540D01*
X183535320Y-86944200D01*
X183563260Y-86956900D01*
X183636920Y-86941660D01*
X183642000Y-86913720D01*
X183642000Y-87205820D01*
X183598820Y-87162640D01*
X183558180Y-87205820D01*
X183598820Y-87249000D01*
X183642000Y-87205820D01*
X183642000Y-87368380D01*
X183512460Y-87368380D01*
X183233060Y-87282020D01*
X183159400Y-87228680D01*
X182979060Y-87109300D01*
X182979060Y-85935820D01*
X182976520Y-85852000D01*
X182874920Y-85806280D01*
X182852060Y-85801200D01*
X182613300Y-85750400D01*
X182323740Y-85712300D01*
X182021480Y-85684360D01*
X181752240Y-85674200D01*
X181556660Y-85681820D01*
X181477920Y-85709760D01*
X181477920Y-85717380D01*
X181604920Y-85801200D01*
X181653180Y-85808820D01*
X181737000Y-85864700D01*
X181731920Y-85915500D01*
X181752240Y-85984080D01*
X181897020Y-86001860D01*
X182031640Y-85991700D01*
X182275480Y-85991700D01*
X182369460Y-86050120D01*
X182372000Y-86062820D01*
X182300880Y-86131400D01*
X182130700Y-86121240D01*
X181945280Y-86111080D01*
X181891940Y-86182200D01*
X181955440Y-86258400D01*
X182031640Y-86255860D01*
X182206900Y-86253320D01*
X182443120Y-86291420D01*
X182463440Y-86296500D01*
X182664100Y-86334600D01*
X182783480Y-86283800D01*
X182892700Y-86113620D01*
X182892700Y-86111080D01*
X182979060Y-85935820D01*
X182979060Y-87109300D01*
X182890160Y-87053420D01*
X182608220Y-86974680D01*
X182415180Y-87000080D01*
X182295800Y-87050880D01*
X182333900Y-87068660D01*
X182410100Y-87071200D01*
X182519320Y-87096600D01*
X182476140Y-87177880D01*
X182473600Y-87180420D01*
X182384700Y-87350600D01*
X182372000Y-87434420D01*
X182354220Y-87561420D01*
X182331360Y-87586820D01*
X182189120Y-87548720D01*
X181965600Y-87449660D01*
X181711600Y-87320120D01*
X181485540Y-87188040D01*
X181333140Y-87078820D01*
X181302660Y-87040720D01*
X181206140Y-86926420D01*
X181152800Y-86908640D01*
X181015640Y-86842600D01*
X180997860Y-86824820D01*
X180997860Y-85267800D01*
X180992780Y-84818220D01*
X180944520Y-84477860D01*
X180858160Y-84264500D01*
X180754020Y-84201000D01*
X180700680Y-84259420D01*
X180685440Y-84447380D01*
X180705760Y-84729320D01*
X180743860Y-85021420D01*
X180797200Y-85331300D01*
X180858160Y-85608160D01*
X180914040Y-85811360D01*
X180957220Y-85892640D01*
X180967380Y-85816440D01*
X180982620Y-85610700D01*
X180995320Y-85318600D01*
X180997860Y-85267800D01*
X180997860Y-86824820D01*
X180822600Y-86672420D01*
X180609240Y-86436200D01*
X180406040Y-86174580D01*
X180251100Y-85923120D01*
X180207920Y-85826600D01*
X180124100Y-85471000D01*
X180098700Y-85023960D01*
X180124100Y-84538820D01*
X180200300Y-84066380D01*
X180317140Y-83662520D01*
X180449220Y-83403440D01*
X180512720Y-83339940D01*
X180578760Y-83350100D01*
X180675280Y-83454240D01*
X180817520Y-83672680D01*
X180929280Y-83858100D01*
X181122320Y-84208620D01*
X181287420Y-84569300D01*
X181396640Y-84871560D01*
X181404260Y-84904580D01*
X181465220Y-85138260D01*
X181498240Y-85219540D01*
X181513480Y-85161120D01*
X181518560Y-85064600D01*
X181533800Y-84881720D01*
X181589680Y-84833460D01*
X181688740Y-84874100D01*
X181851300Y-84912200D01*
X182153560Y-84929980D01*
X182565040Y-84932520D01*
X182829200Y-84924900D01*
X183804560Y-84889340D01*
X183753760Y-85135720D01*
X183733440Y-85328760D01*
X183769000Y-85369400D01*
X183862980Y-85255100D01*
X183984900Y-85039200D01*
X184114440Y-84808060D01*
X184183020Y-84736940D01*
X184195720Y-84825840D01*
X184150000Y-85074760D01*
X184147460Y-85090000D01*
X184094120Y-85369400D01*
X184068720Y-85620860D01*
X184066180Y-85651340D01*
X184078880Y-85806280D01*
X184155080Y-85829140D01*
X184277000Y-85778340D01*
X184426860Y-85666580D01*
X184482740Y-85483700D01*
X184487820Y-85382100D01*
X184459880Y-85150960D01*
X184396380Y-84988400D01*
X184386220Y-84978240D01*
X184327800Y-84886800D01*
X184343040Y-84866480D01*
X184520840Y-84851240D01*
X184691020Y-84891880D01*
X184917080Y-85003640D01*
X184995820Y-85049360D01*
X185237120Y-85211920D01*
X185417460Y-85382100D01*
X185470800Y-85455760D01*
X185585100Y-85651340D01*
X185646060Y-85686900D01*
X185658760Y-85559900D01*
X185638440Y-85384640D01*
X185511440Y-84950300D01*
X185285380Y-84528660D01*
X184990740Y-84157820D01*
X184658000Y-83880960D01*
X184325260Y-83736180D01*
X184109360Y-83657440D01*
X183992520Y-83558380D01*
X184002680Y-83472020D01*
X184096660Y-83482180D01*
X184294780Y-83548220D01*
X184533540Y-83647280D01*
X184790080Y-83753960D01*
X184978040Y-83820000D01*
X185054240Y-83832700D01*
X185056780Y-83731100D01*
X184993280Y-83599020D01*
X184904380Y-83522820D01*
X184896760Y-83522820D01*
X184858660Y-83576160D01*
X184876440Y-83619340D01*
X184886600Y-83677760D01*
X184838340Y-83657440D01*
X184777380Y-83555840D01*
X184787540Y-83517740D01*
X184754520Y-83433920D01*
X184617360Y-83314540D01*
X184431940Y-83197700D01*
X184246520Y-83116420D01*
X184155080Y-83098640D01*
X184005220Y-83047840D01*
X183865520Y-82951320D01*
X183812180Y-82910680D01*
X183812180Y-82633820D01*
X183766460Y-82519520D01*
X183728360Y-82506820D01*
X183682640Y-82567780D01*
X183695340Y-82633820D01*
X183756300Y-82745580D01*
X183776620Y-82760820D01*
X183807100Y-82692240D01*
X183812180Y-82633820D01*
X183812180Y-82910680D01*
X183763920Y-82875120D01*
X183756300Y-82903060D01*
X183748680Y-82966560D01*
X183606440Y-82969100D01*
X183527700Y-82958940D01*
X183273700Y-82948780D01*
X182953660Y-82979260D01*
X182793640Y-83007200D01*
X182539640Y-83055460D01*
X182366920Y-83078320D01*
X182318660Y-83073240D01*
X182349140Y-82999580D01*
X182460900Y-82859880D01*
X182465980Y-82854800D01*
X182587900Y-82699860D01*
X182577740Y-82626200D01*
X182427880Y-82623660D01*
X182209440Y-82664300D01*
X181823360Y-82796380D01*
X181488080Y-82989420D01*
X181241700Y-83220560D01*
X181129940Y-83441540D01*
X181068980Y-83614260D01*
X180995320Y-83693000D01*
X180939440Y-83654900D01*
X180929280Y-83586320D01*
X180865780Y-83464400D01*
X180718460Y-83329780D01*
X180576220Y-83235800D01*
X180484780Y-83248500D01*
X180385720Y-83383120D01*
X180352700Y-83433920D01*
X180243480Y-83667600D01*
X180134260Y-83980020D01*
X180086000Y-84157820D01*
X180012340Y-84409280D01*
X179943760Y-84579460D01*
X179903120Y-84622640D01*
X179834540Y-84556600D01*
X179832000Y-84523580D01*
X179801520Y-84465160D01*
X179781200Y-84475320D01*
X179773580Y-84579460D01*
X179804060Y-84800440D01*
X179862480Y-85097620D01*
X179938680Y-85422740D01*
X180025040Y-85732620D01*
X180108860Y-85984080D01*
X180124100Y-86024720D01*
X180190140Y-86220300D01*
X180202840Y-86337140D01*
X180197760Y-86344760D01*
X180207920Y-86443820D01*
X180291740Y-86647020D01*
X180426360Y-86916260D01*
X180596540Y-87215980D01*
X180776880Y-87510620D01*
X180947060Y-87764620D01*
X181086760Y-87939880D01*
X181119780Y-87970360D01*
X181300120Y-88102440D01*
X181419500Y-88125300D01*
X181508400Y-88074500D01*
X181597300Y-88021160D01*
X181582060Y-88066880D01*
X181576980Y-88188800D01*
X181607460Y-88219280D01*
X181686200Y-88343740D01*
X181693820Y-88394540D01*
X181622700Y-88475820D01*
X181442360Y-88519000D01*
X181213760Y-88524080D01*
X180995320Y-88493600D01*
X180845460Y-88425020D01*
X180814980Y-88384380D01*
X180733700Y-88295480D01*
X180687980Y-88300560D01*
X180616860Y-88254840D01*
X180512720Y-88087200D01*
X180413660Y-87876380D01*
X180306980Y-87642700D01*
X180225700Y-87508080D01*
X180187600Y-87492840D01*
X180202840Y-87614760D01*
X180279040Y-87833200D01*
X180370480Y-88051640D01*
X180583840Y-88519000D01*
X180296820Y-88519000D01*
X180119020Y-88506300D01*
X180025040Y-88440260D01*
X179976780Y-88272620D01*
X179956460Y-88145620D01*
X179928520Y-87835740D01*
X179923440Y-87469980D01*
X179928520Y-87297260D01*
X179933600Y-87020400D01*
X179905660Y-86870540D01*
X179875180Y-86852760D01*
X179834540Y-86870540D01*
X179806600Y-86911180D01*
X179783740Y-87010240D01*
X179760880Y-87188040D01*
X179732940Y-87482680D01*
X179702460Y-87861140D01*
X179666900Y-88171020D01*
X179623720Y-88402160D01*
X179580540Y-88513920D01*
X179570380Y-88519000D01*
X179550060Y-88435180D01*
X179534820Y-88198960D01*
X179519580Y-87823040D01*
X179506880Y-87320120D01*
X179499260Y-86710520D01*
X179494180Y-86001860D01*
X179494180Y-85471000D01*
X179494180Y-82423000D01*
X182669180Y-82423000D01*
X185844180Y-82423000D01*
X185844180Y-85140800D01*
X185844180Y-87858600D01*
X185844180Y-87858600D01*
G36*
X185841640Y-88242140D02*
X185821320Y-88437720D01*
X185737500Y-88511380D01*
X185671460Y-88519000D01*
X185552080Y-88491060D01*
X185572400Y-88389460D01*
X185582560Y-88369140D01*
X185722260Y-88138000D01*
X185798460Y-88051640D01*
X185834020Y-88097360D01*
X185841640Y-88242140D01*
X185841640Y-88242140D01*
X185841640Y-88242140D01*
G37*
X185841640Y-88242140D02*
X185821320Y-88437720D01*
X185737500Y-88511380D01*
X185671460Y-88519000D01*
X185552080Y-88491060D01*
X185572400Y-88389460D01*
X185582560Y-88369140D01*
X185722260Y-88138000D01*
X185798460Y-88051640D01*
X185834020Y-88097360D01*
X185841640Y-88242140D01*
X185841640Y-88242140D01*
G36*
X183014620Y-87810340D02*
X183001920Y-87845900D01*
X182877460Y-87922100D01*
X182722520Y-87873840D01*
X182628540Y-87762080D01*
X182554880Y-87538560D01*
X182552340Y-87330280D01*
X182618380Y-87210900D01*
X182661560Y-87241380D01*
X182653940Y-87353140D01*
X182615840Y-87543640D01*
X182730140Y-87350600D01*
X182844440Y-87221060D01*
X182920640Y-87243920D01*
X182925720Y-87403940D01*
X182913020Y-87462360D01*
X182910480Y-87632540D01*
X182958740Y-87711280D01*
X183014620Y-87810340D01*
X183014620Y-87810340D01*
X183014620Y-87810340D01*
G37*
X183014620Y-87810340D02*
X183001920Y-87845900D01*
X182877460Y-87922100D01*
X182722520Y-87873840D01*
X182628540Y-87762080D01*
X182554880Y-87538560D01*
X182552340Y-87330280D01*
X182618380Y-87210900D01*
X182661560Y-87241380D01*
X182653940Y-87353140D01*
X182615840Y-87543640D01*
X182730140Y-87350600D01*
X182844440Y-87221060D01*
X182920640Y-87243920D01*
X182925720Y-87403940D01*
X182913020Y-87462360D01*
X182910480Y-87632540D01*
X182958740Y-87711280D01*
X183014620Y-87810340D01*
X183014620Y-87810340D01*
G36*
X181526180Y-87797640D02*
X181483000Y-87840820D01*
X181439820Y-87797640D01*
X181483000Y-87757000D01*
X181526180Y-87797640D01*
X181526180Y-87797640D01*
X181526180Y-87797640D01*
G37*
X181526180Y-87797640D02*
X181483000Y-87840820D01*
X181439820Y-87797640D01*
X181483000Y-87757000D01*
X181526180Y-87797640D01*
X181526180Y-87797640D01*
G36*
X184205880Y-87520780D02*
X184203340Y-87551260D01*
X184111900Y-87627460D01*
X183845200Y-87739220D01*
X183540400Y-87721440D01*
X183515000Y-87713820D01*
X183375300Y-87675720D01*
X183184800Y-87632540D01*
X183022240Y-87569040D01*
X183024780Y-87492840D01*
X183024780Y-87490300D01*
X183174640Y-87449660D01*
X183456580Y-87497920D01*
X183471820Y-87503000D01*
X183751220Y-87551260D01*
X184002680Y-87556340D01*
X184056020Y-87548720D01*
X184205880Y-87520780D01*
X184205880Y-87520780D01*
X184205880Y-87520780D01*
G37*
X184205880Y-87520780D02*
X184203340Y-87551260D01*
X184111900Y-87627460D01*
X183845200Y-87739220D01*
X183540400Y-87721440D01*
X183515000Y-87713820D01*
X183375300Y-87675720D01*
X183184800Y-87632540D01*
X183022240Y-87569040D01*
X183024780Y-87492840D01*
X183024780Y-87490300D01*
X183174640Y-87449660D01*
X183456580Y-87497920D01*
X183471820Y-87503000D01*
X183751220Y-87551260D01*
X184002680Y-87556340D01*
X184056020Y-87548720D01*
X184205880Y-87520780D01*
X184205880Y-87520780D01*
G36*
X181010560Y-87536020D02*
X180990240Y-87586820D01*
X180980080Y-87586820D01*
X180908960Y-87525860D01*
X180881020Y-87487760D01*
X180870860Y-87431880D01*
X180919120Y-87452200D01*
X181010560Y-87536020D01*
X181010560Y-87536020D01*
X181010560Y-87536020D01*
G37*
X181010560Y-87536020D02*
X180990240Y-87586820D01*
X180980080Y-87586820D01*
X180908960Y-87525860D01*
X180881020Y-87487760D01*
X180870860Y-87431880D01*
X180919120Y-87452200D01*
X181010560Y-87536020D01*
X181010560Y-87536020D01*
G36*
X180677820Y-86951820D02*
X180637180Y-86995000D01*
X180594000Y-86951820D01*
X180637180Y-86908640D01*
X180677820Y-86951820D01*
X180677820Y-86951820D01*
X180677820Y-86951820D01*
G37*
X180677820Y-86951820D02*
X180637180Y-86995000D01*
X180594000Y-86951820D01*
X180637180Y-86908640D01*
X180677820Y-86951820D01*
X180677820Y-86951820D01*
G36*
X180510180Y-86697820D02*
X180467000Y-86741000D01*
X180423820Y-86697820D01*
X180467000Y-86654640D01*
X180510180Y-86697820D01*
X180510180Y-86697820D01*
X180510180Y-86697820D01*
G37*
X180510180Y-86697820D02*
X180467000Y-86741000D01*
X180423820Y-86697820D01*
X180467000Y-86654640D01*
X180510180Y-86697820D01*
X180510180Y-86697820D01*
G36*
X185336180Y-84836000D02*
X185293000Y-84876640D01*
X185249820Y-84836000D01*
X185293000Y-84792820D01*
X185336180Y-84836000D01*
X185336180Y-84836000D01*
X185336180Y-84836000D01*
G37*
X185336180Y-84836000D02*
X185293000Y-84876640D01*
X185249820Y-84836000D01*
X185293000Y-84792820D01*
X185336180Y-84836000D01*
X185336180Y-84836000D01*
G36*
X182511700Y-84668360D02*
X182402480Y-84681060D01*
X182245000Y-84683600D01*
X182051960Y-84675980D01*
X181996080Y-84660740D01*
X182054500Y-84648040D01*
X182305960Y-84632800D01*
X182478680Y-84648040D01*
X182511700Y-84668360D01*
X182511700Y-84668360D01*
X182511700Y-84668360D01*
G37*
X182511700Y-84668360D02*
X182402480Y-84681060D01*
X182245000Y-84683600D01*
X182051960Y-84675980D01*
X181996080Y-84660740D01*
X182054500Y-84648040D01*
X182305960Y-84632800D01*
X182478680Y-84648040D01*
X182511700Y-84668360D01*
X182511700Y-84668360D01*
G36*
X184995820Y-84670900D02*
X184955180Y-84706460D01*
X184871360Y-84627720D01*
X184861200Y-84609940D01*
X184851040Y-84551520D01*
X184899300Y-84571840D01*
X184988200Y-84650580D01*
X184995820Y-84670900D01*
X184995820Y-84670900D01*
X184995820Y-84670900D01*
G37*
X184995820Y-84670900D02*
X184955180Y-84706460D01*
X184871360Y-84627720D01*
X184861200Y-84609940D01*
X184851040Y-84551520D01*
X184899300Y-84571840D01*
X184988200Y-84650580D01*
X184995820Y-84670900D01*
X184995820Y-84670900D01*
G36*
X181610000Y-84582000D02*
X181566820Y-84622640D01*
X181526180Y-84582000D01*
X181566820Y-84538820D01*
X181610000Y-84582000D01*
X181610000Y-84582000D01*
X181610000Y-84582000D01*
G37*
X181610000Y-84582000D02*
X181566820Y-84622640D01*
X181526180Y-84582000D01*
X181566820Y-84538820D01*
X181610000Y-84582000D01*
X181610000Y-84582000D01*
G36*
X182796180Y-84582000D02*
X182753000Y-84622640D01*
X182709820Y-84582000D01*
X182753000Y-84538820D01*
X182796180Y-84582000D01*
X182796180Y-84582000D01*
X182796180Y-84582000D01*
G37*
X182796180Y-84582000D02*
X182753000Y-84622640D01*
X182709820Y-84582000D01*
X182753000Y-84538820D01*
X182796180Y-84582000D01*
X182796180Y-84582000D01*
G36*
X183334660Y-84597240D02*
X183217820Y-84609940D01*
X183098440Y-84597240D01*
X183113680Y-84566760D01*
X183286400Y-84556600D01*
X183324500Y-84566760D01*
X183334660Y-84597240D01*
X183334660Y-84597240D01*
X183334660Y-84597240D01*
G37*
X183334660Y-84597240D02*
X183217820Y-84609940D01*
X183098440Y-84597240D01*
X183113680Y-84566760D01*
X183286400Y-84556600D01*
X183324500Y-84566760D01*
X183334660Y-84597240D01*
X183334660Y-84597240D01*
G36*
X183799480Y-84490560D02*
X183779160Y-84533740D01*
X183730900Y-84538820D01*
X183616600Y-84477860D01*
X183598820Y-84455000D01*
X183614060Y-84406740D01*
X183680100Y-84421980D01*
X183799480Y-84490560D01*
X183799480Y-84490560D01*
X183799480Y-84490560D01*
G37*
X183799480Y-84490560D02*
X183779160Y-84533740D01*
X183730900Y-84538820D01*
X183616600Y-84477860D01*
X183598820Y-84455000D01*
X183614060Y-84406740D01*
X183680100Y-84421980D01*
X183799480Y-84490560D01*
X183799480Y-84490560D01*
G36*
X184741820Y-84495640D02*
X184701180Y-84538820D01*
X184658000Y-84495640D01*
X184701180Y-84455000D01*
X184741820Y-84495640D01*
X184741820Y-84495640D01*
X184741820Y-84495640D01*
G37*
X184741820Y-84495640D02*
X184701180Y-84538820D01*
X184658000Y-84495640D01*
X184701180Y-84455000D01*
X184741820Y-84495640D01*
X184741820Y-84495640D01*
G36*
X181518560Y-84373720D02*
X181508400Y-84414360D01*
X181444900Y-84388960D01*
X181404260Y-84310220D01*
X181376320Y-84211160D01*
X181439820Y-84251800D01*
X181449980Y-84261960D01*
X181518560Y-84373720D01*
X181518560Y-84373720D01*
X181518560Y-84373720D01*
G37*
X181518560Y-84373720D02*
X181508400Y-84414360D01*
X181444900Y-84388960D01*
X181404260Y-84310220D01*
X181376320Y-84211160D01*
X181439820Y-84251800D01*
X181449980Y-84261960D01*
X181518560Y-84373720D01*
X181518560Y-84373720D01*
G36*
X183471820Y-84328000D02*
X183431180Y-84368640D01*
X183388000Y-84328000D01*
X183431180Y-84284820D01*
X183471820Y-84328000D01*
X183471820Y-84328000D01*
X183471820Y-84328000D01*
G37*
X183471820Y-84328000D02*
X183431180Y-84368640D01*
X183388000Y-84328000D01*
X183431180Y-84284820D01*
X183471820Y-84328000D01*
X183471820Y-84328000D01*
G36*
X183979820Y-84241640D02*
X183939180Y-84284820D01*
X183896000Y-84241640D01*
X183939180Y-84201000D01*
X183979820Y-84241640D01*
X183979820Y-84241640D01*
X183979820Y-84241640D01*
G37*
X183979820Y-84241640D02*
X183939180Y-84284820D01*
X183896000Y-84241640D01*
X183939180Y-84201000D01*
X183979820Y-84241640D01*
X183979820Y-84241640D01*
G36*
X183786780Y-84147660D02*
X183763920Y-84188300D01*
X183677560Y-84193380D01*
X183586120Y-84173060D01*
X183626760Y-84142580D01*
X183758840Y-84132420D01*
X183786780Y-84147660D01*
X183786780Y-84147660D01*
X183786780Y-84147660D01*
G37*
X183786780Y-84147660D02*
X183763920Y-84188300D01*
X183677560Y-84193380D01*
X183586120Y-84173060D01*
X183626760Y-84142580D01*
X183758840Y-84132420D01*
X183786780Y-84147660D01*
X183786780Y-84147660D01*
G36*
X182118000Y-83141820D02*
X182074820Y-83185000D01*
X182034180Y-83141820D01*
X182074820Y-83098640D01*
X182118000Y-83141820D01*
X182118000Y-83141820D01*
X182118000Y-83141820D01*
G37*
X182118000Y-83141820D02*
X182074820Y-83185000D01*
X182034180Y-83141820D01*
X182074820Y-83098640D01*
X182118000Y-83141820D01*
X182118000Y-83141820D01*
G36*
X183868060Y-83126580D02*
X183855360Y-83177380D01*
X183812180Y-83185000D01*
X183741060Y-83151980D01*
X183753760Y-83126580D01*
X183855360Y-83116420D01*
X183868060Y-83126580D01*
X183868060Y-83126580D01*
X183868060Y-83126580D01*
G37*
X183868060Y-83126580D02*
X183855360Y-83177380D01*
X183812180Y-83185000D01*
X183741060Y-83151980D01*
X183753760Y-83126580D01*
X183855360Y-83116420D01*
X183868060Y-83126580D01*
X183868060Y-83126580D01*
G36*
X181836060Y-82984340D02*
X181820820Y-83014820D01*
X181742080Y-83096100D01*
X181726840Y-83098640D01*
X181721760Y-83045300D01*
X181737000Y-83014820D01*
X181815740Y-82933540D01*
X181830980Y-82931000D01*
X181836060Y-82984340D01*
X181836060Y-82984340D01*
X181836060Y-82984340D01*
G37*
X181836060Y-82984340D02*
X181820820Y-83014820D01*
X181742080Y-83096100D01*
X181726840Y-83098640D01*
X181721760Y-83045300D01*
X181737000Y-83014820D01*
X181815740Y-82933540D01*
X181830980Y-82931000D01*
X181836060Y-82984340D01*
X181836060Y-82984340D01*
G36*
X180924200Y-85006180D02*
X180916580Y-85140800D01*
X180888640Y-85191600D01*
X180853080Y-85082380D01*
X180820060Y-84889340D01*
X180789580Y-84630260D01*
X180784500Y-84447380D01*
X180794660Y-84394040D01*
X180837840Y-84429600D01*
X180878480Y-84579460D01*
X180908960Y-84790280D01*
X180924200Y-85006180D01*
X180924200Y-85006180D01*
X180924200Y-85006180D01*
G37*
X180924200Y-85006180D02*
X180916580Y-85140800D01*
X180888640Y-85191600D01*
X180853080Y-85082380D01*
X180820060Y-84889340D01*
X180789580Y-84630260D01*
X180784500Y-84447380D01*
X180794660Y-84394040D01*
X180837840Y-84429600D01*
X180878480Y-84579460D01*
X180908960Y-84790280D01*
X180924200Y-85006180D01*
X180924200Y-85006180D01*
D10*
X145962001Y-84451000D02*
X145928667Y-84484333D01*
X145828667Y-84517667D01*
X145762001Y-84517667D01*
X145662001Y-84484333D01*
X145595334Y-84417667D01*
X145562001Y-84351000D01*
X145528667Y-84217667D01*
X145528667Y-84117667D01*
X145562001Y-83984333D01*
X145595334Y-83917667D01*
X145662001Y-83851000D01*
X145762001Y-83817667D01*
X145828667Y-83817667D01*
X145928667Y-83851000D01*
X145962001Y-83884333D01*
X146395334Y-83817667D02*
X146528667Y-83817667D01*
X146595334Y-83851000D01*
X146662001Y-83917667D01*
X146695334Y-84051000D01*
X146695334Y-84284333D01*
X146662001Y-84417667D01*
X146595334Y-84484333D01*
X146528667Y-84517667D01*
X146395334Y-84517667D01*
X146328667Y-84484333D01*
X146262001Y-84417667D01*
X146228667Y-84284333D01*
X146228667Y-84051000D01*
X146262001Y-83917667D01*
X146328667Y-83851000D01*
X146395334Y-83817667D01*
X146995334Y-84517667D02*
X146995334Y-83817667D01*
X147395334Y-84517667D01*
X147395334Y-83817667D01*
X148095333Y-84517667D02*
X147695333Y-84517667D01*
X147895333Y-84517667D02*
X147895333Y-83817667D01*
X147828667Y-83917667D01*
X147762000Y-83984333D01*
X147695333Y-84017667D01*
X172222334Y-100326000D02*
X172189000Y-100359333D01*
X172089000Y-100392667D01*
X172022334Y-100392667D01*
X171922334Y-100359333D01*
X171855667Y-100292667D01*
X171822334Y-100226000D01*
X171789000Y-100092667D01*
X171789000Y-99992667D01*
X171822334Y-99859333D01*
X171855667Y-99792667D01*
X171922334Y-99726000D01*
X172022334Y-99692667D01*
X172089000Y-99692667D01*
X172189000Y-99726000D01*
X172222334Y-99759333D01*
X172889000Y-100392667D02*
X172489000Y-100392667D01*
X172689000Y-100392667D02*
X172689000Y-99692667D01*
X172622334Y-99792667D01*
X172555667Y-99859333D01*
X172489000Y-99892667D01*
X167269334Y-99564000D02*
X167236000Y-99597333D01*
X167136000Y-99630667D01*
X167069334Y-99630667D01*
X166969334Y-99597333D01*
X166902667Y-99530667D01*
X166869334Y-99464000D01*
X166836000Y-99330667D01*
X166836000Y-99230667D01*
X166869334Y-99097333D01*
X166902667Y-99030667D01*
X166969334Y-98964000D01*
X167069334Y-98930667D01*
X167136000Y-98930667D01*
X167236000Y-98964000D01*
X167269334Y-98997333D01*
X167536000Y-98997333D02*
X167569334Y-98964000D01*
X167636000Y-98930667D01*
X167802667Y-98930667D01*
X167869334Y-98964000D01*
X167902667Y-98997333D01*
X167936000Y-99064000D01*
X167936000Y-99130667D01*
X167902667Y-99230667D01*
X167502667Y-99630667D01*
X167936000Y-99630667D01*
X174889334Y-88896000D02*
X174856000Y-88929333D01*
X174756000Y-88962667D01*
X174689334Y-88962667D01*
X174589334Y-88929333D01*
X174522667Y-88862667D01*
X174489334Y-88796000D01*
X174456000Y-88662667D01*
X174456000Y-88562667D01*
X174489334Y-88429333D01*
X174522667Y-88362667D01*
X174589334Y-88296000D01*
X174689334Y-88262667D01*
X174756000Y-88262667D01*
X174856000Y-88296000D01*
X174889334Y-88329333D01*
X175122667Y-88262667D02*
X175556000Y-88262667D01*
X175322667Y-88529333D01*
X175422667Y-88529333D01*
X175489334Y-88562667D01*
X175522667Y-88596000D01*
X175556000Y-88662667D01*
X175556000Y-88829333D01*
X175522667Y-88896000D01*
X175489334Y-88929333D01*
X175422667Y-88962667D01*
X175222667Y-88962667D01*
X175156000Y-88929333D01*
X175122667Y-88896000D01*
X160157334Y-82927000D02*
X160124000Y-82960333D01*
X160024000Y-82993667D01*
X159957334Y-82993667D01*
X159857334Y-82960333D01*
X159790667Y-82893667D01*
X159757334Y-82827000D01*
X159724000Y-82693667D01*
X159724000Y-82593667D01*
X159757334Y-82460333D01*
X159790667Y-82393667D01*
X159857334Y-82327000D01*
X159957334Y-82293667D01*
X160024000Y-82293667D01*
X160124000Y-82327000D01*
X160157334Y-82360333D01*
X160757334Y-82527000D02*
X160757334Y-82993667D01*
X160590667Y-82260333D02*
X160424000Y-82760333D01*
X160857334Y-82760333D01*
X158379334Y-96516000D02*
X158346000Y-96549333D01*
X158246000Y-96582667D01*
X158179334Y-96582667D01*
X158079334Y-96549333D01*
X158012667Y-96482667D01*
X157979334Y-96416000D01*
X157946000Y-96282667D01*
X157946000Y-96182667D01*
X157979334Y-96049333D01*
X158012667Y-95982667D01*
X158079334Y-95916000D01*
X158179334Y-95882667D01*
X158246000Y-95882667D01*
X158346000Y-95916000D01*
X158379334Y-95949333D01*
X159012667Y-95882667D02*
X158679334Y-95882667D01*
X158646000Y-96216000D01*
X158679334Y-96182667D01*
X158746000Y-96149333D01*
X158912667Y-96149333D01*
X158979334Y-96182667D01*
X159012667Y-96216000D01*
X159046000Y-96282667D01*
X159046000Y-96449333D01*
X159012667Y-96516000D01*
X158979334Y-96549333D01*
X158912667Y-96582667D01*
X158746000Y-96582667D01*
X158679334Y-96549333D01*
X158646000Y-96516000D01*
X156728334Y-96516000D02*
X156695000Y-96549333D01*
X156595000Y-96582667D01*
X156528334Y-96582667D01*
X156428334Y-96549333D01*
X156361667Y-96482667D01*
X156328334Y-96416000D01*
X156295000Y-96282667D01*
X156295000Y-96182667D01*
X156328334Y-96049333D01*
X156361667Y-95982667D01*
X156428334Y-95916000D01*
X156528334Y-95882667D01*
X156595000Y-95882667D01*
X156695000Y-95916000D01*
X156728334Y-95949333D01*
X157328334Y-95882667D02*
X157195000Y-95882667D01*
X157128334Y-95916000D01*
X157095000Y-95949333D01*
X157028334Y-96049333D01*
X156995000Y-96182667D01*
X156995000Y-96449333D01*
X157028334Y-96516000D01*
X157061667Y-96549333D01*
X157128334Y-96582667D01*
X157261667Y-96582667D01*
X157328334Y-96549333D01*
X157361667Y-96516000D01*
X157395000Y-96449333D01*
X157395000Y-96282667D01*
X157361667Y-96216000D01*
X157328334Y-96182667D01*
X157261667Y-96149333D01*
X157128334Y-96149333D01*
X157061667Y-96182667D01*
X157028334Y-96216000D01*
X156995000Y-96282667D01*
X154950334Y-87880000D02*
X154917000Y-87913333D01*
X154817000Y-87946667D01*
X154750334Y-87946667D01*
X154650334Y-87913333D01*
X154583667Y-87846667D01*
X154550334Y-87780000D01*
X154517000Y-87646667D01*
X154517000Y-87546667D01*
X154550334Y-87413333D01*
X154583667Y-87346667D01*
X154650334Y-87280000D01*
X154750334Y-87246667D01*
X154817000Y-87246667D01*
X154917000Y-87280000D01*
X154950334Y-87313333D01*
X155183667Y-87246667D02*
X155650334Y-87246667D01*
X155350334Y-87946667D01*
X152410334Y-82546000D02*
X152377000Y-82579333D01*
X152277000Y-82612667D01*
X152210334Y-82612667D01*
X152110334Y-82579333D01*
X152043667Y-82512667D01*
X152010334Y-82446000D01*
X151977000Y-82312667D01*
X151977000Y-82212667D01*
X152010334Y-82079333D01*
X152043667Y-82012667D01*
X152110334Y-81946000D01*
X152210334Y-81912667D01*
X152277000Y-81912667D01*
X152377000Y-81946000D01*
X152410334Y-81979333D01*
X152810334Y-82212667D02*
X152743667Y-82179333D01*
X152710334Y-82146000D01*
X152677000Y-82079333D01*
X152677000Y-82046000D01*
X152710334Y-81979333D01*
X152743667Y-81946000D01*
X152810334Y-81912667D01*
X152943667Y-81912667D01*
X153010334Y-81946000D01*
X153043667Y-81979333D01*
X153077000Y-82046000D01*
X153077000Y-82079333D01*
X153043667Y-82146000D01*
X153010334Y-82179333D01*
X152943667Y-82212667D01*
X152810334Y-82212667D01*
X152743667Y-82246000D01*
X152710334Y-82279333D01*
X152677000Y-82346000D01*
X152677000Y-82479333D01*
X152710334Y-82546000D01*
X152743667Y-82579333D01*
X152810334Y-82612667D01*
X152943667Y-82612667D01*
X153010334Y-82579333D01*
X153043667Y-82546000D01*
X153077000Y-82479333D01*
X153077000Y-82346000D01*
X153043667Y-82279333D01*
X153010334Y-82246000D01*
X152943667Y-82212667D01*
X154061334Y-80133000D02*
X154028000Y-80166333D01*
X153928000Y-80199667D01*
X153861334Y-80199667D01*
X153761334Y-80166333D01*
X153694667Y-80099667D01*
X153661334Y-80033000D01*
X153628000Y-79899667D01*
X153628000Y-79799667D01*
X153661334Y-79666333D01*
X153694667Y-79599667D01*
X153761334Y-79533000D01*
X153861334Y-79499667D01*
X153928000Y-79499667D01*
X154028000Y-79533000D01*
X154061334Y-79566333D01*
X154394667Y-80199667D02*
X154528000Y-80199667D01*
X154594667Y-80166333D01*
X154628000Y-80133000D01*
X154694667Y-80033000D01*
X154728000Y-79899667D01*
X154728000Y-79633000D01*
X154694667Y-79566333D01*
X154661334Y-79533000D01*
X154594667Y-79499667D01*
X154461334Y-79499667D01*
X154394667Y-79533000D01*
X154361334Y-79566333D01*
X154328000Y-79633000D01*
X154328000Y-79799667D01*
X154361334Y-79866333D01*
X154394667Y-79899667D01*
X154461334Y-79933000D01*
X154594667Y-79933000D01*
X154661334Y-79899667D01*
X154694667Y-79866333D01*
X154728000Y-79799667D01*
X147184334Y-102297667D02*
X147184334Y-101597667D01*
X147451000Y-101597667D01*
X147517667Y-101631000D01*
X147551000Y-101664333D01*
X147584334Y-101731000D01*
X147584334Y-101831000D01*
X147551000Y-101897667D01*
X147517667Y-101931000D01*
X147451000Y-101964333D01*
X147184334Y-101964333D01*
X148251000Y-102297667D02*
X147851000Y-102297667D01*
X148051000Y-102297667D02*
X148051000Y-101597667D01*
X147984334Y-101697667D01*
X147917667Y-101764333D01*
X147851000Y-101797667D01*
X164983334Y-99757667D02*
X164750000Y-99424333D01*
X164583334Y-99757667D02*
X164583334Y-99057667D01*
X164850000Y-99057667D01*
X164916667Y-99091000D01*
X164950000Y-99124333D01*
X164983334Y-99191000D01*
X164983334Y-99291000D01*
X164950000Y-99357667D01*
X164916667Y-99391000D01*
X164850000Y-99424333D01*
X164583334Y-99424333D01*
X165650000Y-99757667D02*
X165250000Y-99757667D01*
X165450000Y-99757667D02*
X165450000Y-99057667D01*
X165383334Y-99157667D01*
X165316667Y-99224333D01*
X165250000Y-99257667D01*
X175361667Y-93850667D02*
X175361667Y-94417333D01*
X175395000Y-94484000D01*
X175428333Y-94517333D01*
X175495000Y-94550667D01*
X175628333Y-94550667D01*
X175695000Y-94517333D01*
X175728333Y-94484000D01*
X175761667Y-94417333D01*
X175761667Y-93850667D01*
X176461666Y-94550667D02*
X176061666Y-94550667D01*
X176261666Y-94550667D02*
X176261666Y-93850667D01*
X176195000Y-93950667D01*
X176128333Y-94017333D01*
X176061666Y-94050667D01*
X168884667Y-83944667D02*
X168884667Y-84511333D01*
X168918000Y-84578000D01*
X168951333Y-84611333D01*
X169018000Y-84644667D01*
X169151333Y-84644667D01*
X169218000Y-84611333D01*
X169251333Y-84578000D01*
X169284667Y-84511333D01*
X169284667Y-83944667D01*
X169584666Y-84011333D02*
X169618000Y-83978000D01*
X169684666Y-83944667D01*
X169851333Y-83944667D01*
X169918000Y-83978000D01*
X169951333Y-84011333D01*
X169984666Y-84078000D01*
X169984666Y-84144667D01*
X169951333Y-84244667D01*
X169551333Y-84644667D01*
X169984666Y-84644667D01*
X158470667Y-80896667D02*
X158470667Y-81463333D01*
X158504000Y-81530000D01*
X158537333Y-81563333D01*
X158604000Y-81596667D01*
X158737333Y-81596667D01*
X158804000Y-81563333D01*
X158837333Y-81530000D01*
X158870667Y-81463333D01*
X158870667Y-80896667D01*
X159137333Y-80896667D02*
X159570666Y-80896667D01*
X159337333Y-81163333D01*
X159437333Y-81163333D01*
X159504000Y-81196667D01*
X159537333Y-81230000D01*
X159570666Y-81296667D01*
X159570666Y-81463333D01*
X159537333Y-81530000D01*
X159504000Y-81563333D01*
X159437333Y-81596667D01*
X159237333Y-81596667D01*
X159170666Y-81563333D01*
X159137333Y-81530000D01*
X174048000Y-100580000D02*
X174014666Y-100613333D01*
X173914666Y-100646667D01*
X173848000Y-100646667D01*
X173748000Y-100613333D01*
X173681333Y-100546667D01*
X173648000Y-100480000D01*
X173614666Y-100346667D01*
X173614666Y-100246667D01*
X173648000Y-100113333D01*
X173681333Y-100046667D01*
X173748000Y-99980000D01*
X173848000Y-99946667D01*
X173914666Y-99946667D01*
X174014666Y-99980000D01*
X174048000Y-100013333D01*
X174714666Y-100646667D02*
X174314666Y-100646667D01*
X174514666Y-100646667D02*
X174514666Y-99946667D01*
X174448000Y-100046667D01*
X174381333Y-100113333D01*
X174314666Y-100146667D01*
X175148000Y-99946667D02*
X175214667Y-99946667D01*
X175281333Y-99980000D01*
X175314667Y-100013333D01*
X175348000Y-100080000D01*
X175381333Y-100213333D01*
X175381333Y-100380000D01*
X175348000Y-100513333D01*
X175314667Y-100580000D01*
X175281333Y-100613333D01*
X175214667Y-100646667D01*
X175148000Y-100646667D01*
X175081333Y-100613333D01*
X175048000Y-100580000D01*
X175014667Y-100513333D01*
X174981333Y-100380000D01*
X174981333Y-100213333D01*
X175014667Y-100080000D01*
X175048000Y-100013333D01*
X175081333Y-99980000D01*
X175148000Y-99946667D01*
X173540000Y-106422000D02*
X173506666Y-106455333D01*
X173406666Y-106488667D01*
X173340000Y-106488667D01*
X173240000Y-106455333D01*
X173173333Y-106388667D01*
X173140000Y-106322000D01*
X173106666Y-106188667D01*
X173106666Y-106088667D01*
X173140000Y-105955333D01*
X173173333Y-105888667D01*
X173240000Y-105822000D01*
X173340000Y-105788667D01*
X173406666Y-105788667D01*
X173506666Y-105822000D01*
X173540000Y-105855333D01*
X174206666Y-106488667D02*
X173806666Y-106488667D01*
X174006666Y-106488667D02*
X174006666Y-105788667D01*
X173940000Y-105888667D01*
X173873333Y-105955333D01*
X173806666Y-105988667D01*
X174873333Y-106488667D02*
X174473333Y-106488667D01*
X174673333Y-106488667D02*
X174673333Y-105788667D01*
X174606667Y-105888667D01*
X174540000Y-105955333D01*
X174473333Y-105988667D01*
X175826000Y-108200000D02*
X175792666Y-108233333D01*
X175692666Y-108266667D01*
X175626000Y-108266667D01*
X175526000Y-108233333D01*
X175459333Y-108166667D01*
X175426000Y-108100000D01*
X175392666Y-107966667D01*
X175392666Y-107866667D01*
X175426000Y-107733333D01*
X175459333Y-107666667D01*
X175526000Y-107600000D01*
X175626000Y-107566667D01*
X175692666Y-107566667D01*
X175792666Y-107600000D01*
X175826000Y-107633333D01*
X176492666Y-108266667D02*
X176092666Y-108266667D01*
X176292666Y-108266667D02*
X176292666Y-107566667D01*
X176226000Y-107666667D01*
X176159333Y-107733333D01*
X176092666Y-107766667D01*
X176759333Y-107633333D02*
X176792667Y-107600000D01*
X176859333Y-107566667D01*
X177026000Y-107566667D01*
X177092667Y-107600000D01*
X177126000Y-107633333D01*
X177159333Y-107700000D01*
X177159333Y-107766667D01*
X177126000Y-107866667D01*
X176726000Y-108266667D01*
X177159333Y-108266667D01*
X177985000Y-108200000D02*
X177951666Y-108233333D01*
X177851666Y-108266667D01*
X177785000Y-108266667D01*
X177685000Y-108233333D01*
X177618333Y-108166667D01*
X177585000Y-108100000D01*
X177551666Y-107966667D01*
X177551666Y-107866667D01*
X177585000Y-107733333D01*
X177618333Y-107666667D01*
X177685000Y-107600000D01*
X177785000Y-107566667D01*
X177851666Y-107566667D01*
X177951666Y-107600000D01*
X177985000Y-107633333D01*
X178651666Y-108266667D02*
X178251666Y-108266667D01*
X178451666Y-108266667D02*
X178451666Y-107566667D01*
X178385000Y-107666667D01*
X178318333Y-107733333D01*
X178251666Y-107766667D01*
X178885000Y-107566667D02*
X179318333Y-107566667D01*
X179085000Y-107833333D01*
X179185000Y-107833333D01*
X179251667Y-107866667D01*
X179285000Y-107900000D01*
X179318333Y-107966667D01*
X179318333Y-108133333D01*
X179285000Y-108200000D01*
X179251667Y-108233333D01*
X179185000Y-108266667D01*
X178985000Y-108266667D01*
X178918333Y-108233333D01*
X178885000Y-108200000D01*
X169730000Y-103628000D02*
X169696666Y-103661333D01*
X169596666Y-103694667D01*
X169530000Y-103694667D01*
X169430000Y-103661333D01*
X169363333Y-103594667D01*
X169330000Y-103528000D01*
X169296666Y-103394667D01*
X169296666Y-103294667D01*
X169330000Y-103161333D01*
X169363333Y-103094667D01*
X169430000Y-103028000D01*
X169530000Y-102994667D01*
X169596666Y-102994667D01*
X169696666Y-103028000D01*
X169730000Y-103061333D01*
X170396666Y-103694667D02*
X169996666Y-103694667D01*
X170196666Y-103694667D02*
X170196666Y-102994667D01*
X170130000Y-103094667D01*
X170063333Y-103161333D01*
X169996666Y-103194667D01*
X170996667Y-103228000D02*
X170996667Y-103694667D01*
X170830000Y-102961333D02*
X170663333Y-103461333D01*
X171096667Y-103461333D01*
X184351587Y-103773420D02*
X184115885Y-103537718D01*
X184610859Y-103042744D01*
X184775851Y-104197684D02*
X184493008Y-103914842D01*
X184634429Y-104056263D02*
X185129404Y-103561288D01*
X185011553Y-103584859D01*
X184917273Y-103584858D01*
X184846561Y-103561288D01*
X182248877Y-105201745D02*
X181918893Y-105531728D01*
X182319587Y-104895331D02*
X181848183Y-105131033D01*
X182154596Y-105437447D01*
X182225307Y-105743860D02*
X182225307Y-105791000D01*
X182178166Y-105791001D01*
X182178166Y-105743859D01*
X182225307Y-105743860D01*
X182178166Y-105791001D01*
X182861702Y-105484587D02*
X183191685Y-105814571D01*
X182484579Y-106097413D01*
X183427388Y-106380256D02*
X183097405Y-106710240D01*
X183215256Y-106168124D02*
X182955983Y-106427397D01*
X182932413Y-106498107D01*
X182955983Y-106568818D01*
X183026694Y-106639529D01*
X183097405Y-106663098D01*
X183144545Y-106663099D01*
X152137334Y-106488667D02*
X152137334Y-105788667D01*
X152404000Y-105788667D01*
X152470667Y-105822000D01*
X152504000Y-105855333D01*
X152537334Y-105922000D01*
X152537334Y-106022000D01*
X152504000Y-106088667D01*
X152470667Y-106122000D01*
X152404000Y-106155333D01*
X152137334Y-106155333D01*
X152804000Y-105855333D02*
X152837334Y-105822000D01*
X152904000Y-105788667D01*
X153070667Y-105788667D01*
X153137334Y-105822000D01*
X153170667Y-105855333D01*
X153204000Y-105922000D01*
X153204000Y-105988667D01*
X153170667Y-106088667D01*
X152770667Y-106488667D01*
X153204000Y-106488667D01*
X172476334Y-86676667D02*
X172243000Y-86343333D01*
X172076334Y-86676667D02*
X172076334Y-85976667D01*
X172343000Y-85976667D01*
X172409667Y-86010000D01*
X172443000Y-86043333D01*
X172476334Y-86110000D01*
X172476334Y-86210000D01*
X172443000Y-86276667D01*
X172409667Y-86310000D01*
X172343000Y-86343333D01*
X172076334Y-86343333D01*
X172743000Y-86043333D02*
X172776334Y-86010000D01*
X172843000Y-85976667D01*
X173009667Y-85976667D01*
X173076334Y-86010000D01*
X173109667Y-86043333D01*
X173143000Y-86110000D01*
X173143000Y-86176667D01*
X173109667Y-86276667D01*
X172709667Y-86676667D01*
X173143000Y-86676667D01*
X180822667Y-101089667D02*
X180822667Y-101656333D01*
X180856000Y-101723000D01*
X180889333Y-101756333D01*
X180956000Y-101789667D01*
X181089333Y-101789667D01*
X181156000Y-101756333D01*
X181189333Y-101723000D01*
X181222667Y-101656333D01*
X181222667Y-101089667D01*
X181856000Y-101323000D02*
X181856000Y-101789667D01*
X181689333Y-101056333D02*
X181522666Y-101556333D01*
X181956000Y-101556333D01*
X163804667Y-107439667D02*
X163804667Y-108006333D01*
X163838000Y-108073000D01*
X163871333Y-108106333D01*
X163938000Y-108139667D01*
X164071333Y-108139667D01*
X164138000Y-108106333D01*
X164171333Y-108073000D01*
X164204667Y-108006333D01*
X164204667Y-107439667D01*
X164871333Y-107439667D02*
X164538000Y-107439667D01*
X164504666Y-107773000D01*
X164538000Y-107739667D01*
X164604666Y-107706333D01*
X164771333Y-107706333D01*
X164838000Y-107739667D01*
X164871333Y-107773000D01*
X164904666Y-107839667D01*
X164904666Y-108006333D01*
X164871333Y-108073000D01*
X164838000Y-108106333D01*
X164771333Y-108139667D01*
X164604666Y-108139667D01*
X164538000Y-108106333D01*
X164504666Y-108073000D01*
X180077334Y-92137667D02*
X180077334Y-91437667D01*
X180344000Y-91437667D01*
X180410667Y-91471000D01*
X180444000Y-91504333D01*
X180477334Y-91571000D01*
X180477334Y-91671000D01*
X180444000Y-91737667D01*
X180410667Y-91771000D01*
X180344000Y-91804333D01*
X180077334Y-91804333D01*
X180710667Y-91437667D02*
X181144000Y-91437667D01*
X180910667Y-91704333D01*
X181010667Y-91704333D01*
X181077334Y-91737667D01*
X181110667Y-91771000D01*
X181144000Y-91837667D01*
X181144000Y-92004333D01*
X181110667Y-92071000D01*
X181077334Y-92104333D01*
X181010667Y-92137667D01*
X180810667Y-92137667D01*
X180744000Y-92104333D01*
X180710667Y-92071000D01*
M02*
