G04 #@! TF.FileFunction,Soldermask,Top*
%FSLAX46Y46*%
G04 Gerber Fmt 4.6, Leading zero omitted, Abs format (unit mm)*
G04 Created by KiCad (PCBNEW (after 2015-mar-04 BZR unknown)-product) date Sat 21 Nov 2015 03:19:33 PM EST*
%MOMM*%
G01*
G04 APERTURE LIST*
%ADD10C,0.150000*%
%ADD11R,2.301240X0.500380*%
%ADD12R,2.499360X1.998980*%
%ADD13C,0.899160*%
%ADD14R,0.600000X0.500000*%
%ADD15R,0.500000X0.600000*%
%ADD16R,1.800000X1.230000*%
%ADD17R,0.800000X0.750000*%
%ADD18R,1.727200X2.032000*%
%ADD19O,1.727200X2.032000*%
%ADD20R,0.400000X0.600000*%
%ADD21R,1.100000X1.000000*%
%ADD22R,1.300000X0.250000*%
%ADD23R,0.250000X1.300000*%
%ADD24R,0.650000X1.060000*%
%ADD25R,0.750000X0.800000*%
%ADD26R,0.600000X0.400000*%
%ADD27R,0.700000X0.250000*%
%ADD28R,0.610000X0.710000*%
%ADD29R,0.650000X0.300000*%
%ADD30R,0.775000X1.240000*%
%ADD31R,1.727200X1.727200*%
%ADD32O,1.727200X1.727200*%
G04 APERTURE END LIST*
D10*
D11*
X152420320Y-89077800D03*
X152420320Y-89877900D03*
X152420320Y-90678000D03*
X152420320Y-91478100D03*
X152420320Y-92278200D03*
D12*
X152321260Y-86227920D03*
X146822160Y-86227920D03*
X152321260Y-95128080D03*
X146822160Y-95128080D03*
D13*
X149821900Y-88478360D03*
X149821900Y-92877640D03*
D14*
X172424000Y-98806000D03*
X173524000Y-98806000D03*
X167936000Y-97917000D03*
X166836000Y-97917000D03*
D15*
X173609000Y-88731000D03*
X173609000Y-89831000D03*
D14*
X161756000Y-82677000D03*
X162856000Y-82677000D03*
D15*
X158496000Y-95038000D03*
X158496000Y-93938000D03*
X156845000Y-95038000D03*
X156845000Y-93938000D03*
D16*
X158155000Y-85852000D03*
X155535000Y-85852000D03*
D17*
X154039000Y-83693000D03*
X152539000Y-83693000D03*
X155714000Y-79883000D03*
X157214000Y-79883000D03*
D18*
X148590000Y-99568000D03*
D19*
X151130000Y-99568000D03*
X153670000Y-99568000D03*
X156210000Y-99568000D03*
X158750000Y-99568000D03*
X161290000Y-99568000D03*
D20*
X164650000Y-97917000D03*
X165550000Y-97917000D03*
D21*
X172024000Y-96635000D03*
X173924000Y-96635000D03*
X173924000Y-95135000D03*
X172024000Y-95135000D03*
D22*
X169196000Y-92920000D03*
X169196000Y-92420000D03*
X169196000Y-91920000D03*
X169196000Y-91420000D03*
X169196000Y-90920000D03*
X169196000Y-90420000D03*
X169196000Y-89920000D03*
X169196000Y-89420000D03*
X169196000Y-88920000D03*
X169196000Y-88420000D03*
X169196000Y-87920000D03*
X169196000Y-87420000D03*
D23*
X167596000Y-85820000D03*
X167096000Y-85820000D03*
X166596000Y-85820000D03*
X166096000Y-85820000D03*
X165596000Y-85820000D03*
X165096000Y-85820000D03*
X164596000Y-85820000D03*
X164096000Y-85820000D03*
X163596000Y-85820000D03*
X163096000Y-85820000D03*
X162596000Y-85820000D03*
X162096000Y-85820000D03*
D22*
X160496000Y-87420000D03*
X160496000Y-87920000D03*
X160496000Y-88420000D03*
X160496000Y-88920000D03*
X160496000Y-89420000D03*
X160496000Y-89920000D03*
X160496000Y-90420000D03*
X160496000Y-90920000D03*
X160496000Y-91420000D03*
X160496000Y-91920000D03*
X160496000Y-92420000D03*
X160496000Y-92920000D03*
D23*
X162096000Y-94520000D03*
X162596000Y-94520000D03*
X163096000Y-94520000D03*
X163596000Y-94520000D03*
X164096000Y-94520000D03*
X164596000Y-94520000D03*
X165096000Y-94520000D03*
X165596000Y-94520000D03*
X166096000Y-94520000D03*
X166596000Y-94520000D03*
X167096000Y-94520000D03*
X167596000Y-94520000D03*
D24*
X155641000Y-83650000D03*
X156591000Y-83650000D03*
X157541000Y-83650000D03*
X157541000Y-81450000D03*
X155641000Y-81450000D03*
D17*
X176415000Y-100330000D03*
X177915000Y-100330000D03*
D25*
X173990000Y-103390000D03*
X173990000Y-104890000D03*
X176403000Y-106414000D03*
X176403000Y-104914000D03*
X178054000Y-106414000D03*
X178054000Y-104914000D03*
D15*
X170180000Y-104606000D03*
X170180000Y-105706000D03*
D10*
G36*
X180239514Y-105808677D02*
X182643677Y-103404514D01*
X183336642Y-104097479D01*
X180932479Y-106501642D01*
X180239514Y-105808677D01*
X180239514Y-105808677D01*
G37*
G36*
X181915358Y-107484521D02*
X184319521Y-105080358D01*
X185012486Y-105773323D01*
X182608323Y-108177486D01*
X181915358Y-107484521D01*
X181915358Y-107484521D01*
G37*
D18*
X153670000Y-103759000D03*
D19*
X156210000Y-103759000D03*
X158750000Y-103759000D03*
X161290000Y-103759000D03*
D26*
X171069000Y-87318000D03*
X171069000Y-86418000D03*
D27*
X178018000Y-101989000D03*
X178018000Y-102489000D03*
X178018000Y-102989000D03*
X179868000Y-102989000D03*
X179868000Y-102489000D03*
X179868000Y-101989000D03*
D28*
X178943000Y-102844000D03*
X178943000Y-102134000D03*
D29*
X164312000Y-104410000D03*
X164312000Y-104910000D03*
X164312000Y-105410000D03*
X164312000Y-105910000D03*
X164312000Y-106410000D03*
X167412000Y-106410000D03*
X167412000Y-105910000D03*
X167412000Y-105410000D03*
X167412000Y-104910000D03*
X167412000Y-104410000D03*
D30*
X166249500Y-106030000D03*
X166249500Y-104790000D03*
X165474500Y-106030000D03*
X165474500Y-104790000D03*
D31*
X183769000Y-94234000D03*
D32*
X183769000Y-96774000D03*
X181229000Y-94234000D03*
X181229000Y-96774000D03*
M02*
